M48
;DRILL file {KiCad 4.0.5-e0-6337~49~ubuntu16.04.1} date Sat May 13 16:49:59 2017
;FORMAT={-:-/ absolute / metric / decimal}
FMAT,2
METRIC,TZ
T1C0.800
T2C0.900
T3C1.000
T4C1.001
%
G90
G05
M71
T1
X-128.269Y0.006
X-125.769Y0.006
X-92.669Y0.006
X-90.169Y0.006
X-76.478Y0.004
X-73.978Y0.004
X-40.878Y0.004
X-38.378Y0.004
T2
X-125.729Y22.866
X-123.189Y22.866
X-120.649Y33.026
X-118.853Y31.23
X-109.219Y38.106
X-109.219Y35.566
X-99.585Y31.23
X-97.789Y33.026
X-95.249Y22.866
X-92.709Y22.866
X-73.938Y22.864
X-71.398Y22.864
X-68.858Y33.024
X-67.062Y31.228
X-57.428Y38.104
X-57.428Y35.564
X-47.794Y31.228
X-45.998Y33.024
X-43.458Y22.864
X-40.918Y22.864
T3
X-129.539Y-20.314
X-126.999Y-17.774
X-125.729Y27.946
X-124.459Y-20.314
X-121.919Y2.546
X-118.109Y0.006
X-114.299Y39.376
X-110.489Y-19.044
X-107.949Y-19.044
X-104.139Y39.376
X-99.059Y2.546
X-96.519Y0.006
X-96.519Y-17.774
X-93.979Y36.836
X-93.979Y-20.314
X-91.439Y-17.774
X-88.899Y-13.964
X-88.899Y-20.314
X-77.748Y-20.316
X-75.208Y-17.776
X-73.938Y27.944
X-72.668Y-20.316
X-70.128Y2.544
X-66.318Y0.004
X-62.508Y39.374
X-58.698Y-19.046
X-56.158Y-19.046
X-52.348Y39.374
X-47.268Y2.544
X-44.728Y0.004
X-44.728Y-17.776
X-42.188Y36.834
X-42.188Y-20.316
X-39.648Y-17.776
X-37.108Y-13.966
X-37.108Y-20.316
T4
X-128.269Y16.516
X-128.269Y6.356
X-123.189Y16.516
X-123.189Y6.356
X-95.249Y16.516
X-95.249Y6.356
X-90.169Y16.516
X-90.169Y6.356
X-76.478Y16.514
X-76.478Y6.354
X-71.398Y16.514
X-71.398Y6.354
X-43.458Y16.514
X-43.458Y6.354
X-38.378Y16.514
X-38.378Y6.354
T0
M30
