G04 #@! TF.FileFunction,Copper,L1,Top,Signal*
%FSLAX46Y46*%
G04 Gerber Fmt 4.6, Leading zero omitted, Abs format (unit mm)*
G04 Created by KiCad (PCBNEW 4.0.5-e0-6337~49~ubuntu16.04.1) date Sat May 13 16:51:14 2017*
%MOMM*%
%LPD*%
G01*
G04 APERTURE LIST*
%ADD10C,0.100000*%
%ADD11C,1.800000*%
%ADD12R,1.800000X1.800000*%
%ADD13O,2.000000X3.000000*%
%ADD14R,3.000000X2.000000*%
%ADD15O,3.000000X2.000000*%
%ADD16C,1.998980*%
%ADD17R,1.600000X1.600000*%
%ADD18C,1.600000*%
%ADD19R,1.700000X1.700000*%
%ADD20O,1.700000X1.700000*%
%ADD21C,2.000000*%
%ADD22C,1.000000*%
%ADD23C,1.500000*%
%ADD24C,0.254000*%
G04 APERTURE END LIST*
D10*
G36*
X-70130772Y33024160D02*
X-68857980Y34296952D01*
X-67585188Y33024160D01*
X-68857980Y31751368D01*
X-70130772Y33024160D01*
X-70130772Y33024160D01*
G37*
D11*
X-67061929Y31228109D03*
D10*
G36*
X-45997980Y34296952D02*
X-44725188Y33024160D01*
X-45997980Y31751368D01*
X-47270772Y33024160D01*
X-45997980Y34296952D01*
X-45997980Y34296952D01*
G37*
D11*
X-47794031Y31228109D03*
D12*
X-73937980Y22864160D03*
D11*
X-71397980Y22864160D03*
D12*
X-57427980Y38104160D03*
D11*
X-57427980Y35564160D03*
D12*
X-40917980Y22864160D03*
D11*
X-43457980Y22864160D03*
D13*
X-75207980Y-17775840D03*
D14*
X-72667980Y-20315840D03*
D15*
X-77747980Y-20315840D03*
D13*
X-39647980Y-17775840D03*
D14*
X-37107980Y-20315840D03*
D15*
X-42187980Y-20315840D03*
D16*
X-76477980Y16514160D03*
X-76477980Y6354160D03*
X-38377980Y16514160D03*
X-38377980Y6354160D03*
X-71397980Y16514160D03*
X-71397980Y6354160D03*
X-43457980Y16514160D03*
X-43457980Y6354160D03*
D17*
X-76477980Y4160D03*
D18*
X-73977980Y4160D03*
D17*
X-38377980Y4160D03*
D18*
X-40877980Y4160D03*
D19*
X-58697980Y-19045840D03*
D20*
X-56157980Y-19045840D03*
D10*
G36*
X-121921432Y33025980D02*
X-120648640Y34298772D01*
X-119375848Y33025980D01*
X-120648640Y31753188D01*
X-121921432Y33025980D01*
X-121921432Y33025980D01*
G37*
D11*
X-118852589Y31229929D03*
D10*
G36*
X-97788640Y34298772D02*
X-96515848Y33025980D01*
X-97788640Y31753188D01*
X-99061432Y33025980D01*
X-97788640Y34298772D01*
X-97788640Y34298772D01*
G37*
D11*
X-99584691Y31229929D03*
D12*
X-125728640Y22865980D03*
D11*
X-123188640Y22865980D03*
D12*
X-109218640Y38105980D03*
D11*
X-109218640Y35565980D03*
D12*
X-92708640Y22865980D03*
D11*
X-95248640Y22865980D03*
D13*
X-126998640Y-17774020D03*
D14*
X-124458640Y-20314020D03*
D15*
X-129538640Y-20314020D03*
D13*
X-91438640Y-17774020D03*
D14*
X-88898640Y-20314020D03*
D15*
X-93978640Y-20314020D03*
D16*
X-128268640Y16515980D03*
X-128268640Y6355980D03*
X-90168640Y16515980D03*
X-90168640Y6355980D03*
X-123188640Y16515980D03*
X-123188640Y6355980D03*
X-95248640Y16515980D03*
X-95248640Y6355980D03*
D17*
X-128268640Y5980D03*
D18*
X-125768640Y5980D03*
D17*
X-90168640Y5980D03*
D18*
X-92668640Y5980D03*
D19*
X-110488640Y-19044020D03*
D20*
X-107948640Y-19044020D03*
D21*
X-42187980Y36834160D03*
X-52347980Y39374160D03*
X-62507980Y39374160D03*
X-73937980Y27944160D03*
X-93978640Y36835980D03*
X-104138640Y39375980D03*
X-114298640Y39375980D03*
X-125728640Y27945980D03*
X-66317980Y4160D03*
X-44727980Y4160D03*
X-118108640Y5980D03*
X-96518640Y5980D03*
X-47267980Y2544160D03*
X-70127980Y2544160D03*
X-99058640Y2545980D03*
X-121918640Y2545980D03*
X-37107980Y-13965840D03*
X-44727980Y-17775840D03*
X-88898640Y-13964020D03*
X-96518640Y-17774020D03*
D22*
X-57427980Y38104160D02*
X-53617980Y38104160D01*
X-40917980Y35564160D02*
X-40917980Y22864160D01*
X-42187980Y36834160D02*
X-40917980Y35564160D01*
X-53617980Y38104160D02*
X-52347980Y39374160D01*
X-73937980Y22864160D02*
X-73937980Y27944160D01*
X-61237980Y38104160D02*
X-57427980Y38104160D01*
X-62507980Y39374160D02*
X-61237980Y38104160D01*
X-40917980Y22864160D02*
X-38377980Y20324160D01*
X-38377980Y20324160D02*
X-38377980Y16514160D01*
X-109218640Y38105980D02*
X-105408640Y38105980D01*
X-92708640Y35565980D02*
X-92708640Y22865980D01*
X-93978640Y36835980D02*
X-92708640Y35565980D01*
X-105408640Y38105980D02*
X-104138640Y39375980D01*
X-125728640Y22865980D02*
X-125728640Y27945980D01*
X-113028640Y38105980D02*
X-109218640Y38105980D01*
X-114298640Y39375980D02*
X-113028640Y38105980D01*
X-92708640Y22865980D02*
X-90168640Y20325980D01*
X-90168640Y20325980D02*
X-90168640Y16515980D01*
X-57427980Y35564160D02*
X-62725878Y35564160D01*
X-62725878Y35564160D02*
X-67061929Y31228109D01*
X-47794031Y31228109D02*
X-48011929Y31228109D01*
X-48011929Y31228109D02*
X-52347980Y35564160D01*
X-52347980Y35564160D02*
X-57427980Y35564160D01*
X-43457980Y16514160D02*
X-43457980Y22864160D01*
X-43457980Y22864160D02*
X-43457980Y26674160D01*
X-43457980Y26674160D02*
X-47794031Y31010211D01*
X-47794031Y31010211D02*
X-47794031Y31228109D01*
X-71397980Y16514160D02*
X-71397980Y22864160D01*
X-71397980Y22864160D02*
X-67061929Y27200211D01*
X-67061929Y27200211D02*
X-67061929Y31228109D01*
D23*
X-71397980Y16514160D02*
X-65047980Y16514160D01*
X-63777980Y-13965840D02*
X-58697980Y-19045840D01*
X-63777980Y15244160D02*
X-63777980Y-13965840D01*
X-65047980Y16514160D02*
X-63777980Y15244160D01*
D22*
X-109218640Y35565980D02*
X-114516538Y35565980D01*
X-114516538Y35565980D02*
X-118852589Y31229929D01*
X-99584691Y31229929D02*
X-99802589Y31229929D01*
X-99802589Y31229929D02*
X-104138640Y35565980D01*
X-104138640Y35565980D02*
X-109218640Y35565980D01*
X-95248640Y16515980D02*
X-95248640Y22865980D01*
X-95248640Y22865980D02*
X-95248640Y26675980D01*
X-95248640Y26675980D02*
X-99584691Y31012031D01*
X-99584691Y31012031D02*
X-99584691Y31229929D01*
X-123188640Y16515980D02*
X-123188640Y22865980D01*
X-123188640Y22865980D02*
X-118852589Y27202031D01*
X-118852589Y27202031D02*
X-118852589Y31229929D01*
D23*
X-123188640Y16515980D02*
X-116838640Y16515980D01*
X-115568640Y-13964020D02*
X-110488640Y-19044020D01*
X-115568640Y15245980D02*
X-115568640Y-13964020D01*
X-116838640Y16515980D02*
X-115568640Y15245980D01*
D22*
X-76477980Y16514160D02*
X-77747980Y17784160D01*
X-76477980Y33024160D02*
X-68857980Y33024160D01*
X-77747980Y31754160D02*
X-76477980Y33024160D01*
X-77747980Y17784160D02*
X-77747980Y31754160D01*
X-68857980Y33024160D02*
X-68857980Y40644160D01*
X-68857980Y40644160D02*
X-62507980Y46994160D01*
X-62507980Y46994160D02*
X-51077980Y46994160D01*
X-51077980Y46994160D02*
X-45997980Y41914160D01*
X-45997980Y41914160D02*
X-45997980Y33024160D01*
X-128268640Y16515980D02*
X-129538640Y17785980D01*
X-128268640Y33025980D02*
X-120648640Y33025980D01*
X-129538640Y31755980D02*
X-128268640Y33025980D01*
X-129538640Y17785980D02*
X-129538640Y31755980D01*
X-120648640Y33025980D02*
X-120648640Y40645980D01*
X-120648640Y40645980D02*
X-114298640Y46995980D01*
X-114298640Y46995980D02*
X-102868640Y46995980D01*
X-102868640Y46995980D02*
X-97788640Y41915980D01*
X-97788640Y41915980D02*
X-97788640Y33025980D01*
X-75207980Y-17775840D02*
X-75207980Y-13965840D01*
X-66317980Y-5075840D02*
X-66317980Y4160D01*
X-75207980Y-13965840D02*
X-66317980Y-5075840D01*
D23*
X-40877980Y4160D02*
X-44727980Y4160D01*
X-71397980Y6354160D02*
X-67587980Y6354160D01*
X-66317980Y5084160D02*
X-66317980Y4160D01*
X-67587980Y6354160D02*
X-66317980Y5084160D01*
D22*
X-126998640Y-17774020D02*
X-126998640Y-13964020D01*
X-118108640Y-5074020D02*
X-118108640Y5980D01*
X-126998640Y-13964020D02*
X-118108640Y-5074020D01*
D23*
X-92668640Y5980D02*
X-96518640Y5980D01*
X-123188640Y6355980D02*
X-119378640Y6355980D01*
X-118108640Y5085980D02*
X-118108640Y5980D01*
X-119378640Y6355980D02*
X-118108640Y5085980D01*
D22*
X-76477980Y4160D02*
X-76477980Y-11425840D01*
X-77747980Y-12695840D02*
X-77747980Y-20315840D01*
X-76477980Y-11425840D02*
X-77747980Y-12695840D01*
D23*
X-76477980Y4160D02*
X-76477980Y6354160D01*
D22*
X-128268640Y5980D02*
X-128268640Y-11424020D01*
X-129538640Y-12694020D02*
X-129538640Y-20314020D01*
X-128268640Y-11424020D02*
X-129538640Y-12694020D01*
D23*
X-128268640Y5980D02*
X-128268640Y6355980D01*
D22*
X-39647980Y-17775840D02*
X-39647980Y-11425840D01*
X-47267980Y-3805840D02*
X-47267980Y2544160D01*
X-39647980Y-11425840D02*
X-47267980Y-3805840D01*
D23*
X-73977980Y4160D02*
X-72667980Y4160D01*
X-72667980Y4160D02*
X-70127980Y2544160D01*
X-43457980Y6354160D02*
X-45997980Y6354160D01*
X-47267980Y5084160D02*
X-47267980Y2544160D01*
X-45997980Y6354160D02*
X-47267980Y5084160D01*
D22*
X-91438640Y-17774020D02*
X-91438640Y-11424020D01*
X-99058640Y-3804020D02*
X-99058640Y2545980D01*
X-91438640Y-11424020D02*
X-99058640Y-3804020D01*
D23*
X-125768640Y5980D02*
X-124458640Y5980D01*
X-124458640Y5980D02*
X-121918640Y2545980D01*
X-95248640Y6355980D02*
X-97788640Y6355980D01*
X-99058640Y5085980D02*
X-99058640Y2545980D01*
X-97788640Y6355980D02*
X-99058640Y5085980D01*
D22*
X-42187980Y-20315840D02*
X-44727980Y-17775840D01*
X-38377980Y-2535840D02*
X-38377980Y4160D01*
X-37107980Y-3805840D02*
X-38377980Y-2535840D01*
X-37107980Y-13965840D02*
X-37107980Y-3805840D01*
D23*
X-38377980Y4160D02*
X-38377980Y6354160D01*
D22*
X-93978640Y-20314020D02*
X-96518640Y-17774020D01*
X-90168640Y-2534020D02*
X-90168640Y5980D01*
X-88898640Y-3804020D02*
X-90168640Y-2534020D01*
X-88898640Y-13964020D02*
X-88898640Y-3804020D01*
D23*
X-90168640Y5980D02*
X-90168640Y6355980D01*
D24*
G36*
X-34007980Y-23415840D02*
X-80847980Y-23415840D01*
X-80847980Y-20315840D01*
X-79924807Y-20315840D01*
X-79800350Y-20941527D01*
X-79445927Y-21471960D01*
X-78915494Y-21826383D01*
X-78289807Y-21950840D01*
X-77206153Y-21950840D01*
X-76580466Y-21826383D01*
X-76050033Y-21471960D01*
X-75695610Y-20941527D01*
X-75627993Y-20601590D01*
X-74802980Y-20601590D01*
X-74802980Y-21442149D01*
X-74706307Y-21675538D01*
X-74527679Y-21854167D01*
X-74294290Y-21950840D01*
X-72953730Y-21950840D01*
X-72794980Y-21792090D01*
X-72794980Y-20442840D01*
X-72540980Y-20442840D01*
X-72540980Y-21792090D01*
X-72382230Y-21950840D01*
X-71041670Y-21950840D01*
X-70808281Y-21854167D01*
X-70629653Y-21675538D01*
X-70532980Y-21442149D01*
X-70532980Y-20601590D01*
X-70691730Y-20442840D01*
X-72540980Y-20442840D01*
X-72794980Y-20442840D01*
X-74644230Y-20442840D01*
X-74802980Y-20601590D01*
X-75627993Y-20601590D01*
X-75571153Y-20315840D01*
X-75661330Y-19862490D01*
X-75207980Y-19952667D01*
X-74802980Y-19872107D01*
X-74802980Y-20030090D01*
X-74644230Y-20188840D01*
X-72794980Y-20188840D01*
X-72794980Y-18839590D01*
X-72540980Y-18839590D01*
X-72540980Y-20188840D01*
X-70691730Y-20188840D01*
X-70532980Y-20030090D01*
X-70532980Y-19189531D01*
X-70629653Y-18956142D01*
X-70808281Y-18777513D01*
X-71041670Y-18680840D01*
X-72382230Y-18680840D01*
X-72540980Y-18839590D01*
X-72794980Y-18839590D01*
X-72953730Y-18680840D01*
X-73645220Y-18680840D01*
X-73572980Y-18317667D01*
X-73572980Y-17234013D01*
X-73697437Y-16608326D01*
X-74051860Y-16077893D01*
X-74072980Y-16063781D01*
X-74072980Y-14435972D01*
X-65515413Y-5878406D01*
X-65269376Y-5510185D01*
X-65182980Y-5075840D01*
X-65182980Y-1173044D01*
X-65162980Y-1153079D01*
X-65162980Y-13965840D01*
X-65057553Y-14495857D01*
X-64793672Y-14890783D01*
X-64757323Y-14945183D01*
X-60195420Y-19507086D01*
X-60195420Y-19895840D01*
X-60151142Y-20131157D01*
X-60012070Y-20347281D01*
X-59799870Y-20492271D01*
X-59547980Y-20543280D01*
X-57847980Y-20543280D01*
X-57612663Y-20499002D01*
X-57396539Y-20359930D01*
X-57251549Y-20147730D01*
X-57229679Y-20039733D01*
X-56924904Y-20317485D01*
X-56514870Y-20487316D01*
X-56284980Y-20365995D01*
X-56284980Y-19172840D01*
X-56030980Y-19172840D01*
X-56030980Y-20365995D01*
X-55801090Y-20487316D01*
X-55391056Y-20317485D01*
X-54962797Y-19927198D01*
X-54716494Y-19402732D01*
X-54837161Y-19172840D01*
X-56030980Y-19172840D01*
X-56284980Y-19172840D01*
X-56304980Y-19172840D01*
X-56304980Y-18918840D01*
X-56284980Y-18918840D01*
X-56284980Y-17725685D01*
X-56030980Y-17725685D01*
X-56030980Y-18918840D01*
X-54837161Y-18918840D01*
X-54716494Y-18688948D01*
X-54962797Y-18164482D01*
X-55391056Y-17774195D01*
X-55801090Y-17604364D01*
X-56030980Y-17725685D01*
X-56284980Y-17725685D01*
X-56514870Y-17604364D01*
X-56924904Y-17774195D01*
X-57227917Y-18050341D01*
X-57244818Y-17960523D01*
X-57383890Y-17744399D01*
X-57596090Y-17599409D01*
X-57847980Y-17548400D01*
X-58236734Y-17548400D01*
X-62392980Y-13392154D01*
X-62392980Y2220365D01*
X-48903264Y2220365D01*
X-48654874Y1619217D01*
X-48402980Y1366882D01*
X-48402980Y-3805840D01*
X-48316583Y-4240186D01*
X-48070546Y-4608406D01*
X-40782980Y-11895972D01*
X-40782980Y-16063781D01*
X-40804100Y-16077893D01*
X-41158523Y-16608326D01*
X-41282980Y-17234013D01*
X-41282980Y-18317667D01*
X-41192803Y-18771017D01*
X-41646153Y-18680840D01*
X-42217847Y-18680840D01*
X-43093005Y-17805683D01*
X-43092696Y-17452045D01*
X-43341086Y-16850897D01*
X-43800617Y-16390562D01*
X-44401332Y-16141124D01*
X-45051775Y-16140556D01*
X-45652923Y-16388946D01*
X-46113258Y-16848477D01*
X-46362696Y-17449192D01*
X-46363264Y-18099635D01*
X-46114874Y-18700783D01*
X-45655343Y-19161118D01*
X-45054628Y-19410556D01*
X-44698085Y-19410867D01*
X-44269957Y-19838996D01*
X-44364807Y-20315840D01*
X-44240350Y-20941527D01*
X-43885927Y-21471960D01*
X-43355494Y-21826383D01*
X-42729807Y-21950840D01*
X-41646153Y-21950840D01*
X-41020466Y-21826383D01*
X-40490033Y-21471960D01*
X-40135610Y-20941527D01*
X-40067993Y-20601590D01*
X-39242980Y-20601590D01*
X-39242980Y-21442149D01*
X-39146307Y-21675538D01*
X-38967679Y-21854167D01*
X-38734290Y-21950840D01*
X-37393730Y-21950840D01*
X-37234980Y-21792090D01*
X-37234980Y-20442840D01*
X-36980980Y-20442840D01*
X-36980980Y-21792090D01*
X-36822230Y-21950840D01*
X-35481670Y-21950840D01*
X-35248281Y-21854167D01*
X-35069653Y-21675538D01*
X-34972980Y-21442149D01*
X-34972980Y-20601590D01*
X-35131730Y-20442840D01*
X-36980980Y-20442840D01*
X-37234980Y-20442840D01*
X-39084230Y-20442840D01*
X-39242980Y-20601590D01*
X-40067993Y-20601590D01*
X-40011153Y-20315840D01*
X-40101330Y-19862490D01*
X-39647980Y-19952667D01*
X-39242980Y-19872107D01*
X-39242980Y-20030090D01*
X-39084230Y-20188840D01*
X-37234980Y-20188840D01*
X-37234980Y-18839590D01*
X-36980980Y-18839590D01*
X-36980980Y-20188840D01*
X-35131730Y-20188840D01*
X-34972980Y-20030090D01*
X-34972980Y-19189531D01*
X-35069653Y-18956142D01*
X-35248281Y-18777513D01*
X-35481670Y-18680840D01*
X-36822230Y-18680840D01*
X-36980980Y-18839590D01*
X-37234980Y-18839590D01*
X-37393730Y-18680840D01*
X-38085220Y-18680840D01*
X-38012980Y-18317667D01*
X-38012980Y-17234013D01*
X-38137437Y-16608326D01*
X-38491860Y-16077893D01*
X-38512980Y-16063781D01*
X-38512980Y-14846963D01*
X-38494874Y-14890783D01*
X-38035343Y-15351118D01*
X-37434628Y-15600556D01*
X-36784185Y-15601124D01*
X-36183037Y-15352734D01*
X-35722702Y-14893203D01*
X-35473264Y-14292488D01*
X-35472696Y-13642045D01*
X-35721086Y-13040897D01*
X-35972980Y-12788562D01*
X-35972980Y-3805840D01*
X-36059377Y-3371494D01*
X-36305414Y-3003274D01*
X-37242980Y-2065708D01*
X-37242980Y-1334858D01*
X-37126539Y-1259930D01*
X-36981549Y-1047730D01*
X-36930540Y-795840D01*
X-36930540Y804160D01*
X-36974818Y1039477D01*
X-36992980Y1067702D01*
X-36992980Y5427458D01*
X-36743774Y6027613D01*
X-36743206Y6677854D01*
X-36991518Y7278815D01*
X-37450907Y7739006D01*
X-38051433Y7988366D01*
X-38701674Y7988934D01*
X-39302635Y7740622D01*
X-39762826Y7281233D01*
X-40012186Y6680707D01*
X-40012754Y6030466D01*
X-39764442Y5429505D01*
X-39762980Y5428040D01*
X-39762980Y1072780D01*
X-39774411Y1056050D01*
X-39795660Y951119D01*
X-40064057Y1219984D01*
X-40591289Y1438910D01*
X-41162167Y1439408D01*
X-41283777Y1389160D01*
X-43800339Y1389160D01*
X-43800617Y1389438D01*
X-44401332Y1638876D01*
X-45051775Y1639444D01*
X-45652923Y1391054D01*
X-46113258Y931523D01*
X-46132980Y884027D01*
X-46132980Y1366956D01*
X-45882702Y1616797D01*
X-45633264Y2217512D01*
X-45632696Y2867955D01*
X-45881086Y3469103D01*
X-45882980Y3471000D01*
X-45882980Y4510474D01*
X-45424294Y4969160D01*
X-44384682Y4969160D01*
X-43784527Y4719954D01*
X-43134286Y4719386D01*
X-42533325Y4967698D01*
X-42073134Y5427087D01*
X-41823774Y6027613D01*
X-41823206Y6677854D01*
X-42071518Y7278815D01*
X-42530907Y7739006D01*
X-43131433Y7988366D01*
X-43781674Y7988934D01*
X-44382635Y7740622D01*
X-44384100Y7739160D01*
X-45997980Y7739160D01*
X-46527997Y7633733D01*
X-46977323Y7333503D01*
X-48247323Y6063503D01*
X-48547553Y5614177D01*
X-48652980Y5084160D01*
X-48652980Y3471801D01*
X-48653258Y3471523D01*
X-48902696Y2870808D01*
X-48903264Y2220365D01*
X-62392980Y2220365D01*
X-62392980Y15244160D01*
X-62498407Y15774177D01*
X-62798637Y16223503D01*
X-64068637Y17493503D01*
X-64517963Y17793733D01*
X-65047980Y17899160D01*
X-70262980Y17899160D01*
X-70262980Y21828255D01*
X-70097429Y21993517D01*
X-69863247Y22557490D01*
X-69863041Y22793967D01*
X-66259363Y26397645D01*
X-66151628Y26558882D01*
X-66013326Y26765865D01*
X-65926929Y27200211D01*
X-65926929Y30192204D01*
X-65761378Y30357466D01*
X-65527196Y30921439D01*
X-65526990Y31157916D01*
X-62255746Y34429160D01*
X-58463885Y34429160D01*
X-58298623Y34263609D01*
X-57734650Y34029427D01*
X-57123989Y34028895D01*
X-56559609Y34262092D01*
X-56392249Y34429160D01*
X-52818112Y34429160D01*
X-49329282Y30940330D01*
X-49329296Y30924118D01*
X-49096099Y30359738D01*
X-48664674Y29927558D01*
X-48100701Y29693376D01*
X-48082312Y29693360D01*
X-44592980Y26204028D01*
X-44592980Y23900065D01*
X-44758531Y23734803D01*
X-44992713Y23170830D01*
X-44993245Y22560169D01*
X-44760048Y21995789D01*
X-44592980Y21828429D01*
X-44592980Y17690644D01*
X-44842826Y17441233D01*
X-45092186Y16840707D01*
X-45092754Y16190466D01*
X-44844442Y15589505D01*
X-44385053Y15129314D01*
X-43784527Y14879954D01*
X-43134286Y14879386D01*
X-42533325Y15127698D01*
X-42073134Y15587087D01*
X-41823774Y16187613D01*
X-41823206Y16837854D01*
X-42071518Y17438815D01*
X-42322980Y17690716D01*
X-42322980Y21576295D01*
X-42282070Y21512719D01*
X-42069870Y21367729D01*
X-41817980Y21316720D01*
X-40975672Y21316720D01*
X-39512980Y19854027D01*
X-39512980Y17690644D01*
X-39762826Y17441233D01*
X-40012186Y16840707D01*
X-40012754Y16190466D01*
X-39764442Y15589505D01*
X-39305053Y15129314D01*
X-38704527Y14879954D01*
X-38054286Y14879386D01*
X-37453325Y15127698D01*
X-36993134Y15587087D01*
X-36743774Y16187613D01*
X-36743206Y16837854D01*
X-36991518Y17438815D01*
X-37242980Y17690716D01*
X-37242980Y20324160D01*
X-37329377Y20758506D01*
X-37575414Y21126727D01*
X-39370540Y22921852D01*
X-39370540Y23764160D01*
X-39414818Y23999477D01*
X-39553890Y24215601D01*
X-39766090Y24360591D01*
X-39782980Y24364011D01*
X-39782980Y35564160D01*
X-39869377Y35998506D01*
X-40115414Y36366726D01*
X-40553005Y36804317D01*
X-40552696Y37157955D01*
X-40801086Y37759103D01*
X-41260617Y38219438D01*
X-41861332Y38468876D01*
X-42511775Y38469444D01*
X-43112923Y38221054D01*
X-43573258Y37761523D01*
X-43822696Y37160808D01*
X-43823264Y36510365D01*
X-43574874Y35909217D01*
X-43115343Y35448882D01*
X-42514628Y35199444D01*
X-42158085Y35199133D01*
X-42052980Y35094028D01*
X-42052980Y24367382D01*
X-42053297Y24367322D01*
X-42269421Y24228250D01*
X-42322980Y24149864D01*
X-42322980Y26674160D01*
X-42409377Y27108506D01*
X-42655414Y27476726D01*
X-46259159Y31080471D01*
X-46259091Y31159161D01*
X-46258086Y31158474D01*
X-46006924Y31103990D01*
X-45754353Y31151514D01*
X-45540171Y31293559D01*
X-44267379Y32566351D01*
X-44132294Y32764054D01*
X-44077810Y33015216D01*
X-44125334Y33267787D01*
X-44267379Y33481969D01*
X-44862980Y34077570D01*
X-44862980Y41914160D01*
X-44949377Y42348506D01*
X-45195414Y42716726D01*
X-50275414Y47796726D01*
X-50643634Y48042763D01*
X-51077980Y48129160D01*
X-62507980Y48129160D01*
X-62942326Y48042763D01*
X-63310546Y47796726D01*
X-69660546Y41446726D01*
X-69906583Y41078506D01*
X-69992980Y40644160D01*
X-69992980Y34159160D01*
X-76477980Y34159160D01*
X-76912326Y34072763D01*
X-77280546Y33826726D01*
X-78550546Y32556726D01*
X-78796583Y32188506D01*
X-78882980Y31754160D01*
X-78882980Y17784160D01*
X-78796583Y17349814D01*
X-78774474Y17316726D01*
X-78550546Y16981594D01*
X-78112446Y16543494D01*
X-78112754Y16190466D01*
X-77864442Y15589505D01*
X-77405053Y15129314D01*
X-76804527Y14879954D01*
X-76154286Y14879386D01*
X-75553325Y15127698D01*
X-75093134Y15587087D01*
X-74843774Y16187613D01*
X-74843206Y16837854D01*
X-75091518Y17438815D01*
X-75550907Y17899006D01*
X-76151433Y18148366D01*
X-76507365Y18148677D01*
X-76612980Y18254292D01*
X-76612980Y31284028D01*
X-76007848Y31889160D01*
X-69911390Y31889160D01*
X-69315789Y31293559D01*
X-69118086Y31158474D01*
X-68866924Y31103990D01*
X-68614353Y31151514D01*
X-68596986Y31163032D01*
X-68597194Y30924118D01*
X-68363997Y30359738D01*
X-68196929Y30192378D01*
X-68196929Y27670343D01*
X-71468051Y24399221D01*
X-71701971Y24399425D01*
X-72266351Y24166228D01*
X-72434593Y23998280D01*
X-72434818Y23999477D01*
X-72573890Y24215601D01*
X-72786090Y24360591D01*
X-72802980Y24364011D01*
X-72802980Y26766956D01*
X-72552702Y27016797D01*
X-72303264Y27617512D01*
X-72302696Y28267955D01*
X-72551086Y28869103D01*
X-73010617Y29329438D01*
X-73611332Y29578876D01*
X-74261775Y29579444D01*
X-74862923Y29331054D01*
X-75323258Y28871523D01*
X-75572696Y28270808D01*
X-75573264Y27620365D01*
X-75324874Y27019217D01*
X-75072980Y26766882D01*
X-75072980Y24367382D01*
X-75073297Y24367322D01*
X-75289421Y24228250D01*
X-75434411Y24016050D01*
X-75485420Y23764160D01*
X-75485420Y21964160D01*
X-75441142Y21728843D01*
X-75302070Y21512719D01*
X-75089870Y21367729D01*
X-74837980Y21316720D01*
X-73037980Y21316720D01*
X-72802663Y21360998D01*
X-72586539Y21500070D01*
X-72532980Y21578456D01*
X-72532980Y17690644D01*
X-72782826Y17441233D01*
X-73032186Y16840707D01*
X-73032754Y16190466D01*
X-72784442Y15589505D01*
X-72325053Y15129314D01*
X-71724527Y14879954D01*
X-71074286Y14879386D01*
X-70473325Y15127698D01*
X-70471860Y15129160D01*
X-65621666Y15129160D01*
X-65162980Y14670474D01*
X-65162980Y5800614D01*
X-65338637Y6063503D01*
X-66608637Y7333503D01*
X-67057963Y7633733D01*
X-67587980Y7739160D01*
X-70471278Y7739160D01*
X-71071433Y7988366D01*
X-71721674Y7988934D01*
X-72322635Y7740622D01*
X-72782826Y7281233D01*
X-73032186Y6680707D01*
X-73032754Y6030466D01*
X-72784442Y5429505D01*
X-72325053Y4969314D01*
X-71724527Y4719954D01*
X-71074286Y4719386D01*
X-70473325Y4967698D01*
X-70471860Y4969160D01*
X-68161666Y4969160D01*
X-67702980Y4510474D01*
X-67702980Y931801D01*
X-67703258Y931523D01*
X-67952696Y330808D01*
X-67953264Y-319635D01*
X-67704874Y-920783D01*
X-67452980Y-1173118D01*
X-67452980Y-4605707D01*
X-76010546Y-13163274D01*
X-76256583Y-13531494D01*
X-76342980Y-13965840D01*
X-76342980Y-16063781D01*
X-76364100Y-16077893D01*
X-76612980Y-16450369D01*
X-76612980Y-13165972D01*
X-75675414Y-12228406D01*
X-75451486Y-11893274D01*
X-75429377Y-11860186D01*
X-75342980Y-11425840D01*
X-75342980Y-1334858D01*
X-75226539Y-1259930D01*
X-75081549Y-1047730D01*
X-75060300Y-942799D01*
X-74791903Y-1211664D01*
X-74264671Y-1430590D01*
X-73693793Y-1431088D01*
X-73572183Y-1380840D01*
X-72667980Y-1380840D01*
X-72137963Y-1275413D01*
X-71688637Y-975183D01*
X-69804578Y908876D01*
X-69804185Y908876D01*
X-69203037Y1157266D01*
X-68742702Y1616797D01*
X-68493264Y2217512D01*
X-68492696Y2867955D01*
X-68741086Y3469103D01*
X-69200617Y3929438D01*
X-69801332Y4178876D01*
X-70451775Y4179444D01*
X-71052923Y3931054D01*
X-71513258Y3471523D01*
X-71762696Y2870808D01*
X-71762698Y2868128D01*
X-73241666Y1389160D01*
X-73571478Y1389160D01*
X-73691289Y1438910D01*
X-74262167Y1439408D01*
X-74789780Y1221403D01*
X-75058563Y953088D01*
X-75074818Y1039477D01*
X-75092980Y1067702D01*
X-75092980Y5427458D01*
X-74843774Y6027613D01*
X-74843206Y6677854D01*
X-75091518Y7278815D01*
X-75550907Y7739006D01*
X-76151433Y7988366D01*
X-76801674Y7988934D01*
X-77402635Y7740622D01*
X-77862826Y7281233D01*
X-78112186Y6680707D01*
X-78112754Y6030466D01*
X-77864442Y5429505D01*
X-77862980Y5428040D01*
X-77862980Y1072780D01*
X-77874411Y1056050D01*
X-77925420Y804160D01*
X-77925420Y-795840D01*
X-77881142Y-1031157D01*
X-77742070Y-1247281D01*
X-77612980Y-1335484D01*
X-77612980Y-10955708D01*
X-78550546Y-11893274D01*
X-78796583Y-12261494D01*
X-78882980Y-12695840D01*
X-78882980Y-18798830D01*
X-78915494Y-18805297D01*
X-79445927Y-19159720D01*
X-79800350Y-19690153D01*
X-79924807Y-20315840D01*
X-80847980Y-20315840D01*
X-80847980Y53904160D01*
X-34007980Y53904160D01*
X-34007980Y-23415840D01*
X-34007980Y-23415840D01*
G37*
X-34007980Y-23415840D02*
X-80847980Y-23415840D01*
X-80847980Y-20315840D01*
X-79924807Y-20315840D01*
X-79800350Y-20941527D01*
X-79445927Y-21471960D01*
X-78915494Y-21826383D01*
X-78289807Y-21950840D01*
X-77206153Y-21950840D01*
X-76580466Y-21826383D01*
X-76050033Y-21471960D01*
X-75695610Y-20941527D01*
X-75627993Y-20601590D01*
X-74802980Y-20601590D01*
X-74802980Y-21442149D01*
X-74706307Y-21675538D01*
X-74527679Y-21854167D01*
X-74294290Y-21950840D01*
X-72953730Y-21950840D01*
X-72794980Y-21792090D01*
X-72794980Y-20442840D01*
X-72540980Y-20442840D01*
X-72540980Y-21792090D01*
X-72382230Y-21950840D01*
X-71041670Y-21950840D01*
X-70808281Y-21854167D01*
X-70629653Y-21675538D01*
X-70532980Y-21442149D01*
X-70532980Y-20601590D01*
X-70691730Y-20442840D01*
X-72540980Y-20442840D01*
X-72794980Y-20442840D01*
X-74644230Y-20442840D01*
X-74802980Y-20601590D01*
X-75627993Y-20601590D01*
X-75571153Y-20315840D01*
X-75661330Y-19862490D01*
X-75207980Y-19952667D01*
X-74802980Y-19872107D01*
X-74802980Y-20030090D01*
X-74644230Y-20188840D01*
X-72794980Y-20188840D01*
X-72794980Y-18839590D01*
X-72540980Y-18839590D01*
X-72540980Y-20188840D01*
X-70691730Y-20188840D01*
X-70532980Y-20030090D01*
X-70532980Y-19189531D01*
X-70629653Y-18956142D01*
X-70808281Y-18777513D01*
X-71041670Y-18680840D01*
X-72382230Y-18680840D01*
X-72540980Y-18839590D01*
X-72794980Y-18839590D01*
X-72953730Y-18680840D01*
X-73645220Y-18680840D01*
X-73572980Y-18317667D01*
X-73572980Y-17234013D01*
X-73697437Y-16608326D01*
X-74051860Y-16077893D01*
X-74072980Y-16063781D01*
X-74072980Y-14435972D01*
X-65515413Y-5878406D01*
X-65269376Y-5510185D01*
X-65182980Y-5075840D01*
X-65182980Y-1173044D01*
X-65162980Y-1153079D01*
X-65162980Y-13965840D01*
X-65057553Y-14495857D01*
X-64793672Y-14890783D01*
X-64757323Y-14945183D01*
X-60195420Y-19507086D01*
X-60195420Y-19895840D01*
X-60151142Y-20131157D01*
X-60012070Y-20347281D01*
X-59799870Y-20492271D01*
X-59547980Y-20543280D01*
X-57847980Y-20543280D01*
X-57612663Y-20499002D01*
X-57396539Y-20359930D01*
X-57251549Y-20147730D01*
X-57229679Y-20039733D01*
X-56924904Y-20317485D01*
X-56514870Y-20487316D01*
X-56284980Y-20365995D01*
X-56284980Y-19172840D01*
X-56030980Y-19172840D01*
X-56030980Y-20365995D01*
X-55801090Y-20487316D01*
X-55391056Y-20317485D01*
X-54962797Y-19927198D01*
X-54716494Y-19402732D01*
X-54837161Y-19172840D01*
X-56030980Y-19172840D01*
X-56284980Y-19172840D01*
X-56304980Y-19172840D01*
X-56304980Y-18918840D01*
X-56284980Y-18918840D01*
X-56284980Y-17725685D01*
X-56030980Y-17725685D01*
X-56030980Y-18918840D01*
X-54837161Y-18918840D01*
X-54716494Y-18688948D01*
X-54962797Y-18164482D01*
X-55391056Y-17774195D01*
X-55801090Y-17604364D01*
X-56030980Y-17725685D01*
X-56284980Y-17725685D01*
X-56514870Y-17604364D01*
X-56924904Y-17774195D01*
X-57227917Y-18050341D01*
X-57244818Y-17960523D01*
X-57383890Y-17744399D01*
X-57596090Y-17599409D01*
X-57847980Y-17548400D01*
X-58236734Y-17548400D01*
X-62392980Y-13392154D01*
X-62392980Y2220365D01*
X-48903264Y2220365D01*
X-48654874Y1619217D01*
X-48402980Y1366882D01*
X-48402980Y-3805840D01*
X-48316583Y-4240186D01*
X-48070546Y-4608406D01*
X-40782980Y-11895972D01*
X-40782980Y-16063781D01*
X-40804100Y-16077893D01*
X-41158523Y-16608326D01*
X-41282980Y-17234013D01*
X-41282980Y-18317667D01*
X-41192803Y-18771017D01*
X-41646153Y-18680840D01*
X-42217847Y-18680840D01*
X-43093005Y-17805683D01*
X-43092696Y-17452045D01*
X-43341086Y-16850897D01*
X-43800617Y-16390562D01*
X-44401332Y-16141124D01*
X-45051775Y-16140556D01*
X-45652923Y-16388946D01*
X-46113258Y-16848477D01*
X-46362696Y-17449192D01*
X-46363264Y-18099635D01*
X-46114874Y-18700783D01*
X-45655343Y-19161118D01*
X-45054628Y-19410556D01*
X-44698085Y-19410867D01*
X-44269957Y-19838996D01*
X-44364807Y-20315840D01*
X-44240350Y-20941527D01*
X-43885927Y-21471960D01*
X-43355494Y-21826383D01*
X-42729807Y-21950840D01*
X-41646153Y-21950840D01*
X-41020466Y-21826383D01*
X-40490033Y-21471960D01*
X-40135610Y-20941527D01*
X-40067993Y-20601590D01*
X-39242980Y-20601590D01*
X-39242980Y-21442149D01*
X-39146307Y-21675538D01*
X-38967679Y-21854167D01*
X-38734290Y-21950840D01*
X-37393730Y-21950840D01*
X-37234980Y-21792090D01*
X-37234980Y-20442840D01*
X-36980980Y-20442840D01*
X-36980980Y-21792090D01*
X-36822230Y-21950840D01*
X-35481670Y-21950840D01*
X-35248281Y-21854167D01*
X-35069653Y-21675538D01*
X-34972980Y-21442149D01*
X-34972980Y-20601590D01*
X-35131730Y-20442840D01*
X-36980980Y-20442840D01*
X-37234980Y-20442840D01*
X-39084230Y-20442840D01*
X-39242980Y-20601590D01*
X-40067993Y-20601590D01*
X-40011153Y-20315840D01*
X-40101330Y-19862490D01*
X-39647980Y-19952667D01*
X-39242980Y-19872107D01*
X-39242980Y-20030090D01*
X-39084230Y-20188840D01*
X-37234980Y-20188840D01*
X-37234980Y-18839590D01*
X-36980980Y-18839590D01*
X-36980980Y-20188840D01*
X-35131730Y-20188840D01*
X-34972980Y-20030090D01*
X-34972980Y-19189531D01*
X-35069653Y-18956142D01*
X-35248281Y-18777513D01*
X-35481670Y-18680840D01*
X-36822230Y-18680840D01*
X-36980980Y-18839590D01*
X-37234980Y-18839590D01*
X-37393730Y-18680840D01*
X-38085220Y-18680840D01*
X-38012980Y-18317667D01*
X-38012980Y-17234013D01*
X-38137437Y-16608326D01*
X-38491860Y-16077893D01*
X-38512980Y-16063781D01*
X-38512980Y-14846963D01*
X-38494874Y-14890783D01*
X-38035343Y-15351118D01*
X-37434628Y-15600556D01*
X-36784185Y-15601124D01*
X-36183037Y-15352734D01*
X-35722702Y-14893203D01*
X-35473264Y-14292488D01*
X-35472696Y-13642045D01*
X-35721086Y-13040897D01*
X-35972980Y-12788562D01*
X-35972980Y-3805840D01*
X-36059377Y-3371494D01*
X-36305414Y-3003274D01*
X-37242980Y-2065708D01*
X-37242980Y-1334858D01*
X-37126539Y-1259930D01*
X-36981549Y-1047730D01*
X-36930540Y-795840D01*
X-36930540Y804160D01*
X-36974818Y1039477D01*
X-36992980Y1067702D01*
X-36992980Y5427458D01*
X-36743774Y6027613D01*
X-36743206Y6677854D01*
X-36991518Y7278815D01*
X-37450907Y7739006D01*
X-38051433Y7988366D01*
X-38701674Y7988934D01*
X-39302635Y7740622D01*
X-39762826Y7281233D01*
X-40012186Y6680707D01*
X-40012754Y6030466D01*
X-39764442Y5429505D01*
X-39762980Y5428040D01*
X-39762980Y1072780D01*
X-39774411Y1056050D01*
X-39795660Y951119D01*
X-40064057Y1219984D01*
X-40591289Y1438910D01*
X-41162167Y1439408D01*
X-41283777Y1389160D01*
X-43800339Y1389160D01*
X-43800617Y1389438D01*
X-44401332Y1638876D01*
X-45051775Y1639444D01*
X-45652923Y1391054D01*
X-46113258Y931523D01*
X-46132980Y884027D01*
X-46132980Y1366956D01*
X-45882702Y1616797D01*
X-45633264Y2217512D01*
X-45632696Y2867955D01*
X-45881086Y3469103D01*
X-45882980Y3471000D01*
X-45882980Y4510474D01*
X-45424294Y4969160D01*
X-44384682Y4969160D01*
X-43784527Y4719954D01*
X-43134286Y4719386D01*
X-42533325Y4967698D01*
X-42073134Y5427087D01*
X-41823774Y6027613D01*
X-41823206Y6677854D01*
X-42071518Y7278815D01*
X-42530907Y7739006D01*
X-43131433Y7988366D01*
X-43781674Y7988934D01*
X-44382635Y7740622D01*
X-44384100Y7739160D01*
X-45997980Y7739160D01*
X-46527997Y7633733D01*
X-46977323Y7333503D01*
X-48247323Y6063503D01*
X-48547553Y5614177D01*
X-48652980Y5084160D01*
X-48652980Y3471801D01*
X-48653258Y3471523D01*
X-48902696Y2870808D01*
X-48903264Y2220365D01*
X-62392980Y2220365D01*
X-62392980Y15244160D01*
X-62498407Y15774177D01*
X-62798637Y16223503D01*
X-64068637Y17493503D01*
X-64517963Y17793733D01*
X-65047980Y17899160D01*
X-70262980Y17899160D01*
X-70262980Y21828255D01*
X-70097429Y21993517D01*
X-69863247Y22557490D01*
X-69863041Y22793967D01*
X-66259363Y26397645D01*
X-66151628Y26558882D01*
X-66013326Y26765865D01*
X-65926929Y27200211D01*
X-65926929Y30192204D01*
X-65761378Y30357466D01*
X-65527196Y30921439D01*
X-65526990Y31157916D01*
X-62255746Y34429160D01*
X-58463885Y34429160D01*
X-58298623Y34263609D01*
X-57734650Y34029427D01*
X-57123989Y34028895D01*
X-56559609Y34262092D01*
X-56392249Y34429160D01*
X-52818112Y34429160D01*
X-49329282Y30940330D01*
X-49329296Y30924118D01*
X-49096099Y30359738D01*
X-48664674Y29927558D01*
X-48100701Y29693376D01*
X-48082312Y29693360D01*
X-44592980Y26204028D01*
X-44592980Y23900065D01*
X-44758531Y23734803D01*
X-44992713Y23170830D01*
X-44993245Y22560169D01*
X-44760048Y21995789D01*
X-44592980Y21828429D01*
X-44592980Y17690644D01*
X-44842826Y17441233D01*
X-45092186Y16840707D01*
X-45092754Y16190466D01*
X-44844442Y15589505D01*
X-44385053Y15129314D01*
X-43784527Y14879954D01*
X-43134286Y14879386D01*
X-42533325Y15127698D01*
X-42073134Y15587087D01*
X-41823774Y16187613D01*
X-41823206Y16837854D01*
X-42071518Y17438815D01*
X-42322980Y17690716D01*
X-42322980Y21576295D01*
X-42282070Y21512719D01*
X-42069870Y21367729D01*
X-41817980Y21316720D01*
X-40975672Y21316720D01*
X-39512980Y19854027D01*
X-39512980Y17690644D01*
X-39762826Y17441233D01*
X-40012186Y16840707D01*
X-40012754Y16190466D01*
X-39764442Y15589505D01*
X-39305053Y15129314D01*
X-38704527Y14879954D01*
X-38054286Y14879386D01*
X-37453325Y15127698D01*
X-36993134Y15587087D01*
X-36743774Y16187613D01*
X-36743206Y16837854D01*
X-36991518Y17438815D01*
X-37242980Y17690716D01*
X-37242980Y20324160D01*
X-37329377Y20758506D01*
X-37575414Y21126727D01*
X-39370540Y22921852D01*
X-39370540Y23764160D01*
X-39414818Y23999477D01*
X-39553890Y24215601D01*
X-39766090Y24360591D01*
X-39782980Y24364011D01*
X-39782980Y35564160D01*
X-39869377Y35998506D01*
X-40115414Y36366726D01*
X-40553005Y36804317D01*
X-40552696Y37157955D01*
X-40801086Y37759103D01*
X-41260617Y38219438D01*
X-41861332Y38468876D01*
X-42511775Y38469444D01*
X-43112923Y38221054D01*
X-43573258Y37761523D01*
X-43822696Y37160808D01*
X-43823264Y36510365D01*
X-43574874Y35909217D01*
X-43115343Y35448882D01*
X-42514628Y35199444D01*
X-42158085Y35199133D01*
X-42052980Y35094028D01*
X-42052980Y24367382D01*
X-42053297Y24367322D01*
X-42269421Y24228250D01*
X-42322980Y24149864D01*
X-42322980Y26674160D01*
X-42409377Y27108506D01*
X-42655414Y27476726D01*
X-46259159Y31080471D01*
X-46259091Y31159161D01*
X-46258086Y31158474D01*
X-46006924Y31103990D01*
X-45754353Y31151514D01*
X-45540171Y31293559D01*
X-44267379Y32566351D01*
X-44132294Y32764054D01*
X-44077810Y33015216D01*
X-44125334Y33267787D01*
X-44267379Y33481969D01*
X-44862980Y34077570D01*
X-44862980Y41914160D01*
X-44949377Y42348506D01*
X-45195414Y42716726D01*
X-50275414Y47796726D01*
X-50643634Y48042763D01*
X-51077980Y48129160D01*
X-62507980Y48129160D01*
X-62942326Y48042763D01*
X-63310546Y47796726D01*
X-69660546Y41446726D01*
X-69906583Y41078506D01*
X-69992980Y40644160D01*
X-69992980Y34159160D01*
X-76477980Y34159160D01*
X-76912326Y34072763D01*
X-77280546Y33826726D01*
X-78550546Y32556726D01*
X-78796583Y32188506D01*
X-78882980Y31754160D01*
X-78882980Y17784160D01*
X-78796583Y17349814D01*
X-78774474Y17316726D01*
X-78550546Y16981594D01*
X-78112446Y16543494D01*
X-78112754Y16190466D01*
X-77864442Y15589505D01*
X-77405053Y15129314D01*
X-76804527Y14879954D01*
X-76154286Y14879386D01*
X-75553325Y15127698D01*
X-75093134Y15587087D01*
X-74843774Y16187613D01*
X-74843206Y16837854D01*
X-75091518Y17438815D01*
X-75550907Y17899006D01*
X-76151433Y18148366D01*
X-76507365Y18148677D01*
X-76612980Y18254292D01*
X-76612980Y31284028D01*
X-76007848Y31889160D01*
X-69911390Y31889160D01*
X-69315789Y31293559D01*
X-69118086Y31158474D01*
X-68866924Y31103990D01*
X-68614353Y31151514D01*
X-68596986Y31163032D01*
X-68597194Y30924118D01*
X-68363997Y30359738D01*
X-68196929Y30192378D01*
X-68196929Y27670343D01*
X-71468051Y24399221D01*
X-71701971Y24399425D01*
X-72266351Y24166228D01*
X-72434593Y23998280D01*
X-72434818Y23999477D01*
X-72573890Y24215601D01*
X-72786090Y24360591D01*
X-72802980Y24364011D01*
X-72802980Y26766956D01*
X-72552702Y27016797D01*
X-72303264Y27617512D01*
X-72302696Y28267955D01*
X-72551086Y28869103D01*
X-73010617Y29329438D01*
X-73611332Y29578876D01*
X-74261775Y29579444D01*
X-74862923Y29331054D01*
X-75323258Y28871523D01*
X-75572696Y28270808D01*
X-75573264Y27620365D01*
X-75324874Y27019217D01*
X-75072980Y26766882D01*
X-75072980Y24367382D01*
X-75073297Y24367322D01*
X-75289421Y24228250D01*
X-75434411Y24016050D01*
X-75485420Y23764160D01*
X-75485420Y21964160D01*
X-75441142Y21728843D01*
X-75302070Y21512719D01*
X-75089870Y21367729D01*
X-74837980Y21316720D01*
X-73037980Y21316720D01*
X-72802663Y21360998D01*
X-72586539Y21500070D01*
X-72532980Y21578456D01*
X-72532980Y17690644D01*
X-72782826Y17441233D01*
X-73032186Y16840707D01*
X-73032754Y16190466D01*
X-72784442Y15589505D01*
X-72325053Y15129314D01*
X-71724527Y14879954D01*
X-71074286Y14879386D01*
X-70473325Y15127698D01*
X-70471860Y15129160D01*
X-65621666Y15129160D01*
X-65162980Y14670474D01*
X-65162980Y5800614D01*
X-65338637Y6063503D01*
X-66608637Y7333503D01*
X-67057963Y7633733D01*
X-67587980Y7739160D01*
X-70471278Y7739160D01*
X-71071433Y7988366D01*
X-71721674Y7988934D01*
X-72322635Y7740622D01*
X-72782826Y7281233D01*
X-73032186Y6680707D01*
X-73032754Y6030466D01*
X-72784442Y5429505D01*
X-72325053Y4969314D01*
X-71724527Y4719954D01*
X-71074286Y4719386D01*
X-70473325Y4967698D01*
X-70471860Y4969160D01*
X-68161666Y4969160D01*
X-67702980Y4510474D01*
X-67702980Y931801D01*
X-67703258Y931523D01*
X-67952696Y330808D01*
X-67953264Y-319635D01*
X-67704874Y-920783D01*
X-67452980Y-1173118D01*
X-67452980Y-4605707D01*
X-76010546Y-13163274D01*
X-76256583Y-13531494D01*
X-76342980Y-13965840D01*
X-76342980Y-16063781D01*
X-76364100Y-16077893D01*
X-76612980Y-16450369D01*
X-76612980Y-13165972D01*
X-75675414Y-12228406D01*
X-75451486Y-11893274D01*
X-75429377Y-11860186D01*
X-75342980Y-11425840D01*
X-75342980Y-1334858D01*
X-75226539Y-1259930D01*
X-75081549Y-1047730D01*
X-75060300Y-942799D01*
X-74791903Y-1211664D01*
X-74264671Y-1430590D01*
X-73693793Y-1431088D01*
X-73572183Y-1380840D01*
X-72667980Y-1380840D01*
X-72137963Y-1275413D01*
X-71688637Y-975183D01*
X-69804578Y908876D01*
X-69804185Y908876D01*
X-69203037Y1157266D01*
X-68742702Y1616797D01*
X-68493264Y2217512D01*
X-68492696Y2867955D01*
X-68741086Y3469103D01*
X-69200617Y3929438D01*
X-69801332Y4178876D01*
X-70451775Y4179444D01*
X-71052923Y3931054D01*
X-71513258Y3471523D01*
X-71762696Y2870808D01*
X-71762698Y2868128D01*
X-73241666Y1389160D01*
X-73571478Y1389160D01*
X-73691289Y1438910D01*
X-74262167Y1439408D01*
X-74789780Y1221403D01*
X-75058563Y953088D01*
X-75074818Y1039477D01*
X-75092980Y1067702D01*
X-75092980Y5427458D01*
X-74843774Y6027613D01*
X-74843206Y6677854D01*
X-75091518Y7278815D01*
X-75550907Y7739006D01*
X-76151433Y7988366D01*
X-76801674Y7988934D01*
X-77402635Y7740622D01*
X-77862826Y7281233D01*
X-78112186Y6680707D01*
X-78112754Y6030466D01*
X-77864442Y5429505D01*
X-77862980Y5428040D01*
X-77862980Y1072780D01*
X-77874411Y1056050D01*
X-77925420Y804160D01*
X-77925420Y-795840D01*
X-77881142Y-1031157D01*
X-77742070Y-1247281D01*
X-77612980Y-1335484D01*
X-77612980Y-10955708D01*
X-78550546Y-11893274D01*
X-78796583Y-12261494D01*
X-78882980Y-12695840D01*
X-78882980Y-18798830D01*
X-78915494Y-18805297D01*
X-79445927Y-19159720D01*
X-79800350Y-19690153D01*
X-79924807Y-20315840D01*
X-80847980Y-20315840D01*
X-80847980Y53904160D01*
X-34007980Y53904160D01*
X-34007980Y-23415840D01*
G36*
X-85798640Y-23414020D02*
X-132638640Y-23414020D01*
X-132638640Y-20314020D01*
X-131715467Y-20314020D01*
X-131591010Y-20939707D01*
X-131236587Y-21470140D01*
X-130706154Y-21824563D01*
X-130080467Y-21949020D01*
X-128996813Y-21949020D01*
X-128371126Y-21824563D01*
X-127840693Y-21470140D01*
X-127486270Y-20939707D01*
X-127418653Y-20599770D01*
X-126593640Y-20599770D01*
X-126593640Y-21440329D01*
X-126496967Y-21673718D01*
X-126318339Y-21852347D01*
X-126084950Y-21949020D01*
X-124744390Y-21949020D01*
X-124585640Y-21790270D01*
X-124585640Y-20441020D01*
X-124331640Y-20441020D01*
X-124331640Y-21790270D01*
X-124172890Y-21949020D01*
X-122832330Y-21949020D01*
X-122598941Y-21852347D01*
X-122420313Y-21673718D01*
X-122323640Y-21440329D01*
X-122323640Y-20599770D01*
X-122482390Y-20441020D01*
X-124331640Y-20441020D01*
X-124585640Y-20441020D01*
X-126434890Y-20441020D01*
X-126593640Y-20599770D01*
X-127418653Y-20599770D01*
X-127361813Y-20314020D01*
X-127451990Y-19860670D01*
X-126998640Y-19950847D01*
X-126593640Y-19870287D01*
X-126593640Y-20028270D01*
X-126434890Y-20187020D01*
X-124585640Y-20187020D01*
X-124585640Y-18837770D01*
X-124331640Y-18837770D01*
X-124331640Y-20187020D01*
X-122482390Y-20187020D01*
X-122323640Y-20028270D01*
X-122323640Y-19187711D01*
X-122420313Y-18954322D01*
X-122598941Y-18775693D01*
X-122832330Y-18679020D01*
X-124172890Y-18679020D01*
X-124331640Y-18837770D01*
X-124585640Y-18837770D01*
X-124744390Y-18679020D01*
X-125435880Y-18679020D01*
X-125363640Y-18315847D01*
X-125363640Y-17232193D01*
X-125488097Y-16606506D01*
X-125842520Y-16076073D01*
X-125863640Y-16061961D01*
X-125863640Y-14434152D01*
X-117306073Y-5876586D01*
X-117060036Y-5508365D01*
X-116973640Y-5074020D01*
X-116973640Y-1171224D01*
X-116953640Y-1151259D01*
X-116953640Y-13964020D01*
X-116848213Y-14494037D01*
X-116584332Y-14888963D01*
X-116547983Y-14943363D01*
X-111986080Y-19505266D01*
X-111986080Y-19894020D01*
X-111941802Y-20129337D01*
X-111802730Y-20345461D01*
X-111590530Y-20490451D01*
X-111338640Y-20541460D01*
X-109638640Y-20541460D01*
X-109403323Y-20497182D01*
X-109187199Y-20358110D01*
X-109042209Y-20145910D01*
X-109020339Y-20037913D01*
X-108715564Y-20315665D01*
X-108305530Y-20485496D01*
X-108075640Y-20364175D01*
X-108075640Y-19171020D01*
X-107821640Y-19171020D01*
X-107821640Y-20364175D01*
X-107591750Y-20485496D01*
X-107181716Y-20315665D01*
X-106753457Y-19925378D01*
X-106507154Y-19400912D01*
X-106627821Y-19171020D01*
X-107821640Y-19171020D01*
X-108075640Y-19171020D01*
X-108095640Y-19171020D01*
X-108095640Y-18917020D01*
X-108075640Y-18917020D01*
X-108075640Y-17723865D01*
X-107821640Y-17723865D01*
X-107821640Y-18917020D01*
X-106627821Y-18917020D01*
X-106507154Y-18687128D01*
X-106753457Y-18162662D01*
X-107181716Y-17772375D01*
X-107591750Y-17602544D01*
X-107821640Y-17723865D01*
X-108075640Y-17723865D01*
X-108305530Y-17602544D01*
X-108715564Y-17772375D01*
X-109018577Y-18048521D01*
X-109035478Y-17958703D01*
X-109174550Y-17742579D01*
X-109386750Y-17597589D01*
X-109638640Y-17546580D01*
X-110027394Y-17546580D01*
X-114183640Y-13390334D01*
X-114183640Y2222185D01*
X-100693924Y2222185D01*
X-100445534Y1621037D01*
X-100193640Y1368702D01*
X-100193640Y-3804020D01*
X-100107243Y-4238366D01*
X-99861206Y-4606586D01*
X-92573640Y-11894152D01*
X-92573640Y-16061961D01*
X-92594760Y-16076073D01*
X-92949183Y-16606506D01*
X-93073640Y-17232193D01*
X-93073640Y-18315847D01*
X-92983463Y-18769197D01*
X-93436813Y-18679020D01*
X-94008507Y-18679020D01*
X-94883665Y-17803863D01*
X-94883356Y-17450225D01*
X-95131746Y-16849077D01*
X-95591277Y-16388742D01*
X-96191992Y-16139304D01*
X-96842435Y-16138736D01*
X-97443583Y-16387126D01*
X-97903918Y-16846657D01*
X-98153356Y-17447372D01*
X-98153924Y-18097815D01*
X-97905534Y-18698963D01*
X-97446003Y-19159298D01*
X-96845288Y-19408736D01*
X-96488745Y-19409047D01*
X-96060617Y-19837176D01*
X-96155467Y-20314020D01*
X-96031010Y-20939707D01*
X-95676587Y-21470140D01*
X-95146154Y-21824563D01*
X-94520467Y-21949020D01*
X-93436813Y-21949020D01*
X-92811126Y-21824563D01*
X-92280693Y-21470140D01*
X-91926270Y-20939707D01*
X-91858653Y-20599770D01*
X-91033640Y-20599770D01*
X-91033640Y-21440329D01*
X-90936967Y-21673718D01*
X-90758339Y-21852347D01*
X-90524950Y-21949020D01*
X-89184390Y-21949020D01*
X-89025640Y-21790270D01*
X-89025640Y-20441020D01*
X-88771640Y-20441020D01*
X-88771640Y-21790270D01*
X-88612890Y-21949020D01*
X-87272330Y-21949020D01*
X-87038941Y-21852347D01*
X-86860313Y-21673718D01*
X-86763640Y-21440329D01*
X-86763640Y-20599770D01*
X-86922390Y-20441020D01*
X-88771640Y-20441020D01*
X-89025640Y-20441020D01*
X-90874890Y-20441020D01*
X-91033640Y-20599770D01*
X-91858653Y-20599770D01*
X-91801813Y-20314020D01*
X-91891990Y-19860670D01*
X-91438640Y-19950847D01*
X-91033640Y-19870287D01*
X-91033640Y-20028270D01*
X-90874890Y-20187020D01*
X-89025640Y-20187020D01*
X-89025640Y-18837770D01*
X-88771640Y-18837770D01*
X-88771640Y-20187020D01*
X-86922390Y-20187020D01*
X-86763640Y-20028270D01*
X-86763640Y-19187711D01*
X-86860313Y-18954322D01*
X-87038941Y-18775693D01*
X-87272330Y-18679020D01*
X-88612890Y-18679020D01*
X-88771640Y-18837770D01*
X-89025640Y-18837770D01*
X-89184390Y-18679020D01*
X-89875880Y-18679020D01*
X-89803640Y-18315847D01*
X-89803640Y-17232193D01*
X-89928097Y-16606506D01*
X-90282520Y-16076073D01*
X-90303640Y-16061961D01*
X-90303640Y-14845143D01*
X-90285534Y-14888963D01*
X-89826003Y-15349298D01*
X-89225288Y-15598736D01*
X-88574845Y-15599304D01*
X-87973697Y-15350914D01*
X-87513362Y-14891383D01*
X-87263924Y-14290668D01*
X-87263356Y-13640225D01*
X-87511746Y-13039077D01*
X-87763640Y-12786742D01*
X-87763640Y-3804020D01*
X-87850037Y-3369674D01*
X-88096074Y-3001454D01*
X-89033640Y-2063888D01*
X-89033640Y-1333038D01*
X-88917199Y-1258110D01*
X-88772209Y-1045910D01*
X-88721200Y-794020D01*
X-88721200Y805980D01*
X-88765478Y1041297D01*
X-88783640Y1069522D01*
X-88783640Y5429278D01*
X-88534434Y6029433D01*
X-88533866Y6679674D01*
X-88782178Y7280635D01*
X-89241567Y7740826D01*
X-89842093Y7990186D01*
X-90492334Y7990754D01*
X-91093295Y7742442D01*
X-91553486Y7283053D01*
X-91802846Y6682527D01*
X-91803414Y6032286D01*
X-91555102Y5431325D01*
X-91553640Y5429860D01*
X-91553640Y1074600D01*
X-91565071Y1057870D01*
X-91586320Y952939D01*
X-91854717Y1221804D01*
X-92381949Y1440730D01*
X-92952827Y1441228D01*
X-93074437Y1390980D01*
X-95590999Y1390980D01*
X-95591277Y1391258D01*
X-96191992Y1640696D01*
X-96842435Y1641264D01*
X-97443583Y1392874D01*
X-97903918Y933343D01*
X-97923640Y885847D01*
X-97923640Y1368776D01*
X-97673362Y1618617D01*
X-97423924Y2219332D01*
X-97423356Y2869775D01*
X-97671746Y3470923D01*
X-97673640Y3472820D01*
X-97673640Y4512294D01*
X-97214954Y4970980D01*
X-96175342Y4970980D01*
X-95575187Y4721774D01*
X-94924946Y4721206D01*
X-94323985Y4969518D01*
X-93863794Y5428907D01*
X-93614434Y6029433D01*
X-93613866Y6679674D01*
X-93862178Y7280635D01*
X-94321567Y7740826D01*
X-94922093Y7990186D01*
X-95572334Y7990754D01*
X-96173295Y7742442D01*
X-96174760Y7740980D01*
X-97788640Y7740980D01*
X-98318657Y7635553D01*
X-98767983Y7335323D01*
X-100037983Y6065323D01*
X-100338213Y5615997D01*
X-100443640Y5085980D01*
X-100443640Y3473621D01*
X-100443918Y3473343D01*
X-100693356Y2872628D01*
X-100693924Y2222185D01*
X-114183640Y2222185D01*
X-114183640Y15245980D01*
X-114289067Y15775997D01*
X-114589297Y16225323D01*
X-115859297Y17495323D01*
X-116308623Y17795553D01*
X-116838640Y17900980D01*
X-122053640Y17900980D01*
X-122053640Y21830075D01*
X-121888089Y21995337D01*
X-121653907Y22559310D01*
X-121653701Y22795787D01*
X-118050023Y26399465D01*
X-117942288Y26560702D01*
X-117803986Y26767685D01*
X-117717589Y27202031D01*
X-117717589Y30194024D01*
X-117552038Y30359286D01*
X-117317856Y30923259D01*
X-117317650Y31159736D01*
X-114046406Y34430980D01*
X-110254545Y34430980D01*
X-110089283Y34265429D01*
X-109525310Y34031247D01*
X-108914649Y34030715D01*
X-108350269Y34263912D01*
X-108182909Y34430980D01*
X-104608772Y34430980D01*
X-101119942Y30942150D01*
X-101119956Y30925938D01*
X-100886759Y30361558D01*
X-100455334Y29929378D01*
X-99891361Y29695196D01*
X-99872972Y29695180D01*
X-96383640Y26205848D01*
X-96383640Y23901885D01*
X-96549191Y23736623D01*
X-96783373Y23172650D01*
X-96783905Y22561989D01*
X-96550708Y21997609D01*
X-96383640Y21830249D01*
X-96383640Y17692464D01*
X-96633486Y17443053D01*
X-96882846Y16842527D01*
X-96883414Y16192286D01*
X-96635102Y15591325D01*
X-96175713Y15131134D01*
X-95575187Y14881774D01*
X-94924946Y14881206D01*
X-94323985Y15129518D01*
X-93863794Y15588907D01*
X-93614434Y16189433D01*
X-93613866Y16839674D01*
X-93862178Y17440635D01*
X-94113640Y17692536D01*
X-94113640Y21578115D01*
X-94072730Y21514539D01*
X-93860530Y21369549D01*
X-93608640Y21318540D01*
X-92766332Y21318540D01*
X-91303640Y19855847D01*
X-91303640Y17692464D01*
X-91553486Y17443053D01*
X-91802846Y16842527D01*
X-91803414Y16192286D01*
X-91555102Y15591325D01*
X-91095713Y15131134D01*
X-90495187Y14881774D01*
X-89844946Y14881206D01*
X-89243985Y15129518D01*
X-88783794Y15588907D01*
X-88534434Y16189433D01*
X-88533866Y16839674D01*
X-88782178Y17440635D01*
X-89033640Y17692536D01*
X-89033640Y20325980D01*
X-89120037Y20760326D01*
X-89366074Y21128547D01*
X-91161200Y22923672D01*
X-91161200Y23765980D01*
X-91205478Y24001297D01*
X-91344550Y24217421D01*
X-91556750Y24362411D01*
X-91573640Y24365831D01*
X-91573640Y35565980D01*
X-91660037Y36000326D01*
X-91906074Y36368546D01*
X-92343665Y36806137D01*
X-92343356Y37159775D01*
X-92591746Y37760923D01*
X-93051277Y38221258D01*
X-93651992Y38470696D01*
X-94302435Y38471264D01*
X-94903583Y38222874D01*
X-95363918Y37763343D01*
X-95613356Y37162628D01*
X-95613924Y36512185D01*
X-95365534Y35911037D01*
X-94906003Y35450702D01*
X-94305288Y35201264D01*
X-93948745Y35200953D01*
X-93843640Y35095848D01*
X-93843640Y24369202D01*
X-93843957Y24369142D01*
X-94060081Y24230070D01*
X-94113640Y24151684D01*
X-94113640Y26675980D01*
X-94200037Y27110326D01*
X-94446074Y27478546D01*
X-98049819Y31082291D01*
X-98049751Y31160981D01*
X-98048746Y31160294D01*
X-97797584Y31105810D01*
X-97545013Y31153334D01*
X-97330831Y31295379D01*
X-96058039Y32568171D01*
X-95922954Y32765874D01*
X-95868470Y33017036D01*
X-95915994Y33269607D01*
X-96058039Y33483789D01*
X-96653640Y34079390D01*
X-96653640Y41915980D01*
X-96740037Y42350326D01*
X-96986074Y42718546D01*
X-102066074Y47798546D01*
X-102434294Y48044583D01*
X-102868640Y48130980D01*
X-114298640Y48130980D01*
X-114732986Y48044583D01*
X-115101206Y47798546D01*
X-121451206Y41448546D01*
X-121697243Y41080326D01*
X-121783640Y40645980D01*
X-121783640Y34160980D01*
X-128268640Y34160980D01*
X-128702986Y34074583D01*
X-129071206Y33828546D01*
X-130341206Y32558546D01*
X-130587243Y32190326D01*
X-130673640Y31755980D01*
X-130673640Y17785980D01*
X-130587243Y17351634D01*
X-130565134Y17318546D01*
X-130341206Y16983414D01*
X-129903106Y16545314D01*
X-129903414Y16192286D01*
X-129655102Y15591325D01*
X-129195713Y15131134D01*
X-128595187Y14881774D01*
X-127944946Y14881206D01*
X-127343985Y15129518D01*
X-126883794Y15588907D01*
X-126634434Y16189433D01*
X-126633866Y16839674D01*
X-126882178Y17440635D01*
X-127341567Y17900826D01*
X-127942093Y18150186D01*
X-128298025Y18150497D01*
X-128403640Y18256112D01*
X-128403640Y31285848D01*
X-127798508Y31890980D01*
X-121702050Y31890980D01*
X-121106449Y31295379D01*
X-120908746Y31160294D01*
X-120657584Y31105810D01*
X-120405013Y31153334D01*
X-120387646Y31164852D01*
X-120387854Y30925938D01*
X-120154657Y30361558D01*
X-119987589Y30194198D01*
X-119987589Y27672163D01*
X-123258711Y24401041D01*
X-123492631Y24401245D01*
X-124057011Y24168048D01*
X-124225253Y24000100D01*
X-124225478Y24001297D01*
X-124364550Y24217421D01*
X-124576750Y24362411D01*
X-124593640Y24365831D01*
X-124593640Y26768776D01*
X-124343362Y27018617D01*
X-124093924Y27619332D01*
X-124093356Y28269775D01*
X-124341746Y28870923D01*
X-124801277Y29331258D01*
X-125401992Y29580696D01*
X-126052435Y29581264D01*
X-126653583Y29332874D01*
X-127113918Y28873343D01*
X-127363356Y28272628D01*
X-127363924Y27622185D01*
X-127115534Y27021037D01*
X-126863640Y26768702D01*
X-126863640Y24369202D01*
X-126863957Y24369142D01*
X-127080081Y24230070D01*
X-127225071Y24017870D01*
X-127276080Y23765980D01*
X-127276080Y21965980D01*
X-127231802Y21730663D01*
X-127092730Y21514539D01*
X-126880530Y21369549D01*
X-126628640Y21318540D01*
X-124828640Y21318540D01*
X-124593323Y21362818D01*
X-124377199Y21501890D01*
X-124323640Y21580276D01*
X-124323640Y17692464D01*
X-124573486Y17443053D01*
X-124822846Y16842527D01*
X-124823414Y16192286D01*
X-124575102Y15591325D01*
X-124115713Y15131134D01*
X-123515187Y14881774D01*
X-122864946Y14881206D01*
X-122263985Y15129518D01*
X-122262520Y15130980D01*
X-117412326Y15130980D01*
X-116953640Y14672294D01*
X-116953640Y5802434D01*
X-117129297Y6065323D01*
X-118399297Y7335323D01*
X-118848623Y7635553D01*
X-119378640Y7740980D01*
X-122261938Y7740980D01*
X-122862093Y7990186D01*
X-123512334Y7990754D01*
X-124113295Y7742442D01*
X-124573486Y7283053D01*
X-124822846Y6682527D01*
X-124823414Y6032286D01*
X-124575102Y5431325D01*
X-124115713Y4971134D01*
X-123515187Y4721774D01*
X-122864946Y4721206D01*
X-122263985Y4969518D01*
X-122262520Y4970980D01*
X-119952326Y4970980D01*
X-119493640Y4512294D01*
X-119493640Y933621D01*
X-119493918Y933343D01*
X-119743356Y332628D01*
X-119743924Y-317815D01*
X-119495534Y-918963D01*
X-119243640Y-1171298D01*
X-119243640Y-4603887D01*
X-127801206Y-13161454D01*
X-128047243Y-13529674D01*
X-128133640Y-13964020D01*
X-128133640Y-16061961D01*
X-128154760Y-16076073D01*
X-128403640Y-16448549D01*
X-128403640Y-13164152D01*
X-127466074Y-12226586D01*
X-127242146Y-11891454D01*
X-127220037Y-11858366D01*
X-127133640Y-11424020D01*
X-127133640Y-1333038D01*
X-127017199Y-1258110D01*
X-126872209Y-1045910D01*
X-126850960Y-940979D01*
X-126582563Y-1209844D01*
X-126055331Y-1428770D01*
X-125484453Y-1429268D01*
X-125362843Y-1379020D01*
X-124458640Y-1379020D01*
X-123928623Y-1273593D01*
X-123479297Y-973363D01*
X-121595238Y910696D01*
X-121594845Y910696D01*
X-120993697Y1159086D01*
X-120533362Y1618617D01*
X-120283924Y2219332D01*
X-120283356Y2869775D01*
X-120531746Y3470923D01*
X-120991277Y3931258D01*
X-121591992Y4180696D01*
X-122242435Y4181264D01*
X-122843583Y3932874D01*
X-123303918Y3473343D01*
X-123553356Y2872628D01*
X-123553358Y2869948D01*
X-125032326Y1390980D01*
X-125362138Y1390980D01*
X-125481949Y1440730D01*
X-126052827Y1441228D01*
X-126580440Y1223223D01*
X-126849223Y954908D01*
X-126865478Y1041297D01*
X-126883640Y1069522D01*
X-126883640Y5429278D01*
X-126634434Y6029433D01*
X-126633866Y6679674D01*
X-126882178Y7280635D01*
X-127341567Y7740826D01*
X-127942093Y7990186D01*
X-128592334Y7990754D01*
X-129193295Y7742442D01*
X-129653486Y7283053D01*
X-129902846Y6682527D01*
X-129903414Y6032286D01*
X-129655102Y5431325D01*
X-129653640Y5429860D01*
X-129653640Y1074600D01*
X-129665071Y1057870D01*
X-129716080Y805980D01*
X-129716080Y-794020D01*
X-129671802Y-1029337D01*
X-129532730Y-1245461D01*
X-129403640Y-1333664D01*
X-129403640Y-10953888D01*
X-130341206Y-11891454D01*
X-130587243Y-12259674D01*
X-130673640Y-12694020D01*
X-130673640Y-18797010D01*
X-130706154Y-18803477D01*
X-131236587Y-19157900D01*
X-131591010Y-19688333D01*
X-131715467Y-20314020D01*
X-132638640Y-20314020D01*
X-132638640Y53905980D01*
X-85798640Y53905980D01*
X-85798640Y-23414020D01*
X-85798640Y-23414020D01*
G37*
X-85798640Y-23414020D02*
X-132638640Y-23414020D01*
X-132638640Y-20314020D01*
X-131715467Y-20314020D01*
X-131591010Y-20939707D01*
X-131236587Y-21470140D01*
X-130706154Y-21824563D01*
X-130080467Y-21949020D01*
X-128996813Y-21949020D01*
X-128371126Y-21824563D01*
X-127840693Y-21470140D01*
X-127486270Y-20939707D01*
X-127418653Y-20599770D01*
X-126593640Y-20599770D01*
X-126593640Y-21440329D01*
X-126496967Y-21673718D01*
X-126318339Y-21852347D01*
X-126084950Y-21949020D01*
X-124744390Y-21949020D01*
X-124585640Y-21790270D01*
X-124585640Y-20441020D01*
X-124331640Y-20441020D01*
X-124331640Y-21790270D01*
X-124172890Y-21949020D01*
X-122832330Y-21949020D01*
X-122598941Y-21852347D01*
X-122420313Y-21673718D01*
X-122323640Y-21440329D01*
X-122323640Y-20599770D01*
X-122482390Y-20441020D01*
X-124331640Y-20441020D01*
X-124585640Y-20441020D01*
X-126434890Y-20441020D01*
X-126593640Y-20599770D01*
X-127418653Y-20599770D01*
X-127361813Y-20314020D01*
X-127451990Y-19860670D01*
X-126998640Y-19950847D01*
X-126593640Y-19870287D01*
X-126593640Y-20028270D01*
X-126434890Y-20187020D01*
X-124585640Y-20187020D01*
X-124585640Y-18837770D01*
X-124331640Y-18837770D01*
X-124331640Y-20187020D01*
X-122482390Y-20187020D01*
X-122323640Y-20028270D01*
X-122323640Y-19187711D01*
X-122420313Y-18954322D01*
X-122598941Y-18775693D01*
X-122832330Y-18679020D01*
X-124172890Y-18679020D01*
X-124331640Y-18837770D01*
X-124585640Y-18837770D01*
X-124744390Y-18679020D01*
X-125435880Y-18679020D01*
X-125363640Y-18315847D01*
X-125363640Y-17232193D01*
X-125488097Y-16606506D01*
X-125842520Y-16076073D01*
X-125863640Y-16061961D01*
X-125863640Y-14434152D01*
X-117306073Y-5876586D01*
X-117060036Y-5508365D01*
X-116973640Y-5074020D01*
X-116973640Y-1171224D01*
X-116953640Y-1151259D01*
X-116953640Y-13964020D01*
X-116848213Y-14494037D01*
X-116584332Y-14888963D01*
X-116547983Y-14943363D01*
X-111986080Y-19505266D01*
X-111986080Y-19894020D01*
X-111941802Y-20129337D01*
X-111802730Y-20345461D01*
X-111590530Y-20490451D01*
X-111338640Y-20541460D01*
X-109638640Y-20541460D01*
X-109403323Y-20497182D01*
X-109187199Y-20358110D01*
X-109042209Y-20145910D01*
X-109020339Y-20037913D01*
X-108715564Y-20315665D01*
X-108305530Y-20485496D01*
X-108075640Y-20364175D01*
X-108075640Y-19171020D01*
X-107821640Y-19171020D01*
X-107821640Y-20364175D01*
X-107591750Y-20485496D01*
X-107181716Y-20315665D01*
X-106753457Y-19925378D01*
X-106507154Y-19400912D01*
X-106627821Y-19171020D01*
X-107821640Y-19171020D01*
X-108075640Y-19171020D01*
X-108095640Y-19171020D01*
X-108095640Y-18917020D01*
X-108075640Y-18917020D01*
X-108075640Y-17723865D01*
X-107821640Y-17723865D01*
X-107821640Y-18917020D01*
X-106627821Y-18917020D01*
X-106507154Y-18687128D01*
X-106753457Y-18162662D01*
X-107181716Y-17772375D01*
X-107591750Y-17602544D01*
X-107821640Y-17723865D01*
X-108075640Y-17723865D01*
X-108305530Y-17602544D01*
X-108715564Y-17772375D01*
X-109018577Y-18048521D01*
X-109035478Y-17958703D01*
X-109174550Y-17742579D01*
X-109386750Y-17597589D01*
X-109638640Y-17546580D01*
X-110027394Y-17546580D01*
X-114183640Y-13390334D01*
X-114183640Y2222185D01*
X-100693924Y2222185D01*
X-100445534Y1621037D01*
X-100193640Y1368702D01*
X-100193640Y-3804020D01*
X-100107243Y-4238366D01*
X-99861206Y-4606586D01*
X-92573640Y-11894152D01*
X-92573640Y-16061961D01*
X-92594760Y-16076073D01*
X-92949183Y-16606506D01*
X-93073640Y-17232193D01*
X-93073640Y-18315847D01*
X-92983463Y-18769197D01*
X-93436813Y-18679020D01*
X-94008507Y-18679020D01*
X-94883665Y-17803863D01*
X-94883356Y-17450225D01*
X-95131746Y-16849077D01*
X-95591277Y-16388742D01*
X-96191992Y-16139304D01*
X-96842435Y-16138736D01*
X-97443583Y-16387126D01*
X-97903918Y-16846657D01*
X-98153356Y-17447372D01*
X-98153924Y-18097815D01*
X-97905534Y-18698963D01*
X-97446003Y-19159298D01*
X-96845288Y-19408736D01*
X-96488745Y-19409047D01*
X-96060617Y-19837176D01*
X-96155467Y-20314020D01*
X-96031010Y-20939707D01*
X-95676587Y-21470140D01*
X-95146154Y-21824563D01*
X-94520467Y-21949020D01*
X-93436813Y-21949020D01*
X-92811126Y-21824563D01*
X-92280693Y-21470140D01*
X-91926270Y-20939707D01*
X-91858653Y-20599770D01*
X-91033640Y-20599770D01*
X-91033640Y-21440329D01*
X-90936967Y-21673718D01*
X-90758339Y-21852347D01*
X-90524950Y-21949020D01*
X-89184390Y-21949020D01*
X-89025640Y-21790270D01*
X-89025640Y-20441020D01*
X-88771640Y-20441020D01*
X-88771640Y-21790270D01*
X-88612890Y-21949020D01*
X-87272330Y-21949020D01*
X-87038941Y-21852347D01*
X-86860313Y-21673718D01*
X-86763640Y-21440329D01*
X-86763640Y-20599770D01*
X-86922390Y-20441020D01*
X-88771640Y-20441020D01*
X-89025640Y-20441020D01*
X-90874890Y-20441020D01*
X-91033640Y-20599770D01*
X-91858653Y-20599770D01*
X-91801813Y-20314020D01*
X-91891990Y-19860670D01*
X-91438640Y-19950847D01*
X-91033640Y-19870287D01*
X-91033640Y-20028270D01*
X-90874890Y-20187020D01*
X-89025640Y-20187020D01*
X-89025640Y-18837770D01*
X-88771640Y-18837770D01*
X-88771640Y-20187020D01*
X-86922390Y-20187020D01*
X-86763640Y-20028270D01*
X-86763640Y-19187711D01*
X-86860313Y-18954322D01*
X-87038941Y-18775693D01*
X-87272330Y-18679020D01*
X-88612890Y-18679020D01*
X-88771640Y-18837770D01*
X-89025640Y-18837770D01*
X-89184390Y-18679020D01*
X-89875880Y-18679020D01*
X-89803640Y-18315847D01*
X-89803640Y-17232193D01*
X-89928097Y-16606506D01*
X-90282520Y-16076073D01*
X-90303640Y-16061961D01*
X-90303640Y-14845143D01*
X-90285534Y-14888963D01*
X-89826003Y-15349298D01*
X-89225288Y-15598736D01*
X-88574845Y-15599304D01*
X-87973697Y-15350914D01*
X-87513362Y-14891383D01*
X-87263924Y-14290668D01*
X-87263356Y-13640225D01*
X-87511746Y-13039077D01*
X-87763640Y-12786742D01*
X-87763640Y-3804020D01*
X-87850037Y-3369674D01*
X-88096074Y-3001454D01*
X-89033640Y-2063888D01*
X-89033640Y-1333038D01*
X-88917199Y-1258110D01*
X-88772209Y-1045910D01*
X-88721200Y-794020D01*
X-88721200Y805980D01*
X-88765478Y1041297D01*
X-88783640Y1069522D01*
X-88783640Y5429278D01*
X-88534434Y6029433D01*
X-88533866Y6679674D01*
X-88782178Y7280635D01*
X-89241567Y7740826D01*
X-89842093Y7990186D01*
X-90492334Y7990754D01*
X-91093295Y7742442D01*
X-91553486Y7283053D01*
X-91802846Y6682527D01*
X-91803414Y6032286D01*
X-91555102Y5431325D01*
X-91553640Y5429860D01*
X-91553640Y1074600D01*
X-91565071Y1057870D01*
X-91586320Y952939D01*
X-91854717Y1221804D01*
X-92381949Y1440730D01*
X-92952827Y1441228D01*
X-93074437Y1390980D01*
X-95590999Y1390980D01*
X-95591277Y1391258D01*
X-96191992Y1640696D01*
X-96842435Y1641264D01*
X-97443583Y1392874D01*
X-97903918Y933343D01*
X-97923640Y885847D01*
X-97923640Y1368776D01*
X-97673362Y1618617D01*
X-97423924Y2219332D01*
X-97423356Y2869775D01*
X-97671746Y3470923D01*
X-97673640Y3472820D01*
X-97673640Y4512294D01*
X-97214954Y4970980D01*
X-96175342Y4970980D01*
X-95575187Y4721774D01*
X-94924946Y4721206D01*
X-94323985Y4969518D01*
X-93863794Y5428907D01*
X-93614434Y6029433D01*
X-93613866Y6679674D01*
X-93862178Y7280635D01*
X-94321567Y7740826D01*
X-94922093Y7990186D01*
X-95572334Y7990754D01*
X-96173295Y7742442D01*
X-96174760Y7740980D01*
X-97788640Y7740980D01*
X-98318657Y7635553D01*
X-98767983Y7335323D01*
X-100037983Y6065323D01*
X-100338213Y5615997D01*
X-100443640Y5085980D01*
X-100443640Y3473621D01*
X-100443918Y3473343D01*
X-100693356Y2872628D01*
X-100693924Y2222185D01*
X-114183640Y2222185D01*
X-114183640Y15245980D01*
X-114289067Y15775997D01*
X-114589297Y16225323D01*
X-115859297Y17495323D01*
X-116308623Y17795553D01*
X-116838640Y17900980D01*
X-122053640Y17900980D01*
X-122053640Y21830075D01*
X-121888089Y21995337D01*
X-121653907Y22559310D01*
X-121653701Y22795787D01*
X-118050023Y26399465D01*
X-117942288Y26560702D01*
X-117803986Y26767685D01*
X-117717589Y27202031D01*
X-117717589Y30194024D01*
X-117552038Y30359286D01*
X-117317856Y30923259D01*
X-117317650Y31159736D01*
X-114046406Y34430980D01*
X-110254545Y34430980D01*
X-110089283Y34265429D01*
X-109525310Y34031247D01*
X-108914649Y34030715D01*
X-108350269Y34263912D01*
X-108182909Y34430980D01*
X-104608772Y34430980D01*
X-101119942Y30942150D01*
X-101119956Y30925938D01*
X-100886759Y30361558D01*
X-100455334Y29929378D01*
X-99891361Y29695196D01*
X-99872972Y29695180D01*
X-96383640Y26205848D01*
X-96383640Y23901885D01*
X-96549191Y23736623D01*
X-96783373Y23172650D01*
X-96783905Y22561989D01*
X-96550708Y21997609D01*
X-96383640Y21830249D01*
X-96383640Y17692464D01*
X-96633486Y17443053D01*
X-96882846Y16842527D01*
X-96883414Y16192286D01*
X-96635102Y15591325D01*
X-96175713Y15131134D01*
X-95575187Y14881774D01*
X-94924946Y14881206D01*
X-94323985Y15129518D01*
X-93863794Y15588907D01*
X-93614434Y16189433D01*
X-93613866Y16839674D01*
X-93862178Y17440635D01*
X-94113640Y17692536D01*
X-94113640Y21578115D01*
X-94072730Y21514539D01*
X-93860530Y21369549D01*
X-93608640Y21318540D01*
X-92766332Y21318540D01*
X-91303640Y19855847D01*
X-91303640Y17692464D01*
X-91553486Y17443053D01*
X-91802846Y16842527D01*
X-91803414Y16192286D01*
X-91555102Y15591325D01*
X-91095713Y15131134D01*
X-90495187Y14881774D01*
X-89844946Y14881206D01*
X-89243985Y15129518D01*
X-88783794Y15588907D01*
X-88534434Y16189433D01*
X-88533866Y16839674D01*
X-88782178Y17440635D01*
X-89033640Y17692536D01*
X-89033640Y20325980D01*
X-89120037Y20760326D01*
X-89366074Y21128547D01*
X-91161200Y22923672D01*
X-91161200Y23765980D01*
X-91205478Y24001297D01*
X-91344550Y24217421D01*
X-91556750Y24362411D01*
X-91573640Y24365831D01*
X-91573640Y35565980D01*
X-91660037Y36000326D01*
X-91906074Y36368546D01*
X-92343665Y36806137D01*
X-92343356Y37159775D01*
X-92591746Y37760923D01*
X-93051277Y38221258D01*
X-93651992Y38470696D01*
X-94302435Y38471264D01*
X-94903583Y38222874D01*
X-95363918Y37763343D01*
X-95613356Y37162628D01*
X-95613924Y36512185D01*
X-95365534Y35911037D01*
X-94906003Y35450702D01*
X-94305288Y35201264D01*
X-93948745Y35200953D01*
X-93843640Y35095848D01*
X-93843640Y24369202D01*
X-93843957Y24369142D01*
X-94060081Y24230070D01*
X-94113640Y24151684D01*
X-94113640Y26675980D01*
X-94200037Y27110326D01*
X-94446074Y27478546D01*
X-98049819Y31082291D01*
X-98049751Y31160981D01*
X-98048746Y31160294D01*
X-97797584Y31105810D01*
X-97545013Y31153334D01*
X-97330831Y31295379D01*
X-96058039Y32568171D01*
X-95922954Y32765874D01*
X-95868470Y33017036D01*
X-95915994Y33269607D01*
X-96058039Y33483789D01*
X-96653640Y34079390D01*
X-96653640Y41915980D01*
X-96740037Y42350326D01*
X-96986074Y42718546D01*
X-102066074Y47798546D01*
X-102434294Y48044583D01*
X-102868640Y48130980D01*
X-114298640Y48130980D01*
X-114732986Y48044583D01*
X-115101206Y47798546D01*
X-121451206Y41448546D01*
X-121697243Y41080326D01*
X-121783640Y40645980D01*
X-121783640Y34160980D01*
X-128268640Y34160980D01*
X-128702986Y34074583D01*
X-129071206Y33828546D01*
X-130341206Y32558546D01*
X-130587243Y32190326D01*
X-130673640Y31755980D01*
X-130673640Y17785980D01*
X-130587243Y17351634D01*
X-130565134Y17318546D01*
X-130341206Y16983414D01*
X-129903106Y16545314D01*
X-129903414Y16192286D01*
X-129655102Y15591325D01*
X-129195713Y15131134D01*
X-128595187Y14881774D01*
X-127944946Y14881206D01*
X-127343985Y15129518D01*
X-126883794Y15588907D01*
X-126634434Y16189433D01*
X-126633866Y16839674D01*
X-126882178Y17440635D01*
X-127341567Y17900826D01*
X-127942093Y18150186D01*
X-128298025Y18150497D01*
X-128403640Y18256112D01*
X-128403640Y31285848D01*
X-127798508Y31890980D01*
X-121702050Y31890980D01*
X-121106449Y31295379D01*
X-120908746Y31160294D01*
X-120657584Y31105810D01*
X-120405013Y31153334D01*
X-120387646Y31164852D01*
X-120387854Y30925938D01*
X-120154657Y30361558D01*
X-119987589Y30194198D01*
X-119987589Y27672163D01*
X-123258711Y24401041D01*
X-123492631Y24401245D01*
X-124057011Y24168048D01*
X-124225253Y24000100D01*
X-124225478Y24001297D01*
X-124364550Y24217421D01*
X-124576750Y24362411D01*
X-124593640Y24365831D01*
X-124593640Y26768776D01*
X-124343362Y27018617D01*
X-124093924Y27619332D01*
X-124093356Y28269775D01*
X-124341746Y28870923D01*
X-124801277Y29331258D01*
X-125401992Y29580696D01*
X-126052435Y29581264D01*
X-126653583Y29332874D01*
X-127113918Y28873343D01*
X-127363356Y28272628D01*
X-127363924Y27622185D01*
X-127115534Y27021037D01*
X-126863640Y26768702D01*
X-126863640Y24369202D01*
X-126863957Y24369142D01*
X-127080081Y24230070D01*
X-127225071Y24017870D01*
X-127276080Y23765980D01*
X-127276080Y21965980D01*
X-127231802Y21730663D01*
X-127092730Y21514539D01*
X-126880530Y21369549D01*
X-126628640Y21318540D01*
X-124828640Y21318540D01*
X-124593323Y21362818D01*
X-124377199Y21501890D01*
X-124323640Y21580276D01*
X-124323640Y17692464D01*
X-124573486Y17443053D01*
X-124822846Y16842527D01*
X-124823414Y16192286D01*
X-124575102Y15591325D01*
X-124115713Y15131134D01*
X-123515187Y14881774D01*
X-122864946Y14881206D01*
X-122263985Y15129518D01*
X-122262520Y15130980D01*
X-117412326Y15130980D01*
X-116953640Y14672294D01*
X-116953640Y5802434D01*
X-117129297Y6065323D01*
X-118399297Y7335323D01*
X-118848623Y7635553D01*
X-119378640Y7740980D01*
X-122261938Y7740980D01*
X-122862093Y7990186D01*
X-123512334Y7990754D01*
X-124113295Y7742442D01*
X-124573486Y7283053D01*
X-124822846Y6682527D01*
X-124823414Y6032286D01*
X-124575102Y5431325D01*
X-124115713Y4971134D01*
X-123515187Y4721774D01*
X-122864946Y4721206D01*
X-122263985Y4969518D01*
X-122262520Y4970980D01*
X-119952326Y4970980D01*
X-119493640Y4512294D01*
X-119493640Y933621D01*
X-119493918Y933343D01*
X-119743356Y332628D01*
X-119743924Y-317815D01*
X-119495534Y-918963D01*
X-119243640Y-1171298D01*
X-119243640Y-4603887D01*
X-127801206Y-13161454D01*
X-128047243Y-13529674D01*
X-128133640Y-13964020D01*
X-128133640Y-16061961D01*
X-128154760Y-16076073D01*
X-128403640Y-16448549D01*
X-128403640Y-13164152D01*
X-127466074Y-12226586D01*
X-127242146Y-11891454D01*
X-127220037Y-11858366D01*
X-127133640Y-11424020D01*
X-127133640Y-1333038D01*
X-127017199Y-1258110D01*
X-126872209Y-1045910D01*
X-126850960Y-940979D01*
X-126582563Y-1209844D01*
X-126055331Y-1428770D01*
X-125484453Y-1429268D01*
X-125362843Y-1379020D01*
X-124458640Y-1379020D01*
X-123928623Y-1273593D01*
X-123479297Y-973363D01*
X-121595238Y910696D01*
X-121594845Y910696D01*
X-120993697Y1159086D01*
X-120533362Y1618617D01*
X-120283924Y2219332D01*
X-120283356Y2869775D01*
X-120531746Y3470923D01*
X-120991277Y3931258D01*
X-121591992Y4180696D01*
X-122242435Y4181264D01*
X-122843583Y3932874D01*
X-123303918Y3473343D01*
X-123553356Y2872628D01*
X-123553358Y2869948D01*
X-125032326Y1390980D01*
X-125362138Y1390980D01*
X-125481949Y1440730D01*
X-126052827Y1441228D01*
X-126580440Y1223223D01*
X-126849223Y954908D01*
X-126865478Y1041297D01*
X-126883640Y1069522D01*
X-126883640Y5429278D01*
X-126634434Y6029433D01*
X-126633866Y6679674D01*
X-126882178Y7280635D01*
X-127341567Y7740826D01*
X-127942093Y7990186D01*
X-128592334Y7990754D01*
X-129193295Y7742442D01*
X-129653486Y7283053D01*
X-129902846Y6682527D01*
X-129903414Y6032286D01*
X-129655102Y5431325D01*
X-129653640Y5429860D01*
X-129653640Y1074600D01*
X-129665071Y1057870D01*
X-129716080Y805980D01*
X-129716080Y-794020D01*
X-129671802Y-1029337D01*
X-129532730Y-1245461D01*
X-129403640Y-1333664D01*
X-129403640Y-10953888D01*
X-130341206Y-11891454D01*
X-130587243Y-12259674D01*
X-130673640Y-12694020D01*
X-130673640Y-18797010D01*
X-130706154Y-18803477D01*
X-131236587Y-19157900D01*
X-131591010Y-19688333D01*
X-131715467Y-20314020D01*
X-132638640Y-20314020D01*
X-132638640Y53905980D01*
X-85798640Y53905980D01*
X-85798640Y-23414020D01*
M02*
