G04 #@! TF.FileFunction,Copper,L2,Bot,Signal*
%FSLAX46Y46*%
G04 Gerber Fmt 4.6, Leading zero omitted, Abs format (unit mm)*
G04 Created by KiCad (PCBNEW 4.0.5-e0-6337~49~ubuntu16.04.1) date Sat May 13 16:51:14 2017*
%MOMM*%
%LPD*%
G01*
G04 APERTURE LIST*
%ADD10C,0.100000*%
%ADD11C,1.800000*%
%ADD12R,1.800000X1.800000*%
%ADD13O,2.000000X3.000000*%
%ADD14R,3.000000X2.000000*%
%ADD15O,3.000000X2.000000*%
%ADD16C,1.998980*%
%ADD17R,1.600000X1.600000*%
%ADD18C,1.600000*%
%ADD19R,1.700000X1.700000*%
%ADD20O,1.700000X1.700000*%
%ADD21C,2.000000*%
%ADD22C,1.000000*%
%ADD23C,1.500000*%
%ADD24C,0.254000*%
G04 APERTURE END LIST*
D10*
G36*
X-70130772Y33024160D02*
X-68857980Y34296952D01*
X-67585188Y33024160D01*
X-68857980Y31751368D01*
X-70130772Y33024160D01*
X-70130772Y33024160D01*
G37*
D11*
X-67061929Y31228109D03*
D10*
G36*
X-45997980Y34296952D02*
X-44725188Y33024160D01*
X-45997980Y31751368D01*
X-47270772Y33024160D01*
X-45997980Y34296952D01*
X-45997980Y34296952D01*
G37*
D11*
X-47794031Y31228109D03*
D12*
X-73937980Y22864160D03*
D11*
X-71397980Y22864160D03*
D12*
X-57427980Y38104160D03*
D11*
X-57427980Y35564160D03*
D12*
X-40917980Y22864160D03*
D11*
X-43457980Y22864160D03*
D13*
X-75207980Y-17775840D03*
D14*
X-72667980Y-20315840D03*
D15*
X-77747980Y-20315840D03*
D13*
X-39647980Y-17775840D03*
D14*
X-37107980Y-20315840D03*
D15*
X-42187980Y-20315840D03*
D16*
X-76477980Y16514160D03*
X-76477980Y6354160D03*
X-38377980Y16514160D03*
X-38377980Y6354160D03*
X-71397980Y16514160D03*
X-71397980Y6354160D03*
X-43457980Y16514160D03*
X-43457980Y6354160D03*
D17*
X-76477980Y4160D03*
D18*
X-73977980Y4160D03*
D17*
X-38377980Y4160D03*
D18*
X-40877980Y4160D03*
D19*
X-58697980Y-19045840D03*
D20*
X-56157980Y-19045840D03*
D10*
G36*
X-121921432Y33025980D02*
X-120648640Y34298772D01*
X-119375848Y33025980D01*
X-120648640Y31753188D01*
X-121921432Y33025980D01*
X-121921432Y33025980D01*
G37*
D11*
X-118852589Y31229929D03*
D10*
G36*
X-97788640Y34298772D02*
X-96515848Y33025980D01*
X-97788640Y31753188D01*
X-99061432Y33025980D01*
X-97788640Y34298772D01*
X-97788640Y34298772D01*
G37*
D11*
X-99584691Y31229929D03*
D12*
X-125728640Y22865980D03*
D11*
X-123188640Y22865980D03*
D12*
X-109218640Y38105980D03*
D11*
X-109218640Y35565980D03*
D12*
X-92708640Y22865980D03*
D11*
X-95248640Y22865980D03*
D13*
X-126998640Y-17774020D03*
D14*
X-124458640Y-20314020D03*
D15*
X-129538640Y-20314020D03*
D13*
X-91438640Y-17774020D03*
D14*
X-88898640Y-20314020D03*
D15*
X-93978640Y-20314020D03*
D16*
X-128268640Y16515980D03*
X-128268640Y6355980D03*
X-90168640Y16515980D03*
X-90168640Y6355980D03*
X-123188640Y16515980D03*
X-123188640Y6355980D03*
X-95248640Y16515980D03*
X-95248640Y6355980D03*
D17*
X-128268640Y5980D03*
D18*
X-125768640Y5980D03*
D17*
X-90168640Y5980D03*
D18*
X-92668640Y5980D03*
D19*
X-110488640Y-19044020D03*
D20*
X-107948640Y-19044020D03*
D21*
X-42187980Y36834160D03*
X-52347980Y39374160D03*
X-62507980Y39374160D03*
X-73937980Y27944160D03*
X-93978640Y36835980D03*
X-104138640Y39375980D03*
X-114298640Y39375980D03*
X-125728640Y27945980D03*
X-66317980Y4160D03*
X-44727980Y4160D03*
X-118108640Y5980D03*
X-96518640Y5980D03*
X-47267980Y2544160D03*
X-70127980Y2544160D03*
X-99058640Y2545980D03*
X-121918640Y2545980D03*
X-37107980Y-13965840D03*
X-44727980Y-17775840D03*
X-88898640Y-13964020D03*
X-96518640Y-17774020D03*
D22*
X-49807980Y36834160D02*
X-42187980Y36834160D01*
X-52347980Y39374160D02*
X-49807980Y36834160D01*
X-73937980Y39374160D02*
X-62507980Y39374160D01*
X-73937980Y27944160D02*
X-73937980Y39374160D01*
X-101598640Y36835980D02*
X-93978640Y36835980D01*
X-104138640Y39375980D02*
X-101598640Y36835980D01*
X-125728640Y39375980D02*
X-114298640Y39375980D01*
X-125728640Y27945980D02*
X-125728640Y39375980D01*
D23*
X-44727980Y4160D02*
X-66317980Y4160D01*
X-96518640Y5980D02*
X-118108640Y5980D01*
X-70127980Y2544160D02*
X-47267980Y2544160D01*
X-121918640Y2545980D02*
X-99058640Y2545980D01*
D22*
X-40917980Y-13965840D02*
X-37107980Y-13965840D01*
X-44727980Y-17775840D02*
X-40917980Y-13965840D01*
X-92708640Y-13964020D02*
X-88898640Y-13964020D01*
X-96518640Y-17774020D02*
X-92708640Y-13964020D01*
D24*
G36*
X-34007980Y-23415840D02*
X-80847980Y-23415840D01*
X-80847980Y-20315840D01*
X-79924807Y-20315840D01*
X-79800350Y-20941527D01*
X-79445927Y-21471960D01*
X-78915494Y-21826383D01*
X-78289807Y-21950840D01*
X-77206153Y-21950840D01*
X-76580466Y-21826383D01*
X-76050033Y-21471960D01*
X-75695610Y-20941527D01*
X-75627993Y-20601590D01*
X-74802980Y-20601590D01*
X-74802980Y-21442149D01*
X-74706307Y-21675538D01*
X-74527679Y-21854167D01*
X-74294290Y-21950840D01*
X-72953730Y-21950840D01*
X-72794980Y-21792090D01*
X-72794980Y-20442840D01*
X-72540980Y-20442840D01*
X-72540980Y-21792090D01*
X-72382230Y-21950840D01*
X-71041670Y-21950840D01*
X-70808281Y-21854167D01*
X-70629653Y-21675538D01*
X-70532980Y-21442149D01*
X-70532980Y-20601590D01*
X-70691730Y-20442840D01*
X-72540980Y-20442840D01*
X-72794980Y-20442840D01*
X-74644230Y-20442840D01*
X-74802980Y-20601590D01*
X-75627993Y-20601590D01*
X-75571153Y-20315840D01*
X-75661330Y-19862490D01*
X-75207980Y-19952667D01*
X-74802980Y-19872107D01*
X-74802980Y-20030090D01*
X-74644230Y-20188840D01*
X-72794980Y-20188840D01*
X-72794980Y-18839590D01*
X-72540980Y-18839590D01*
X-72540980Y-20188840D01*
X-70691730Y-20188840D01*
X-70532980Y-20030090D01*
X-70532980Y-19189531D01*
X-70629653Y-18956142D01*
X-70808281Y-18777513D01*
X-71041670Y-18680840D01*
X-72382230Y-18680840D01*
X-72540980Y-18839590D01*
X-72794980Y-18839590D01*
X-72953730Y-18680840D01*
X-73645220Y-18680840D01*
X-73572980Y-18317667D01*
X-73572980Y-18195840D01*
X-60195420Y-18195840D01*
X-60195420Y-19895840D01*
X-60151142Y-20131157D01*
X-60012070Y-20347281D01*
X-59799870Y-20492271D01*
X-59547980Y-20543280D01*
X-57847980Y-20543280D01*
X-57612663Y-20499002D01*
X-57396539Y-20359930D01*
X-57251549Y-20147730D01*
X-57229679Y-20039733D01*
X-56924904Y-20317485D01*
X-56514870Y-20487316D01*
X-56284980Y-20365995D01*
X-56284980Y-19172840D01*
X-56030980Y-19172840D01*
X-56030980Y-20365995D01*
X-55801090Y-20487316D01*
X-55391056Y-20317485D01*
X-54962797Y-19927198D01*
X-54716494Y-19402732D01*
X-54837161Y-19172840D01*
X-56030980Y-19172840D01*
X-56284980Y-19172840D01*
X-56304980Y-19172840D01*
X-56304980Y-18918840D01*
X-56284980Y-18918840D01*
X-56284980Y-17725685D01*
X-56030980Y-17725685D01*
X-56030980Y-18918840D01*
X-54837161Y-18918840D01*
X-54716494Y-18688948D01*
X-54962797Y-18164482D01*
X-55033953Y-18099635D01*
X-46363264Y-18099635D01*
X-46114874Y-18700783D01*
X-45655343Y-19161118D01*
X-45054628Y-19410556D01*
X-44404185Y-19411124D01*
X-43920321Y-19211195D01*
X-44240350Y-19690153D01*
X-44364807Y-20315840D01*
X-44240350Y-20941527D01*
X-43885927Y-21471960D01*
X-43355494Y-21826383D01*
X-42729807Y-21950840D01*
X-41646153Y-21950840D01*
X-41020466Y-21826383D01*
X-40490033Y-21471960D01*
X-40135610Y-20941527D01*
X-40067993Y-20601590D01*
X-39242980Y-20601590D01*
X-39242980Y-21442149D01*
X-39146307Y-21675538D01*
X-38967679Y-21854167D01*
X-38734290Y-21950840D01*
X-37393730Y-21950840D01*
X-37234980Y-21792090D01*
X-37234980Y-20442840D01*
X-36980980Y-20442840D01*
X-36980980Y-21792090D01*
X-36822230Y-21950840D01*
X-35481670Y-21950840D01*
X-35248281Y-21854167D01*
X-35069653Y-21675538D01*
X-34972980Y-21442149D01*
X-34972980Y-20601590D01*
X-35131730Y-20442840D01*
X-36980980Y-20442840D01*
X-37234980Y-20442840D01*
X-39084230Y-20442840D01*
X-39242980Y-20601590D01*
X-40067993Y-20601590D01*
X-40011153Y-20315840D01*
X-40101330Y-19862490D01*
X-39647980Y-19952667D01*
X-39242980Y-19872107D01*
X-39242980Y-20030090D01*
X-39084230Y-20188840D01*
X-37234980Y-20188840D01*
X-37234980Y-18839590D01*
X-36980980Y-18839590D01*
X-36980980Y-20188840D01*
X-35131730Y-20188840D01*
X-34972980Y-20030090D01*
X-34972980Y-19189531D01*
X-35069653Y-18956142D01*
X-35248281Y-18777513D01*
X-35481670Y-18680840D01*
X-36822230Y-18680840D01*
X-36980980Y-18839590D01*
X-37234980Y-18839590D01*
X-37393730Y-18680840D01*
X-38085220Y-18680840D01*
X-38012980Y-18317667D01*
X-38012980Y-17234013D01*
X-38137437Y-16608326D01*
X-38491860Y-16077893D01*
X-39022293Y-15723470D01*
X-39647980Y-15599013D01*
X-40273667Y-15723470D01*
X-40804100Y-16077893D01*
X-41158523Y-16608326D01*
X-41282980Y-17234013D01*
X-41282980Y-18317667D01*
X-41192803Y-18771017D01*
X-41646153Y-18680840D01*
X-42729807Y-18680840D01*
X-43355494Y-18805297D01*
X-43626111Y-18986117D01*
X-43342702Y-18703203D01*
X-43093264Y-18102488D01*
X-43092953Y-17745945D01*
X-40447848Y-15100840D01*
X-38285184Y-15100840D01*
X-38035343Y-15351118D01*
X-37434628Y-15600556D01*
X-36784185Y-15601124D01*
X-36183037Y-15352734D01*
X-35722702Y-14893203D01*
X-35473264Y-14292488D01*
X-35472696Y-13642045D01*
X-35721086Y-13040897D01*
X-36180617Y-12580562D01*
X-36781332Y-12331124D01*
X-37431775Y-12330556D01*
X-38032923Y-12578946D01*
X-38285258Y-12830840D01*
X-40917980Y-12830840D01*
X-41352325Y-12917236D01*
X-41720546Y-13163274D01*
X-44698137Y-16140865D01*
X-45051775Y-16140556D01*
X-45652923Y-16388946D01*
X-46113258Y-16848477D01*
X-46362696Y-17449192D01*
X-46363264Y-18099635D01*
X-55033953Y-18099635D01*
X-55391056Y-17774195D01*
X-55801090Y-17604364D01*
X-56030980Y-17725685D01*
X-56284980Y-17725685D01*
X-56514870Y-17604364D01*
X-56924904Y-17774195D01*
X-57227917Y-18050341D01*
X-57244818Y-17960523D01*
X-57383890Y-17744399D01*
X-57596090Y-17599409D01*
X-57847980Y-17548400D01*
X-59547980Y-17548400D01*
X-59783297Y-17592678D01*
X-59999421Y-17731750D01*
X-60144411Y-17943950D01*
X-60195420Y-18195840D01*
X-73572980Y-18195840D01*
X-73572980Y-17234013D01*
X-73697437Y-16608326D01*
X-74051860Y-16077893D01*
X-74582293Y-15723470D01*
X-75207980Y-15599013D01*
X-75833667Y-15723470D01*
X-76364100Y-16077893D01*
X-76718523Y-16608326D01*
X-76842980Y-17234013D01*
X-76842980Y-18317667D01*
X-76752803Y-18771017D01*
X-77206153Y-18680840D01*
X-78289807Y-18680840D01*
X-78915494Y-18805297D01*
X-79445927Y-19159720D01*
X-79800350Y-19690153D01*
X-79924807Y-20315840D01*
X-80847980Y-20315840D01*
X-80847980Y804160D01*
X-77925420Y804160D01*
X-77925420Y-795840D01*
X-77881142Y-1031157D01*
X-77742070Y-1247281D01*
X-77529870Y-1392271D01*
X-77277980Y-1443280D01*
X-75677980Y-1443280D01*
X-75442663Y-1399002D01*
X-75226539Y-1259930D01*
X-75081549Y-1047730D01*
X-75060300Y-942799D01*
X-74791903Y-1211664D01*
X-74264671Y-1430590D01*
X-73693793Y-1431088D01*
X-73166180Y-1213083D01*
X-72762156Y-809763D01*
X-72543230Y-282531D01*
X-72542732Y288347D01*
X-72760737Y815960D01*
X-73164057Y1219984D01*
X-73691289Y1438910D01*
X-74262167Y1439408D01*
X-74789780Y1221403D01*
X-75058563Y953088D01*
X-75074818Y1039477D01*
X-75213890Y1255601D01*
X-75426090Y1400591D01*
X-75677980Y1451600D01*
X-77277980Y1451600D01*
X-77513297Y1407322D01*
X-77729421Y1268250D01*
X-77874411Y1056050D01*
X-77925420Y804160D01*
X-80847980Y804160D01*
X-80847980Y2220365D01*
X-71763264Y2220365D01*
X-71514874Y1619217D01*
X-71055343Y1158882D01*
X-70454628Y909444D01*
X-69804185Y908876D01*
X-69203037Y1157266D01*
X-69201140Y1159160D01*
X-67475223Y1159160D01*
X-67703258Y931523D01*
X-67952696Y330808D01*
X-67953264Y-319635D01*
X-67704874Y-920783D01*
X-67245343Y-1381118D01*
X-66644628Y-1630556D01*
X-65994185Y-1631124D01*
X-65393037Y-1382734D01*
X-65391140Y-1380840D01*
X-45655621Y-1380840D01*
X-45655343Y-1381118D01*
X-45054628Y-1630556D01*
X-44404185Y-1631124D01*
X-43803037Y-1382734D01*
X-43342702Y-923203D01*
X-43093264Y-322488D01*
X-43093227Y-280027D01*
X-42313228Y-280027D01*
X-42095223Y-807640D01*
X-41691903Y-1211664D01*
X-41164671Y-1430590D01*
X-40593793Y-1431088D01*
X-40066180Y-1213083D01*
X-39797397Y-944768D01*
X-39781142Y-1031157D01*
X-39642070Y-1247281D01*
X-39429870Y-1392271D01*
X-39177980Y-1443280D01*
X-37577980Y-1443280D01*
X-37342663Y-1399002D01*
X-37126539Y-1259930D01*
X-36981549Y-1047730D01*
X-36930540Y-795840D01*
X-36930540Y804160D01*
X-36974818Y1039477D01*
X-37113890Y1255601D01*
X-37326090Y1400591D01*
X-37577980Y1451600D01*
X-39177980Y1451600D01*
X-39413297Y1407322D01*
X-39629421Y1268250D01*
X-39774411Y1056050D01*
X-39795660Y951119D01*
X-40064057Y1219984D01*
X-40591289Y1438910D01*
X-41162167Y1439408D01*
X-41689780Y1221403D01*
X-42093804Y818083D01*
X-42312730Y290851D01*
X-42313228Y-280027D01*
X-43093227Y-280027D01*
X-43092696Y327955D01*
X-43341086Y929103D01*
X-43800617Y1389438D01*
X-44401332Y1638876D01*
X-45051775Y1639444D01*
X-45652923Y1391054D01*
X-45654820Y1389160D01*
X-46110737Y1389160D01*
X-45882702Y1616797D01*
X-45633264Y2217512D01*
X-45632696Y2867955D01*
X-45881086Y3469103D01*
X-46340617Y3929438D01*
X-46941332Y4178876D01*
X-47591775Y4179444D01*
X-48192923Y3931054D01*
X-48194820Y3929160D01*
X-69200339Y3929160D01*
X-69200617Y3929438D01*
X-69801332Y4178876D01*
X-70451775Y4179444D01*
X-71052923Y3931054D01*
X-71513258Y3471523D01*
X-71762696Y2870808D01*
X-71763264Y2220365D01*
X-80847980Y2220365D01*
X-80847980Y6030466D01*
X-78112754Y6030466D01*
X-77864442Y5429505D01*
X-77405053Y4969314D01*
X-76804527Y4719954D01*
X-76154286Y4719386D01*
X-75553325Y4967698D01*
X-75093134Y5427087D01*
X-74843774Y6027613D01*
X-74843772Y6030466D01*
X-73032754Y6030466D01*
X-72784442Y5429505D01*
X-72325053Y4969314D01*
X-71724527Y4719954D01*
X-71074286Y4719386D01*
X-70473325Y4967698D01*
X-70013134Y5427087D01*
X-69763774Y6027613D01*
X-69763772Y6030466D01*
X-45092754Y6030466D01*
X-44844442Y5429505D01*
X-44385053Y4969314D01*
X-43784527Y4719954D01*
X-43134286Y4719386D01*
X-42533325Y4967698D01*
X-42073134Y5427087D01*
X-41823774Y6027613D01*
X-41823772Y6030466D01*
X-40012754Y6030466D01*
X-39764442Y5429505D01*
X-39305053Y4969314D01*
X-38704527Y4719954D01*
X-38054286Y4719386D01*
X-37453325Y4967698D01*
X-36993134Y5427087D01*
X-36743774Y6027613D01*
X-36743206Y6677854D01*
X-36991518Y7278815D01*
X-37450907Y7739006D01*
X-38051433Y7988366D01*
X-38701674Y7988934D01*
X-39302635Y7740622D01*
X-39762826Y7281233D01*
X-40012186Y6680707D01*
X-40012754Y6030466D01*
X-41823772Y6030466D01*
X-41823206Y6677854D01*
X-42071518Y7278815D01*
X-42530907Y7739006D01*
X-43131433Y7988366D01*
X-43781674Y7988934D01*
X-44382635Y7740622D01*
X-44842826Y7281233D01*
X-45092186Y6680707D01*
X-45092754Y6030466D01*
X-69763772Y6030466D01*
X-69763206Y6677854D01*
X-70011518Y7278815D01*
X-70470907Y7739006D01*
X-71071433Y7988366D01*
X-71721674Y7988934D01*
X-72322635Y7740622D01*
X-72782826Y7281233D01*
X-73032186Y6680707D01*
X-73032754Y6030466D01*
X-74843772Y6030466D01*
X-74843206Y6677854D01*
X-75091518Y7278815D01*
X-75550907Y7739006D01*
X-76151433Y7988366D01*
X-76801674Y7988934D01*
X-77402635Y7740622D01*
X-77862826Y7281233D01*
X-78112186Y6680707D01*
X-78112754Y6030466D01*
X-80847980Y6030466D01*
X-80847980Y16190466D01*
X-78112754Y16190466D01*
X-77864442Y15589505D01*
X-77405053Y15129314D01*
X-76804527Y14879954D01*
X-76154286Y14879386D01*
X-75553325Y15127698D01*
X-75093134Y15587087D01*
X-74843774Y16187613D01*
X-74843772Y16190466D01*
X-73032754Y16190466D01*
X-72784442Y15589505D01*
X-72325053Y15129314D01*
X-71724527Y14879954D01*
X-71074286Y14879386D01*
X-70473325Y15127698D01*
X-70013134Y15587087D01*
X-69763774Y16187613D01*
X-69763772Y16190466D01*
X-45092754Y16190466D01*
X-44844442Y15589505D01*
X-44385053Y15129314D01*
X-43784527Y14879954D01*
X-43134286Y14879386D01*
X-42533325Y15127698D01*
X-42073134Y15587087D01*
X-41823774Y16187613D01*
X-41823772Y16190466D01*
X-40012754Y16190466D01*
X-39764442Y15589505D01*
X-39305053Y15129314D01*
X-38704527Y14879954D01*
X-38054286Y14879386D01*
X-37453325Y15127698D01*
X-36993134Y15587087D01*
X-36743774Y16187613D01*
X-36743206Y16837854D01*
X-36991518Y17438815D01*
X-37450907Y17899006D01*
X-38051433Y18148366D01*
X-38701674Y18148934D01*
X-39302635Y17900622D01*
X-39762826Y17441233D01*
X-40012186Y16840707D01*
X-40012754Y16190466D01*
X-41823772Y16190466D01*
X-41823206Y16837854D01*
X-42071518Y17438815D01*
X-42530907Y17899006D01*
X-43131433Y18148366D01*
X-43781674Y18148934D01*
X-44382635Y17900622D01*
X-44842826Y17441233D01*
X-45092186Y16840707D01*
X-45092754Y16190466D01*
X-69763772Y16190466D01*
X-69763206Y16837854D01*
X-70011518Y17438815D01*
X-70470907Y17899006D01*
X-71071433Y18148366D01*
X-71721674Y18148934D01*
X-72322635Y17900622D01*
X-72782826Y17441233D01*
X-73032186Y16840707D01*
X-73032754Y16190466D01*
X-74843772Y16190466D01*
X-74843206Y16837854D01*
X-75091518Y17438815D01*
X-75550907Y17899006D01*
X-76151433Y18148366D01*
X-76801674Y18148934D01*
X-77402635Y17900622D01*
X-77862826Y17441233D01*
X-78112186Y16840707D01*
X-78112754Y16190466D01*
X-80847980Y16190466D01*
X-80847980Y23764160D01*
X-75485420Y23764160D01*
X-75485420Y21964160D01*
X-75441142Y21728843D01*
X-75302070Y21512719D01*
X-75089870Y21367729D01*
X-74837980Y21316720D01*
X-73037980Y21316720D01*
X-72802663Y21360998D01*
X-72586539Y21500070D01*
X-72441549Y21712270D01*
X-72437413Y21732694D01*
X-72268623Y21563609D01*
X-71704650Y21329427D01*
X-71093989Y21328895D01*
X-70529609Y21562092D01*
X-70097429Y21993517D01*
X-69863247Y22557490D01*
X-69863245Y22560169D01*
X-44993245Y22560169D01*
X-44760048Y21995789D01*
X-44328623Y21563609D01*
X-43764650Y21329427D01*
X-43153989Y21328895D01*
X-42589609Y21562092D01*
X-42421367Y21730040D01*
X-42421142Y21728843D01*
X-42282070Y21512719D01*
X-42069870Y21367729D01*
X-41817980Y21316720D01*
X-40017980Y21316720D01*
X-39782663Y21360998D01*
X-39566539Y21500070D01*
X-39421549Y21712270D01*
X-39370540Y21964160D01*
X-39370540Y23764160D01*
X-39414818Y23999477D01*
X-39553890Y24215601D01*
X-39766090Y24360591D01*
X-40017980Y24411600D01*
X-41817980Y24411600D01*
X-42053297Y24367322D01*
X-42269421Y24228250D01*
X-42414411Y24016050D01*
X-42418547Y23995626D01*
X-42587337Y24164711D01*
X-43151310Y24398893D01*
X-43761971Y24399425D01*
X-44326351Y24166228D01*
X-44758531Y23734803D01*
X-44992713Y23170830D01*
X-44993245Y22560169D01*
X-69863245Y22560169D01*
X-69862715Y23168151D01*
X-70095912Y23732531D01*
X-70527337Y24164711D01*
X-71091310Y24398893D01*
X-71701971Y24399425D01*
X-72266351Y24166228D01*
X-72434593Y23998280D01*
X-72434818Y23999477D01*
X-72573890Y24215601D01*
X-72786090Y24360591D01*
X-73037980Y24411600D01*
X-74837980Y24411600D01*
X-75073297Y24367322D01*
X-75289421Y24228250D01*
X-75434411Y24016050D01*
X-75485420Y23764160D01*
X-80847980Y23764160D01*
X-80847980Y27620365D01*
X-75573264Y27620365D01*
X-75324874Y27019217D01*
X-74865343Y26558882D01*
X-74264628Y26309444D01*
X-73614185Y26308876D01*
X-73013037Y26557266D01*
X-72552702Y27016797D01*
X-72303264Y27617512D01*
X-72302696Y28267955D01*
X-72551086Y28869103D01*
X-72802980Y29121438D01*
X-72802980Y33033104D01*
X-70778150Y33033104D01*
X-70730626Y32780533D01*
X-70588581Y32566351D01*
X-69315789Y31293559D01*
X-69118086Y31158474D01*
X-68866924Y31103990D01*
X-68614353Y31151514D01*
X-68596986Y31163032D01*
X-68597194Y30924118D01*
X-68363997Y30359738D01*
X-67932572Y29927558D01*
X-67368599Y29693376D01*
X-66757938Y29692844D01*
X-66193558Y29926041D01*
X-65761378Y30357466D01*
X-65527196Y30921439D01*
X-65527194Y30924118D01*
X-49329296Y30924118D01*
X-49096099Y30359738D01*
X-48664674Y29927558D01*
X-48100701Y29693376D01*
X-47490040Y29692844D01*
X-46925660Y29926041D01*
X-46493480Y30357466D01*
X-46259298Y30921439D01*
X-46259091Y31159161D01*
X-46258086Y31158474D01*
X-46006924Y31103990D01*
X-45754353Y31151514D01*
X-45540171Y31293559D01*
X-44267379Y32566351D01*
X-44132294Y32764054D01*
X-44077810Y33015216D01*
X-44125334Y33267787D01*
X-44267379Y33481969D01*
X-45540171Y34754761D01*
X-45737874Y34889846D01*
X-45989036Y34944330D01*
X-46241607Y34896806D01*
X-46455789Y34754761D01*
X-47728581Y33481969D01*
X-47863666Y33284266D01*
X-47918150Y33033104D01*
X-47870626Y32780533D01*
X-47859108Y32763166D01*
X-48098022Y32763374D01*
X-48662402Y32530177D01*
X-49094582Y32098752D01*
X-49328764Y31534779D01*
X-49329296Y30924118D01*
X-65527194Y30924118D01*
X-65526664Y31532100D01*
X-65759861Y32096480D01*
X-66191286Y32528660D01*
X-66755259Y32762842D01*
X-66992981Y32763049D01*
X-66992294Y32764054D01*
X-66937810Y33015216D01*
X-66985334Y33267787D01*
X-67127379Y33481969D01*
X-68400171Y34754761D01*
X-68597874Y34889846D01*
X-68849036Y34944330D01*
X-69101607Y34896806D01*
X-69315789Y34754761D01*
X-70588581Y33481969D01*
X-70723666Y33284266D01*
X-70778150Y33033104D01*
X-72802980Y33033104D01*
X-72802980Y38239160D01*
X-63685184Y38239160D01*
X-63435343Y37988882D01*
X-62834628Y37739444D01*
X-62184185Y37738876D01*
X-61583037Y37987266D01*
X-61122702Y38446797D01*
X-60891266Y39004160D01*
X-58975420Y39004160D01*
X-58975420Y37204160D01*
X-58931142Y36968843D01*
X-58792070Y36752719D01*
X-58579870Y36607729D01*
X-58559446Y36603593D01*
X-58728531Y36434803D01*
X-58962713Y35870830D01*
X-58963245Y35260169D01*
X-58730048Y34695789D01*
X-58298623Y34263609D01*
X-57734650Y34029427D01*
X-57123989Y34028895D01*
X-56559609Y34262092D01*
X-56127429Y34693517D01*
X-55893247Y35257490D01*
X-55892715Y35868151D01*
X-56125912Y36432531D01*
X-56293860Y36600773D01*
X-56292663Y36600998D01*
X-56076539Y36740070D01*
X-55931549Y36952270D01*
X-55880540Y37204160D01*
X-55880540Y39004160D01*
X-55889234Y39050365D01*
X-53983264Y39050365D01*
X-53734874Y38449217D01*
X-53275343Y37988882D01*
X-52674628Y37739444D01*
X-52318085Y37739133D01*
X-50610547Y36031594D01*
X-50369946Y35870830D01*
X-50242326Y35785557D01*
X-49807980Y35699160D01*
X-43365184Y35699160D01*
X-43115343Y35448882D01*
X-42514628Y35199444D01*
X-41864185Y35198876D01*
X-41263037Y35447266D01*
X-40802702Y35906797D01*
X-40553264Y36507512D01*
X-40552696Y37157955D01*
X-40801086Y37759103D01*
X-41260617Y38219438D01*
X-41861332Y38468876D01*
X-42511775Y38469444D01*
X-43112923Y38221054D01*
X-43365258Y37969160D01*
X-49337847Y37969160D01*
X-50713005Y39344317D01*
X-50712696Y39697955D01*
X-50961086Y40299103D01*
X-51420617Y40759438D01*
X-52021332Y41008876D01*
X-52671775Y41009444D01*
X-53272923Y40761054D01*
X-53733258Y40301523D01*
X-53982696Y39700808D01*
X-53983264Y39050365D01*
X-55889234Y39050365D01*
X-55924818Y39239477D01*
X-56063890Y39455601D01*
X-56276090Y39600591D01*
X-56527980Y39651600D01*
X-58327980Y39651600D01*
X-58563297Y39607322D01*
X-58779421Y39468250D01*
X-58924411Y39256050D01*
X-58975420Y39004160D01*
X-60891266Y39004160D01*
X-60873264Y39047512D01*
X-60872696Y39697955D01*
X-61121086Y40299103D01*
X-61580617Y40759438D01*
X-62181332Y41008876D01*
X-62831775Y41009444D01*
X-63432923Y40761054D01*
X-63685258Y40509160D01*
X-73937980Y40509160D01*
X-74372326Y40422763D01*
X-74740546Y40176726D01*
X-74986583Y39808506D01*
X-75072980Y39374160D01*
X-75072980Y29121364D01*
X-75323258Y28871523D01*
X-75572696Y28270808D01*
X-75573264Y27620365D01*
X-80847980Y27620365D01*
X-80847980Y53904160D01*
X-34007980Y53904160D01*
X-34007980Y-23415840D01*
X-34007980Y-23415840D01*
G37*
X-34007980Y-23415840D02*
X-80847980Y-23415840D01*
X-80847980Y-20315840D01*
X-79924807Y-20315840D01*
X-79800350Y-20941527D01*
X-79445927Y-21471960D01*
X-78915494Y-21826383D01*
X-78289807Y-21950840D01*
X-77206153Y-21950840D01*
X-76580466Y-21826383D01*
X-76050033Y-21471960D01*
X-75695610Y-20941527D01*
X-75627993Y-20601590D01*
X-74802980Y-20601590D01*
X-74802980Y-21442149D01*
X-74706307Y-21675538D01*
X-74527679Y-21854167D01*
X-74294290Y-21950840D01*
X-72953730Y-21950840D01*
X-72794980Y-21792090D01*
X-72794980Y-20442840D01*
X-72540980Y-20442840D01*
X-72540980Y-21792090D01*
X-72382230Y-21950840D01*
X-71041670Y-21950840D01*
X-70808281Y-21854167D01*
X-70629653Y-21675538D01*
X-70532980Y-21442149D01*
X-70532980Y-20601590D01*
X-70691730Y-20442840D01*
X-72540980Y-20442840D01*
X-72794980Y-20442840D01*
X-74644230Y-20442840D01*
X-74802980Y-20601590D01*
X-75627993Y-20601590D01*
X-75571153Y-20315840D01*
X-75661330Y-19862490D01*
X-75207980Y-19952667D01*
X-74802980Y-19872107D01*
X-74802980Y-20030090D01*
X-74644230Y-20188840D01*
X-72794980Y-20188840D01*
X-72794980Y-18839590D01*
X-72540980Y-18839590D01*
X-72540980Y-20188840D01*
X-70691730Y-20188840D01*
X-70532980Y-20030090D01*
X-70532980Y-19189531D01*
X-70629653Y-18956142D01*
X-70808281Y-18777513D01*
X-71041670Y-18680840D01*
X-72382230Y-18680840D01*
X-72540980Y-18839590D01*
X-72794980Y-18839590D01*
X-72953730Y-18680840D01*
X-73645220Y-18680840D01*
X-73572980Y-18317667D01*
X-73572980Y-18195840D01*
X-60195420Y-18195840D01*
X-60195420Y-19895840D01*
X-60151142Y-20131157D01*
X-60012070Y-20347281D01*
X-59799870Y-20492271D01*
X-59547980Y-20543280D01*
X-57847980Y-20543280D01*
X-57612663Y-20499002D01*
X-57396539Y-20359930D01*
X-57251549Y-20147730D01*
X-57229679Y-20039733D01*
X-56924904Y-20317485D01*
X-56514870Y-20487316D01*
X-56284980Y-20365995D01*
X-56284980Y-19172840D01*
X-56030980Y-19172840D01*
X-56030980Y-20365995D01*
X-55801090Y-20487316D01*
X-55391056Y-20317485D01*
X-54962797Y-19927198D01*
X-54716494Y-19402732D01*
X-54837161Y-19172840D01*
X-56030980Y-19172840D01*
X-56284980Y-19172840D01*
X-56304980Y-19172840D01*
X-56304980Y-18918840D01*
X-56284980Y-18918840D01*
X-56284980Y-17725685D01*
X-56030980Y-17725685D01*
X-56030980Y-18918840D01*
X-54837161Y-18918840D01*
X-54716494Y-18688948D01*
X-54962797Y-18164482D01*
X-55033953Y-18099635D01*
X-46363264Y-18099635D01*
X-46114874Y-18700783D01*
X-45655343Y-19161118D01*
X-45054628Y-19410556D01*
X-44404185Y-19411124D01*
X-43920321Y-19211195D01*
X-44240350Y-19690153D01*
X-44364807Y-20315840D01*
X-44240350Y-20941527D01*
X-43885927Y-21471960D01*
X-43355494Y-21826383D01*
X-42729807Y-21950840D01*
X-41646153Y-21950840D01*
X-41020466Y-21826383D01*
X-40490033Y-21471960D01*
X-40135610Y-20941527D01*
X-40067993Y-20601590D01*
X-39242980Y-20601590D01*
X-39242980Y-21442149D01*
X-39146307Y-21675538D01*
X-38967679Y-21854167D01*
X-38734290Y-21950840D01*
X-37393730Y-21950840D01*
X-37234980Y-21792090D01*
X-37234980Y-20442840D01*
X-36980980Y-20442840D01*
X-36980980Y-21792090D01*
X-36822230Y-21950840D01*
X-35481670Y-21950840D01*
X-35248281Y-21854167D01*
X-35069653Y-21675538D01*
X-34972980Y-21442149D01*
X-34972980Y-20601590D01*
X-35131730Y-20442840D01*
X-36980980Y-20442840D01*
X-37234980Y-20442840D01*
X-39084230Y-20442840D01*
X-39242980Y-20601590D01*
X-40067993Y-20601590D01*
X-40011153Y-20315840D01*
X-40101330Y-19862490D01*
X-39647980Y-19952667D01*
X-39242980Y-19872107D01*
X-39242980Y-20030090D01*
X-39084230Y-20188840D01*
X-37234980Y-20188840D01*
X-37234980Y-18839590D01*
X-36980980Y-18839590D01*
X-36980980Y-20188840D01*
X-35131730Y-20188840D01*
X-34972980Y-20030090D01*
X-34972980Y-19189531D01*
X-35069653Y-18956142D01*
X-35248281Y-18777513D01*
X-35481670Y-18680840D01*
X-36822230Y-18680840D01*
X-36980980Y-18839590D01*
X-37234980Y-18839590D01*
X-37393730Y-18680840D01*
X-38085220Y-18680840D01*
X-38012980Y-18317667D01*
X-38012980Y-17234013D01*
X-38137437Y-16608326D01*
X-38491860Y-16077893D01*
X-39022293Y-15723470D01*
X-39647980Y-15599013D01*
X-40273667Y-15723470D01*
X-40804100Y-16077893D01*
X-41158523Y-16608326D01*
X-41282980Y-17234013D01*
X-41282980Y-18317667D01*
X-41192803Y-18771017D01*
X-41646153Y-18680840D01*
X-42729807Y-18680840D01*
X-43355494Y-18805297D01*
X-43626111Y-18986117D01*
X-43342702Y-18703203D01*
X-43093264Y-18102488D01*
X-43092953Y-17745945D01*
X-40447848Y-15100840D01*
X-38285184Y-15100840D01*
X-38035343Y-15351118D01*
X-37434628Y-15600556D01*
X-36784185Y-15601124D01*
X-36183037Y-15352734D01*
X-35722702Y-14893203D01*
X-35473264Y-14292488D01*
X-35472696Y-13642045D01*
X-35721086Y-13040897D01*
X-36180617Y-12580562D01*
X-36781332Y-12331124D01*
X-37431775Y-12330556D01*
X-38032923Y-12578946D01*
X-38285258Y-12830840D01*
X-40917980Y-12830840D01*
X-41352325Y-12917236D01*
X-41720546Y-13163274D01*
X-44698137Y-16140865D01*
X-45051775Y-16140556D01*
X-45652923Y-16388946D01*
X-46113258Y-16848477D01*
X-46362696Y-17449192D01*
X-46363264Y-18099635D01*
X-55033953Y-18099635D01*
X-55391056Y-17774195D01*
X-55801090Y-17604364D01*
X-56030980Y-17725685D01*
X-56284980Y-17725685D01*
X-56514870Y-17604364D01*
X-56924904Y-17774195D01*
X-57227917Y-18050341D01*
X-57244818Y-17960523D01*
X-57383890Y-17744399D01*
X-57596090Y-17599409D01*
X-57847980Y-17548400D01*
X-59547980Y-17548400D01*
X-59783297Y-17592678D01*
X-59999421Y-17731750D01*
X-60144411Y-17943950D01*
X-60195420Y-18195840D01*
X-73572980Y-18195840D01*
X-73572980Y-17234013D01*
X-73697437Y-16608326D01*
X-74051860Y-16077893D01*
X-74582293Y-15723470D01*
X-75207980Y-15599013D01*
X-75833667Y-15723470D01*
X-76364100Y-16077893D01*
X-76718523Y-16608326D01*
X-76842980Y-17234013D01*
X-76842980Y-18317667D01*
X-76752803Y-18771017D01*
X-77206153Y-18680840D01*
X-78289807Y-18680840D01*
X-78915494Y-18805297D01*
X-79445927Y-19159720D01*
X-79800350Y-19690153D01*
X-79924807Y-20315840D01*
X-80847980Y-20315840D01*
X-80847980Y804160D01*
X-77925420Y804160D01*
X-77925420Y-795840D01*
X-77881142Y-1031157D01*
X-77742070Y-1247281D01*
X-77529870Y-1392271D01*
X-77277980Y-1443280D01*
X-75677980Y-1443280D01*
X-75442663Y-1399002D01*
X-75226539Y-1259930D01*
X-75081549Y-1047730D01*
X-75060300Y-942799D01*
X-74791903Y-1211664D01*
X-74264671Y-1430590D01*
X-73693793Y-1431088D01*
X-73166180Y-1213083D01*
X-72762156Y-809763D01*
X-72543230Y-282531D01*
X-72542732Y288347D01*
X-72760737Y815960D01*
X-73164057Y1219984D01*
X-73691289Y1438910D01*
X-74262167Y1439408D01*
X-74789780Y1221403D01*
X-75058563Y953088D01*
X-75074818Y1039477D01*
X-75213890Y1255601D01*
X-75426090Y1400591D01*
X-75677980Y1451600D01*
X-77277980Y1451600D01*
X-77513297Y1407322D01*
X-77729421Y1268250D01*
X-77874411Y1056050D01*
X-77925420Y804160D01*
X-80847980Y804160D01*
X-80847980Y2220365D01*
X-71763264Y2220365D01*
X-71514874Y1619217D01*
X-71055343Y1158882D01*
X-70454628Y909444D01*
X-69804185Y908876D01*
X-69203037Y1157266D01*
X-69201140Y1159160D01*
X-67475223Y1159160D01*
X-67703258Y931523D01*
X-67952696Y330808D01*
X-67953264Y-319635D01*
X-67704874Y-920783D01*
X-67245343Y-1381118D01*
X-66644628Y-1630556D01*
X-65994185Y-1631124D01*
X-65393037Y-1382734D01*
X-65391140Y-1380840D01*
X-45655621Y-1380840D01*
X-45655343Y-1381118D01*
X-45054628Y-1630556D01*
X-44404185Y-1631124D01*
X-43803037Y-1382734D01*
X-43342702Y-923203D01*
X-43093264Y-322488D01*
X-43093227Y-280027D01*
X-42313228Y-280027D01*
X-42095223Y-807640D01*
X-41691903Y-1211664D01*
X-41164671Y-1430590D01*
X-40593793Y-1431088D01*
X-40066180Y-1213083D01*
X-39797397Y-944768D01*
X-39781142Y-1031157D01*
X-39642070Y-1247281D01*
X-39429870Y-1392271D01*
X-39177980Y-1443280D01*
X-37577980Y-1443280D01*
X-37342663Y-1399002D01*
X-37126539Y-1259930D01*
X-36981549Y-1047730D01*
X-36930540Y-795840D01*
X-36930540Y804160D01*
X-36974818Y1039477D01*
X-37113890Y1255601D01*
X-37326090Y1400591D01*
X-37577980Y1451600D01*
X-39177980Y1451600D01*
X-39413297Y1407322D01*
X-39629421Y1268250D01*
X-39774411Y1056050D01*
X-39795660Y951119D01*
X-40064057Y1219984D01*
X-40591289Y1438910D01*
X-41162167Y1439408D01*
X-41689780Y1221403D01*
X-42093804Y818083D01*
X-42312730Y290851D01*
X-42313228Y-280027D01*
X-43093227Y-280027D01*
X-43092696Y327955D01*
X-43341086Y929103D01*
X-43800617Y1389438D01*
X-44401332Y1638876D01*
X-45051775Y1639444D01*
X-45652923Y1391054D01*
X-45654820Y1389160D01*
X-46110737Y1389160D01*
X-45882702Y1616797D01*
X-45633264Y2217512D01*
X-45632696Y2867955D01*
X-45881086Y3469103D01*
X-46340617Y3929438D01*
X-46941332Y4178876D01*
X-47591775Y4179444D01*
X-48192923Y3931054D01*
X-48194820Y3929160D01*
X-69200339Y3929160D01*
X-69200617Y3929438D01*
X-69801332Y4178876D01*
X-70451775Y4179444D01*
X-71052923Y3931054D01*
X-71513258Y3471523D01*
X-71762696Y2870808D01*
X-71763264Y2220365D01*
X-80847980Y2220365D01*
X-80847980Y6030466D01*
X-78112754Y6030466D01*
X-77864442Y5429505D01*
X-77405053Y4969314D01*
X-76804527Y4719954D01*
X-76154286Y4719386D01*
X-75553325Y4967698D01*
X-75093134Y5427087D01*
X-74843774Y6027613D01*
X-74843772Y6030466D01*
X-73032754Y6030466D01*
X-72784442Y5429505D01*
X-72325053Y4969314D01*
X-71724527Y4719954D01*
X-71074286Y4719386D01*
X-70473325Y4967698D01*
X-70013134Y5427087D01*
X-69763774Y6027613D01*
X-69763772Y6030466D01*
X-45092754Y6030466D01*
X-44844442Y5429505D01*
X-44385053Y4969314D01*
X-43784527Y4719954D01*
X-43134286Y4719386D01*
X-42533325Y4967698D01*
X-42073134Y5427087D01*
X-41823774Y6027613D01*
X-41823772Y6030466D01*
X-40012754Y6030466D01*
X-39764442Y5429505D01*
X-39305053Y4969314D01*
X-38704527Y4719954D01*
X-38054286Y4719386D01*
X-37453325Y4967698D01*
X-36993134Y5427087D01*
X-36743774Y6027613D01*
X-36743206Y6677854D01*
X-36991518Y7278815D01*
X-37450907Y7739006D01*
X-38051433Y7988366D01*
X-38701674Y7988934D01*
X-39302635Y7740622D01*
X-39762826Y7281233D01*
X-40012186Y6680707D01*
X-40012754Y6030466D01*
X-41823772Y6030466D01*
X-41823206Y6677854D01*
X-42071518Y7278815D01*
X-42530907Y7739006D01*
X-43131433Y7988366D01*
X-43781674Y7988934D01*
X-44382635Y7740622D01*
X-44842826Y7281233D01*
X-45092186Y6680707D01*
X-45092754Y6030466D01*
X-69763772Y6030466D01*
X-69763206Y6677854D01*
X-70011518Y7278815D01*
X-70470907Y7739006D01*
X-71071433Y7988366D01*
X-71721674Y7988934D01*
X-72322635Y7740622D01*
X-72782826Y7281233D01*
X-73032186Y6680707D01*
X-73032754Y6030466D01*
X-74843772Y6030466D01*
X-74843206Y6677854D01*
X-75091518Y7278815D01*
X-75550907Y7739006D01*
X-76151433Y7988366D01*
X-76801674Y7988934D01*
X-77402635Y7740622D01*
X-77862826Y7281233D01*
X-78112186Y6680707D01*
X-78112754Y6030466D01*
X-80847980Y6030466D01*
X-80847980Y16190466D01*
X-78112754Y16190466D01*
X-77864442Y15589505D01*
X-77405053Y15129314D01*
X-76804527Y14879954D01*
X-76154286Y14879386D01*
X-75553325Y15127698D01*
X-75093134Y15587087D01*
X-74843774Y16187613D01*
X-74843772Y16190466D01*
X-73032754Y16190466D01*
X-72784442Y15589505D01*
X-72325053Y15129314D01*
X-71724527Y14879954D01*
X-71074286Y14879386D01*
X-70473325Y15127698D01*
X-70013134Y15587087D01*
X-69763774Y16187613D01*
X-69763772Y16190466D01*
X-45092754Y16190466D01*
X-44844442Y15589505D01*
X-44385053Y15129314D01*
X-43784527Y14879954D01*
X-43134286Y14879386D01*
X-42533325Y15127698D01*
X-42073134Y15587087D01*
X-41823774Y16187613D01*
X-41823772Y16190466D01*
X-40012754Y16190466D01*
X-39764442Y15589505D01*
X-39305053Y15129314D01*
X-38704527Y14879954D01*
X-38054286Y14879386D01*
X-37453325Y15127698D01*
X-36993134Y15587087D01*
X-36743774Y16187613D01*
X-36743206Y16837854D01*
X-36991518Y17438815D01*
X-37450907Y17899006D01*
X-38051433Y18148366D01*
X-38701674Y18148934D01*
X-39302635Y17900622D01*
X-39762826Y17441233D01*
X-40012186Y16840707D01*
X-40012754Y16190466D01*
X-41823772Y16190466D01*
X-41823206Y16837854D01*
X-42071518Y17438815D01*
X-42530907Y17899006D01*
X-43131433Y18148366D01*
X-43781674Y18148934D01*
X-44382635Y17900622D01*
X-44842826Y17441233D01*
X-45092186Y16840707D01*
X-45092754Y16190466D01*
X-69763772Y16190466D01*
X-69763206Y16837854D01*
X-70011518Y17438815D01*
X-70470907Y17899006D01*
X-71071433Y18148366D01*
X-71721674Y18148934D01*
X-72322635Y17900622D01*
X-72782826Y17441233D01*
X-73032186Y16840707D01*
X-73032754Y16190466D01*
X-74843772Y16190466D01*
X-74843206Y16837854D01*
X-75091518Y17438815D01*
X-75550907Y17899006D01*
X-76151433Y18148366D01*
X-76801674Y18148934D01*
X-77402635Y17900622D01*
X-77862826Y17441233D01*
X-78112186Y16840707D01*
X-78112754Y16190466D01*
X-80847980Y16190466D01*
X-80847980Y23764160D01*
X-75485420Y23764160D01*
X-75485420Y21964160D01*
X-75441142Y21728843D01*
X-75302070Y21512719D01*
X-75089870Y21367729D01*
X-74837980Y21316720D01*
X-73037980Y21316720D01*
X-72802663Y21360998D01*
X-72586539Y21500070D01*
X-72441549Y21712270D01*
X-72437413Y21732694D01*
X-72268623Y21563609D01*
X-71704650Y21329427D01*
X-71093989Y21328895D01*
X-70529609Y21562092D01*
X-70097429Y21993517D01*
X-69863247Y22557490D01*
X-69863245Y22560169D01*
X-44993245Y22560169D01*
X-44760048Y21995789D01*
X-44328623Y21563609D01*
X-43764650Y21329427D01*
X-43153989Y21328895D01*
X-42589609Y21562092D01*
X-42421367Y21730040D01*
X-42421142Y21728843D01*
X-42282070Y21512719D01*
X-42069870Y21367729D01*
X-41817980Y21316720D01*
X-40017980Y21316720D01*
X-39782663Y21360998D01*
X-39566539Y21500070D01*
X-39421549Y21712270D01*
X-39370540Y21964160D01*
X-39370540Y23764160D01*
X-39414818Y23999477D01*
X-39553890Y24215601D01*
X-39766090Y24360591D01*
X-40017980Y24411600D01*
X-41817980Y24411600D01*
X-42053297Y24367322D01*
X-42269421Y24228250D01*
X-42414411Y24016050D01*
X-42418547Y23995626D01*
X-42587337Y24164711D01*
X-43151310Y24398893D01*
X-43761971Y24399425D01*
X-44326351Y24166228D01*
X-44758531Y23734803D01*
X-44992713Y23170830D01*
X-44993245Y22560169D01*
X-69863245Y22560169D01*
X-69862715Y23168151D01*
X-70095912Y23732531D01*
X-70527337Y24164711D01*
X-71091310Y24398893D01*
X-71701971Y24399425D01*
X-72266351Y24166228D01*
X-72434593Y23998280D01*
X-72434818Y23999477D01*
X-72573890Y24215601D01*
X-72786090Y24360591D01*
X-73037980Y24411600D01*
X-74837980Y24411600D01*
X-75073297Y24367322D01*
X-75289421Y24228250D01*
X-75434411Y24016050D01*
X-75485420Y23764160D01*
X-80847980Y23764160D01*
X-80847980Y27620365D01*
X-75573264Y27620365D01*
X-75324874Y27019217D01*
X-74865343Y26558882D01*
X-74264628Y26309444D01*
X-73614185Y26308876D01*
X-73013037Y26557266D01*
X-72552702Y27016797D01*
X-72303264Y27617512D01*
X-72302696Y28267955D01*
X-72551086Y28869103D01*
X-72802980Y29121438D01*
X-72802980Y33033104D01*
X-70778150Y33033104D01*
X-70730626Y32780533D01*
X-70588581Y32566351D01*
X-69315789Y31293559D01*
X-69118086Y31158474D01*
X-68866924Y31103990D01*
X-68614353Y31151514D01*
X-68596986Y31163032D01*
X-68597194Y30924118D01*
X-68363997Y30359738D01*
X-67932572Y29927558D01*
X-67368599Y29693376D01*
X-66757938Y29692844D01*
X-66193558Y29926041D01*
X-65761378Y30357466D01*
X-65527196Y30921439D01*
X-65527194Y30924118D01*
X-49329296Y30924118D01*
X-49096099Y30359738D01*
X-48664674Y29927558D01*
X-48100701Y29693376D01*
X-47490040Y29692844D01*
X-46925660Y29926041D01*
X-46493480Y30357466D01*
X-46259298Y30921439D01*
X-46259091Y31159161D01*
X-46258086Y31158474D01*
X-46006924Y31103990D01*
X-45754353Y31151514D01*
X-45540171Y31293559D01*
X-44267379Y32566351D01*
X-44132294Y32764054D01*
X-44077810Y33015216D01*
X-44125334Y33267787D01*
X-44267379Y33481969D01*
X-45540171Y34754761D01*
X-45737874Y34889846D01*
X-45989036Y34944330D01*
X-46241607Y34896806D01*
X-46455789Y34754761D01*
X-47728581Y33481969D01*
X-47863666Y33284266D01*
X-47918150Y33033104D01*
X-47870626Y32780533D01*
X-47859108Y32763166D01*
X-48098022Y32763374D01*
X-48662402Y32530177D01*
X-49094582Y32098752D01*
X-49328764Y31534779D01*
X-49329296Y30924118D01*
X-65527194Y30924118D01*
X-65526664Y31532100D01*
X-65759861Y32096480D01*
X-66191286Y32528660D01*
X-66755259Y32762842D01*
X-66992981Y32763049D01*
X-66992294Y32764054D01*
X-66937810Y33015216D01*
X-66985334Y33267787D01*
X-67127379Y33481969D01*
X-68400171Y34754761D01*
X-68597874Y34889846D01*
X-68849036Y34944330D01*
X-69101607Y34896806D01*
X-69315789Y34754761D01*
X-70588581Y33481969D01*
X-70723666Y33284266D01*
X-70778150Y33033104D01*
X-72802980Y33033104D01*
X-72802980Y38239160D01*
X-63685184Y38239160D01*
X-63435343Y37988882D01*
X-62834628Y37739444D01*
X-62184185Y37738876D01*
X-61583037Y37987266D01*
X-61122702Y38446797D01*
X-60891266Y39004160D01*
X-58975420Y39004160D01*
X-58975420Y37204160D01*
X-58931142Y36968843D01*
X-58792070Y36752719D01*
X-58579870Y36607729D01*
X-58559446Y36603593D01*
X-58728531Y36434803D01*
X-58962713Y35870830D01*
X-58963245Y35260169D01*
X-58730048Y34695789D01*
X-58298623Y34263609D01*
X-57734650Y34029427D01*
X-57123989Y34028895D01*
X-56559609Y34262092D01*
X-56127429Y34693517D01*
X-55893247Y35257490D01*
X-55892715Y35868151D01*
X-56125912Y36432531D01*
X-56293860Y36600773D01*
X-56292663Y36600998D01*
X-56076539Y36740070D01*
X-55931549Y36952270D01*
X-55880540Y37204160D01*
X-55880540Y39004160D01*
X-55889234Y39050365D01*
X-53983264Y39050365D01*
X-53734874Y38449217D01*
X-53275343Y37988882D01*
X-52674628Y37739444D01*
X-52318085Y37739133D01*
X-50610547Y36031594D01*
X-50369946Y35870830D01*
X-50242326Y35785557D01*
X-49807980Y35699160D01*
X-43365184Y35699160D01*
X-43115343Y35448882D01*
X-42514628Y35199444D01*
X-41864185Y35198876D01*
X-41263037Y35447266D01*
X-40802702Y35906797D01*
X-40553264Y36507512D01*
X-40552696Y37157955D01*
X-40801086Y37759103D01*
X-41260617Y38219438D01*
X-41861332Y38468876D01*
X-42511775Y38469444D01*
X-43112923Y38221054D01*
X-43365258Y37969160D01*
X-49337847Y37969160D01*
X-50713005Y39344317D01*
X-50712696Y39697955D01*
X-50961086Y40299103D01*
X-51420617Y40759438D01*
X-52021332Y41008876D01*
X-52671775Y41009444D01*
X-53272923Y40761054D01*
X-53733258Y40301523D01*
X-53982696Y39700808D01*
X-53983264Y39050365D01*
X-55889234Y39050365D01*
X-55924818Y39239477D01*
X-56063890Y39455601D01*
X-56276090Y39600591D01*
X-56527980Y39651600D01*
X-58327980Y39651600D01*
X-58563297Y39607322D01*
X-58779421Y39468250D01*
X-58924411Y39256050D01*
X-58975420Y39004160D01*
X-60891266Y39004160D01*
X-60873264Y39047512D01*
X-60872696Y39697955D01*
X-61121086Y40299103D01*
X-61580617Y40759438D01*
X-62181332Y41008876D01*
X-62831775Y41009444D01*
X-63432923Y40761054D01*
X-63685258Y40509160D01*
X-73937980Y40509160D01*
X-74372326Y40422763D01*
X-74740546Y40176726D01*
X-74986583Y39808506D01*
X-75072980Y39374160D01*
X-75072980Y29121364D01*
X-75323258Y28871523D01*
X-75572696Y28270808D01*
X-75573264Y27620365D01*
X-80847980Y27620365D01*
X-80847980Y53904160D01*
X-34007980Y53904160D01*
X-34007980Y-23415840D01*
G36*
X-85798640Y-23414020D02*
X-132638640Y-23414020D01*
X-132638640Y-20314020D01*
X-131715467Y-20314020D01*
X-131591010Y-20939707D01*
X-131236587Y-21470140D01*
X-130706154Y-21824563D01*
X-130080467Y-21949020D01*
X-128996813Y-21949020D01*
X-128371126Y-21824563D01*
X-127840693Y-21470140D01*
X-127486270Y-20939707D01*
X-127418653Y-20599770D01*
X-126593640Y-20599770D01*
X-126593640Y-21440329D01*
X-126496967Y-21673718D01*
X-126318339Y-21852347D01*
X-126084950Y-21949020D01*
X-124744390Y-21949020D01*
X-124585640Y-21790270D01*
X-124585640Y-20441020D01*
X-124331640Y-20441020D01*
X-124331640Y-21790270D01*
X-124172890Y-21949020D01*
X-122832330Y-21949020D01*
X-122598941Y-21852347D01*
X-122420313Y-21673718D01*
X-122323640Y-21440329D01*
X-122323640Y-20599770D01*
X-122482390Y-20441020D01*
X-124331640Y-20441020D01*
X-124585640Y-20441020D01*
X-126434890Y-20441020D01*
X-126593640Y-20599770D01*
X-127418653Y-20599770D01*
X-127361813Y-20314020D01*
X-127451990Y-19860670D01*
X-126998640Y-19950847D01*
X-126593640Y-19870287D01*
X-126593640Y-20028270D01*
X-126434890Y-20187020D01*
X-124585640Y-20187020D01*
X-124585640Y-18837770D01*
X-124331640Y-18837770D01*
X-124331640Y-20187020D01*
X-122482390Y-20187020D01*
X-122323640Y-20028270D01*
X-122323640Y-19187711D01*
X-122420313Y-18954322D01*
X-122598941Y-18775693D01*
X-122832330Y-18679020D01*
X-124172890Y-18679020D01*
X-124331640Y-18837770D01*
X-124585640Y-18837770D01*
X-124744390Y-18679020D01*
X-125435880Y-18679020D01*
X-125363640Y-18315847D01*
X-125363640Y-18194020D01*
X-111986080Y-18194020D01*
X-111986080Y-19894020D01*
X-111941802Y-20129337D01*
X-111802730Y-20345461D01*
X-111590530Y-20490451D01*
X-111338640Y-20541460D01*
X-109638640Y-20541460D01*
X-109403323Y-20497182D01*
X-109187199Y-20358110D01*
X-109042209Y-20145910D01*
X-109020339Y-20037913D01*
X-108715564Y-20315665D01*
X-108305530Y-20485496D01*
X-108075640Y-20364175D01*
X-108075640Y-19171020D01*
X-107821640Y-19171020D01*
X-107821640Y-20364175D01*
X-107591750Y-20485496D01*
X-107181716Y-20315665D01*
X-106753457Y-19925378D01*
X-106507154Y-19400912D01*
X-106627821Y-19171020D01*
X-107821640Y-19171020D01*
X-108075640Y-19171020D01*
X-108095640Y-19171020D01*
X-108095640Y-18917020D01*
X-108075640Y-18917020D01*
X-108075640Y-17723865D01*
X-107821640Y-17723865D01*
X-107821640Y-18917020D01*
X-106627821Y-18917020D01*
X-106507154Y-18687128D01*
X-106753457Y-18162662D01*
X-106824613Y-18097815D01*
X-98153924Y-18097815D01*
X-97905534Y-18698963D01*
X-97446003Y-19159298D01*
X-96845288Y-19408736D01*
X-96194845Y-19409304D01*
X-95710981Y-19209375D01*
X-96031010Y-19688333D01*
X-96155467Y-20314020D01*
X-96031010Y-20939707D01*
X-95676587Y-21470140D01*
X-95146154Y-21824563D01*
X-94520467Y-21949020D01*
X-93436813Y-21949020D01*
X-92811126Y-21824563D01*
X-92280693Y-21470140D01*
X-91926270Y-20939707D01*
X-91858653Y-20599770D01*
X-91033640Y-20599770D01*
X-91033640Y-21440329D01*
X-90936967Y-21673718D01*
X-90758339Y-21852347D01*
X-90524950Y-21949020D01*
X-89184390Y-21949020D01*
X-89025640Y-21790270D01*
X-89025640Y-20441020D01*
X-88771640Y-20441020D01*
X-88771640Y-21790270D01*
X-88612890Y-21949020D01*
X-87272330Y-21949020D01*
X-87038941Y-21852347D01*
X-86860313Y-21673718D01*
X-86763640Y-21440329D01*
X-86763640Y-20599770D01*
X-86922390Y-20441020D01*
X-88771640Y-20441020D01*
X-89025640Y-20441020D01*
X-90874890Y-20441020D01*
X-91033640Y-20599770D01*
X-91858653Y-20599770D01*
X-91801813Y-20314020D01*
X-91891990Y-19860670D01*
X-91438640Y-19950847D01*
X-91033640Y-19870287D01*
X-91033640Y-20028270D01*
X-90874890Y-20187020D01*
X-89025640Y-20187020D01*
X-89025640Y-18837770D01*
X-88771640Y-18837770D01*
X-88771640Y-20187020D01*
X-86922390Y-20187020D01*
X-86763640Y-20028270D01*
X-86763640Y-19187711D01*
X-86860313Y-18954322D01*
X-87038941Y-18775693D01*
X-87272330Y-18679020D01*
X-88612890Y-18679020D01*
X-88771640Y-18837770D01*
X-89025640Y-18837770D01*
X-89184390Y-18679020D01*
X-89875880Y-18679020D01*
X-89803640Y-18315847D01*
X-89803640Y-17232193D01*
X-89928097Y-16606506D01*
X-90282520Y-16076073D01*
X-90812953Y-15721650D01*
X-91438640Y-15597193D01*
X-92064327Y-15721650D01*
X-92594760Y-16076073D01*
X-92949183Y-16606506D01*
X-93073640Y-17232193D01*
X-93073640Y-18315847D01*
X-92983463Y-18769197D01*
X-93436813Y-18679020D01*
X-94520467Y-18679020D01*
X-95146154Y-18803477D01*
X-95416771Y-18984297D01*
X-95133362Y-18701383D01*
X-94883924Y-18100668D01*
X-94883613Y-17744125D01*
X-92238508Y-15099020D01*
X-90075844Y-15099020D01*
X-89826003Y-15349298D01*
X-89225288Y-15598736D01*
X-88574845Y-15599304D01*
X-87973697Y-15350914D01*
X-87513362Y-14891383D01*
X-87263924Y-14290668D01*
X-87263356Y-13640225D01*
X-87511746Y-13039077D01*
X-87971277Y-12578742D01*
X-88571992Y-12329304D01*
X-89222435Y-12328736D01*
X-89823583Y-12577126D01*
X-90075918Y-12829020D01*
X-92708640Y-12829020D01*
X-93142985Y-12915416D01*
X-93511206Y-13161454D01*
X-96488797Y-16139045D01*
X-96842435Y-16138736D01*
X-97443583Y-16387126D01*
X-97903918Y-16846657D01*
X-98153356Y-17447372D01*
X-98153924Y-18097815D01*
X-106824613Y-18097815D01*
X-107181716Y-17772375D01*
X-107591750Y-17602544D01*
X-107821640Y-17723865D01*
X-108075640Y-17723865D01*
X-108305530Y-17602544D01*
X-108715564Y-17772375D01*
X-109018577Y-18048521D01*
X-109035478Y-17958703D01*
X-109174550Y-17742579D01*
X-109386750Y-17597589D01*
X-109638640Y-17546580D01*
X-111338640Y-17546580D01*
X-111573957Y-17590858D01*
X-111790081Y-17729930D01*
X-111935071Y-17942130D01*
X-111986080Y-18194020D01*
X-125363640Y-18194020D01*
X-125363640Y-17232193D01*
X-125488097Y-16606506D01*
X-125842520Y-16076073D01*
X-126372953Y-15721650D01*
X-126998640Y-15597193D01*
X-127624327Y-15721650D01*
X-128154760Y-16076073D01*
X-128509183Y-16606506D01*
X-128633640Y-17232193D01*
X-128633640Y-18315847D01*
X-128543463Y-18769197D01*
X-128996813Y-18679020D01*
X-130080467Y-18679020D01*
X-130706154Y-18803477D01*
X-131236587Y-19157900D01*
X-131591010Y-19688333D01*
X-131715467Y-20314020D01*
X-132638640Y-20314020D01*
X-132638640Y805980D01*
X-129716080Y805980D01*
X-129716080Y-794020D01*
X-129671802Y-1029337D01*
X-129532730Y-1245461D01*
X-129320530Y-1390451D01*
X-129068640Y-1441460D01*
X-127468640Y-1441460D01*
X-127233323Y-1397182D01*
X-127017199Y-1258110D01*
X-126872209Y-1045910D01*
X-126850960Y-940979D01*
X-126582563Y-1209844D01*
X-126055331Y-1428770D01*
X-125484453Y-1429268D01*
X-124956840Y-1211263D01*
X-124552816Y-807943D01*
X-124333890Y-280711D01*
X-124333392Y290167D01*
X-124551397Y817780D01*
X-124954717Y1221804D01*
X-125481949Y1440730D01*
X-126052827Y1441228D01*
X-126580440Y1223223D01*
X-126849223Y954908D01*
X-126865478Y1041297D01*
X-127004550Y1257421D01*
X-127216750Y1402411D01*
X-127468640Y1453420D01*
X-129068640Y1453420D01*
X-129303957Y1409142D01*
X-129520081Y1270070D01*
X-129665071Y1057870D01*
X-129716080Y805980D01*
X-132638640Y805980D01*
X-132638640Y2222185D01*
X-123553924Y2222185D01*
X-123305534Y1621037D01*
X-122846003Y1160702D01*
X-122245288Y911264D01*
X-121594845Y910696D01*
X-120993697Y1159086D01*
X-120991800Y1160980D01*
X-119265883Y1160980D01*
X-119493918Y933343D01*
X-119743356Y332628D01*
X-119743924Y-317815D01*
X-119495534Y-918963D01*
X-119036003Y-1379298D01*
X-118435288Y-1628736D01*
X-117784845Y-1629304D01*
X-117183697Y-1380914D01*
X-117181800Y-1379020D01*
X-97446281Y-1379020D01*
X-97446003Y-1379298D01*
X-96845288Y-1628736D01*
X-96194845Y-1629304D01*
X-95593697Y-1380914D01*
X-95133362Y-921383D01*
X-94883924Y-320668D01*
X-94883887Y-278207D01*
X-94103888Y-278207D01*
X-93885883Y-805820D01*
X-93482563Y-1209844D01*
X-92955331Y-1428770D01*
X-92384453Y-1429268D01*
X-91856840Y-1211263D01*
X-91588057Y-942948D01*
X-91571802Y-1029337D01*
X-91432730Y-1245461D01*
X-91220530Y-1390451D01*
X-90968640Y-1441460D01*
X-89368640Y-1441460D01*
X-89133323Y-1397182D01*
X-88917199Y-1258110D01*
X-88772209Y-1045910D01*
X-88721200Y-794020D01*
X-88721200Y805980D01*
X-88765478Y1041297D01*
X-88904550Y1257421D01*
X-89116750Y1402411D01*
X-89368640Y1453420D01*
X-90968640Y1453420D01*
X-91203957Y1409142D01*
X-91420081Y1270070D01*
X-91565071Y1057870D01*
X-91586320Y952939D01*
X-91854717Y1221804D01*
X-92381949Y1440730D01*
X-92952827Y1441228D01*
X-93480440Y1223223D01*
X-93884464Y819903D01*
X-94103390Y292671D01*
X-94103888Y-278207D01*
X-94883887Y-278207D01*
X-94883356Y329775D01*
X-95131746Y930923D01*
X-95591277Y1391258D01*
X-96191992Y1640696D01*
X-96842435Y1641264D01*
X-97443583Y1392874D01*
X-97445480Y1390980D01*
X-97901397Y1390980D01*
X-97673362Y1618617D01*
X-97423924Y2219332D01*
X-97423356Y2869775D01*
X-97671746Y3470923D01*
X-98131277Y3931258D01*
X-98731992Y4180696D01*
X-99382435Y4181264D01*
X-99983583Y3932874D01*
X-99985480Y3930980D01*
X-120990999Y3930980D01*
X-120991277Y3931258D01*
X-121591992Y4180696D01*
X-122242435Y4181264D01*
X-122843583Y3932874D01*
X-123303918Y3473343D01*
X-123553356Y2872628D01*
X-123553924Y2222185D01*
X-132638640Y2222185D01*
X-132638640Y6032286D01*
X-129903414Y6032286D01*
X-129655102Y5431325D01*
X-129195713Y4971134D01*
X-128595187Y4721774D01*
X-127944946Y4721206D01*
X-127343985Y4969518D01*
X-126883794Y5428907D01*
X-126634434Y6029433D01*
X-126634432Y6032286D01*
X-124823414Y6032286D01*
X-124575102Y5431325D01*
X-124115713Y4971134D01*
X-123515187Y4721774D01*
X-122864946Y4721206D01*
X-122263985Y4969518D01*
X-121803794Y5428907D01*
X-121554434Y6029433D01*
X-121554432Y6032286D01*
X-96883414Y6032286D01*
X-96635102Y5431325D01*
X-96175713Y4971134D01*
X-95575187Y4721774D01*
X-94924946Y4721206D01*
X-94323985Y4969518D01*
X-93863794Y5428907D01*
X-93614434Y6029433D01*
X-93614432Y6032286D01*
X-91803414Y6032286D01*
X-91555102Y5431325D01*
X-91095713Y4971134D01*
X-90495187Y4721774D01*
X-89844946Y4721206D01*
X-89243985Y4969518D01*
X-88783794Y5428907D01*
X-88534434Y6029433D01*
X-88533866Y6679674D01*
X-88782178Y7280635D01*
X-89241567Y7740826D01*
X-89842093Y7990186D01*
X-90492334Y7990754D01*
X-91093295Y7742442D01*
X-91553486Y7283053D01*
X-91802846Y6682527D01*
X-91803414Y6032286D01*
X-93614432Y6032286D01*
X-93613866Y6679674D01*
X-93862178Y7280635D01*
X-94321567Y7740826D01*
X-94922093Y7990186D01*
X-95572334Y7990754D01*
X-96173295Y7742442D01*
X-96633486Y7283053D01*
X-96882846Y6682527D01*
X-96883414Y6032286D01*
X-121554432Y6032286D01*
X-121553866Y6679674D01*
X-121802178Y7280635D01*
X-122261567Y7740826D01*
X-122862093Y7990186D01*
X-123512334Y7990754D01*
X-124113295Y7742442D01*
X-124573486Y7283053D01*
X-124822846Y6682527D01*
X-124823414Y6032286D01*
X-126634432Y6032286D01*
X-126633866Y6679674D01*
X-126882178Y7280635D01*
X-127341567Y7740826D01*
X-127942093Y7990186D01*
X-128592334Y7990754D01*
X-129193295Y7742442D01*
X-129653486Y7283053D01*
X-129902846Y6682527D01*
X-129903414Y6032286D01*
X-132638640Y6032286D01*
X-132638640Y16192286D01*
X-129903414Y16192286D01*
X-129655102Y15591325D01*
X-129195713Y15131134D01*
X-128595187Y14881774D01*
X-127944946Y14881206D01*
X-127343985Y15129518D01*
X-126883794Y15588907D01*
X-126634434Y16189433D01*
X-126634432Y16192286D01*
X-124823414Y16192286D01*
X-124575102Y15591325D01*
X-124115713Y15131134D01*
X-123515187Y14881774D01*
X-122864946Y14881206D01*
X-122263985Y15129518D01*
X-121803794Y15588907D01*
X-121554434Y16189433D01*
X-121554432Y16192286D01*
X-96883414Y16192286D01*
X-96635102Y15591325D01*
X-96175713Y15131134D01*
X-95575187Y14881774D01*
X-94924946Y14881206D01*
X-94323985Y15129518D01*
X-93863794Y15588907D01*
X-93614434Y16189433D01*
X-93614432Y16192286D01*
X-91803414Y16192286D01*
X-91555102Y15591325D01*
X-91095713Y15131134D01*
X-90495187Y14881774D01*
X-89844946Y14881206D01*
X-89243985Y15129518D01*
X-88783794Y15588907D01*
X-88534434Y16189433D01*
X-88533866Y16839674D01*
X-88782178Y17440635D01*
X-89241567Y17900826D01*
X-89842093Y18150186D01*
X-90492334Y18150754D01*
X-91093295Y17902442D01*
X-91553486Y17443053D01*
X-91802846Y16842527D01*
X-91803414Y16192286D01*
X-93614432Y16192286D01*
X-93613866Y16839674D01*
X-93862178Y17440635D01*
X-94321567Y17900826D01*
X-94922093Y18150186D01*
X-95572334Y18150754D01*
X-96173295Y17902442D01*
X-96633486Y17443053D01*
X-96882846Y16842527D01*
X-96883414Y16192286D01*
X-121554432Y16192286D01*
X-121553866Y16839674D01*
X-121802178Y17440635D01*
X-122261567Y17900826D01*
X-122862093Y18150186D01*
X-123512334Y18150754D01*
X-124113295Y17902442D01*
X-124573486Y17443053D01*
X-124822846Y16842527D01*
X-124823414Y16192286D01*
X-126634432Y16192286D01*
X-126633866Y16839674D01*
X-126882178Y17440635D01*
X-127341567Y17900826D01*
X-127942093Y18150186D01*
X-128592334Y18150754D01*
X-129193295Y17902442D01*
X-129653486Y17443053D01*
X-129902846Y16842527D01*
X-129903414Y16192286D01*
X-132638640Y16192286D01*
X-132638640Y23765980D01*
X-127276080Y23765980D01*
X-127276080Y21965980D01*
X-127231802Y21730663D01*
X-127092730Y21514539D01*
X-126880530Y21369549D01*
X-126628640Y21318540D01*
X-124828640Y21318540D01*
X-124593323Y21362818D01*
X-124377199Y21501890D01*
X-124232209Y21714090D01*
X-124228073Y21734514D01*
X-124059283Y21565429D01*
X-123495310Y21331247D01*
X-122884649Y21330715D01*
X-122320269Y21563912D01*
X-121888089Y21995337D01*
X-121653907Y22559310D01*
X-121653905Y22561989D01*
X-96783905Y22561989D01*
X-96550708Y21997609D01*
X-96119283Y21565429D01*
X-95555310Y21331247D01*
X-94944649Y21330715D01*
X-94380269Y21563912D01*
X-94212027Y21731860D01*
X-94211802Y21730663D01*
X-94072730Y21514539D01*
X-93860530Y21369549D01*
X-93608640Y21318540D01*
X-91808640Y21318540D01*
X-91573323Y21362818D01*
X-91357199Y21501890D01*
X-91212209Y21714090D01*
X-91161200Y21965980D01*
X-91161200Y23765980D01*
X-91205478Y24001297D01*
X-91344550Y24217421D01*
X-91556750Y24362411D01*
X-91808640Y24413420D01*
X-93608640Y24413420D01*
X-93843957Y24369142D01*
X-94060081Y24230070D01*
X-94205071Y24017870D01*
X-94209207Y23997446D01*
X-94377997Y24166531D01*
X-94941970Y24400713D01*
X-95552631Y24401245D01*
X-96117011Y24168048D01*
X-96549191Y23736623D01*
X-96783373Y23172650D01*
X-96783905Y22561989D01*
X-121653905Y22561989D01*
X-121653375Y23169971D01*
X-121886572Y23734351D01*
X-122317997Y24166531D01*
X-122881970Y24400713D01*
X-123492631Y24401245D01*
X-124057011Y24168048D01*
X-124225253Y24000100D01*
X-124225478Y24001297D01*
X-124364550Y24217421D01*
X-124576750Y24362411D01*
X-124828640Y24413420D01*
X-126628640Y24413420D01*
X-126863957Y24369142D01*
X-127080081Y24230070D01*
X-127225071Y24017870D01*
X-127276080Y23765980D01*
X-132638640Y23765980D01*
X-132638640Y27622185D01*
X-127363924Y27622185D01*
X-127115534Y27021037D01*
X-126656003Y26560702D01*
X-126055288Y26311264D01*
X-125404845Y26310696D01*
X-124803697Y26559086D01*
X-124343362Y27018617D01*
X-124093924Y27619332D01*
X-124093356Y28269775D01*
X-124341746Y28870923D01*
X-124593640Y29123258D01*
X-124593640Y33034924D01*
X-122568810Y33034924D01*
X-122521286Y32782353D01*
X-122379241Y32568171D01*
X-121106449Y31295379D01*
X-120908746Y31160294D01*
X-120657584Y31105810D01*
X-120405013Y31153334D01*
X-120387646Y31164852D01*
X-120387854Y30925938D01*
X-120154657Y30361558D01*
X-119723232Y29929378D01*
X-119159259Y29695196D01*
X-118548598Y29694664D01*
X-117984218Y29927861D01*
X-117552038Y30359286D01*
X-117317856Y30923259D01*
X-117317854Y30925938D01*
X-101119956Y30925938D01*
X-100886759Y30361558D01*
X-100455334Y29929378D01*
X-99891361Y29695196D01*
X-99280700Y29694664D01*
X-98716320Y29927861D01*
X-98284140Y30359286D01*
X-98049958Y30923259D01*
X-98049751Y31160981D01*
X-98048746Y31160294D01*
X-97797584Y31105810D01*
X-97545013Y31153334D01*
X-97330831Y31295379D01*
X-96058039Y32568171D01*
X-95922954Y32765874D01*
X-95868470Y33017036D01*
X-95915994Y33269607D01*
X-96058039Y33483789D01*
X-97330831Y34756581D01*
X-97528534Y34891666D01*
X-97779696Y34946150D01*
X-98032267Y34898626D01*
X-98246449Y34756581D01*
X-99519241Y33483789D01*
X-99654326Y33286086D01*
X-99708810Y33034924D01*
X-99661286Y32782353D01*
X-99649768Y32764986D01*
X-99888682Y32765194D01*
X-100453062Y32531997D01*
X-100885242Y32100572D01*
X-101119424Y31536599D01*
X-101119956Y30925938D01*
X-117317854Y30925938D01*
X-117317324Y31533920D01*
X-117550521Y32098300D01*
X-117981946Y32530480D01*
X-118545919Y32764662D01*
X-118783641Y32764869D01*
X-118782954Y32765874D01*
X-118728470Y33017036D01*
X-118775994Y33269607D01*
X-118918039Y33483789D01*
X-120190831Y34756581D01*
X-120388534Y34891666D01*
X-120639696Y34946150D01*
X-120892267Y34898626D01*
X-121106449Y34756581D01*
X-122379241Y33483789D01*
X-122514326Y33286086D01*
X-122568810Y33034924D01*
X-124593640Y33034924D01*
X-124593640Y38240980D01*
X-115475844Y38240980D01*
X-115226003Y37990702D01*
X-114625288Y37741264D01*
X-113974845Y37740696D01*
X-113373697Y37989086D01*
X-112913362Y38448617D01*
X-112681926Y39005980D01*
X-110766080Y39005980D01*
X-110766080Y37205980D01*
X-110721802Y36970663D01*
X-110582730Y36754539D01*
X-110370530Y36609549D01*
X-110350106Y36605413D01*
X-110519191Y36436623D01*
X-110753373Y35872650D01*
X-110753905Y35261989D01*
X-110520708Y34697609D01*
X-110089283Y34265429D01*
X-109525310Y34031247D01*
X-108914649Y34030715D01*
X-108350269Y34263912D01*
X-107918089Y34695337D01*
X-107683907Y35259310D01*
X-107683375Y35869971D01*
X-107916572Y36434351D01*
X-108084520Y36602593D01*
X-108083323Y36602818D01*
X-107867199Y36741890D01*
X-107722209Y36954090D01*
X-107671200Y37205980D01*
X-107671200Y39005980D01*
X-107679894Y39052185D01*
X-105773924Y39052185D01*
X-105525534Y38451037D01*
X-105066003Y37990702D01*
X-104465288Y37741264D01*
X-104108745Y37740953D01*
X-102401207Y36033414D01*
X-102160606Y35872650D01*
X-102032986Y35787377D01*
X-101598640Y35700980D01*
X-95155844Y35700980D01*
X-94906003Y35450702D01*
X-94305288Y35201264D01*
X-93654845Y35200696D01*
X-93053697Y35449086D01*
X-92593362Y35908617D01*
X-92343924Y36509332D01*
X-92343356Y37159775D01*
X-92591746Y37760923D01*
X-93051277Y38221258D01*
X-93651992Y38470696D01*
X-94302435Y38471264D01*
X-94903583Y38222874D01*
X-95155918Y37970980D01*
X-101128507Y37970980D01*
X-102503665Y39346137D01*
X-102503356Y39699775D01*
X-102751746Y40300923D01*
X-103211277Y40761258D01*
X-103811992Y41010696D01*
X-104462435Y41011264D01*
X-105063583Y40762874D01*
X-105523918Y40303343D01*
X-105773356Y39702628D01*
X-105773924Y39052185D01*
X-107679894Y39052185D01*
X-107715478Y39241297D01*
X-107854550Y39457421D01*
X-108066750Y39602411D01*
X-108318640Y39653420D01*
X-110118640Y39653420D01*
X-110353957Y39609142D01*
X-110570081Y39470070D01*
X-110715071Y39257870D01*
X-110766080Y39005980D01*
X-112681926Y39005980D01*
X-112663924Y39049332D01*
X-112663356Y39699775D01*
X-112911746Y40300923D01*
X-113371277Y40761258D01*
X-113971992Y41010696D01*
X-114622435Y41011264D01*
X-115223583Y40762874D01*
X-115475918Y40510980D01*
X-125728640Y40510980D01*
X-126162986Y40424583D01*
X-126531206Y40178546D01*
X-126777243Y39810326D01*
X-126863640Y39375980D01*
X-126863640Y29123184D01*
X-127113918Y28873343D01*
X-127363356Y28272628D01*
X-127363924Y27622185D01*
X-132638640Y27622185D01*
X-132638640Y53905980D01*
X-85798640Y53905980D01*
X-85798640Y-23414020D01*
X-85798640Y-23414020D01*
G37*
X-85798640Y-23414020D02*
X-132638640Y-23414020D01*
X-132638640Y-20314020D01*
X-131715467Y-20314020D01*
X-131591010Y-20939707D01*
X-131236587Y-21470140D01*
X-130706154Y-21824563D01*
X-130080467Y-21949020D01*
X-128996813Y-21949020D01*
X-128371126Y-21824563D01*
X-127840693Y-21470140D01*
X-127486270Y-20939707D01*
X-127418653Y-20599770D01*
X-126593640Y-20599770D01*
X-126593640Y-21440329D01*
X-126496967Y-21673718D01*
X-126318339Y-21852347D01*
X-126084950Y-21949020D01*
X-124744390Y-21949020D01*
X-124585640Y-21790270D01*
X-124585640Y-20441020D01*
X-124331640Y-20441020D01*
X-124331640Y-21790270D01*
X-124172890Y-21949020D01*
X-122832330Y-21949020D01*
X-122598941Y-21852347D01*
X-122420313Y-21673718D01*
X-122323640Y-21440329D01*
X-122323640Y-20599770D01*
X-122482390Y-20441020D01*
X-124331640Y-20441020D01*
X-124585640Y-20441020D01*
X-126434890Y-20441020D01*
X-126593640Y-20599770D01*
X-127418653Y-20599770D01*
X-127361813Y-20314020D01*
X-127451990Y-19860670D01*
X-126998640Y-19950847D01*
X-126593640Y-19870287D01*
X-126593640Y-20028270D01*
X-126434890Y-20187020D01*
X-124585640Y-20187020D01*
X-124585640Y-18837770D01*
X-124331640Y-18837770D01*
X-124331640Y-20187020D01*
X-122482390Y-20187020D01*
X-122323640Y-20028270D01*
X-122323640Y-19187711D01*
X-122420313Y-18954322D01*
X-122598941Y-18775693D01*
X-122832330Y-18679020D01*
X-124172890Y-18679020D01*
X-124331640Y-18837770D01*
X-124585640Y-18837770D01*
X-124744390Y-18679020D01*
X-125435880Y-18679020D01*
X-125363640Y-18315847D01*
X-125363640Y-18194020D01*
X-111986080Y-18194020D01*
X-111986080Y-19894020D01*
X-111941802Y-20129337D01*
X-111802730Y-20345461D01*
X-111590530Y-20490451D01*
X-111338640Y-20541460D01*
X-109638640Y-20541460D01*
X-109403323Y-20497182D01*
X-109187199Y-20358110D01*
X-109042209Y-20145910D01*
X-109020339Y-20037913D01*
X-108715564Y-20315665D01*
X-108305530Y-20485496D01*
X-108075640Y-20364175D01*
X-108075640Y-19171020D01*
X-107821640Y-19171020D01*
X-107821640Y-20364175D01*
X-107591750Y-20485496D01*
X-107181716Y-20315665D01*
X-106753457Y-19925378D01*
X-106507154Y-19400912D01*
X-106627821Y-19171020D01*
X-107821640Y-19171020D01*
X-108075640Y-19171020D01*
X-108095640Y-19171020D01*
X-108095640Y-18917020D01*
X-108075640Y-18917020D01*
X-108075640Y-17723865D01*
X-107821640Y-17723865D01*
X-107821640Y-18917020D01*
X-106627821Y-18917020D01*
X-106507154Y-18687128D01*
X-106753457Y-18162662D01*
X-106824613Y-18097815D01*
X-98153924Y-18097815D01*
X-97905534Y-18698963D01*
X-97446003Y-19159298D01*
X-96845288Y-19408736D01*
X-96194845Y-19409304D01*
X-95710981Y-19209375D01*
X-96031010Y-19688333D01*
X-96155467Y-20314020D01*
X-96031010Y-20939707D01*
X-95676587Y-21470140D01*
X-95146154Y-21824563D01*
X-94520467Y-21949020D01*
X-93436813Y-21949020D01*
X-92811126Y-21824563D01*
X-92280693Y-21470140D01*
X-91926270Y-20939707D01*
X-91858653Y-20599770D01*
X-91033640Y-20599770D01*
X-91033640Y-21440329D01*
X-90936967Y-21673718D01*
X-90758339Y-21852347D01*
X-90524950Y-21949020D01*
X-89184390Y-21949020D01*
X-89025640Y-21790270D01*
X-89025640Y-20441020D01*
X-88771640Y-20441020D01*
X-88771640Y-21790270D01*
X-88612890Y-21949020D01*
X-87272330Y-21949020D01*
X-87038941Y-21852347D01*
X-86860313Y-21673718D01*
X-86763640Y-21440329D01*
X-86763640Y-20599770D01*
X-86922390Y-20441020D01*
X-88771640Y-20441020D01*
X-89025640Y-20441020D01*
X-90874890Y-20441020D01*
X-91033640Y-20599770D01*
X-91858653Y-20599770D01*
X-91801813Y-20314020D01*
X-91891990Y-19860670D01*
X-91438640Y-19950847D01*
X-91033640Y-19870287D01*
X-91033640Y-20028270D01*
X-90874890Y-20187020D01*
X-89025640Y-20187020D01*
X-89025640Y-18837770D01*
X-88771640Y-18837770D01*
X-88771640Y-20187020D01*
X-86922390Y-20187020D01*
X-86763640Y-20028270D01*
X-86763640Y-19187711D01*
X-86860313Y-18954322D01*
X-87038941Y-18775693D01*
X-87272330Y-18679020D01*
X-88612890Y-18679020D01*
X-88771640Y-18837770D01*
X-89025640Y-18837770D01*
X-89184390Y-18679020D01*
X-89875880Y-18679020D01*
X-89803640Y-18315847D01*
X-89803640Y-17232193D01*
X-89928097Y-16606506D01*
X-90282520Y-16076073D01*
X-90812953Y-15721650D01*
X-91438640Y-15597193D01*
X-92064327Y-15721650D01*
X-92594760Y-16076073D01*
X-92949183Y-16606506D01*
X-93073640Y-17232193D01*
X-93073640Y-18315847D01*
X-92983463Y-18769197D01*
X-93436813Y-18679020D01*
X-94520467Y-18679020D01*
X-95146154Y-18803477D01*
X-95416771Y-18984297D01*
X-95133362Y-18701383D01*
X-94883924Y-18100668D01*
X-94883613Y-17744125D01*
X-92238508Y-15099020D01*
X-90075844Y-15099020D01*
X-89826003Y-15349298D01*
X-89225288Y-15598736D01*
X-88574845Y-15599304D01*
X-87973697Y-15350914D01*
X-87513362Y-14891383D01*
X-87263924Y-14290668D01*
X-87263356Y-13640225D01*
X-87511746Y-13039077D01*
X-87971277Y-12578742D01*
X-88571992Y-12329304D01*
X-89222435Y-12328736D01*
X-89823583Y-12577126D01*
X-90075918Y-12829020D01*
X-92708640Y-12829020D01*
X-93142985Y-12915416D01*
X-93511206Y-13161454D01*
X-96488797Y-16139045D01*
X-96842435Y-16138736D01*
X-97443583Y-16387126D01*
X-97903918Y-16846657D01*
X-98153356Y-17447372D01*
X-98153924Y-18097815D01*
X-106824613Y-18097815D01*
X-107181716Y-17772375D01*
X-107591750Y-17602544D01*
X-107821640Y-17723865D01*
X-108075640Y-17723865D01*
X-108305530Y-17602544D01*
X-108715564Y-17772375D01*
X-109018577Y-18048521D01*
X-109035478Y-17958703D01*
X-109174550Y-17742579D01*
X-109386750Y-17597589D01*
X-109638640Y-17546580D01*
X-111338640Y-17546580D01*
X-111573957Y-17590858D01*
X-111790081Y-17729930D01*
X-111935071Y-17942130D01*
X-111986080Y-18194020D01*
X-125363640Y-18194020D01*
X-125363640Y-17232193D01*
X-125488097Y-16606506D01*
X-125842520Y-16076073D01*
X-126372953Y-15721650D01*
X-126998640Y-15597193D01*
X-127624327Y-15721650D01*
X-128154760Y-16076073D01*
X-128509183Y-16606506D01*
X-128633640Y-17232193D01*
X-128633640Y-18315847D01*
X-128543463Y-18769197D01*
X-128996813Y-18679020D01*
X-130080467Y-18679020D01*
X-130706154Y-18803477D01*
X-131236587Y-19157900D01*
X-131591010Y-19688333D01*
X-131715467Y-20314020D01*
X-132638640Y-20314020D01*
X-132638640Y805980D01*
X-129716080Y805980D01*
X-129716080Y-794020D01*
X-129671802Y-1029337D01*
X-129532730Y-1245461D01*
X-129320530Y-1390451D01*
X-129068640Y-1441460D01*
X-127468640Y-1441460D01*
X-127233323Y-1397182D01*
X-127017199Y-1258110D01*
X-126872209Y-1045910D01*
X-126850960Y-940979D01*
X-126582563Y-1209844D01*
X-126055331Y-1428770D01*
X-125484453Y-1429268D01*
X-124956840Y-1211263D01*
X-124552816Y-807943D01*
X-124333890Y-280711D01*
X-124333392Y290167D01*
X-124551397Y817780D01*
X-124954717Y1221804D01*
X-125481949Y1440730D01*
X-126052827Y1441228D01*
X-126580440Y1223223D01*
X-126849223Y954908D01*
X-126865478Y1041297D01*
X-127004550Y1257421D01*
X-127216750Y1402411D01*
X-127468640Y1453420D01*
X-129068640Y1453420D01*
X-129303957Y1409142D01*
X-129520081Y1270070D01*
X-129665071Y1057870D01*
X-129716080Y805980D01*
X-132638640Y805980D01*
X-132638640Y2222185D01*
X-123553924Y2222185D01*
X-123305534Y1621037D01*
X-122846003Y1160702D01*
X-122245288Y911264D01*
X-121594845Y910696D01*
X-120993697Y1159086D01*
X-120991800Y1160980D01*
X-119265883Y1160980D01*
X-119493918Y933343D01*
X-119743356Y332628D01*
X-119743924Y-317815D01*
X-119495534Y-918963D01*
X-119036003Y-1379298D01*
X-118435288Y-1628736D01*
X-117784845Y-1629304D01*
X-117183697Y-1380914D01*
X-117181800Y-1379020D01*
X-97446281Y-1379020D01*
X-97446003Y-1379298D01*
X-96845288Y-1628736D01*
X-96194845Y-1629304D01*
X-95593697Y-1380914D01*
X-95133362Y-921383D01*
X-94883924Y-320668D01*
X-94883887Y-278207D01*
X-94103888Y-278207D01*
X-93885883Y-805820D01*
X-93482563Y-1209844D01*
X-92955331Y-1428770D01*
X-92384453Y-1429268D01*
X-91856840Y-1211263D01*
X-91588057Y-942948D01*
X-91571802Y-1029337D01*
X-91432730Y-1245461D01*
X-91220530Y-1390451D01*
X-90968640Y-1441460D01*
X-89368640Y-1441460D01*
X-89133323Y-1397182D01*
X-88917199Y-1258110D01*
X-88772209Y-1045910D01*
X-88721200Y-794020D01*
X-88721200Y805980D01*
X-88765478Y1041297D01*
X-88904550Y1257421D01*
X-89116750Y1402411D01*
X-89368640Y1453420D01*
X-90968640Y1453420D01*
X-91203957Y1409142D01*
X-91420081Y1270070D01*
X-91565071Y1057870D01*
X-91586320Y952939D01*
X-91854717Y1221804D01*
X-92381949Y1440730D01*
X-92952827Y1441228D01*
X-93480440Y1223223D01*
X-93884464Y819903D01*
X-94103390Y292671D01*
X-94103888Y-278207D01*
X-94883887Y-278207D01*
X-94883356Y329775D01*
X-95131746Y930923D01*
X-95591277Y1391258D01*
X-96191992Y1640696D01*
X-96842435Y1641264D01*
X-97443583Y1392874D01*
X-97445480Y1390980D01*
X-97901397Y1390980D01*
X-97673362Y1618617D01*
X-97423924Y2219332D01*
X-97423356Y2869775D01*
X-97671746Y3470923D01*
X-98131277Y3931258D01*
X-98731992Y4180696D01*
X-99382435Y4181264D01*
X-99983583Y3932874D01*
X-99985480Y3930980D01*
X-120990999Y3930980D01*
X-120991277Y3931258D01*
X-121591992Y4180696D01*
X-122242435Y4181264D01*
X-122843583Y3932874D01*
X-123303918Y3473343D01*
X-123553356Y2872628D01*
X-123553924Y2222185D01*
X-132638640Y2222185D01*
X-132638640Y6032286D01*
X-129903414Y6032286D01*
X-129655102Y5431325D01*
X-129195713Y4971134D01*
X-128595187Y4721774D01*
X-127944946Y4721206D01*
X-127343985Y4969518D01*
X-126883794Y5428907D01*
X-126634434Y6029433D01*
X-126634432Y6032286D01*
X-124823414Y6032286D01*
X-124575102Y5431325D01*
X-124115713Y4971134D01*
X-123515187Y4721774D01*
X-122864946Y4721206D01*
X-122263985Y4969518D01*
X-121803794Y5428907D01*
X-121554434Y6029433D01*
X-121554432Y6032286D01*
X-96883414Y6032286D01*
X-96635102Y5431325D01*
X-96175713Y4971134D01*
X-95575187Y4721774D01*
X-94924946Y4721206D01*
X-94323985Y4969518D01*
X-93863794Y5428907D01*
X-93614434Y6029433D01*
X-93614432Y6032286D01*
X-91803414Y6032286D01*
X-91555102Y5431325D01*
X-91095713Y4971134D01*
X-90495187Y4721774D01*
X-89844946Y4721206D01*
X-89243985Y4969518D01*
X-88783794Y5428907D01*
X-88534434Y6029433D01*
X-88533866Y6679674D01*
X-88782178Y7280635D01*
X-89241567Y7740826D01*
X-89842093Y7990186D01*
X-90492334Y7990754D01*
X-91093295Y7742442D01*
X-91553486Y7283053D01*
X-91802846Y6682527D01*
X-91803414Y6032286D01*
X-93614432Y6032286D01*
X-93613866Y6679674D01*
X-93862178Y7280635D01*
X-94321567Y7740826D01*
X-94922093Y7990186D01*
X-95572334Y7990754D01*
X-96173295Y7742442D01*
X-96633486Y7283053D01*
X-96882846Y6682527D01*
X-96883414Y6032286D01*
X-121554432Y6032286D01*
X-121553866Y6679674D01*
X-121802178Y7280635D01*
X-122261567Y7740826D01*
X-122862093Y7990186D01*
X-123512334Y7990754D01*
X-124113295Y7742442D01*
X-124573486Y7283053D01*
X-124822846Y6682527D01*
X-124823414Y6032286D01*
X-126634432Y6032286D01*
X-126633866Y6679674D01*
X-126882178Y7280635D01*
X-127341567Y7740826D01*
X-127942093Y7990186D01*
X-128592334Y7990754D01*
X-129193295Y7742442D01*
X-129653486Y7283053D01*
X-129902846Y6682527D01*
X-129903414Y6032286D01*
X-132638640Y6032286D01*
X-132638640Y16192286D01*
X-129903414Y16192286D01*
X-129655102Y15591325D01*
X-129195713Y15131134D01*
X-128595187Y14881774D01*
X-127944946Y14881206D01*
X-127343985Y15129518D01*
X-126883794Y15588907D01*
X-126634434Y16189433D01*
X-126634432Y16192286D01*
X-124823414Y16192286D01*
X-124575102Y15591325D01*
X-124115713Y15131134D01*
X-123515187Y14881774D01*
X-122864946Y14881206D01*
X-122263985Y15129518D01*
X-121803794Y15588907D01*
X-121554434Y16189433D01*
X-121554432Y16192286D01*
X-96883414Y16192286D01*
X-96635102Y15591325D01*
X-96175713Y15131134D01*
X-95575187Y14881774D01*
X-94924946Y14881206D01*
X-94323985Y15129518D01*
X-93863794Y15588907D01*
X-93614434Y16189433D01*
X-93614432Y16192286D01*
X-91803414Y16192286D01*
X-91555102Y15591325D01*
X-91095713Y15131134D01*
X-90495187Y14881774D01*
X-89844946Y14881206D01*
X-89243985Y15129518D01*
X-88783794Y15588907D01*
X-88534434Y16189433D01*
X-88533866Y16839674D01*
X-88782178Y17440635D01*
X-89241567Y17900826D01*
X-89842093Y18150186D01*
X-90492334Y18150754D01*
X-91093295Y17902442D01*
X-91553486Y17443053D01*
X-91802846Y16842527D01*
X-91803414Y16192286D01*
X-93614432Y16192286D01*
X-93613866Y16839674D01*
X-93862178Y17440635D01*
X-94321567Y17900826D01*
X-94922093Y18150186D01*
X-95572334Y18150754D01*
X-96173295Y17902442D01*
X-96633486Y17443053D01*
X-96882846Y16842527D01*
X-96883414Y16192286D01*
X-121554432Y16192286D01*
X-121553866Y16839674D01*
X-121802178Y17440635D01*
X-122261567Y17900826D01*
X-122862093Y18150186D01*
X-123512334Y18150754D01*
X-124113295Y17902442D01*
X-124573486Y17443053D01*
X-124822846Y16842527D01*
X-124823414Y16192286D01*
X-126634432Y16192286D01*
X-126633866Y16839674D01*
X-126882178Y17440635D01*
X-127341567Y17900826D01*
X-127942093Y18150186D01*
X-128592334Y18150754D01*
X-129193295Y17902442D01*
X-129653486Y17443053D01*
X-129902846Y16842527D01*
X-129903414Y16192286D01*
X-132638640Y16192286D01*
X-132638640Y23765980D01*
X-127276080Y23765980D01*
X-127276080Y21965980D01*
X-127231802Y21730663D01*
X-127092730Y21514539D01*
X-126880530Y21369549D01*
X-126628640Y21318540D01*
X-124828640Y21318540D01*
X-124593323Y21362818D01*
X-124377199Y21501890D01*
X-124232209Y21714090D01*
X-124228073Y21734514D01*
X-124059283Y21565429D01*
X-123495310Y21331247D01*
X-122884649Y21330715D01*
X-122320269Y21563912D01*
X-121888089Y21995337D01*
X-121653907Y22559310D01*
X-121653905Y22561989D01*
X-96783905Y22561989D01*
X-96550708Y21997609D01*
X-96119283Y21565429D01*
X-95555310Y21331247D01*
X-94944649Y21330715D01*
X-94380269Y21563912D01*
X-94212027Y21731860D01*
X-94211802Y21730663D01*
X-94072730Y21514539D01*
X-93860530Y21369549D01*
X-93608640Y21318540D01*
X-91808640Y21318540D01*
X-91573323Y21362818D01*
X-91357199Y21501890D01*
X-91212209Y21714090D01*
X-91161200Y21965980D01*
X-91161200Y23765980D01*
X-91205478Y24001297D01*
X-91344550Y24217421D01*
X-91556750Y24362411D01*
X-91808640Y24413420D01*
X-93608640Y24413420D01*
X-93843957Y24369142D01*
X-94060081Y24230070D01*
X-94205071Y24017870D01*
X-94209207Y23997446D01*
X-94377997Y24166531D01*
X-94941970Y24400713D01*
X-95552631Y24401245D01*
X-96117011Y24168048D01*
X-96549191Y23736623D01*
X-96783373Y23172650D01*
X-96783905Y22561989D01*
X-121653905Y22561989D01*
X-121653375Y23169971D01*
X-121886572Y23734351D01*
X-122317997Y24166531D01*
X-122881970Y24400713D01*
X-123492631Y24401245D01*
X-124057011Y24168048D01*
X-124225253Y24000100D01*
X-124225478Y24001297D01*
X-124364550Y24217421D01*
X-124576750Y24362411D01*
X-124828640Y24413420D01*
X-126628640Y24413420D01*
X-126863957Y24369142D01*
X-127080081Y24230070D01*
X-127225071Y24017870D01*
X-127276080Y23765980D01*
X-132638640Y23765980D01*
X-132638640Y27622185D01*
X-127363924Y27622185D01*
X-127115534Y27021037D01*
X-126656003Y26560702D01*
X-126055288Y26311264D01*
X-125404845Y26310696D01*
X-124803697Y26559086D01*
X-124343362Y27018617D01*
X-124093924Y27619332D01*
X-124093356Y28269775D01*
X-124341746Y28870923D01*
X-124593640Y29123258D01*
X-124593640Y33034924D01*
X-122568810Y33034924D01*
X-122521286Y32782353D01*
X-122379241Y32568171D01*
X-121106449Y31295379D01*
X-120908746Y31160294D01*
X-120657584Y31105810D01*
X-120405013Y31153334D01*
X-120387646Y31164852D01*
X-120387854Y30925938D01*
X-120154657Y30361558D01*
X-119723232Y29929378D01*
X-119159259Y29695196D01*
X-118548598Y29694664D01*
X-117984218Y29927861D01*
X-117552038Y30359286D01*
X-117317856Y30923259D01*
X-117317854Y30925938D01*
X-101119956Y30925938D01*
X-100886759Y30361558D01*
X-100455334Y29929378D01*
X-99891361Y29695196D01*
X-99280700Y29694664D01*
X-98716320Y29927861D01*
X-98284140Y30359286D01*
X-98049958Y30923259D01*
X-98049751Y31160981D01*
X-98048746Y31160294D01*
X-97797584Y31105810D01*
X-97545013Y31153334D01*
X-97330831Y31295379D01*
X-96058039Y32568171D01*
X-95922954Y32765874D01*
X-95868470Y33017036D01*
X-95915994Y33269607D01*
X-96058039Y33483789D01*
X-97330831Y34756581D01*
X-97528534Y34891666D01*
X-97779696Y34946150D01*
X-98032267Y34898626D01*
X-98246449Y34756581D01*
X-99519241Y33483789D01*
X-99654326Y33286086D01*
X-99708810Y33034924D01*
X-99661286Y32782353D01*
X-99649768Y32764986D01*
X-99888682Y32765194D01*
X-100453062Y32531997D01*
X-100885242Y32100572D01*
X-101119424Y31536599D01*
X-101119956Y30925938D01*
X-117317854Y30925938D01*
X-117317324Y31533920D01*
X-117550521Y32098300D01*
X-117981946Y32530480D01*
X-118545919Y32764662D01*
X-118783641Y32764869D01*
X-118782954Y32765874D01*
X-118728470Y33017036D01*
X-118775994Y33269607D01*
X-118918039Y33483789D01*
X-120190831Y34756581D01*
X-120388534Y34891666D01*
X-120639696Y34946150D01*
X-120892267Y34898626D01*
X-121106449Y34756581D01*
X-122379241Y33483789D01*
X-122514326Y33286086D01*
X-122568810Y33034924D01*
X-124593640Y33034924D01*
X-124593640Y38240980D01*
X-115475844Y38240980D01*
X-115226003Y37990702D01*
X-114625288Y37741264D01*
X-113974845Y37740696D01*
X-113373697Y37989086D01*
X-112913362Y38448617D01*
X-112681926Y39005980D01*
X-110766080Y39005980D01*
X-110766080Y37205980D01*
X-110721802Y36970663D01*
X-110582730Y36754539D01*
X-110370530Y36609549D01*
X-110350106Y36605413D01*
X-110519191Y36436623D01*
X-110753373Y35872650D01*
X-110753905Y35261989D01*
X-110520708Y34697609D01*
X-110089283Y34265429D01*
X-109525310Y34031247D01*
X-108914649Y34030715D01*
X-108350269Y34263912D01*
X-107918089Y34695337D01*
X-107683907Y35259310D01*
X-107683375Y35869971D01*
X-107916572Y36434351D01*
X-108084520Y36602593D01*
X-108083323Y36602818D01*
X-107867199Y36741890D01*
X-107722209Y36954090D01*
X-107671200Y37205980D01*
X-107671200Y39005980D01*
X-107679894Y39052185D01*
X-105773924Y39052185D01*
X-105525534Y38451037D01*
X-105066003Y37990702D01*
X-104465288Y37741264D01*
X-104108745Y37740953D01*
X-102401207Y36033414D01*
X-102160606Y35872650D01*
X-102032986Y35787377D01*
X-101598640Y35700980D01*
X-95155844Y35700980D01*
X-94906003Y35450702D01*
X-94305288Y35201264D01*
X-93654845Y35200696D01*
X-93053697Y35449086D01*
X-92593362Y35908617D01*
X-92343924Y36509332D01*
X-92343356Y37159775D01*
X-92591746Y37760923D01*
X-93051277Y38221258D01*
X-93651992Y38470696D01*
X-94302435Y38471264D01*
X-94903583Y38222874D01*
X-95155918Y37970980D01*
X-101128507Y37970980D01*
X-102503665Y39346137D01*
X-102503356Y39699775D01*
X-102751746Y40300923D01*
X-103211277Y40761258D01*
X-103811992Y41010696D01*
X-104462435Y41011264D01*
X-105063583Y40762874D01*
X-105523918Y40303343D01*
X-105773356Y39702628D01*
X-105773924Y39052185D01*
X-107679894Y39052185D01*
X-107715478Y39241297D01*
X-107854550Y39457421D01*
X-108066750Y39602411D01*
X-108318640Y39653420D01*
X-110118640Y39653420D01*
X-110353957Y39609142D01*
X-110570081Y39470070D01*
X-110715071Y39257870D01*
X-110766080Y39005980D01*
X-112681926Y39005980D01*
X-112663924Y39049332D01*
X-112663356Y39699775D01*
X-112911746Y40300923D01*
X-113371277Y40761258D01*
X-113971992Y41010696D01*
X-114622435Y41011264D01*
X-115223583Y40762874D01*
X-115475918Y40510980D01*
X-125728640Y40510980D01*
X-126162986Y40424583D01*
X-126531206Y40178546D01*
X-126777243Y39810326D01*
X-126863640Y39375980D01*
X-126863640Y29123184D01*
X-127113918Y28873343D01*
X-127363356Y28272628D01*
X-127363924Y27622185D01*
X-132638640Y27622185D01*
X-132638640Y53905980D01*
X-85798640Y53905980D01*
X-85798640Y-23414020D01*
M02*
