G04 #@! TF.FileFunction,Copper,L2,Bot,Signal*
%FSLAX46Y46*%
G04 Gerber Fmt 4.6, Leading zero omitted, Abs format (unit mm)*
G04 Created by KiCad (PCBNEW 4.0.4-stable) date 05/16/17 12:01:04*
%MOMM*%
%LPD*%
G01*
G04 APERTURE LIST*
%ADD10C,0.100000*%
%ADD11C,1.800000*%
%ADD12R,1.800000X1.800000*%
%ADD13O,2.000000X3.000000*%
%ADD14R,3.000000X2.000000*%
%ADD15O,3.000000X2.000000*%
%ADD16C,1.998980*%
%ADD17R,1.600000X1.600000*%
%ADD18C,1.600000*%
%ADD19R,1.700000X1.700000*%
%ADD20O,1.700000X1.700000*%
%ADD21C,2.000000*%
%ADD22C,1.000000*%
%ADD23C,1.500000*%
%ADD24C,0.254000*%
G04 APERTURE END LIST*
D10*
G36*
X-70230772Y33024160D02*
X-68957980Y34296952D01*
X-67685188Y33024160D01*
X-68957980Y31751368D01*
X-70230772Y33024160D01*
X-70230772Y33024160D01*
G37*
D11*
X-67161929Y31228109D03*
D10*
G36*
X-46097980Y34296952D02*
X-44825188Y33024160D01*
X-46097980Y31751368D01*
X-47370772Y33024160D01*
X-46097980Y34296952D01*
X-46097980Y34296952D01*
G37*
D11*
X-47894031Y31228109D03*
D12*
X-74037980Y22864160D03*
D11*
X-71497980Y22864160D03*
D12*
X-57527980Y38104160D03*
D11*
X-57527980Y35564160D03*
D12*
X-41017980Y22864160D03*
D11*
X-43557980Y22864160D03*
D13*
X-75307980Y-17775840D03*
D14*
X-72767980Y-20315840D03*
D15*
X-77847980Y-20315840D03*
D13*
X-39747980Y-17775840D03*
D14*
X-37207980Y-20315840D03*
D15*
X-42287980Y-20315840D03*
D16*
X-76577980Y16514160D03*
X-76577980Y6354160D03*
X-38477980Y16514160D03*
X-38477980Y6354160D03*
X-71497980Y16514160D03*
X-71497980Y6354160D03*
X-43557980Y16514160D03*
X-43557980Y6354160D03*
D17*
X-76577980Y4160D03*
D18*
X-74077980Y4160D03*
D17*
X-38477980Y4160D03*
D18*
X-40977980Y4160D03*
D19*
X-58797980Y-19045840D03*
D20*
X-56257980Y-19045840D03*
D10*
G36*
X-121921432Y33025980D02*
X-120648640Y34298772D01*
X-119375848Y33025980D01*
X-120648640Y31753188D01*
X-121921432Y33025980D01*
X-121921432Y33025980D01*
G37*
D11*
X-118852589Y31229929D03*
D10*
G36*
X-97788640Y34298772D02*
X-96515848Y33025980D01*
X-97788640Y31753188D01*
X-99061432Y33025980D01*
X-97788640Y34298772D01*
X-97788640Y34298772D01*
G37*
D11*
X-99584691Y31229929D03*
D12*
X-125728640Y22865980D03*
D11*
X-123188640Y22865980D03*
D12*
X-109218640Y38105980D03*
D11*
X-109218640Y35565980D03*
D12*
X-92708640Y22865980D03*
D11*
X-95248640Y22865980D03*
D13*
X-126998640Y-17774020D03*
D14*
X-124458640Y-20314020D03*
D15*
X-129538640Y-20314020D03*
D13*
X-91438640Y-17774020D03*
D14*
X-88898640Y-20314020D03*
D15*
X-93978640Y-20314020D03*
D16*
X-128268640Y16515980D03*
X-128268640Y6355980D03*
X-90168640Y16515980D03*
X-90168640Y6355980D03*
X-123188640Y16515980D03*
X-123188640Y6355980D03*
X-95248640Y16515980D03*
X-95248640Y6355980D03*
D17*
X-128268640Y5980D03*
D18*
X-125768640Y5980D03*
D17*
X-90168640Y5980D03*
D18*
X-92668640Y5980D03*
D19*
X-110488640Y-19044020D03*
D20*
X-107948640Y-19044020D03*
D21*
X-42287980Y36834160D03*
X-52447980Y39374160D03*
X-62607980Y39374160D03*
X-74037980Y27944160D03*
X-93978640Y36835980D03*
X-104138640Y39375980D03*
X-114298640Y39375980D03*
X-125728640Y27945980D03*
X-66417980Y4160D03*
X-44827980Y4160D03*
X-118108640Y5980D03*
X-96518640Y5980D03*
X-47367980Y2544160D03*
X-70227980Y2544160D03*
X-99058640Y2545980D03*
X-121918640Y2545980D03*
X-37207980Y-13965840D03*
X-44827980Y-17775840D03*
X-88898640Y-13964020D03*
X-96518640Y-17774020D03*
D22*
X-49907980Y36834160D02*
X-42287980Y36834160D01*
X-52447980Y39374160D02*
X-49907980Y36834160D01*
X-74037980Y39374160D02*
X-62607980Y39374160D01*
X-74037980Y27944160D02*
X-74037980Y39374160D01*
X-101598640Y36835980D02*
X-93978640Y36835980D01*
X-104138640Y39375980D02*
X-101598640Y36835980D01*
X-125728640Y39375980D02*
X-114298640Y39375980D01*
X-125728640Y27945980D02*
X-125728640Y39375980D01*
D23*
X-44827980Y4160D02*
X-66417980Y4160D01*
X-96518640Y5980D02*
X-118108640Y5980D01*
X-70227980Y2544160D02*
X-47367980Y2544160D01*
X-121918640Y2545980D02*
X-99058640Y2545980D01*
D22*
X-41017980Y-13965840D02*
X-37207980Y-13965840D01*
X-44827980Y-17775840D02*
X-41017980Y-13965840D01*
X-92708640Y-13964020D02*
X-88898640Y-13964020D01*
X-96518640Y-17774020D02*
X-92708640Y-13964020D01*
D24*
G36*
X-34107980Y-23415840D02*
X-80947980Y-23415840D01*
X-80947980Y-20315840D01*
X-80024807Y-20315840D01*
X-79900350Y-20941527D01*
X-79545927Y-21471960D01*
X-79015494Y-21826383D01*
X-78389807Y-21950840D01*
X-77306153Y-21950840D01*
X-76680466Y-21826383D01*
X-76150033Y-21471960D01*
X-75795610Y-20941527D01*
X-75727993Y-20601590D01*
X-74902980Y-20601590D01*
X-74902980Y-21442149D01*
X-74806307Y-21675538D01*
X-74627679Y-21854167D01*
X-74394290Y-21950840D01*
X-73053730Y-21950840D01*
X-72894980Y-21792090D01*
X-72894980Y-20442840D01*
X-72640980Y-20442840D01*
X-72640980Y-21792090D01*
X-72482230Y-21950840D01*
X-71141670Y-21950840D01*
X-70908281Y-21854167D01*
X-70729653Y-21675538D01*
X-70632980Y-21442149D01*
X-70632980Y-20601590D01*
X-70791730Y-20442840D01*
X-72640980Y-20442840D01*
X-72894980Y-20442840D01*
X-74744230Y-20442840D01*
X-74902980Y-20601590D01*
X-75727993Y-20601590D01*
X-75671153Y-20315840D01*
X-75761330Y-19862490D01*
X-75307980Y-19952667D01*
X-74902980Y-19872107D01*
X-74902980Y-20030090D01*
X-74744230Y-20188840D01*
X-72894980Y-20188840D01*
X-72894980Y-18839590D01*
X-72640980Y-18839590D01*
X-72640980Y-20188840D01*
X-70791730Y-20188840D01*
X-70632980Y-20030090D01*
X-70632980Y-19189531D01*
X-70729653Y-18956142D01*
X-70908281Y-18777513D01*
X-71141670Y-18680840D01*
X-72482230Y-18680840D01*
X-72640980Y-18839590D01*
X-72894980Y-18839590D01*
X-73053730Y-18680840D01*
X-73745220Y-18680840D01*
X-73672980Y-18317667D01*
X-73672980Y-18195840D01*
X-60295420Y-18195840D01*
X-60295420Y-19895840D01*
X-60251142Y-20131157D01*
X-60112070Y-20347281D01*
X-59899870Y-20492271D01*
X-59647980Y-20543280D01*
X-57947980Y-20543280D01*
X-57712663Y-20499002D01*
X-57496539Y-20359930D01*
X-57351549Y-20147730D01*
X-57329679Y-20039733D01*
X-57024904Y-20317485D01*
X-56614870Y-20487316D01*
X-56384980Y-20365995D01*
X-56384980Y-19172840D01*
X-56130980Y-19172840D01*
X-56130980Y-20365995D01*
X-55901090Y-20487316D01*
X-55491056Y-20317485D01*
X-55062797Y-19927198D01*
X-54816494Y-19402732D01*
X-54937161Y-19172840D01*
X-56130980Y-19172840D01*
X-56384980Y-19172840D01*
X-56404980Y-19172840D01*
X-56404980Y-18918840D01*
X-56384980Y-18918840D01*
X-56384980Y-17725685D01*
X-56130980Y-17725685D01*
X-56130980Y-18918840D01*
X-54937161Y-18918840D01*
X-54816494Y-18688948D01*
X-55062797Y-18164482D01*
X-55133953Y-18099635D01*
X-46463264Y-18099635D01*
X-46214874Y-18700783D01*
X-45755343Y-19161118D01*
X-45154628Y-19410556D01*
X-44504185Y-19411124D01*
X-44020321Y-19211195D01*
X-44340350Y-19690153D01*
X-44464807Y-20315840D01*
X-44340350Y-20941527D01*
X-43985927Y-21471960D01*
X-43455494Y-21826383D01*
X-42829807Y-21950840D01*
X-41746153Y-21950840D01*
X-41120466Y-21826383D01*
X-40590033Y-21471960D01*
X-40235610Y-20941527D01*
X-40167993Y-20601590D01*
X-39342980Y-20601590D01*
X-39342980Y-21442149D01*
X-39246307Y-21675538D01*
X-39067679Y-21854167D01*
X-38834290Y-21950840D01*
X-37493730Y-21950840D01*
X-37334980Y-21792090D01*
X-37334980Y-20442840D01*
X-37080980Y-20442840D01*
X-37080980Y-21792090D01*
X-36922230Y-21950840D01*
X-35581670Y-21950840D01*
X-35348281Y-21854167D01*
X-35169653Y-21675538D01*
X-35072980Y-21442149D01*
X-35072980Y-20601590D01*
X-35231730Y-20442840D01*
X-37080980Y-20442840D01*
X-37334980Y-20442840D01*
X-39184230Y-20442840D01*
X-39342980Y-20601590D01*
X-40167993Y-20601590D01*
X-40111153Y-20315840D01*
X-40201330Y-19862490D01*
X-39747980Y-19952667D01*
X-39342980Y-19872107D01*
X-39342980Y-20030090D01*
X-39184230Y-20188840D01*
X-37334980Y-20188840D01*
X-37334980Y-18839590D01*
X-37080980Y-18839590D01*
X-37080980Y-20188840D01*
X-35231730Y-20188840D01*
X-35072980Y-20030090D01*
X-35072980Y-19189531D01*
X-35169653Y-18956142D01*
X-35348281Y-18777513D01*
X-35581670Y-18680840D01*
X-36922230Y-18680840D01*
X-37080980Y-18839590D01*
X-37334980Y-18839590D01*
X-37493730Y-18680840D01*
X-38185220Y-18680840D01*
X-38112980Y-18317667D01*
X-38112980Y-17234013D01*
X-38237437Y-16608326D01*
X-38591860Y-16077893D01*
X-39122293Y-15723470D01*
X-39747980Y-15599013D01*
X-40373667Y-15723470D01*
X-40904100Y-16077893D01*
X-41258523Y-16608326D01*
X-41382980Y-17234013D01*
X-41382980Y-18317667D01*
X-41292803Y-18771017D01*
X-41746153Y-18680840D01*
X-42829807Y-18680840D01*
X-43455494Y-18805297D01*
X-43726111Y-18986117D01*
X-43442702Y-18703203D01*
X-43193264Y-18102488D01*
X-43192953Y-17745945D01*
X-40547848Y-15100840D01*
X-38385184Y-15100840D01*
X-38135343Y-15351118D01*
X-37534628Y-15600556D01*
X-36884185Y-15601124D01*
X-36283037Y-15352734D01*
X-35822702Y-14893203D01*
X-35573264Y-14292488D01*
X-35572696Y-13642045D01*
X-35821086Y-13040897D01*
X-36280617Y-12580562D01*
X-36881332Y-12331124D01*
X-37531775Y-12330556D01*
X-38132923Y-12578946D01*
X-38385258Y-12830840D01*
X-41017980Y-12830840D01*
X-41452325Y-12917236D01*
X-41820546Y-13163274D01*
X-44798137Y-16140865D01*
X-45151775Y-16140556D01*
X-45752923Y-16388946D01*
X-46213258Y-16848477D01*
X-46462696Y-17449192D01*
X-46463264Y-18099635D01*
X-55133953Y-18099635D01*
X-55491056Y-17774195D01*
X-55901090Y-17604364D01*
X-56130980Y-17725685D01*
X-56384980Y-17725685D01*
X-56614870Y-17604364D01*
X-57024904Y-17774195D01*
X-57327917Y-18050341D01*
X-57344818Y-17960523D01*
X-57483890Y-17744399D01*
X-57696090Y-17599409D01*
X-57947980Y-17548400D01*
X-59647980Y-17548400D01*
X-59883297Y-17592678D01*
X-60099421Y-17731750D01*
X-60244411Y-17943950D01*
X-60295420Y-18195840D01*
X-73672980Y-18195840D01*
X-73672980Y-17234013D01*
X-73797437Y-16608326D01*
X-74151860Y-16077893D01*
X-74682293Y-15723470D01*
X-75307980Y-15599013D01*
X-75933667Y-15723470D01*
X-76464100Y-16077893D01*
X-76818523Y-16608326D01*
X-76942980Y-17234013D01*
X-76942980Y-18317667D01*
X-76852803Y-18771017D01*
X-77306153Y-18680840D01*
X-78389807Y-18680840D01*
X-79015494Y-18805297D01*
X-79545927Y-19159720D01*
X-79900350Y-19690153D01*
X-80024807Y-20315840D01*
X-80947980Y-20315840D01*
X-80947980Y804160D01*
X-78025420Y804160D01*
X-78025420Y-795840D01*
X-77981142Y-1031157D01*
X-77842070Y-1247281D01*
X-77629870Y-1392271D01*
X-77377980Y-1443280D01*
X-75777980Y-1443280D01*
X-75542663Y-1399002D01*
X-75326539Y-1259930D01*
X-75181549Y-1047730D01*
X-75160300Y-942799D01*
X-74891903Y-1211664D01*
X-74364671Y-1430590D01*
X-73793793Y-1431088D01*
X-73266180Y-1213083D01*
X-72862156Y-809763D01*
X-72643230Y-282531D01*
X-72642732Y288347D01*
X-72860737Y815960D01*
X-73264057Y1219984D01*
X-73791289Y1438910D01*
X-74362167Y1439408D01*
X-74889780Y1221403D01*
X-75158563Y953088D01*
X-75174818Y1039477D01*
X-75313890Y1255601D01*
X-75526090Y1400591D01*
X-75777980Y1451600D01*
X-77377980Y1451600D01*
X-77613297Y1407322D01*
X-77829421Y1268250D01*
X-77974411Y1056050D01*
X-78025420Y804160D01*
X-80947980Y804160D01*
X-80947980Y2220365D01*
X-71863264Y2220365D01*
X-71614874Y1619217D01*
X-71155343Y1158882D01*
X-70554628Y909444D01*
X-69904185Y908876D01*
X-69303037Y1157266D01*
X-69301140Y1159160D01*
X-67575223Y1159160D01*
X-67803258Y931523D01*
X-68052696Y330808D01*
X-68053264Y-319635D01*
X-67804874Y-920783D01*
X-67345343Y-1381118D01*
X-66744628Y-1630556D01*
X-66094185Y-1631124D01*
X-65493037Y-1382734D01*
X-65491140Y-1380840D01*
X-45755621Y-1380840D01*
X-45755343Y-1381118D01*
X-45154628Y-1630556D01*
X-44504185Y-1631124D01*
X-43903037Y-1382734D01*
X-43442702Y-923203D01*
X-43193264Y-322488D01*
X-43193227Y-280027D01*
X-42413228Y-280027D01*
X-42195223Y-807640D01*
X-41791903Y-1211664D01*
X-41264671Y-1430590D01*
X-40693793Y-1431088D01*
X-40166180Y-1213083D01*
X-39897397Y-944768D01*
X-39881142Y-1031157D01*
X-39742070Y-1247281D01*
X-39529870Y-1392271D01*
X-39277980Y-1443280D01*
X-37677980Y-1443280D01*
X-37442663Y-1399002D01*
X-37226539Y-1259930D01*
X-37081549Y-1047730D01*
X-37030540Y-795840D01*
X-37030540Y804160D01*
X-37074818Y1039477D01*
X-37213890Y1255601D01*
X-37426090Y1400591D01*
X-37677980Y1451600D01*
X-39277980Y1451600D01*
X-39513297Y1407322D01*
X-39729421Y1268250D01*
X-39874411Y1056050D01*
X-39895660Y951119D01*
X-40164057Y1219984D01*
X-40691289Y1438910D01*
X-41262167Y1439408D01*
X-41789780Y1221403D01*
X-42193804Y818083D01*
X-42412730Y290851D01*
X-42413228Y-280027D01*
X-43193227Y-280027D01*
X-43192696Y327955D01*
X-43441086Y929103D01*
X-43900617Y1389438D01*
X-44501332Y1638876D01*
X-45151775Y1639444D01*
X-45752923Y1391054D01*
X-45754820Y1389160D01*
X-46210737Y1389160D01*
X-45982702Y1616797D01*
X-45733264Y2217512D01*
X-45732696Y2867955D01*
X-45981086Y3469103D01*
X-46440617Y3929438D01*
X-47041332Y4178876D01*
X-47691775Y4179444D01*
X-48292923Y3931054D01*
X-48294820Y3929160D01*
X-69300339Y3929160D01*
X-69300617Y3929438D01*
X-69901332Y4178876D01*
X-70551775Y4179444D01*
X-71152923Y3931054D01*
X-71613258Y3471523D01*
X-71862696Y2870808D01*
X-71863264Y2220365D01*
X-80947980Y2220365D01*
X-80947980Y6030466D01*
X-78212754Y6030466D01*
X-77964442Y5429505D01*
X-77505053Y4969314D01*
X-76904527Y4719954D01*
X-76254286Y4719386D01*
X-75653325Y4967698D01*
X-75193134Y5427087D01*
X-74943774Y6027613D01*
X-74943772Y6030466D01*
X-73132754Y6030466D01*
X-72884442Y5429505D01*
X-72425053Y4969314D01*
X-71824527Y4719954D01*
X-71174286Y4719386D01*
X-70573325Y4967698D01*
X-70113134Y5427087D01*
X-69863774Y6027613D01*
X-69863772Y6030466D01*
X-45192754Y6030466D01*
X-44944442Y5429505D01*
X-44485053Y4969314D01*
X-43884527Y4719954D01*
X-43234286Y4719386D01*
X-42633325Y4967698D01*
X-42173134Y5427087D01*
X-41923774Y6027613D01*
X-41923772Y6030466D01*
X-40112754Y6030466D01*
X-39864442Y5429505D01*
X-39405053Y4969314D01*
X-38804527Y4719954D01*
X-38154286Y4719386D01*
X-37553325Y4967698D01*
X-37093134Y5427087D01*
X-36843774Y6027613D01*
X-36843206Y6677854D01*
X-37091518Y7278815D01*
X-37550907Y7739006D01*
X-38151433Y7988366D01*
X-38801674Y7988934D01*
X-39402635Y7740622D01*
X-39862826Y7281233D01*
X-40112186Y6680707D01*
X-40112754Y6030466D01*
X-41923772Y6030466D01*
X-41923206Y6677854D01*
X-42171518Y7278815D01*
X-42630907Y7739006D01*
X-43231433Y7988366D01*
X-43881674Y7988934D01*
X-44482635Y7740622D01*
X-44942826Y7281233D01*
X-45192186Y6680707D01*
X-45192754Y6030466D01*
X-69863772Y6030466D01*
X-69863206Y6677854D01*
X-70111518Y7278815D01*
X-70570907Y7739006D01*
X-71171433Y7988366D01*
X-71821674Y7988934D01*
X-72422635Y7740622D01*
X-72882826Y7281233D01*
X-73132186Y6680707D01*
X-73132754Y6030466D01*
X-74943772Y6030466D01*
X-74943206Y6677854D01*
X-75191518Y7278815D01*
X-75650907Y7739006D01*
X-76251433Y7988366D01*
X-76901674Y7988934D01*
X-77502635Y7740622D01*
X-77962826Y7281233D01*
X-78212186Y6680707D01*
X-78212754Y6030466D01*
X-80947980Y6030466D01*
X-80947980Y16190466D01*
X-78212754Y16190466D01*
X-77964442Y15589505D01*
X-77505053Y15129314D01*
X-76904527Y14879954D01*
X-76254286Y14879386D01*
X-75653325Y15127698D01*
X-75193134Y15587087D01*
X-74943774Y16187613D01*
X-74943772Y16190466D01*
X-73132754Y16190466D01*
X-72884442Y15589505D01*
X-72425053Y15129314D01*
X-71824527Y14879954D01*
X-71174286Y14879386D01*
X-70573325Y15127698D01*
X-70113134Y15587087D01*
X-69863774Y16187613D01*
X-69863772Y16190466D01*
X-45192754Y16190466D01*
X-44944442Y15589505D01*
X-44485053Y15129314D01*
X-43884527Y14879954D01*
X-43234286Y14879386D01*
X-42633325Y15127698D01*
X-42173134Y15587087D01*
X-41923774Y16187613D01*
X-41923772Y16190466D01*
X-40112754Y16190466D01*
X-39864442Y15589505D01*
X-39405053Y15129314D01*
X-38804527Y14879954D01*
X-38154286Y14879386D01*
X-37553325Y15127698D01*
X-37093134Y15587087D01*
X-36843774Y16187613D01*
X-36843206Y16837854D01*
X-37091518Y17438815D01*
X-37550907Y17899006D01*
X-38151433Y18148366D01*
X-38801674Y18148934D01*
X-39402635Y17900622D01*
X-39862826Y17441233D01*
X-40112186Y16840707D01*
X-40112754Y16190466D01*
X-41923772Y16190466D01*
X-41923206Y16837854D01*
X-42171518Y17438815D01*
X-42630907Y17899006D01*
X-43231433Y18148366D01*
X-43881674Y18148934D01*
X-44482635Y17900622D01*
X-44942826Y17441233D01*
X-45192186Y16840707D01*
X-45192754Y16190466D01*
X-69863772Y16190466D01*
X-69863206Y16837854D01*
X-70111518Y17438815D01*
X-70570907Y17899006D01*
X-71171433Y18148366D01*
X-71821674Y18148934D01*
X-72422635Y17900622D01*
X-72882826Y17441233D01*
X-73132186Y16840707D01*
X-73132754Y16190466D01*
X-74943772Y16190466D01*
X-74943206Y16837854D01*
X-75191518Y17438815D01*
X-75650907Y17899006D01*
X-76251433Y18148366D01*
X-76901674Y18148934D01*
X-77502635Y17900622D01*
X-77962826Y17441233D01*
X-78212186Y16840707D01*
X-78212754Y16190466D01*
X-80947980Y16190466D01*
X-80947980Y23764160D01*
X-75585420Y23764160D01*
X-75585420Y21964160D01*
X-75541142Y21728843D01*
X-75402070Y21512719D01*
X-75189870Y21367729D01*
X-74937980Y21316720D01*
X-73137980Y21316720D01*
X-72902663Y21360998D01*
X-72686539Y21500070D01*
X-72541549Y21712270D01*
X-72537413Y21732694D01*
X-72368623Y21563609D01*
X-71804650Y21329427D01*
X-71193989Y21328895D01*
X-70629609Y21562092D01*
X-70197429Y21993517D01*
X-69963247Y22557490D01*
X-69963245Y22560169D01*
X-45093245Y22560169D01*
X-44860048Y21995789D01*
X-44428623Y21563609D01*
X-43864650Y21329427D01*
X-43253989Y21328895D01*
X-42689609Y21562092D01*
X-42521367Y21730040D01*
X-42521142Y21728843D01*
X-42382070Y21512719D01*
X-42169870Y21367729D01*
X-41917980Y21316720D01*
X-40117980Y21316720D01*
X-39882663Y21360998D01*
X-39666539Y21500070D01*
X-39521549Y21712270D01*
X-39470540Y21964160D01*
X-39470540Y23764160D01*
X-39514818Y23999477D01*
X-39653890Y24215601D01*
X-39866090Y24360591D01*
X-40117980Y24411600D01*
X-41917980Y24411600D01*
X-42153297Y24367322D01*
X-42369421Y24228250D01*
X-42514411Y24016050D01*
X-42518547Y23995626D01*
X-42687337Y24164711D01*
X-43251310Y24398893D01*
X-43861971Y24399425D01*
X-44426351Y24166228D01*
X-44858531Y23734803D01*
X-45092713Y23170830D01*
X-45093245Y22560169D01*
X-69963245Y22560169D01*
X-69962715Y23168151D01*
X-70195912Y23732531D01*
X-70627337Y24164711D01*
X-71191310Y24398893D01*
X-71801971Y24399425D01*
X-72366351Y24166228D01*
X-72534593Y23998280D01*
X-72534818Y23999477D01*
X-72673890Y24215601D01*
X-72886090Y24360591D01*
X-73137980Y24411600D01*
X-74937980Y24411600D01*
X-75173297Y24367322D01*
X-75389421Y24228250D01*
X-75534411Y24016050D01*
X-75585420Y23764160D01*
X-80947980Y23764160D01*
X-80947980Y27620365D01*
X-75673264Y27620365D01*
X-75424874Y27019217D01*
X-74965343Y26558882D01*
X-74364628Y26309444D01*
X-73714185Y26308876D01*
X-73113037Y26557266D01*
X-72652702Y27016797D01*
X-72403264Y27617512D01*
X-72402696Y28267955D01*
X-72651086Y28869103D01*
X-72902980Y29121438D01*
X-72902980Y33033104D01*
X-70878150Y33033104D01*
X-70830626Y32780533D01*
X-70688581Y32566351D01*
X-69415789Y31293559D01*
X-69218086Y31158474D01*
X-68966924Y31103990D01*
X-68714353Y31151514D01*
X-68696986Y31163032D01*
X-68697194Y30924118D01*
X-68463997Y30359738D01*
X-68032572Y29927558D01*
X-67468599Y29693376D01*
X-66857938Y29692844D01*
X-66293558Y29926041D01*
X-65861378Y30357466D01*
X-65627196Y30921439D01*
X-65627194Y30924118D01*
X-49429296Y30924118D01*
X-49196099Y30359738D01*
X-48764674Y29927558D01*
X-48200701Y29693376D01*
X-47590040Y29692844D01*
X-47025660Y29926041D01*
X-46593480Y30357466D01*
X-46359298Y30921439D01*
X-46359091Y31159161D01*
X-46358086Y31158474D01*
X-46106924Y31103990D01*
X-45854353Y31151514D01*
X-45640171Y31293559D01*
X-44367379Y32566351D01*
X-44232294Y32764054D01*
X-44177810Y33015216D01*
X-44225334Y33267787D01*
X-44367379Y33481969D01*
X-45640171Y34754761D01*
X-45837874Y34889846D01*
X-46089036Y34944330D01*
X-46341607Y34896806D01*
X-46555789Y34754761D01*
X-47828581Y33481969D01*
X-47963666Y33284266D01*
X-48018150Y33033104D01*
X-47970626Y32780533D01*
X-47959108Y32763166D01*
X-48198022Y32763374D01*
X-48762402Y32530177D01*
X-49194582Y32098752D01*
X-49428764Y31534779D01*
X-49429296Y30924118D01*
X-65627194Y30924118D01*
X-65626664Y31532100D01*
X-65859861Y32096480D01*
X-66291286Y32528660D01*
X-66855259Y32762842D01*
X-67092981Y32763049D01*
X-67092294Y32764054D01*
X-67037810Y33015216D01*
X-67085334Y33267787D01*
X-67227379Y33481969D01*
X-68500171Y34754761D01*
X-68697874Y34889846D01*
X-68949036Y34944330D01*
X-69201607Y34896806D01*
X-69415789Y34754761D01*
X-70688581Y33481969D01*
X-70823666Y33284266D01*
X-70878150Y33033104D01*
X-72902980Y33033104D01*
X-72902980Y38239160D01*
X-63785184Y38239160D01*
X-63535343Y37988882D01*
X-62934628Y37739444D01*
X-62284185Y37738876D01*
X-61683037Y37987266D01*
X-61222702Y38446797D01*
X-60991266Y39004160D01*
X-59075420Y39004160D01*
X-59075420Y37204160D01*
X-59031142Y36968843D01*
X-58892070Y36752719D01*
X-58679870Y36607729D01*
X-58659446Y36603593D01*
X-58828531Y36434803D01*
X-59062713Y35870830D01*
X-59063245Y35260169D01*
X-58830048Y34695789D01*
X-58398623Y34263609D01*
X-57834650Y34029427D01*
X-57223989Y34028895D01*
X-56659609Y34262092D01*
X-56227429Y34693517D01*
X-55993247Y35257490D01*
X-55992715Y35868151D01*
X-56225912Y36432531D01*
X-56393860Y36600773D01*
X-56392663Y36600998D01*
X-56176539Y36740070D01*
X-56031549Y36952270D01*
X-55980540Y37204160D01*
X-55980540Y39004160D01*
X-55989234Y39050365D01*
X-54083264Y39050365D01*
X-53834874Y38449217D01*
X-53375343Y37988882D01*
X-52774628Y37739444D01*
X-52418085Y37739133D01*
X-50710547Y36031594D01*
X-50469946Y35870830D01*
X-50342326Y35785557D01*
X-49907980Y35699160D01*
X-43465184Y35699160D01*
X-43215343Y35448882D01*
X-42614628Y35199444D01*
X-41964185Y35198876D01*
X-41363037Y35447266D01*
X-40902702Y35906797D01*
X-40653264Y36507512D01*
X-40652696Y37157955D01*
X-40901086Y37759103D01*
X-41360617Y38219438D01*
X-41961332Y38468876D01*
X-42611775Y38469444D01*
X-43212923Y38221054D01*
X-43465258Y37969160D01*
X-49437847Y37969160D01*
X-50813005Y39344317D01*
X-50812696Y39697955D01*
X-51061086Y40299103D01*
X-51520617Y40759438D01*
X-52121332Y41008876D01*
X-52771775Y41009444D01*
X-53372923Y40761054D01*
X-53833258Y40301523D01*
X-54082696Y39700808D01*
X-54083264Y39050365D01*
X-55989234Y39050365D01*
X-56024818Y39239477D01*
X-56163890Y39455601D01*
X-56376090Y39600591D01*
X-56627980Y39651600D01*
X-58427980Y39651600D01*
X-58663297Y39607322D01*
X-58879421Y39468250D01*
X-59024411Y39256050D01*
X-59075420Y39004160D01*
X-60991266Y39004160D01*
X-60973264Y39047512D01*
X-60972696Y39697955D01*
X-61221086Y40299103D01*
X-61680617Y40759438D01*
X-62281332Y41008876D01*
X-62931775Y41009444D01*
X-63532923Y40761054D01*
X-63785258Y40509160D01*
X-74037980Y40509160D01*
X-74472326Y40422763D01*
X-74840546Y40176726D01*
X-75086583Y39808506D01*
X-75172980Y39374160D01*
X-75172980Y29121364D01*
X-75423258Y28871523D01*
X-75672696Y28270808D01*
X-75673264Y27620365D01*
X-80947980Y27620365D01*
X-80947980Y53904160D01*
X-34107980Y53904160D01*
X-34107980Y-23415840D01*
X-34107980Y-23415840D01*
G37*
X-34107980Y-23415840D02*
X-80947980Y-23415840D01*
X-80947980Y-20315840D01*
X-80024807Y-20315840D01*
X-79900350Y-20941527D01*
X-79545927Y-21471960D01*
X-79015494Y-21826383D01*
X-78389807Y-21950840D01*
X-77306153Y-21950840D01*
X-76680466Y-21826383D01*
X-76150033Y-21471960D01*
X-75795610Y-20941527D01*
X-75727993Y-20601590D01*
X-74902980Y-20601590D01*
X-74902980Y-21442149D01*
X-74806307Y-21675538D01*
X-74627679Y-21854167D01*
X-74394290Y-21950840D01*
X-73053730Y-21950840D01*
X-72894980Y-21792090D01*
X-72894980Y-20442840D01*
X-72640980Y-20442840D01*
X-72640980Y-21792090D01*
X-72482230Y-21950840D01*
X-71141670Y-21950840D01*
X-70908281Y-21854167D01*
X-70729653Y-21675538D01*
X-70632980Y-21442149D01*
X-70632980Y-20601590D01*
X-70791730Y-20442840D01*
X-72640980Y-20442840D01*
X-72894980Y-20442840D01*
X-74744230Y-20442840D01*
X-74902980Y-20601590D01*
X-75727993Y-20601590D01*
X-75671153Y-20315840D01*
X-75761330Y-19862490D01*
X-75307980Y-19952667D01*
X-74902980Y-19872107D01*
X-74902980Y-20030090D01*
X-74744230Y-20188840D01*
X-72894980Y-20188840D01*
X-72894980Y-18839590D01*
X-72640980Y-18839590D01*
X-72640980Y-20188840D01*
X-70791730Y-20188840D01*
X-70632980Y-20030090D01*
X-70632980Y-19189531D01*
X-70729653Y-18956142D01*
X-70908281Y-18777513D01*
X-71141670Y-18680840D01*
X-72482230Y-18680840D01*
X-72640980Y-18839590D01*
X-72894980Y-18839590D01*
X-73053730Y-18680840D01*
X-73745220Y-18680840D01*
X-73672980Y-18317667D01*
X-73672980Y-18195840D01*
X-60295420Y-18195840D01*
X-60295420Y-19895840D01*
X-60251142Y-20131157D01*
X-60112070Y-20347281D01*
X-59899870Y-20492271D01*
X-59647980Y-20543280D01*
X-57947980Y-20543280D01*
X-57712663Y-20499002D01*
X-57496539Y-20359930D01*
X-57351549Y-20147730D01*
X-57329679Y-20039733D01*
X-57024904Y-20317485D01*
X-56614870Y-20487316D01*
X-56384980Y-20365995D01*
X-56384980Y-19172840D01*
X-56130980Y-19172840D01*
X-56130980Y-20365995D01*
X-55901090Y-20487316D01*
X-55491056Y-20317485D01*
X-55062797Y-19927198D01*
X-54816494Y-19402732D01*
X-54937161Y-19172840D01*
X-56130980Y-19172840D01*
X-56384980Y-19172840D01*
X-56404980Y-19172840D01*
X-56404980Y-18918840D01*
X-56384980Y-18918840D01*
X-56384980Y-17725685D01*
X-56130980Y-17725685D01*
X-56130980Y-18918840D01*
X-54937161Y-18918840D01*
X-54816494Y-18688948D01*
X-55062797Y-18164482D01*
X-55133953Y-18099635D01*
X-46463264Y-18099635D01*
X-46214874Y-18700783D01*
X-45755343Y-19161118D01*
X-45154628Y-19410556D01*
X-44504185Y-19411124D01*
X-44020321Y-19211195D01*
X-44340350Y-19690153D01*
X-44464807Y-20315840D01*
X-44340350Y-20941527D01*
X-43985927Y-21471960D01*
X-43455494Y-21826383D01*
X-42829807Y-21950840D01*
X-41746153Y-21950840D01*
X-41120466Y-21826383D01*
X-40590033Y-21471960D01*
X-40235610Y-20941527D01*
X-40167993Y-20601590D01*
X-39342980Y-20601590D01*
X-39342980Y-21442149D01*
X-39246307Y-21675538D01*
X-39067679Y-21854167D01*
X-38834290Y-21950840D01*
X-37493730Y-21950840D01*
X-37334980Y-21792090D01*
X-37334980Y-20442840D01*
X-37080980Y-20442840D01*
X-37080980Y-21792090D01*
X-36922230Y-21950840D01*
X-35581670Y-21950840D01*
X-35348281Y-21854167D01*
X-35169653Y-21675538D01*
X-35072980Y-21442149D01*
X-35072980Y-20601590D01*
X-35231730Y-20442840D01*
X-37080980Y-20442840D01*
X-37334980Y-20442840D01*
X-39184230Y-20442840D01*
X-39342980Y-20601590D01*
X-40167993Y-20601590D01*
X-40111153Y-20315840D01*
X-40201330Y-19862490D01*
X-39747980Y-19952667D01*
X-39342980Y-19872107D01*
X-39342980Y-20030090D01*
X-39184230Y-20188840D01*
X-37334980Y-20188840D01*
X-37334980Y-18839590D01*
X-37080980Y-18839590D01*
X-37080980Y-20188840D01*
X-35231730Y-20188840D01*
X-35072980Y-20030090D01*
X-35072980Y-19189531D01*
X-35169653Y-18956142D01*
X-35348281Y-18777513D01*
X-35581670Y-18680840D01*
X-36922230Y-18680840D01*
X-37080980Y-18839590D01*
X-37334980Y-18839590D01*
X-37493730Y-18680840D01*
X-38185220Y-18680840D01*
X-38112980Y-18317667D01*
X-38112980Y-17234013D01*
X-38237437Y-16608326D01*
X-38591860Y-16077893D01*
X-39122293Y-15723470D01*
X-39747980Y-15599013D01*
X-40373667Y-15723470D01*
X-40904100Y-16077893D01*
X-41258523Y-16608326D01*
X-41382980Y-17234013D01*
X-41382980Y-18317667D01*
X-41292803Y-18771017D01*
X-41746153Y-18680840D01*
X-42829807Y-18680840D01*
X-43455494Y-18805297D01*
X-43726111Y-18986117D01*
X-43442702Y-18703203D01*
X-43193264Y-18102488D01*
X-43192953Y-17745945D01*
X-40547848Y-15100840D01*
X-38385184Y-15100840D01*
X-38135343Y-15351118D01*
X-37534628Y-15600556D01*
X-36884185Y-15601124D01*
X-36283037Y-15352734D01*
X-35822702Y-14893203D01*
X-35573264Y-14292488D01*
X-35572696Y-13642045D01*
X-35821086Y-13040897D01*
X-36280617Y-12580562D01*
X-36881332Y-12331124D01*
X-37531775Y-12330556D01*
X-38132923Y-12578946D01*
X-38385258Y-12830840D01*
X-41017980Y-12830840D01*
X-41452325Y-12917236D01*
X-41820546Y-13163274D01*
X-44798137Y-16140865D01*
X-45151775Y-16140556D01*
X-45752923Y-16388946D01*
X-46213258Y-16848477D01*
X-46462696Y-17449192D01*
X-46463264Y-18099635D01*
X-55133953Y-18099635D01*
X-55491056Y-17774195D01*
X-55901090Y-17604364D01*
X-56130980Y-17725685D01*
X-56384980Y-17725685D01*
X-56614870Y-17604364D01*
X-57024904Y-17774195D01*
X-57327917Y-18050341D01*
X-57344818Y-17960523D01*
X-57483890Y-17744399D01*
X-57696090Y-17599409D01*
X-57947980Y-17548400D01*
X-59647980Y-17548400D01*
X-59883297Y-17592678D01*
X-60099421Y-17731750D01*
X-60244411Y-17943950D01*
X-60295420Y-18195840D01*
X-73672980Y-18195840D01*
X-73672980Y-17234013D01*
X-73797437Y-16608326D01*
X-74151860Y-16077893D01*
X-74682293Y-15723470D01*
X-75307980Y-15599013D01*
X-75933667Y-15723470D01*
X-76464100Y-16077893D01*
X-76818523Y-16608326D01*
X-76942980Y-17234013D01*
X-76942980Y-18317667D01*
X-76852803Y-18771017D01*
X-77306153Y-18680840D01*
X-78389807Y-18680840D01*
X-79015494Y-18805297D01*
X-79545927Y-19159720D01*
X-79900350Y-19690153D01*
X-80024807Y-20315840D01*
X-80947980Y-20315840D01*
X-80947980Y804160D01*
X-78025420Y804160D01*
X-78025420Y-795840D01*
X-77981142Y-1031157D01*
X-77842070Y-1247281D01*
X-77629870Y-1392271D01*
X-77377980Y-1443280D01*
X-75777980Y-1443280D01*
X-75542663Y-1399002D01*
X-75326539Y-1259930D01*
X-75181549Y-1047730D01*
X-75160300Y-942799D01*
X-74891903Y-1211664D01*
X-74364671Y-1430590D01*
X-73793793Y-1431088D01*
X-73266180Y-1213083D01*
X-72862156Y-809763D01*
X-72643230Y-282531D01*
X-72642732Y288347D01*
X-72860737Y815960D01*
X-73264057Y1219984D01*
X-73791289Y1438910D01*
X-74362167Y1439408D01*
X-74889780Y1221403D01*
X-75158563Y953088D01*
X-75174818Y1039477D01*
X-75313890Y1255601D01*
X-75526090Y1400591D01*
X-75777980Y1451600D01*
X-77377980Y1451600D01*
X-77613297Y1407322D01*
X-77829421Y1268250D01*
X-77974411Y1056050D01*
X-78025420Y804160D01*
X-80947980Y804160D01*
X-80947980Y2220365D01*
X-71863264Y2220365D01*
X-71614874Y1619217D01*
X-71155343Y1158882D01*
X-70554628Y909444D01*
X-69904185Y908876D01*
X-69303037Y1157266D01*
X-69301140Y1159160D01*
X-67575223Y1159160D01*
X-67803258Y931523D01*
X-68052696Y330808D01*
X-68053264Y-319635D01*
X-67804874Y-920783D01*
X-67345343Y-1381118D01*
X-66744628Y-1630556D01*
X-66094185Y-1631124D01*
X-65493037Y-1382734D01*
X-65491140Y-1380840D01*
X-45755621Y-1380840D01*
X-45755343Y-1381118D01*
X-45154628Y-1630556D01*
X-44504185Y-1631124D01*
X-43903037Y-1382734D01*
X-43442702Y-923203D01*
X-43193264Y-322488D01*
X-43193227Y-280027D01*
X-42413228Y-280027D01*
X-42195223Y-807640D01*
X-41791903Y-1211664D01*
X-41264671Y-1430590D01*
X-40693793Y-1431088D01*
X-40166180Y-1213083D01*
X-39897397Y-944768D01*
X-39881142Y-1031157D01*
X-39742070Y-1247281D01*
X-39529870Y-1392271D01*
X-39277980Y-1443280D01*
X-37677980Y-1443280D01*
X-37442663Y-1399002D01*
X-37226539Y-1259930D01*
X-37081549Y-1047730D01*
X-37030540Y-795840D01*
X-37030540Y804160D01*
X-37074818Y1039477D01*
X-37213890Y1255601D01*
X-37426090Y1400591D01*
X-37677980Y1451600D01*
X-39277980Y1451600D01*
X-39513297Y1407322D01*
X-39729421Y1268250D01*
X-39874411Y1056050D01*
X-39895660Y951119D01*
X-40164057Y1219984D01*
X-40691289Y1438910D01*
X-41262167Y1439408D01*
X-41789780Y1221403D01*
X-42193804Y818083D01*
X-42412730Y290851D01*
X-42413228Y-280027D01*
X-43193227Y-280027D01*
X-43192696Y327955D01*
X-43441086Y929103D01*
X-43900617Y1389438D01*
X-44501332Y1638876D01*
X-45151775Y1639444D01*
X-45752923Y1391054D01*
X-45754820Y1389160D01*
X-46210737Y1389160D01*
X-45982702Y1616797D01*
X-45733264Y2217512D01*
X-45732696Y2867955D01*
X-45981086Y3469103D01*
X-46440617Y3929438D01*
X-47041332Y4178876D01*
X-47691775Y4179444D01*
X-48292923Y3931054D01*
X-48294820Y3929160D01*
X-69300339Y3929160D01*
X-69300617Y3929438D01*
X-69901332Y4178876D01*
X-70551775Y4179444D01*
X-71152923Y3931054D01*
X-71613258Y3471523D01*
X-71862696Y2870808D01*
X-71863264Y2220365D01*
X-80947980Y2220365D01*
X-80947980Y6030466D01*
X-78212754Y6030466D01*
X-77964442Y5429505D01*
X-77505053Y4969314D01*
X-76904527Y4719954D01*
X-76254286Y4719386D01*
X-75653325Y4967698D01*
X-75193134Y5427087D01*
X-74943774Y6027613D01*
X-74943772Y6030466D01*
X-73132754Y6030466D01*
X-72884442Y5429505D01*
X-72425053Y4969314D01*
X-71824527Y4719954D01*
X-71174286Y4719386D01*
X-70573325Y4967698D01*
X-70113134Y5427087D01*
X-69863774Y6027613D01*
X-69863772Y6030466D01*
X-45192754Y6030466D01*
X-44944442Y5429505D01*
X-44485053Y4969314D01*
X-43884527Y4719954D01*
X-43234286Y4719386D01*
X-42633325Y4967698D01*
X-42173134Y5427087D01*
X-41923774Y6027613D01*
X-41923772Y6030466D01*
X-40112754Y6030466D01*
X-39864442Y5429505D01*
X-39405053Y4969314D01*
X-38804527Y4719954D01*
X-38154286Y4719386D01*
X-37553325Y4967698D01*
X-37093134Y5427087D01*
X-36843774Y6027613D01*
X-36843206Y6677854D01*
X-37091518Y7278815D01*
X-37550907Y7739006D01*
X-38151433Y7988366D01*
X-38801674Y7988934D01*
X-39402635Y7740622D01*
X-39862826Y7281233D01*
X-40112186Y6680707D01*
X-40112754Y6030466D01*
X-41923772Y6030466D01*
X-41923206Y6677854D01*
X-42171518Y7278815D01*
X-42630907Y7739006D01*
X-43231433Y7988366D01*
X-43881674Y7988934D01*
X-44482635Y7740622D01*
X-44942826Y7281233D01*
X-45192186Y6680707D01*
X-45192754Y6030466D01*
X-69863772Y6030466D01*
X-69863206Y6677854D01*
X-70111518Y7278815D01*
X-70570907Y7739006D01*
X-71171433Y7988366D01*
X-71821674Y7988934D01*
X-72422635Y7740622D01*
X-72882826Y7281233D01*
X-73132186Y6680707D01*
X-73132754Y6030466D01*
X-74943772Y6030466D01*
X-74943206Y6677854D01*
X-75191518Y7278815D01*
X-75650907Y7739006D01*
X-76251433Y7988366D01*
X-76901674Y7988934D01*
X-77502635Y7740622D01*
X-77962826Y7281233D01*
X-78212186Y6680707D01*
X-78212754Y6030466D01*
X-80947980Y6030466D01*
X-80947980Y16190466D01*
X-78212754Y16190466D01*
X-77964442Y15589505D01*
X-77505053Y15129314D01*
X-76904527Y14879954D01*
X-76254286Y14879386D01*
X-75653325Y15127698D01*
X-75193134Y15587087D01*
X-74943774Y16187613D01*
X-74943772Y16190466D01*
X-73132754Y16190466D01*
X-72884442Y15589505D01*
X-72425053Y15129314D01*
X-71824527Y14879954D01*
X-71174286Y14879386D01*
X-70573325Y15127698D01*
X-70113134Y15587087D01*
X-69863774Y16187613D01*
X-69863772Y16190466D01*
X-45192754Y16190466D01*
X-44944442Y15589505D01*
X-44485053Y15129314D01*
X-43884527Y14879954D01*
X-43234286Y14879386D01*
X-42633325Y15127698D01*
X-42173134Y15587087D01*
X-41923774Y16187613D01*
X-41923772Y16190466D01*
X-40112754Y16190466D01*
X-39864442Y15589505D01*
X-39405053Y15129314D01*
X-38804527Y14879954D01*
X-38154286Y14879386D01*
X-37553325Y15127698D01*
X-37093134Y15587087D01*
X-36843774Y16187613D01*
X-36843206Y16837854D01*
X-37091518Y17438815D01*
X-37550907Y17899006D01*
X-38151433Y18148366D01*
X-38801674Y18148934D01*
X-39402635Y17900622D01*
X-39862826Y17441233D01*
X-40112186Y16840707D01*
X-40112754Y16190466D01*
X-41923772Y16190466D01*
X-41923206Y16837854D01*
X-42171518Y17438815D01*
X-42630907Y17899006D01*
X-43231433Y18148366D01*
X-43881674Y18148934D01*
X-44482635Y17900622D01*
X-44942826Y17441233D01*
X-45192186Y16840707D01*
X-45192754Y16190466D01*
X-69863772Y16190466D01*
X-69863206Y16837854D01*
X-70111518Y17438815D01*
X-70570907Y17899006D01*
X-71171433Y18148366D01*
X-71821674Y18148934D01*
X-72422635Y17900622D01*
X-72882826Y17441233D01*
X-73132186Y16840707D01*
X-73132754Y16190466D01*
X-74943772Y16190466D01*
X-74943206Y16837854D01*
X-75191518Y17438815D01*
X-75650907Y17899006D01*
X-76251433Y18148366D01*
X-76901674Y18148934D01*
X-77502635Y17900622D01*
X-77962826Y17441233D01*
X-78212186Y16840707D01*
X-78212754Y16190466D01*
X-80947980Y16190466D01*
X-80947980Y23764160D01*
X-75585420Y23764160D01*
X-75585420Y21964160D01*
X-75541142Y21728843D01*
X-75402070Y21512719D01*
X-75189870Y21367729D01*
X-74937980Y21316720D01*
X-73137980Y21316720D01*
X-72902663Y21360998D01*
X-72686539Y21500070D01*
X-72541549Y21712270D01*
X-72537413Y21732694D01*
X-72368623Y21563609D01*
X-71804650Y21329427D01*
X-71193989Y21328895D01*
X-70629609Y21562092D01*
X-70197429Y21993517D01*
X-69963247Y22557490D01*
X-69963245Y22560169D01*
X-45093245Y22560169D01*
X-44860048Y21995789D01*
X-44428623Y21563609D01*
X-43864650Y21329427D01*
X-43253989Y21328895D01*
X-42689609Y21562092D01*
X-42521367Y21730040D01*
X-42521142Y21728843D01*
X-42382070Y21512719D01*
X-42169870Y21367729D01*
X-41917980Y21316720D01*
X-40117980Y21316720D01*
X-39882663Y21360998D01*
X-39666539Y21500070D01*
X-39521549Y21712270D01*
X-39470540Y21964160D01*
X-39470540Y23764160D01*
X-39514818Y23999477D01*
X-39653890Y24215601D01*
X-39866090Y24360591D01*
X-40117980Y24411600D01*
X-41917980Y24411600D01*
X-42153297Y24367322D01*
X-42369421Y24228250D01*
X-42514411Y24016050D01*
X-42518547Y23995626D01*
X-42687337Y24164711D01*
X-43251310Y24398893D01*
X-43861971Y24399425D01*
X-44426351Y24166228D01*
X-44858531Y23734803D01*
X-45092713Y23170830D01*
X-45093245Y22560169D01*
X-69963245Y22560169D01*
X-69962715Y23168151D01*
X-70195912Y23732531D01*
X-70627337Y24164711D01*
X-71191310Y24398893D01*
X-71801971Y24399425D01*
X-72366351Y24166228D01*
X-72534593Y23998280D01*
X-72534818Y23999477D01*
X-72673890Y24215601D01*
X-72886090Y24360591D01*
X-73137980Y24411600D01*
X-74937980Y24411600D01*
X-75173297Y24367322D01*
X-75389421Y24228250D01*
X-75534411Y24016050D01*
X-75585420Y23764160D01*
X-80947980Y23764160D01*
X-80947980Y27620365D01*
X-75673264Y27620365D01*
X-75424874Y27019217D01*
X-74965343Y26558882D01*
X-74364628Y26309444D01*
X-73714185Y26308876D01*
X-73113037Y26557266D01*
X-72652702Y27016797D01*
X-72403264Y27617512D01*
X-72402696Y28267955D01*
X-72651086Y28869103D01*
X-72902980Y29121438D01*
X-72902980Y33033104D01*
X-70878150Y33033104D01*
X-70830626Y32780533D01*
X-70688581Y32566351D01*
X-69415789Y31293559D01*
X-69218086Y31158474D01*
X-68966924Y31103990D01*
X-68714353Y31151514D01*
X-68696986Y31163032D01*
X-68697194Y30924118D01*
X-68463997Y30359738D01*
X-68032572Y29927558D01*
X-67468599Y29693376D01*
X-66857938Y29692844D01*
X-66293558Y29926041D01*
X-65861378Y30357466D01*
X-65627196Y30921439D01*
X-65627194Y30924118D01*
X-49429296Y30924118D01*
X-49196099Y30359738D01*
X-48764674Y29927558D01*
X-48200701Y29693376D01*
X-47590040Y29692844D01*
X-47025660Y29926041D01*
X-46593480Y30357466D01*
X-46359298Y30921439D01*
X-46359091Y31159161D01*
X-46358086Y31158474D01*
X-46106924Y31103990D01*
X-45854353Y31151514D01*
X-45640171Y31293559D01*
X-44367379Y32566351D01*
X-44232294Y32764054D01*
X-44177810Y33015216D01*
X-44225334Y33267787D01*
X-44367379Y33481969D01*
X-45640171Y34754761D01*
X-45837874Y34889846D01*
X-46089036Y34944330D01*
X-46341607Y34896806D01*
X-46555789Y34754761D01*
X-47828581Y33481969D01*
X-47963666Y33284266D01*
X-48018150Y33033104D01*
X-47970626Y32780533D01*
X-47959108Y32763166D01*
X-48198022Y32763374D01*
X-48762402Y32530177D01*
X-49194582Y32098752D01*
X-49428764Y31534779D01*
X-49429296Y30924118D01*
X-65627194Y30924118D01*
X-65626664Y31532100D01*
X-65859861Y32096480D01*
X-66291286Y32528660D01*
X-66855259Y32762842D01*
X-67092981Y32763049D01*
X-67092294Y32764054D01*
X-67037810Y33015216D01*
X-67085334Y33267787D01*
X-67227379Y33481969D01*
X-68500171Y34754761D01*
X-68697874Y34889846D01*
X-68949036Y34944330D01*
X-69201607Y34896806D01*
X-69415789Y34754761D01*
X-70688581Y33481969D01*
X-70823666Y33284266D01*
X-70878150Y33033104D01*
X-72902980Y33033104D01*
X-72902980Y38239160D01*
X-63785184Y38239160D01*
X-63535343Y37988882D01*
X-62934628Y37739444D01*
X-62284185Y37738876D01*
X-61683037Y37987266D01*
X-61222702Y38446797D01*
X-60991266Y39004160D01*
X-59075420Y39004160D01*
X-59075420Y37204160D01*
X-59031142Y36968843D01*
X-58892070Y36752719D01*
X-58679870Y36607729D01*
X-58659446Y36603593D01*
X-58828531Y36434803D01*
X-59062713Y35870830D01*
X-59063245Y35260169D01*
X-58830048Y34695789D01*
X-58398623Y34263609D01*
X-57834650Y34029427D01*
X-57223989Y34028895D01*
X-56659609Y34262092D01*
X-56227429Y34693517D01*
X-55993247Y35257490D01*
X-55992715Y35868151D01*
X-56225912Y36432531D01*
X-56393860Y36600773D01*
X-56392663Y36600998D01*
X-56176539Y36740070D01*
X-56031549Y36952270D01*
X-55980540Y37204160D01*
X-55980540Y39004160D01*
X-55989234Y39050365D01*
X-54083264Y39050365D01*
X-53834874Y38449217D01*
X-53375343Y37988882D01*
X-52774628Y37739444D01*
X-52418085Y37739133D01*
X-50710547Y36031594D01*
X-50469946Y35870830D01*
X-50342326Y35785557D01*
X-49907980Y35699160D01*
X-43465184Y35699160D01*
X-43215343Y35448882D01*
X-42614628Y35199444D01*
X-41964185Y35198876D01*
X-41363037Y35447266D01*
X-40902702Y35906797D01*
X-40653264Y36507512D01*
X-40652696Y37157955D01*
X-40901086Y37759103D01*
X-41360617Y38219438D01*
X-41961332Y38468876D01*
X-42611775Y38469444D01*
X-43212923Y38221054D01*
X-43465258Y37969160D01*
X-49437847Y37969160D01*
X-50813005Y39344317D01*
X-50812696Y39697955D01*
X-51061086Y40299103D01*
X-51520617Y40759438D01*
X-52121332Y41008876D01*
X-52771775Y41009444D01*
X-53372923Y40761054D01*
X-53833258Y40301523D01*
X-54082696Y39700808D01*
X-54083264Y39050365D01*
X-55989234Y39050365D01*
X-56024818Y39239477D01*
X-56163890Y39455601D01*
X-56376090Y39600591D01*
X-56627980Y39651600D01*
X-58427980Y39651600D01*
X-58663297Y39607322D01*
X-58879421Y39468250D01*
X-59024411Y39256050D01*
X-59075420Y39004160D01*
X-60991266Y39004160D01*
X-60973264Y39047512D01*
X-60972696Y39697955D01*
X-61221086Y40299103D01*
X-61680617Y40759438D01*
X-62281332Y41008876D01*
X-62931775Y41009444D01*
X-63532923Y40761054D01*
X-63785258Y40509160D01*
X-74037980Y40509160D01*
X-74472326Y40422763D01*
X-74840546Y40176726D01*
X-75086583Y39808506D01*
X-75172980Y39374160D01*
X-75172980Y29121364D01*
X-75423258Y28871523D01*
X-75672696Y28270808D01*
X-75673264Y27620365D01*
X-80947980Y27620365D01*
X-80947980Y53904160D01*
X-34107980Y53904160D01*
X-34107980Y-23415840D01*
G36*
X-85798640Y-23414020D02*
X-132638640Y-23414020D01*
X-132638640Y-20314020D01*
X-131715467Y-20314020D01*
X-131591010Y-20939707D01*
X-131236587Y-21470140D01*
X-130706154Y-21824563D01*
X-130080467Y-21949020D01*
X-128996813Y-21949020D01*
X-128371126Y-21824563D01*
X-127840693Y-21470140D01*
X-127486270Y-20939707D01*
X-127418653Y-20599770D01*
X-126593640Y-20599770D01*
X-126593640Y-21440329D01*
X-126496967Y-21673718D01*
X-126318339Y-21852347D01*
X-126084950Y-21949020D01*
X-124744390Y-21949020D01*
X-124585640Y-21790270D01*
X-124585640Y-20441020D01*
X-124331640Y-20441020D01*
X-124331640Y-21790270D01*
X-124172890Y-21949020D01*
X-122832330Y-21949020D01*
X-122598941Y-21852347D01*
X-122420313Y-21673718D01*
X-122323640Y-21440329D01*
X-122323640Y-20599770D01*
X-122482390Y-20441020D01*
X-124331640Y-20441020D01*
X-124585640Y-20441020D01*
X-126434890Y-20441020D01*
X-126593640Y-20599770D01*
X-127418653Y-20599770D01*
X-127361813Y-20314020D01*
X-127451990Y-19860670D01*
X-126998640Y-19950847D01*
X-126593640Y-19870287D01*
X-126593640Y-20028270D01*
X-126434890Y-20187020D01*
X-124585640Y-20187020D01*
X-124585640Y-18837770D01*
X-124331640Y-18837770D01*
X-124331640Y-20187020D01*
X-122482390Y-20187020D01*
X-122323640Y-20028270D01*
X-122323640Y-19187711D01*
X-122420313Y-18954322D01*
X-122598941Y-18775693D01*
X-122832330Y-18679020D01*
X-124172890Y-18679020D01*
X-124331640Y-18837770D01*
X-124585640Y-18837770D01*
X-124744390Y-18679020D01*
X-125435880Y-18679020D01*
X-125363640Y-18315847D01*
X-125363640Y-18194020D01*
X-111986080Y-18194020D01*
X-111986080Y-19894020D01*
X-111941802Y-20129337D01*
X-111802730Y-20345461D01*
X-111590530Y-20490451D01*
X-111338640Y-20541460D01*
X-109638640Y-20541460D01*
X-109403323Y-20497182D01*
X-109187199Y-20358110D01*
X-109042209Y-20145910D01*
X-109020339Y-20037913D01*
X-108715564Y-20315665D01*
X-108305530Y-20485496D01*
X-108075640Y-20364175D01*
X-108075640Y-19171020D01*
X-107821640Y-19171020D01*
X-107821640Y-20364175D01*
X-107591750Y-20485496D01*
X-107181716Y-20315665D01*
X-106753457Y-19925378D01*
X-106507154Y-19400912D01*
X-106627821Y-19171020D01*
X-107821640Y-19171020D01*
X-108075640Y-19171020D01*
X-108095640Y-19171020D01*
X-108095640Y-18917020D01*
X-108075640Y-18917020D01*
X-108075640Y-17723865D01*
X-107821640Y-17723865D01*
X-107821640Y-18917020D01*
X-106627821Y-18917020D01*
X-106507154Y-18687128D01*
X-106753457Y-18162662D01*
X-106824613Y-18097815D01*
X-98153924Y-18097815D01*
X-97905534Y-18698963D01*
X-97446003Y-19159298D01*
X-96845288Y-19408736D01*
X-96194845Y-19409304D01*
X-95710981Y-19209375D01*
X-96031010Y-19688333D01*
X-96155467Y-20314020D01*
X-96031010Y-20939707D01*
X-95676587Y-21470140D01*
X-95146154Y-21824563D01*
X-94520467Y-21949020D01*
X-93436813Y-21949020D01*
X-92811126Y-21824563D01*
X-92280693Y-21470140D01*
X-91926270Y-20939707D01*
X-91858653Y-20599770D01*
X-91033640Y-20599770D01*
X-91033640Y-21440329D01*
X-90936967Y-21673718D01*
X-90758339Y-21852347D01*
X-90524950Y-21949020D01*
X-89184390Y-21949020D01*
X-89025640Y-21790270D01*
X-89025640Y-20441020D01*
X-88771640Y-20441020D01*
X-88771640Y-21790270D01*
X-88612890Y-21949020D01*
X-87272330Y-21949020D01*
X-87038941Y-21852347D01*
X-86860313Y-21673718D01*
X-86763640Y-21440329D01*
X-86763640Y-20599770D01*
X-86922390Y-20441020D01*
X-88771640Y-20441020D01*
X-89025640Y-20441020D01*
X-90874890Y-20441020D01*
X-91033640Y-20599770D01*
X-91858653Y-20599770D01*
X-91801813Y-20314020D01*
X-91891990Y-19860670D01*
X-91438640Y-19950847D01*
X-91033640Y-19870287D01*
X-91033640Y-20028270D01*
X-90874890Y-20187020D01*
X-89025640Y-20187020D01*
X-89025640Y-18837770D01*
X-88771640Y-18837770D01*
X-88771640Y-20187020D01*
X-86922390Y-20187020D01*
X-86763640Y-20028270D01*
X-86763640Y-19187711D01*
X-86860313Y-18954322D01*
X-87038941Y-18775693D01*
X-87272330Y-18679020D01*
X-88612890Y-18679020D01*
X-88771640Y-18837770D01*
X-89025640Y-18837770D01*
X-89184390Y-18679020D01*
X-89875880Y-18679020D01*
X-89803640Y-18315847D01*
X-89803640Y-17232193D01*
X-89928097Y-16606506D01*
X-90282520Y-16076073D01*
X-90812953Y-15721650D01*
X-91438640Y-15597193D01*
X-92064327Y-15721650D01*
X-92594760Y-16076073D01*
X-92949183Y-16606506D01*
X-93073640Y-17232193D01*
X-93073640Y-18315847D01*
X-92983463Y-18769197D01*
X-93436813Y-18679020D01*
X-94520467Y-18679020D01*
X-95146154Y-18803477D01*
X-95416771Y-18984297D01*
X-95133362Y-18701383D01*
X-94883924Y-18100668D01*
X-94883613Y-17744125D01*
X-92238508Y-15099020D01*
X-90075844Y-15099020D01*
X-89826003Y-15349298D01*
X-89225288Y-15598736D01*
X-88574845Y-15599304D01*
X-87973697Y-15350914D01*
X-87513362Y-14891383D01*
X-87263924Y-14290668D01*
X-87263356Y-13640225D01*
X-87511746Y-13039077D01*
X-87971277Y-12578742D01*
X-88571992Y-12329304D01*
X-89222435Y-12328736D01*
X-89823583Y-12577126D01*
X-90075918Y-12829020D01*
X-92708640Y-12829020D01*
X-93142985Y-12915416D01*
X-93511206Y-13161454D01*
X-96488797Y-16139045D01*
X-96842435Y-16138736D01*
X-97443583Y-16387126D01*
X-97903918Y-16846657D01*
X-98153356Y-17447372D01*
X-98153924Y-18097815D01*
X-106824613Y-18097815D01*
X-107181716Y-17772375D01*
X-107591750Y-17602544D01*
X-107821640Y-17723865D01*
X-108075640Y-17723865D01*
X-108305530Y-17602544D01*
X-108715564Y-17772375D01*
X-109018577Y-18048521D01*
X-109035478Y-17958703D01*
X-109174550Y-17742579D01*
X-109386750Y-17597589D01*
X-109638640Y-17546580D01*
X-111338640Y-17546580D01*
X-111573957Y-17590858D01*
X-111790081Y-17729930D01*
X-111935071Y-17942130D01*
X-111986080Y-18194020D01*
X-125363640Y-18194020D01*
X-125363640Y-17232193D01*
X-125488097Y-16606506D01*
X-125842520Y-16076073D01*
X-126372953Y-15721650D01*
X-126998640Y-15597193D01*
X-127624327Y-15721650D01*
X-128154760Y-16076073D01*
X-128509183Y-16606506D01*
X-128633640Y-17232193D01*
X-128633640Y-18315847D01*
X-128543463Y-18769197D01*
X-128996813Y-18679020D01*
X-130080467Y-18679020D01*
X-130706154Y-18803477D01*
X-131236587Y-19157900D01*
X-131591010Y-19688333D01*
X-131715467Y-20314020D01*
X-132638640Y-20314020D01*
X-132638640Y805980D01*
X-129716080Y805980D01*
X-129716080Y-794020D01*
X-129671802Y-1029337D01*
X-129532730Y-1245461D01*
X-129320530Y-1390451D01*
X-129068640Y-1441460D01*
X-127468640Y-1441460D01*
X-127233323Y-1397182D01*
X-127017199Y-1258110D01*
X-126872209Y-1045910D01*
X-126850960Y-940979D01*
X-126582563Y-1209844D01*
X-126055331Y-1428770D01*
X-125484453Y-1429268D01*
X-124956840Y-1211263D01*
X-124552816Y-807943D01*
X-124333890Y-280711D01*
X-124333392Y290167D01*
X-124551397Y817780D01*
X-124954717Y1221804D01*
X-125481949Y1440730D01*
X-126052827Y1441228D01*
X-126580440Y1223223D01*
X-126849223Y954908D01*
X-126865478Y1041297D01*
X-127004550Y1257421D01*
X-127216750Y1402411D01*
X-127468640Y1453420D01*
X-129068640Y1453420D01*
X-129303957Y1409142D01*
X-129520081Y1270070D01*
X-129665071Y1057870D01*
X-129716080Y805980D01*
X-132638640Y805980D01*
X-132638640Y2222185D01*
X-123553924Y2222185D01*
X-123305534Y1621037D01*
X-122846003Y1160702D01*
X-122245288Y911264D01*
X-121594845Y910696D01*
X-120993697Y1159086D01*
X-120991800Y1160980D01*
X-119265883Y1160980D01*
X-119493918Y933343D01*
X-119743356Y332628D01*
X-119743924Y-317815D01*
X-119495534Y-918963D01*
X-119036003Y-1379298D01*
X-118435288Y-1628736D01*
X-117784845Y-1629304D01*
X-117183697Y-1380914D01*
X-117181800Y-1379020D01*
X-97446281Y-1379020D01*
X-97446003Y-1379298D01*
X-96845288Y-1628736D01*
X-96194845Y-1629304D01*
X-95593697Y-1380914D01*
X-95133362Y-921383D01*
X-94883924Y-320668D01*
X-94883887Y-278207D01*
X-94103888Y-278207D01*
X-93885883Y-805820D01*
X-93482563Y-1209844D01*
X-92955331Y-1428770D01*
X-92384453Y-1429268D01*
X-91856840Y-1211263D01*
X-91588057Y-942948D01*
X-91571802Y-1029337D01*
X-91432730Y-1245461D01*
X-91220530Y-1390451D01*
X-90968640Y-1441460D01*
X-89368640Y-1441460D01*
X-89133323Y-1397182D01*
X-88917199Y-1258110D01*
X-88772209Y-1045910D01*
X-88721200Y-794020D01*
X-88721200Y805980D01*
X-88765478Y1041297D01*
X-88904550Y1257421D01*
X-89116750Y1402411D01*
X-89368640Y1453420D01*
X-90968640Y1453420D01*
X-91203957Y1409142D01*
X-91420081Y1270070D01*
X-91565071Y1057870D01*
X-91586320Y952939D01*
X-91854717Y1221804D01*
X-92381949Y1440730D01*
X-92952827Y1441228D01*
X-93480440Y1223223D01*
X-93884464Y819903D01*
X-94103390Y292671D01*
X-94103888Y-278207D01*
X-94883887Y-278207D01*
X-94883356Y329775D01*
X-95131746Y930923D01*
X-95591277Y1391258D01*
X-96191992Y1640696D01*
X-96842435Y1641264D01*
X-97443583Y1392874D01*
X-97445480Y1390980D01*
X-97901397Y1390980D01*
X-97673362Y1618617D01*
X-97423924Y2219332D01*
X-97423356Y2869775D01*
X-97671746Y3470923D01*
X-98131277Y3931258D01*
X-98731992Y4180696D01*
X-99382435Y4181264D01*
X-99983583Y3932874D01*
X-99985480Y3930980D01*
X-120990999Y3930980D01*
X-120991277Y3931258D01*
X-121591992Y4180696D01*
X-122242435Y4181264D01*
X-122843583Y3932874D01*
X-123303918Y3473343D01*
X-123553356Y2872628D01*
X-123553924Y2222185D01*
X-132638640Y2222185D01*
X-132638640Y6032286D01*
X-129903414Y6032286D01*
X-129655102Y5431325D01*
X-129195713Y4971134D01*
X-128595187Y4721774D01*
X-127944946Y4721206D01*
X-127343985Y4969518D01*
X-126883794Y5428907D01*
X-126634434Y6029433D01*
X-126634432Y6032286D01*
X-124823414Y6032286D01*
X-124575102Y5431325D01*
X-124115713Y4971134D01*
X-123515187Y4721774D01*
X-122864946Y4721206D01*
X-122263985Y4969518D01*
X-121803794Y5428907D01*
X-121554434Y6029433D01*
X-121554432Y6032286D01*
X-96883414Y6032286D01*
X-96635102Y5431325D01*
X-96175713Y4971134D01*
X-95575187Y4721774D01*
X-94924946Y4721206D01*
X-94323985Y4969518D01*
X-93863794Y5428907D01*
X-93614434Y6029433D01*
X-93614432Y6032286D01*
X-91803414Y6032286D01*
X-91555102Y5431325D01*
X-91095713Y4971134D01*
X-90495187Y4721774D01*
X-89844946Y4721206D01*
X-89243985Y4969518D01*
X-88783794Y5428907D01*
X-88534434Y6029433D01*
X-88533866Y6679674D01*
X-88782178Y7280635D01*
X-89241567Y7740826D01*
X-89842093Y7990186D01*
X-90492334Y7990754D01*
X-91093295Y7742442D01*
X-91553486Y7283053D01*
X-91802846Y6682527D01*
X-91803414Y6032286D01*
X-93614432Y6032286D01*
X-93613866Y6679674D01*
X-93862178Y7280635D01*
X-94321567Y7740826D01*
X-94922093Y7990186D01*
X-95572334Y7990754D01*
X-96173295Y7742442D01*
X-96633486Y7283053D01*
X-96882846Y6682527D01*
X-96883414Y6032286D01*
X-121554432Y6032286D01*
X-121553866Y6679674D01*
X-121802178Y7280635D01*
X-122261567Y7740826D01*
X-122862093Y7990186D01*
X-123512334Y7990754D01*
X-124113295Y7742442D01*
X-124573486Y7283053D01*
X-124822846Y6682527D01*
X-124823414Y6032286D01*
X-126634432Y6032286D01*
X-126633866Y6679674D01*
X-126882178Y7280635D01*
X-127341567Y7740826D01*
X-127942093Y7990186D01*
X-128592334Y7990754D01*
X-129193295Y7742442D01*
X-129653486Y7283053D01*
X-129902846Y6682527D01*
X-129903414Y6032286D01*
X-132638640Y6032286D01*
X-132638640Y16192286D01*
X-129903414Y16192286D01*
X-129655102Y15591325D01*
X-129195713Y15131134D01*
X-128595187Y14881774D01*
X-127944946Y14881206D01*
X-127343985Y15129518D01*
X-126883794Y15588907D01*
X-126634434Y16189433D01*
X-126634432Y16192286D01*
X-124823414Y16192286D01*
X-124575102Y15591325D01*
X-124115713Y15131134D01*
X-123515187Y14881774D01*
X-122864946Y14881206D01*
X-122263985Y15129518D01*
X-121803794Y15588907D01*
X-121554434Y16189433D01*
X-121554432Y16192286D01*
X-96883414Y16192286D01*
X-96635102Y15591325D01*
X-96175713Y15131134D01*
X-95575187Y14881774D01*
X-94924946Y14881206D01*
X-94323985Y15129518D01*
X-93863794Y15588907D01*
X-93614434Y16189433D01*
X-93614432Y16192286D01*
X-91803414Y16192286D01*
X-91555102Y15591325D01*
X-91095713Y15131134D01*
X-90495187Y14881774D01*
X-89844946Y14881206D01*
X-89243985Y15129518D01*
X-88783794Y15588907D01*
X-88534434Y16189433D01*
X-88533866Y16839674D01*
X-88782178Y17440635D01*
X-89241567Y17900826D01*
X-89842093Y18150186D01*
X-90492334Y18150754D01*
X-91093295Y17902442D01*
X-91553486Y17443053D01*
X-91802846Y16842527D01*
X-91803414Y16192286D01*
X-93614432Y16192286D01*
X-93613866Y16839674D01*
X-93862178Y17440635D01*
X-94321567Y17900826D01*
X-94922093Y18150186D01*
X-95572334Y18150754D01*
X-96173295Y17902442D01*
X-96633486Y17443053D01*
X-96882846Y16842527D01*
X-96883414Y16192286D01*
X-121554432Y16192286D01*
X-121553866Y16839674D01*
X-121802178Y17440635D01*
X-122261567Y17900826D01*
X-122862093Y18150186D01*
X-123512334Y18150754D01*
X-124113295Y17902442D01*
X-124573486Y17443053D01*
X-124822846Y16842527D01*
X-124823414Y16192286D01*
X-126634432Y16192286D01*
X-126633866Y16839674D01*
X-126882178Y17440635D01*
X-127341567Y17900826D01*
X-127942093Y18150186D01*
X-128592334Y18150754D01*
X-129193295Y17902442D01*
X-129653486Y17443053D01*
X-129902846Y16842527D01*
X-129903414Y16192286D01*
X-132638640Y16192286D01*
X-132638640Y23765980D01*
X-127276080Y23765980D01*
X-127276080Y21965980D01*
X-127231802Y21730663D01*
X-127092730Y21514539D01*
X-126880530Y21369549D01*
X-126628640Y21318540D01*
X-124828640Y21318540D01*
X-124593323Y21362818D01*
X-124377199Y21501890D01*
X-124232209Y21714090D01*
X-124228073Y21734514D01*
X-124059283Y21565429D01*
X-123495310Y21331247D01*
X-122884649Y21330715D01*
X-122320269Y21563912D01*
X-121888089Y21995337D01*
X-121653907Y22559310D01*
X-121653905Y22561989D01*
X-96783905Y22561989D01*
X-96550708Y21997609D01*
X-96119283Y21565429D01*
X-95555310Y21331247D01*
X-94944649Y21330715D01*
X-94380269Y21563912D01*
X-94212027Y21731860D01*
X-94211802Y21730663D01*
X-94072730Y21514539D01*
X-93860530Y21369549D01*
X-93608640Y21318540D01*
X-91808640Y21318540D01*
X-91573323Y21362818D01*
X-91357199Y21501890D01*
X-91212209Y21714090D01*
X-91161200Y21965980D01*
X-91161200Y23765980D01*
X-91205478Y24001297D01*
X-91344550Y24217421D01*
X-91556750Y24362411D01*
X-91808640Y24413420D01*
X-93608640Y24413420D01*
X-93843957Y24369142D01*
X-94060081Y24230070D01*
X-94205071Y24017870D01*
X-94209207Y23997446D01*
X-94377997Y24166531D01*
X-94941970Y24400713D01*
X-95552631Y24401245D01*
X-96117011Y24168048D01*
X-96549191Y23736623D01*
X-96783373Y23172650D01*
X-96783905Y22561989D01*
X-121653905Y22561989D01*
X-121653375Y23169971D01*
X-121886572Y23734351D01*
X-122317997Y24166531D01*
X-122881970Y24400713D01*
X-123492631Y24401245D01*
X-124057011Y24168048D01*
X-124225253Y24000100D01*
X-124225478Y24001297D01*
X-124364550Y24217421D01*
X-124576750Y24362411D01*
X-124828640Y24413420D01*
X-126628640Y24413420D01*
X-126863957Y24369142D01*
X-127080081Y24230070D01*
X-127225071Y24017870D01*
X-127276080Y23765980D01*
X-132638640Y23765980D01*
X-132638640Y27622185D01*
X-127363924Y27622185D01*
X-127115534Y27021037D01*
X-126656003Y26560702D01*
X-126055288Y26311264D01*
X-125404845Y26310696D01*
X-124803697Y26559086D01*
X-124343362Y27018617D01*
X-124093924Y27619332D01*
X-124093356Y28269775D01*
X-124341746Y28870923D01*
X-124593640Y29123258D01*
X-124593640Y33034924D01*
X-122568810Y33034924D01*
X-122521286Y32782353D01*
X-122379241Y32568171D01*
X-121106449Y31295379D01*
X-120908746Y31160294D01*
X-120657584Y31105810D01*
X-120405013Y31153334D01*
X-120387646Y31164852D01*
X-120387854Y30925938D01*
X-120154657Y30361558D01*
X-119723232Y29929378D01*
X-119159259Y29695196D01*
X-118548598Y29694664D01*
X-117984218Y29927861D01*
X-117552038Y30359286D01*
X-117317856Y30923259D01*
X-117317854Y30925938D01*
X-101119956Y30925938D01*
X-100886759Y30361558D01*
X-100455334Y29929378D01*
X-99891361Y29695196D01*
X-99280700Y29694664D01*
X-98716320Y29927861D01*
X-98284140Y30359286D01*
X-98049958Y30923259D01*
X-98049751Y31160981D01*
X-98048746Y31160294D01*
X-97797584Y31105810D01*
X-97545013Y31153334D01*
X-97330831Y31295379D01*
X-96058039Y32568171D01*
X-95922954Y32765874D01*
X-95868470Y33017036D01*
X-95915994Y33269607D01*
X-96058039Y33483789D01*
X-97330831Y34756581D01*
X-97528534Y34891666D01*
X-97779696Y34946150D01*
X-98032267Y34898626D01*
X-98246449Y34756581D01*
X-99519241Y33483789D01*
X-99654326Y33286086D01*
X-99708810Y33034924D01*
X-99661286Y32782353D01*
X-99649768Y32764986D01*
X-99888682Y32765194D01*
X-100453062Y32531997D01*
X-100885242Y32100572D01*
X-101119424Y31536599D01*
X-101119956Y30925938D01*
X-117317854Y30925938D01*
X-117317324Y31533920D01*
X-117550521Y32098300D01*
X-117981946Y32530480D01*
X-118545919Y32764662D01*
X-118783641Y32764869D01*
X-118782954Y32765874D01*
X-118728470Y33017036D01*
X-118775994Y33269607D01*
X-118918039Y33483789D01*
X-120190831Y34756581D01*
X-120388534Y34891666D01*
X-120639696Y34946150D01*
X-120892267Y34898626D01*
X-121106449Y34756581D01*
X-122379241Y33483789D01*
X-122514326Y33286086D01*
X-122568810Y33034924D01*
X-124593640Y33034924D01*
X-124593640Y38240980D01*
X-115475844Y38240980D01*
X-115226003Y37990702D01*
X-114625288Y37741264D01*
X-113974845Y37740696D01*
X-113373697Y37989086D01*
X-112913362Y38448617D01*
X-112681926Y39005980D01*
X-110766080Y39005980D01*
X-110766080Y37205980D01*
X-110721802Y36970663D01*
X-110582730Y36754539D01*
X-110370530Y36609549D01*
X-110350106Y36605413D01*
X-110519191Y36436623D01*
X-110753373Y35872650D01*
X-110753905Y35261989D01*
X-110520708Y34697609D01*
X-110089283Y34265429D01*
X-109525310Y34031247D01*
X-108914649Y34030715D01*
X-108350269Y34263912D01*
X-107918089Y34695337D01*
X-107683907Y35259310D01*
X-107683375Y35869971D01*
X-107916572Y36434351D01*
X-108084520Y36602593D01*
X-108083323Y36602818D01*
X-107867199Y36741890D01*
X-107722209Y36954090D01*
X-107671200Y37205980D01*
X-107671200Y39005980D01*
X-107679894Y39052185D01*
X-105773924Y39052185D01*
X-105525534Y38451037D01*
X-105066003Y37990702D01*
X-104465288Y37741264D01*
X-104108745Y37740953D01*
X-102401207Y36033414D01*
X-102160606Y35872650D01*
X-102032986Y35787377D01*
X-101598640Y35700980D01*
X-95155844Y35700980D01*
X-94906003Y35450702D01*
X-94305288Y35201264D01*
X-93654845Y35200696D01*
X-93053697Y35449086D01*
X-92593362Y35908617D01*
X-92343924Y36509332D01*
X-92343356Y37159775D01*
X-92591746Y37760923D01*
X-93051277Y38221258D01*
X-93651992Y38470696D01*
X-94302435Y38471264D01*
X-94903583Y38222874D01*
X-95155918Y37970980D01*
X-101128507Y37970980D01*
X-102503665Y39346137D01*
X-102503356Y39699775D01*
X-102751746Y40300923D01*
X-103211277Y40761258D01*
X-103811992Y41010696D01*
X-104462435Y41011264D01*
X-105063583Y40762874D01*
X-105523918Y40303343D01*
X-105773356Y39702628D01*
X-105773924Y39052185D01*
X-107679894Y39052185D01*
X-107715478Y39241297D01*
X-107854550Y39457421D01*
X-108066750Y39602411D01*
X-108318640Y39653420D01*
X-110118640Y39653420D01*
X-110353957Y39609142D01*
X-110570081Y39470070D01*
X-110715071Y39257870D01*
X-110766080Y39005980D01*
X-112681926Y39005980D01*
X-112663924Y39049332D01*
X-112663356Y39699775D01*
X-112911746Y40300923D01*
X-113371277Y40761258D01*
X-113971992Y41010696D01*
X-114622435Y41011264D01*
X-115223583Y40762874D01*
X-115475918Y40510980D01*
X-125728640Y40510980D01*
X-126162986Y40424583D01*
X-126531206Y40178546D01*
X-126777243Y39810326D01*
X-126863640Y39375980D01*
X-126863640Y29123184D01*
X-127113918Y28873343D01*
X-127363356Y28272628D01*
X-127363924Y27622185D01*
X-132638640Y27622185D01*
X-132638640Y53905980D01*
X-85798640Y53905980D01*
X-85798640Y-23414020D01*
X-85798640Y-23414020D01*
G37*
X-85798640Y-23414020D02*
X-132638640Y-23414020D01*
X-132638640Y-20314020D01*
X-131715467Y-20314020D01*
X-131591010Y-20939707D01*
X-131236587Y-21470140D01*
X-130706154Y-21824563D01*
X-130080467Y-21949020D01*
X-128996813Y-21949020D01*
X-128371126Y-21824563D01*
X-127840693Y-21470140D01*
X-127486270Y-20939707D01*
X-127418653Y-20599770D01*
X-126593640Y-20599770D01*
X-126593640Y-21440329D01*
X-126496967Y-21673718D01*
X-126318339Y-21852347D01*
X-126084950Y-21949020D01*
X-124744390Y-21949020D01*
X-124585640Y-21790270D01*
X-124585640Y-20441020D01*
X-124331640Y-20441020D01*
X-124331640Y-21790270D01*
X-124172890Y-21949020D01*
X-122832330Y-21949020D01*
X-122598941Y-21852347D01*
X-122420313Y-21673718D01*
X-122323640Y-21440329D01*
X-122323640Y-20599770D01*
X-122482390Y-20441020D01*
X-124331640Y-20441020D01*
X-124585640Y-20441020D01*
X-126434890Y-20441020D01*
X-126593640Y-20599770D01*
X-127418653Y-20599770D01*
X-127361813Y-20314020D01*
X-127451990Y-19860670D01*
X-126998640Y-19950847D01*
X-126593640Y-19870287D01*
X-126593640Y-20028270D01*
X-126434890Y-20187020D01*
X-124585640Y-20187020D01*
X-124585640Y-18837770D01*
X-124331640Y-18837770D01*
X-124331640Y-20187020D01*
X-122482390Y-20187020D01*
X-122323640Y-20028270D01*
X-122323640Y-19187711D01*
X-122420313Y-18954322D01*
X-122598941Y-18775693D01*
X-122832330Y-18679020D01*
X-124172890Y-18679020D01*
X-124331640Y-18837770D01*
X-124585640Y-18837770D01*
X-124744390Y-18679020D01*
X-125435880Y-18679020D01*
X-125363640Y-18315847D01*
X-125363640Y-18194020D01*
X-111986080Y-18194020D01*
X-111986080Y-19894020D01*
X-111941802Y-20129337D01*
X-111802730Y-20345461D01*
X-111590530Y-20490451D01*
X-111338640Y-20541460D01*
X-109638640Y-20541460D01*
X-109403323Y-20497182D01*
X-109187199Y-20358110D01*
X-109042209Y-20145910D01*
X-109020339Y-20037913D01*
X-108715564Y-20315665D01*
X-108305530Y-20485496D01*
X-108075640Y-20364175D01*
X-108075640Y-19171020D01*
X-107821640Y-19171020D01*
X-107821640Y-20364175D01*
X-107591750Y-20485496D01*
X-107181716Y-20315665D01*
X-106753457Y-19925378D01*
X-106507154Y-19400912D01*
X-106627821Y-19171020D01*
X-107821640Y-19171020D01*
X-108075640Y-19171020D01*
X-108095640Y-19171020D01*
X-108095640Y-18917020D01*
X-108075640Y-18917020D01*
X-108075640Y-17723865D01*
X-107821640Y-17723865D01*
X-107821640Y-18917020D01*
X-106627821Y-18917020D01*
X-106507154Y-18687128D01*
X-106753457Y-18162662D01*
X-106824613Y-18097815D01*
X-98153924Y-18097815D01*
X-97905534Y-18698963D01*
X-97446003Y-19159298D01*
X-96845288Y-19408736D01*
X-96194845Y-19409304D01*
X-95710981Y-19209375D01*
X-96031010Y-19688333D01*
X-96155467Y-20314020D01*
X-96031010Y-20939707D01*
X-95676587Y-21470140D01*
X-95146154Y-21824563D01*
X-94520467Y-21949020D01*
X-93436813Y-21949020D01*
X-92811126Y-21824563D01*
X-92280693Y-21470140D01*
X-91926270Y-20939707D01*
X-91858653Y-20599770D01*
X-91033640Y-20599770D01*
X-91033640Y-21440329D01*
X-90936967Y-21673718D01*
X-90758339Y-21852347D01*
X-90524950Y-21949020D01*
X-89184390Y-21949020D01*
X-89025640Y-21790270D01*
X-89025640Y-20441020D01*
X-88771640Y-20441020D01*
X-88771640Y-21790270D01*
X-88612890Y-21949020D01*
X-87272330Y-21949020D01*
X-87038941Y-21852347D01*
X-86860313Y-21673718D01*
X-86763640Y-21440329D01*
X-86763640Y-20599770D01*
X-86922390Y-20441020D01*
X-88771640Y-20441020D01*
X-89025640Y-20441020D01*
X-90874890Y-20441020D01*
X-91033640Y-20599770D01*
X-91858653Y-20599770D01*
X-91801813Y-20314020D01*
X-91891990Y-19860670D01*
X-91438640Y-19950847D01*
X-91033640Y-19870287D01*
X-91033640Y-20028270D01*
X-90874890Y-20187020D01*
X-89025640Y-20187020D01*
X-89025640Y-18837770D01*
X-88771640Y-18837770D01*
X-88771640Y-20187020D01*
X-86922390Y-20187020D01*
X-86763640Y-20028270D01*
X-86763640Y-19187711D01*
X-86860313Y-18954322D01*
X-87038941Y-18775693D01*
X-87272330Y-18679020D01*
X-88612890Y-18679020D01*
X-88771640Y-18837770D01*
X-89025640Y-18837770D01*
X-89184390Y-18679020D01*
X-89875880Y-18679020D01*
X-89803640Y-18315847D01*
X-89803640Y-17232193D01*
X-89928097Y-16606506D01*
X-90282520Y-16076073D01*
X-90812953Y-15721650D01*
X-91438640Y-15597193D01*
X-92064327Y-15721650D01*
X-92594760Y-16076073D01*
X-92949183Y-16606506D01*
X-93073640Y-17232193D01*
X-93073640Y-18315847D01*
X-92983463Y-18769197D01*
X-93436813Y-18679020D01*
X-94520467Y-18679020D01*
X-95146154Y-18803477D01*
X-95416771Y-18984297D01*
X-95133362Y-18701383D01*
X-94883924Y-18100668D01*
X-94883613Y-17744125D01*
X-92238508Y-15099020D01*
X-90075844Y-15099020D01*
X-89826003Y-15349298D01*
X-89225288Y-15598736D01*
X-88574845Y-15599304D01*
X-87973697Y-15350914D01*
X-87513362Y-14891383D01*
X-87263924Y-14290668D01*
X-87263356Y-13640225D01*
X-87511746Y-13039077D01*
X-87971277Y-12578742D01*
X-88571992Y-12329304D01*
X-89222435Y-12328736D01*
X-89823583Y-12577126D01*
X-90075918Y-12829020D01*
X-92708640Y-12829020D01*
X-93142985Y-12915416D01*
X-93511206Y-13161454D01*
X-96488797Y-16139045D01*
X-96842435Y-16138736D01*
X-97443583Y-16387126D01*
X-97903918Y-16846657D01*
X-98153356Y-17447372D01*
X-98153924Y-18097815D01*
X-106824613Y-18097815D01*
X-107181716Y-17772375D01*
X-107591750Y-17602544D01*
X-107821640Y-17723865D01*
X-108075640Y-17723865D01*
X-108305530Y-17602544D01*
X-108715564Y-17772375D01*
X-109018577Y-18048521D01*
X-109035478Y-17958703D01*
X-109174550Y-17742579D01*
X-109386750Y-17597589D01*
X-109638640Y-17546580D01*
X-111338640Y-17546580D01*
X-111573957Y-17590858D01*
X-111790081Y-17729930D01*
X-111935071Y-17942130D01*
X-111986080Y-18194020D01*
X-125363640Y-18194020D01*
X-125363640Y-17232193D01*
X-125488097Y-16606506D01*
X-125842520Y-16076073D01*
X-126372953Y-15721650D01*
X-126998640Y-15597193D01*
X-127624327Y-15721650D01*
X-128154760Y-16076073D01*
X-128509183Y-16606506D01*
X-128633640Y-17232193D01*
X-128633640Y-18315847D01*
X-128543463Y-18769197D01*
X-128996813Y-18679020D01*
X-130080467Y-18679020D01*
X-130706154Y-18803477D01*
X-131236587Y-19157900D01*
X-131591010Y-19688333D01*
X-131715467Y-20314020D01*
X-132638640Y-20314020D01*
X-132638640Y805980D01*
X-129716080Y805980D01*
X-129716080Y-794020D01*
X-129671802Y-1029337D01*
X-129532730Y-1245461D01*
X-129320530Y-1390451D01*
X-129068640Y-1441460D01*
X-127468640Y-1441460D01*
X-127233323Y-1397182D01*
X-127017199Y-1258110D01*
X-126872209Y-1045910D01*
X-126850960Y-940979D01*
X-126582563Y-1209844D01*
X-126055331Y-1428770D01*
X-125484453Y-1429268D01*
X-124956840Y-1211263D01*
X-124552816Y-807943D01*
X-124333890Y-280711D01*
X-124333392Y290167D01*
X-124551397Y817780D01*
X-124954717Y1221804D01*
X-125481949Y1440730D01*
X-126052827Y1441228D01*
X-126580440Y1223223D01*
X-126849223Y954908D01*
X-126865478Y1041297D01*
X-127004550Y1257421D01*
X-127216750Y1402411D01*
X-127468640Y1453420D01*
X-129068640Y1453420D01*
X-129303957Y1409142D01*
X-129520081Y1270070D01*
X-129665071Y1057870D01*
X-129716080Y805980D01*
X-132638640Y805980D01*
X-132638640Y2222185D01*
X-123553924Y2222185D01*
X-123305534Y1621037D01*
X-122846003Y1160702D01*
X-122245288Y911264D01*
X-121594845Y910696D01*
X-120993697Y1159086D01*
X-120991800Y1160980D01*
X-119265883Y1160980D01*
X-119493918Y933343D01*
X-119743356Y332628D01*
X-119743924Y-317815D01*
X-119495534Y-918963D01*
X-119036003Y-1379298D01*
X-118435288Y-1628736D01*
X-117784845Y-1629304D01*
X-117183697Y-1380914D01*
X-117181800Y-1379020D01*
X-97446281Y-1379020D01*
X-97446003Y-1379298D01*
X-96845288Y-1628736D01*
X-96194845Y-1629304D01*
X-95593697Y-1380914D01*
X-95133362Y-921383D01*
X-94883924Y-320668D01*
X-94883887Y-278207D01*
X-94103888Y-278207D01*
X-93885883Y-805820D01*
X-93482563Y-1209844D01*
X-92955331Y-1428770D01*
X-92384453Y-1429268D01*
X-91856840Y-1211263D01*
X-91588057Y-942948D01*
X-91571802Y-1029337D01*
X-91432730Y-1245461D01*
X-91220530Y-1390451D01*
X-90968640Y-1441460D01*
X-89368640Y-1441460D01*
X-89133323Y-1397182D01*
X-88917199Y-1258110D01*
X-88772209Y-1045910D01*
X-88721200Y-794020D01*
X-88721200Y805980D01*
X-88765478Y1041297D01*
X-88904550Y1257421D01*
X-89116750Y1402411D01*
X-89368640Y1453420D01*
X-90968640Y1453420D01*
X-91203957Y1409142D01*
X-91420081Y1270070D01*
X-91565071Y1057870D01*
X-91586320Y952939D01*
X-91854717Y1221804D01*
X-92381949Y1440730D01*
X-92952827Y1441228D01*
X-93480440Y1223223D01*
X-93884464Y819903D01*
X-94103390Y292671D01*
X-94103888Y-278207D01*
X-94883887Y-278207D01*
X-94883356Y329775D01*
X-95131746Y930923D01*
X-95591277Y1391258D01*
X-96191992Y1640696D01*
X-96842435Y1641264D01*
X-97443583Y1392874D01*
X-97445480Y1390980D01*
X-97901397Y1390980D01*
X-97673362Y1618617D01*
X-97423924Y2219332D01*
X-97423356Y2869775D01*
X-97671746Y3470923D01*
X-98131277Y3931258D01*
X-98731992Y4180696D01*
X-99382435Y4181264D01*
X-99983583Y3932874D01*
X-99985480Y3930980D01*
X-120990999Y3930980D01*
X-120991277Y3931258D01*
X-121591992Y4180696D01*
X-122242435Y4181264D01*
X-122843583Y3932874D01*
X-123303918Y3473343D01*
X-123553356Y2872628D01*
X-123553924Y2222185D01*
X-132638640Y2222185D01*
X-132638640Y6032286D01*
X-129903414Y6032286D01*
X-129655102Y5431325D01*
X-129195713Y4971134D01*
X-128595187Y4721774D01*
X-127944946Y4721206D01*
X-127343985Y4969518D01*
X-126883794Y5428907D01*
X-126634434Y6029433D01*
X-126634432Y6032286D01*
X-124823414Y6032286D01*
X-124575102Y5431325D01*
X-124115713Y4971134D01*
X-123515187Y4721774D01*
X-122864946Y4721206D01*
X-122263985Y4969518D01*
X-121803794Y5428907D01*
X-121554434Y6029433D01*
X-121554432Y6032286D01*
X-96883414Y6032286D01*
X-96635102Y5431325D01*
X-96175713Y4971134D01*
X-95575187Y4721774D01*
X-94924946Y4721206D01*
X-94323985Y4969518D01*
X-93863794Y5428907D01*
X-93614434Y6029433D01*
X-93614432Y6032286D01*
X-91803414Y6032286D01*
X-91555102Y5431325D01*
X-91095713Y4971134D01*
X-90495187Y4721774D01*
X-89844946Y4721206D01*
X-89243985Y4969518D01*
X-88783794Y5428907D01*
X-88534434Y6029433D01*
X-88533866Y6679674D01*
X-88782178Y7280635D01*
X-89241567Y7740826D01*
X-89842093Y7990186D01*
X-90492334Y7990754D01*
X-91093295Y7742442D01*
X-91553486Y7283053D01*
X-91802846Y6682527D01*
X-91803414Y6032286D01*
X-93614432Y6032286D01*
X-93613866Y6679674D01*
X-93862178Y7280635D01*
X-94321567Y7740826D01*
X-94922093Y7990186D01*
X-95572334Y7990754D01*
X-96173295Y7742442D01*
X-96633486Y7283053D01*
X-96882846Y6682527D01*
X-96883414Y6032286D01*
X-121554432Y6032286D01*
X-121553866Y6679674D01*
X-121802178Y7280635D01*
X-122261567Y7740826D01*
X-122862093Y7990186D01*
X-123512334Y7990754D01*
X-124113295Y7742442D01*
X-124573486Y7283053D01*
X-124822846Y6682527D01*
X-124823414Y6032286D01*
X-126634432Y6032286D01*
X-126633866Y6679674D01*
X-126882178Y7280635D01*
X-127341567Y7740826D01*
X-127942093Y7990186D01*
X-128592334Y7990754D01*
X-129193295Y7742442D01*
X-129653486Y7283053D01*
X-129902846Y6682527D01*
X-129903414Y6032286D01*
X-132638640Y6032286D01*
X-132638640Y16192286D01*
X-129903414Y16192286D01*
X-129655102Y15591325D01*
X-129195713Y15131134D01*
X-128595187Y14881774D01*
X-127944946Y14881206D01*
X-127343985Y15129518D01*
X-126883794Y15588907D01*
X-126634434Y16189433D01*
X-126634432Y16192286D01*
X-124823414Y16192286D01*
X-124575102Y15591325D01*
X-124115713Y15131134D01*
X-123515187Y14881774D01*
X-122864946Y14881206D01*
X-122263985Y15129518D01*
X-121803794Y15588907D01*
X-121554434Y16189433D01*
X-121554432Y16192286D01*
X-96883414Y16192286D01*
X-96635102Y15591325D01*
X-96175713Y15131134D01*
X-95575187Y14881774D01*
X-94924946Y14881206D01*
X-94323985Y15129518D01*
X-93863794Y15588907D01*
X-93614434Y16189433D01*
X-93614432Y16192286D01*
X-91803414Y16192286D01*
X-91555102Y15591325D01*
X-91095713Y15131134D01*
X-90495187Y14881774D01*
X-89844946Y14881206D01*
X-89243985Y15129518D01*
X-88783794Y15588907D01*
X-88534434Y16189433D01*
X-88533866Y16839674D01*
X-88782178Y17440635D01*
X-89241567Y17900826D01*
X-89842093Y18150186D01*
X-90492334Y18150754D01*
X-91093295Y17902442D01*
X-91553486Y17443053D01*
X-91802846Y16842527D01*
X-91803414Y16192286D01*
X-93614432Y16192286D01*
X-93613866Y16839674D01*
X-93862178Y17440635D01*
X-94321567Y17900826D01*
X-94922093Y18150186D01*
X-95572334Y18150754D01*
X-96173295Y17902442D01*
X-96633486Y17443053D01*
X-96882846Y16842527D01*
X-96883414Y16192286D01*
X-121554432Y16192286D01*
X-121553866Y16839674D01*
X-121802178Y17440635D01*
X-122261567Y17900826D01*
X-122862093Y18150186D01*
X-123512334Y18150754D01*
X-124113295Y17902442D01*
X-124573486Y17443053D01*
X-124822846Y16842527D01*
X-124823414Y16192286D01*
X-126634432Y16192286D01*
X-126633866Y16839674D01*
X-126882178Y17440635D01*
X-127341567Y17900826D01*
X-127942093Y18150186D01*
X-128592334Y18150754D01*
X-129193295Y17902442D01*
X-129653486Y17443053D01*
X-129902846Y16842527D01*
X-129903414Y16192286D01*
X-132638640Y16192286D01*
X-132638640Y23765980D01*
X-127276080Y23765980D01*
X-127276080Y21965980D01*
X-127231802Y21730663D01*
X-127092730Y21514539D01*
X-126880530Y21369549D01*
X-126628640Y21318540D01*
X-124828640Y21318540D01*
X-124593323Y21362818D01*
X-124377199Y21501890D01*
X-124232209Y21714090D01*
X-124228073Y21734514D01*
X-124059283Y21565429D01*
X-123495310Y21331247D01*
X-122884649Y21330715D01*
X-122320269Y21563912D01*
X-121888089Y21995337D01*
X-121653907Y22559310D01*
X-121653905Y22561989D01*
X-96783905Y22561989D01*
X-96550708Y21997609D01*
X-96119283Y21565429D01*
X-95555310Y21331247D01*
X-94944649Y21330715D01*
X-94380269Y21563912D01*
X-94212027Y21731860D01*
X-94211802Y21730663D01*
X-94072730Y21514539D01*
X-93860530Y21369549D01*
X-93608640Y21318540D01*
X-91808640Y21318540D01*
X-91573323Y21362818D01*
X-91357199Y21501890D01*
X-91212209Y21714090D01*
X-91161200Y21965980D01*
X-91161200Y23765980D01*
X-91205478Y24001297D01*
X-91344550Y24217421D01*
X-91556750Y24362411D01*
X-91808640Y24413420D01*
X-93608640Y24413420D01*
X-93843957Y24369142D01*
X-94060081Y24230070D01*
X-94205071Y24017870D01*
X-94209207Y23997446D01*
X-94377997Y24166531D01*
X-94941970Y24400713D01*
X-95552631Y24401245D01*
X-96117011Y24168048D01*
X-96549191Y23736623D01*
X-96783373Y23172650D01*
X-96783905Y22561989D01*
X-121653905Y22561989D01*
X-121653375Y23169971D01*
X-121886572Y23734351D01*
X-122317997Y24166531D01*
X-122881970Y24400713D01*
X-123492631Y24401245D01*
X-124057011Y24168048D01*
X-124225253Y24000100D01*
X-124225478Y24001297D01*
X-124364550Y24217421D01*
X-124576750Y24362411D01*
X-124828640Y24413420D01*
X-126628640Y24413420D01*
X-126863957Y24369142D01*
X-127080081Y24230070D01*
X-127225071Y24017870D01*
X-127276080Y23765980D01*
X-132638640Y23765980D01*
X-132638640Y27622185D01*
X-127363924Y27622185D01*
X-127115534Y27021037D01*
X-126656003Y26560702D01*
X-126055288Y26311264D01*
X-125404845Y26310696D01*
X-124803697Y26559086D01*
X-124343362Y27018617D01*
X-124093924Y27619332D01*
X-124093356Y28269775D01*
X-124341746Y28870923D01*
X-124593640Y29123258D01*
X-124593640Y33034924D01*
X-122568810Y33034924D01*
X-122521286Y32782353D01*
X-122379241Y32568171D01*
X-121106449Y31295379D01*
X-120908746Y31160294D01*
X-120657584Y31105810D01*
X-120405013Y31153334D01*
X-120387646Y31164852D01*
X-120387854Y30925938D01*
X-120154657Y30361558D01*
X-119723232Y29929378D01*
X-119159259Y29695196D01*
X-118548598Y29694664D01*
X-117984218Y29927861D01*
X-117552038Y30359286D01*
X-117317856Y30923259D01*
X-117317854Y30925938D01*
X-101119956Y30925938D01*
X-100886759Y30361558D01*
X-100455334Y29929378D01*
X-99891361Y29695196D01*
X-99280700Y29694664D01*
X-98716320Y29927861D01*
X-98284140Y30359286D01*
X-98049958Y30923259D01*
X-98049751Y31160981D01*
X-98048746Y31160294D01*
X-97797584Y31105810D01*
X-97545013Y31153334D01*
X-97330831Y31295379D01*
X-96058039Y32568171D01*
X-95922954Y32765874D01*
X-95868470Y33017036D01*
X-95915994Y33269607D01*
X-96058039Y33483789D01*
X-97330831Y34756581D01*
X-97528534Y34891666D01*
X-97779696Y34946150D01*
X-98032267Y34898626D01*
X-98246449Y34756581D01*
X-99519241Y33483789D01*
X-99654326Y33286086D01*
X-99708810Y33034924D01*
X-99661286Y32782353D01*
X-99649768Y32764986D01*
X-99888682Y32765194D01*
X-100453062Y32531997D01*
X-100885242Y32100572D01*
X-101119424Y31536599D01*
X-101119956Y30925938D01*
X-117317854Y30925938D01*
X-117317324Y31533920D01*
X-117550521Y32098300D01*
X-117981946Y32530480D01*
X-118545919Y32764662D01*
X-118783641Y32764869D01*
X-118782954Y32765874D01*
X-118728470Y33017036D01*
X-118775994Y33269607D01*
X-118918039Y33483789D01*
X-120190831Y34756581D01*
X-120388534Y34891666D01*
X-120639696Y34946150D01*
X-120892267Y34898626D01*
X-121106449Y34756581D01*
X-122379241Y33483789D01*
X-122514326Y33286086D01*
X-122568810Y33034924D01*
X-124593640Y33034924D01*
X-124593640Y38240980D01*
X-115475844Y38240980D01*
X-115226003Y37990702D01*
X-114625288Y37741264D01*
X-113974845Y37740696D01*
X-113373697Y37989086D01*
X-112913362Y38448617D01*
X-112681926Y39005980D01*
X-110766080Y39005980D01*
X-110766080Y37205980D01*
X-110721802Y36970663D01*
X-110582730Y36754539D01*
X-110370530Y36609549D01*
X-110350106Y36605413D01*
X-110519191Y36436623D01*
X-110753373Y35872650D01*
X-110753905Y35261989D01*
X-110520708Y34697609D01*
X-110089283Y34265429D01*
X-109525310Y34031247D01*
X-108914649Y34030715D01*
X-108350269Y34263912D01*
X-107918089Y34695337D01*
X-107683907Y35259310D01*
X-107683375Y35869971D01*
X-107916572Y36434351D01*
X-108084520Y36602593D01*
X-108083323Y36602818D01*
X-107867199Y36741890D01*
X-107722209Y36954090D01*
X-107671200Y37205980D01*
X-107671200Y39005980D01*
X-107679894Y39052185D01*
X-105773924Y39052185D01*
X-105525534Y38451037D01*
X-105066003Y37990702D01*
X-104465288Y37741264D01*
X-104108745Y37740953D01*
X-102401207Y36033414D01*
X-102160606Y35872650D01*
X-102032986Y35787377D01*
X-101598640Y35700980D01*
X-95155844Y35700980D01*
X-94906003Y35450702D01*
X-94305288Y35201264D01*
X-93654845Y35200696D01*
X-93053697Y35449086D01*
X-92593362Y35908617D01*
X-92343924Y36509332D01*
X-92343356Y37159775D01*
X-92591746Y37760923D01*
X-93051277Y38221258D01*
X-93651992Y38470696D01*
X-94302435Y38471264D01*
X-94903583Y38222874D01*
X-95155918Y37970980D01*
X-101128507Y37970980D01*
X-102503665Y39346137D01*
X-102503356Y39699775D01*
X-102751746Y40300923D01*
X-103211277Y40761258D01*
X-103811992Y41010696D01*
X-104462435Y41011264D01*
X-105063583Y40762874D01*
X-105523918Y40303343D01*
X-105773356Y39702628D01*
X-105773924Y39052185D01*
X-107679894Y39052185D01*
X-107715478Y39241297D01*
X-107854550Y39457421D01*
X-108066750Y39602411D01*
X-108318640Y39653420D01*
X-110118640Y39653420D01*
X-110353957Y39609142D01*
X-110570081Y39470070D01*
X-110715071Y39257870D01*
X-110766080Y39005980D01*
X-112681926Y39005980D01*
X-112663924Y39049332D01*
X-112663356Y39699775D01*
X-112911746Y40300923D01*
X-113371277Y40761258D01*
X-113971992Y41010696D01*
X-114622435Y41011264D01*
X-115223583Y40762874D01*
X-115475918Y40510980D01*
X-125728640Y40510980D01*
X-126162986Y40424583D01*
X-126531206Y40178546D01*
X-126777243Y39810326D01*
X-126863640Y39375980D01*
X-126863640Y29123184D01*
X-127113918Y28873343D01*
X-127363356Y28272628D01*
X-127363924Y27622185D01*
X-132638640Y27622185D01*
X-132638640Y53905980D01*
X-85798640Y53905980D01*
X-85798640Y-23414020D01*
M02*
