G04 #@! TF.FileFunction,Soldermask,Top*
%FSLAX46Y46*%
G04 Gerber Fmt 4.6, Leading zero omitted, Abs format (unit mm)*
G04 Created by KiCad (PCBNEW 4.0.5-e0-6337~49~ubuntu16.04.1) date Sat May 13 16:51:14 2017*
%MOMM*%
%LPD*%
G01*
G04 APERTURE LIST*
%ADD10C,0.100000*%
%ADD11C,2.200000*%
%ADD12R,2.200000X2.200000*%
%ADD13O,2.400000X3.400000*%
%ADD14R,3.400000X2.400000*%
%ADD15O,3.400000X2.400000*%
%ADD16C,2.398980*%
%ADD17R,2.000000X2.000000*%
%ADD18C,2.000000*%
%ADD19R,2.100000X2.100000*%
%ADD20O,2.100000X2.100000*%
G04 APERTURE END LIST*
D10*
G36*
X-70413615Y33024160D02*
X-68857980Y34579795D01*
X-67302345Y33024160D01*
X-68857980Y31468525D01*
X-70413615Y33024160D01*
X-70413615Y33024160D01*
G37*
D11*
X-67061929Y31228109D03*
D10*
G36*
X-45997980Y34579795D02*
X-44442345Y33024160D01*
X-45997980Y31468525D01*
X-47553615Y33024160D01*
X-45997980Y34579795D01*
X-45997980Y34579795D01*
G37*
D11*
X-47794031Y31228109D03*
D12*
X-73937980Y22864160D03*
D11*
X-71397980Y22864160D03*
D12*
X-57427980Y38104160D03*
D11*
X-57427980Y35564160D03*
D12*
X-40917980Y22864160D03*
D11*
X-43457980Y22864160D03*
D13*
X-75207980Y-17775840D03*
D14*
X-72667980Y-20315840D03*
D15*
X-77747980Y-20315840D03*
D13*
X-39647980Y-17775840D03*
D14*
X-37107980Y-20315840D03*
D15*
X-42187980Y-20315840D03*
D16*
X-76477980Y16514160D03*
X-76477980Y6354160D03*
X-38377980Y16514160D03*
X-38377980Y6354160D03*
X-71397980Y16514160D03*
X-71397980Y6354160D03*
X-43457980Y16514160D03*
X-43457980Y6354160D03*
D17*
X-76477980Y4160D03*
D18*
X-73977980Y4160D03*
D17*
X-38377980Y4160D03*
D18*
X-40877980Y4160D03*
D19*
X-58697980Y-19045840D03*
D20*
X-56157980Y-19045840D03*
D10*
G36*
X-122204275Y33025980D02*
X-120648640Y34581615D01*
X-119093005Y33025980D01*
X-120648640Y31470345D01*
X-122204275Y33025980D01*
X-122204275Y33025980D01*
G37*
D11*
X-118852589Y31229929D03*
D10*
G36*
X-97788640Y34581615D02*
X-96233005Y33025980D01*
X-97788640Y31470345D01*
X-99344275Y33025980D01*
X-97788640Y34581615D01*
X-97788640Y34581615D01*
G37*
D11*
X-99584691Y31229929D03*
D12*
X-125728640Y22865980D03*
D11*
X-123188640Y22865980D03*
D12*
X-109218640Y38105980D03*
D11*
X-109218640Y35565980D03*
D12*
X-92708640Y22865980D03*
D11*
X-95248640Y22865980D03*
D13*
X-126998640Y-17774020D03*
D14*
X-124458640Y-20314020D03*
D15*
X-129538640Y-20314020D03*
D13*
X-91438640Y-17774020D03*
D14*
X-88898640Y-20314020D03*
D15*
X-93978640Y-20314020D03*
D16*
X-128268640Y16515980D03*
X-128268640Y6355980D03*
X-90168640Y16515980D03*
X-90168640Y6355980D03*
X-123188640Y16515980D03*
X-123188640Y6355980D03*
X-95248640Y16515980D03*
X-95248640Y6355980D03*
D17*
X-128268640Y5980D03*
D18*
X-125768640Y5980D03*
D17*
X-90168640Y5980D03*
D18*
X-92668640Y5980D03*
D19*
X-110488640Y-19044020D03*
D20*
X-107948640Y-19044020D03*
M02*
