G04 #@! TF.FileFunction,Legend,Top*
%FSLAX46Y46*%
G04 Gerber Fmt 4.6, Leading zero omitted, Abs format (unit mm)*
G04 Created by KiCad (PCBNEW 4.0.5-e0-6337~49~ubuntu16.04.1) date Sat May 13 14:24:54 2017*
%MOMM*%
%LPD*%
G01*
G04 APERTURE LIST*
%ADD10C,0.100000*%
%ADD11C,0.300000*%
%ADD12C,0.120000*%
%ADD13C,0.010000*%
%ADD14C,0.150000*%
G04 APERTURE END LIST*
D10*
D11*
X3763331Y13336667D02*
X3763331Y14736667D01*
X4363331Y13336667D02*
X4363331Y14070000D01*
X4296665Y14203333D01*
X4163331Y14270000D01*
X3963331Y14270000D01*
X3829998Y14203333D01*
X3763331Y14136667D01*
X4829998Y14270000D02*
X5363332Y14270000D01*
X5029998Y14736667D02*
X5029998Y13536667D01*
X5096665Y13403333D01*
X5229998Y13336667D01*
X5363332Y13336667D01*
X5629998Y14270000D02*
X6163332Y14270000D01*
X5829998Y14736667D02*
X5829998Y13536667D01*
X5896665Y13403333D01*
X6029998Y13336667D01*
X6163332Y13336667D01*
X6629998Y14270000D02*
X6629998Y12870000D01*
X6629998Y14203333D02*
X6763332Y14270000D01*
X7029998Y14270000D01*
X7163332Y14203333D01*
X7229998Y14136667D01*
X7296665Y14003333D01*
X7296665Y13603333D01*
X7229998Y13470000D01*
X7163332Y13403333D01*
X7029998Y13336667D01*
X6763332Y13336667D01*
X6629998Y13403333D01*
X7896665Y13470000D02*
X7963332Y13403333D01*
X7896665Y13336667D01*
X7829999Y13403333D01*
X7896665Y13470000D01*
X7896665Y13336667D01*
X7896665Y14203333D02*
X7963332Y14136667D01*
X7896665Y14070000D01*
X7829999Y14136667D01*
X7896665Y14203333D01*
X7896665Y14070000D01*
X9563332Y14803333D02*
X8363332Y13003333D01*
X11029999Y14803333D02*
X9829999Y13003333D01*
X12096666Y14270000D02*
X12096666Y13136667D01*
X12030000Y13003333D01*
X11963333Y12936667D01*
X11830000Y12870000D01*
X11630000Y12870000D01*
X11496666Y12936667D01*
X12096666Y13403333D02*
X11963333Y13336667D01*
X11696666Y13336667D01*
X11563333Y13403333D01*
X11496666Y13470000D01*
X11430000Y13603333D01*
X11430000Y14003333D01*
X11496666Y14136667D01*
X11563333Y14203333D01*
X11696666Y14270000D01*
X11963333Y14270000D01*
X12096666Y14203333D01*
X12763333Y13336667D02*
X12763333Y14270000D01*
X12763333Y14736667D02*
X12696667Y14670000D01*
X12763333Y14603333D01*
X12830000Y14670000D01*
X12763333Y14736667D01*
X12763333Y14603333D01*
X13230000Y14270000D02*
X13763334Y14270000D01*
X13430000Y14736667D02*
X13430000Y13536667D01*
X13496667Y13403333D01*
X13630000Y13336667D01*
X13763334Y13336667D01*
X14230000Y13336667D02*
X14230000Y14736667D01*
X14830000Y13336667D02*
X14830000Y14070000D01*
X14763334Y14203333D01*
X14630000Y14270000D01*
X14430000Y14270000D01*
X14296667Y14203333D01*
X14230000Y14136667D01*
X16096667Y14270000D02*
X16096667Y13336667D01*
X15496667Y14270000D02*
X15496667Y13536667D01*
X15563334Y13403333D01*
X15696667Y13336667D01*
X15896667Y13336667D01*
X16030001Y13403333D01*
X16096667Y13470000D01*
X16763334Y13336667D02*
X16763334Y14736667D01*
X16763334Y14203333D02*
X16896668Y14270000D01*
X17163334Y14270000D01*
X17296668Y14203333D01*
X17363334Y14136667D01*
X17430001Y14003333D01*
X17430001Y13603333D01*
X17363334Y13470000D01*
X17296668Y13403333D01*
X17163334Y13336667D01*
X16896668Y13336667D01*
X16763334Y13403333D01*
X18030001Y13470000D02*
X18096668Y13403333D01*
X18030001Y13336667D01*
X17963335Y13403333D01*
X18030001Y13470000D01*
X18030001Y13336667D01*
X19296668Y13403333D02*
X19163335Y13336667D01*
X18896668Y13336667D01*
X18763335Y13403333D01*
X18696668Y13470000D01*
X18630002Y13603333D01*
X18630002Y14003333D01*
X18696668Y14136667D01*
X18763335Y14203333D01*
X18896668Y14270000D01*
X19163335Y14270000D01*
X19296668Y14203333D01*
X20096668Y13336667D02*
X19963335Y13403333D01*
X19896668Y13470000D01*
X19830002Y13603333D01*
X19830002Y14003333D01*
X19896668Y14136667D01*
X19963335Y14203333D01*
X20096668Y14270000D01*
X20296668Y14270000D01*
X20430002Y14203333D01*
X20496668Y14136667D01*
X20563335Y14003333D01*
X20563335Y13603333D01*
X20496668Y13470000D01*
X20430002Y13403333D01*
X20296668Y13336667D01*
X20096668Y13336667D01*
X21163335Y13336667D02*
X21163335Y14270000D01*
X21163335Y14136667D02*
X21230002Y14203333D01*
X21363335Y14270000D01*
X21563335Y14270000D01*
X21696669Y14203333D01*
X21763335Y14070000D01*
X21763335Y13336667D01*
X21763335Y14070000D02*
X21830002Y14203333D01*
X21963335Y14270000D01*
X22163335Y14270000D01*
X22296669Y14203333D01*
X22363335Y14070000D01*
X22363335Y13336667D01*
X24030002Y14803333D02*
X22830002Y13003333D01*
X24430003Y13403333D02*
X24563336Y13336667D01*
X24830003Y13336667D01*
X24963336Y13403333D01*
X25030003Y13536667D01*
X25030003Y13603333D01*
X24963336Y13736667D01*
X24830003Y13803333D01*
X24630003Y13803333D01*
X24496669Y13870000D01*
X24430003Y14003333D01*
X24430003Y14070000D01*
X24496669Y14203333D01*
X24630003Y14270000D01*
X24830003Y14270000D01*
X24963336Y14203333D01*
X25630002Y14270000D02*
X25630002Y12870000D01*
X25630002Y14203333D02*
X25763336Y14270000D01*
X26030002Y14270000D01*
X26163336Y14203333D01*
X26230002Y14136667D01*
X26296669Y14003333D01*
X26296669Y13603333D01*
X26230002Y13470000D01*
X26163336Y13403333D01*
X26030002Y13336667D01*
X25763336Y13336667D01*
X25630002Y13403333D01*
X27096669Y13336667D02*
X26963336Y13403333D01*
X26896669Y13536667D01*
X26896669Y14736667D01*
X28230002Y13336667D02*
X28230002Y14070000D01*
X28163336Y14203333D01*
X28030002Y14270000D01*
X27763336Y14270000D01*
X27630002Y14203333D01*
X28230002Y13403333D02*
X28096669Y13336667D01*
X27763336Y13336667D01*
X27630002Y13403333D01*
X27563336Y13536667D01*
X27563336Y13670000D01*
X27630002Y13803333D01*
X27763336Y13870000D01*
X28096669Y13870000D01*
X28230002Y13936667D01*
X28696669Y14270000D02*
X29230003Y14270000D01*
X28896669Y14736667D02*
X28896669Y13536667D01*
X28963336Y13403333D01*
X29096669Y13336667D01*
X29230003Y13336667D01*
X29630003Y13403333D02*
X29763336Y13336667D01*
X30030003Y13336667D01*
X30163336Y13403333D01*
X30230003Y13536667D01*
X30230003Y13603333D01*
X30163336Y13736667D01*
X30030003Y13803333D01*
X29830003Y13803333D01*
X29696669Y13870000D01*
X29630003Y14003333D01*
X29630003Y14070000D01*
X29696669Y14203333D01*
X29830003Y14270000D01*
X30030003Y14270000D01*
X30163336Y14203333D01*
X30830002Y13336667D02*
X30830002Y14736667D01*
X30963336Y13870000D02*
X31363336Y13336667D01*
X31363336Y14270000D02*
X30830002Y13736667D01*
X31963335Y13336667D02*
X31963335Y14270000D01*
X31963335Y14736667D02*
X31896669Y14670000D01*
X31963335Y14603333D01*
X32030002Y14670000D01*
X31963335Y14736667D01*
X31963335Y14603333D01*
X33630002Y14803333D02*
X32430002Y13003333D01*
X34096669Y13336667D02*
X34096669Y14270000D01*
X34096669Y14136667D02*
X34163336Y14203333D01*
X34296669Y14270000D01*
X34496669Y14270000D01*
X34630003Y14203333D01*
X34696669Y14070000D01*
X34696669Y13336667D01*
X34696669Y14070000D02*
X34763336Y14203333D01*
X34896669Y14270000D01*
X35096669Y14270000D01*
X35230003Y14203333D01*
X35296669Y14070000D01*
X35296669Y13336667D01*
X36563336Y13336667D02*
X36563336Y14070000D01*
X36496670Y14203333D01*
X36363336Y14270000D01*
X36096670Y14270000D01*
X35963336Y14203333D01*
X36563336Y13403333D02*
X36430003Y13336667D01*
X36096670Y13336667D01*
X35963336Y13403333D01*
X35896670Y13536667D01*
X35896670Y13670000D01*
X35963336Y13803333D01*
X36096670Y13870000D01*
X36430003Y13870000D01*
X36563336Y13936667D01*
X37230003Y13336667D02*
X37230003Y14736667D01*
X37363337Y13870000D02*
X37763337Y13336667D01*
X37763337Y14270000D02*
X37230003Y13736667D01*
X38896670Y13403333D02*
X38763336Y13336667D01*
X38496670Y13336667D01*
X38363336Y13403333D01*
X38296670Y13536667D01*
X38296670Y14070000D01*
X38363336Y14203333D01*
X38496670Y14270000D01*
X38763336Y14270000D01*
X38896670Y14203333D01*
X38963336Y14070000D01*
X38963336Y13936667D01*
X38296670Y13803333D01*
X40030003Y14070000D02*
X39563336Y14070000D01*
X39563336Y13336667D02*
X39563336Y14736667D01*
X40230003Y14736667D01*
X40963336Y13336667D02*
X40830003Y13403333D01*
X40763336Y13536667D01*
X40763336Y14736667D01*
X42096669Y13336667D02*
X42096669Y14070000D01*
X42030003Y14203333D01*
X41896669Y14270000D01*
X41630003Y14270000D01*
X41496669Y14203333D01*
X42096669Y13403333D02*
X41963336Y13336667D01*
X41630003Y13336667D01*
X41496669Y13403333D01*
X41430003Y13536667D01*
X41430003Y13670000D01*
X41496669Y13803333D01*
X41630003Y13870000D01*
X41963336Y13870000D01*
X42096669Y13936667D01*
X42696670Y13403333D02*
X42830003Y13336667D01*
X43096670Y13336667D01*
X43230003Y13403333D01*
X43296670Y13536667D01*
X43296670Y13603333D01*
X43230003Y13736667D01*
X43096670Y13803333D01*
X42896670Y13803333D01*
X42763336Y13870000D01*
X42696670Y14003333D01*
X42696670Y14070000D01*
X42763336Y14203333D01*
X42896670Y14270000D01*
X43096670Y14270000D01*
X43230003Y14203333D01*
X43896669Y13336667D02*
X43896669Y14736667D01*
X44496669Y13336667D02*
X44496669Y14070000D01*
X44430003Y14203333D01*
X44296669Y14270000D01*
X44096669Y14270000D01*
X43963336Y14203333D01*
X43896669Y14136667D01*
D12*
X24130000Y3690000D02*
X26790000Y3690000D01*
X26790000Y3690000D02*
X26790000Y6470000D01*
X26790000Y6470000D02*
X24130000Y6470000D01*
X24130000Y6470000D02*
X24130000Y3690000D01*
X22860000Y3690000D02*
X21470000Y3690000D01*
X21470000Y3690000D02*
X21470000Y5080000D01*
D13*
G36*
X18008629Y49800934D02*
X18048111Y49800533D01*
X18163800Y49797741D01*
X18260689Y49789450D01*
X18342081Y49774768D01*
X18411277Y49752807D01*
X18471580Y49722678D01*
X18526292Y49683490D01*
X18545833Y49666468D01*
X18578250Y49626637D01*
X18607480Y49572587D01*
X18630009Y49512677D01*
X18642321Y49455261D01*
X18643600Y49434044D01*
X18635583Y49375231D01*
X18614101Y49310987D01*
X18583001Y49250179D01*
X18546134Y49201670D01*
X18540146Y49195818D01*
X18489421Y49154679D01*
X18433875Y49122565D01*
X18370304Y49098635D01*
X18295506Y49082047D01*
X18206278Y49071959D01*
X18099418Y49067531D01*
X18050472Y49067155D01*
X17988238Y49067455D01*
X17944472Y49068708D01*
X17915069Y49071446D01*
X17895921Y49076199D01*
X17882923Y49083499D01*
X17875955Y49089733D01*
X17869374Y49097306D01*
X17864212Y49107076D01*
X17860297Y49121660D01*
X17857457Y49143674D01*
X17855520Y49175736D01*
X17854316Y49220464D01*
X17853672Y49280474D01*
X17853417Y49358383D01*
X17853378Y49434044D01*
X17853130Y49534959D01*
X17853183Y49615573D01*
X17854143Y49654178D01*
X18000133Y49654178D01*
X18000133Y49213911D01*
X18093266Y49213996D01*
X18149307Y49215604D01*
X18208001Y49219744D01*
X18256972Y49225536D01*
X18258462Y49225774D01*
X18337608Y49244910D01*
X18398998Y49274713D01*
X18445695Y49317122D01*
X18475365Y49363039D01*
X18493647Y49413974D01*
X18492229Y49461800D01*
X18471012Y49513067D01*
X18429511Y49566101D01*
X18372002Y49605400D01*
X18297250Y49631669D01*
X18247292Y49640965D01*
X18190584Y49647493D01*
X18130481Y49652218D01*
X18079361Y49654183D01*
X18076333Y49654192D01*
X18000133Y49654178D01*
X17854143Y49654178D01*
X17854740Y49678149D01*
X17859002Y49724945D01*
X17867170Y49758222D01*
X17880444Y49780241D01*
X17900026Y49793261D01*
X17927117Y49799543D01*
X17962918Y49801347D01*
X18008629Y49800934D01*
X18008629Y49800934D01*
G37*
X18008629Y49800934D02*
X18048111Y49800533D01*
X18163800Y49797741D01*
X18260689Y49789450D01*
X18342081Y49774768D01*
X18411277Y49752807D01*
X18471580Y49722678D01*
X18526292Y49683490D01*
X18545833Y49666468D01*
X18578250Y49626637D01*
X18607480Y49572587D01*
X18630009Y49512677D01*
X18642321Y49455261D01*
X18643600Y49434044D01*
X18635583Y49375231D01*
X18614101Y49310987D01*
X18583001Y49250179D01*
X18546134Y49201670D01*
X18540146Y49195818D01*
X18489421Y49154679D01*
X18433875Y49122565D01*
X18370304Y49098635D01*
X18295506Y49082047D01*
X18206278Y49071959D01*
X18099418Y49067531D01*
X18050472Y49067155D01*
X17988238Y49067455D01*
X17944472Y49068708D01*
X17915069Y49071446D01*
X17895921Y49076199D01*
X17882923Y49083499D01*
X17875955Y49089733D01*
X17869374Y49097306D01*
X17864212Y49107076D01*
X17860297Y49121660D01*
X17857457Y49143674D01*
X17855520Y49175736D01*
X17854316Y49220464D01*
X17853672Y49280474D01*
X17853417Y49358383D01*
X17853378Y49434044D01*
X17853130Y49534959D01*
X17853183Y49615573D01*
X17854143Y49654178D01*
X18000133Y49654178D01*
X18000133Y49213911D01*
X18093266Y49213996D01*
X18149307Y49215604D01*
X18208001Y49219744D01*
X18256972Y49225536D01*
X18258462Y49225774D01*
X18337608Y49244910D01*
X18398998Y49274713D01*
X18445695Y49317122D01*
X18475365Y49363039D01*
X18493647Y49413974D01*
X18492229Y49461800D01*
X18471012Y49513067D01*
X18429511Y49566101D01*
X18372002Y49605400D01*
X18297250Y49631669D01*
X18247292Y49640965D01*
X18190584Y49647493D01*
X18130481Y49652218D01*
X18079361Y49654183D01*
X18076333Y49654192D01*
X18000133Y49654178D01*
X17854143Y49654178D01*
X17854740Y49678149D01*
X17859002Y49724945D01*
X17867170Y49758222D01*
X17880444Y49780241D01*
X17900026Y49793261D01*
X17927117Y49799543D01*
X17962918Y49801347D01*
X18008629Y49800934D01*
G36*
X19417206Y49800854D02*
X19486614Y49800482D01*
X19539003Y49799615D01*
X19577153Y49798054D01*
X19603841Y49795597D01*
X19621847Y49792043D01*
X19633951Y49787190D01*
X19642931Y49780839D01*
X19646182Y49777916D01*
X19665957Y49746858D01*
X19669518Y49711172D01*
X19656509Y49679490D01*
X19650494Y49673087D01*
X19640765Y49666879D01*
X19625099Y49662090D01*
X19600592Y49658486D01*
X19564339Y49655836D01*
X19513435Y49653905D01*
X19444974Y49652461D01*
X19382383Y49651582D01*
X19134666Y49648533D01*
X19131281Y49583622D01*
X19127895Y49518711D01*
X19296042Y49518711D01*
X19369041Y49518081D01*
X19422483Y49515447D01*
X19459372Y49509691D01*
X19482712Y49499696D01*
X19495506Y49484344D01*
X19500758Y49462518D01*
X19501555Y49442262D01*
X19499077Y49417408D01*
X19489723Y49399094D01*
X19470617Y49386363D01*
X19438882Y49378259D01*
X19391641Y49373824D01*
X19326017Y49372101D01*
X19290199Y49371955D01*
X19129022Y49371955D01*
X19129022Y49213911D01*
X19377378Y49213911D01*
X19458787Y49213798D01*
X19520658Y49213288D01*
X19566032Y49212130D01*
X19597946Y49210070D01*
X19619441Y49206854D01*
X19633557Y49202228D01*
X19643332Y49195941D01*
X19648311Y49191333D01*
X19665390Y49164440D01*
X19670889Y49140533D01*
X19663037Y49111333D01*
X19648311Y49089733D01*
X19640454Y49082934D01*
X19630312Y49077654D01*
X19615156Y49073702D01*
X19592259Y49070887D01*
X19558891Y49069018D01*
X19512325Y49067902D01*
X19449833Y49067349D01*
X19368686Y49067167D01*
X19326578Y49067155D01*
X19236402Y49067235D01*
X19166076Y49067602D01*
X19112871Y49068448D01*
X19074060Y49069964D01*
X19046913Y49072341D01*
X19028702Y49075771D01*
X19016700Y49080446D01*
X19008178Y49086556D01*
X19004844Y49089733D01*
X18998245Y49097330D01*
X18993073Y49107130D01*
X18989154Y49121761D01*
X18986316Y49143848D01*
X18984385Y49176018D01*
X18983188Y49220897D01*
X18982552Y49281111D01*
X18982303Y49359287D01*
X18982266Y49432077D01*
X18982300Y49525293D01*
X18982535Y49598569D01*
X18983170Y49654542D01*
X18984406Y49695849D01*
X18986444Y49725128D01*
X18989483Y49745016D01*
X18993723Y49758150D01*
X18999365Y49767168D01*
X19006609Y49774707D01*
X19008394Y49776388D01*
X19017055Y49783828D01*
X19027118Y49789591D01*
X19041375Y49793888D01*
X19062617Y49796936D01*
X19093636Y49798949D01*
X19137223Y49800140D01*
X19196169Y49800725D01*
X19273266Y49800917D01*
X19327999Y49800933D01*
X19417206Y49800854D01*
X19417206Y49800854D01*
G37*
X19417206Y49800854D02*
X19486614Y49800482D01*
X19539003Y49799615D01*
X19577153Y49798054D01*
X19603841Y49795597D01*
X19621847Y49792043D01*
X19633951Y49787190D01*
X19642931Y49780839D01*
X19646182Y49777916D01*
X19665957Y49746858D01*
X19669518Y49711172D01*
X19656509Y49679490D01*
X19650494Y49673087D01*
X19640765Y49666879D01*
X19625099Y49662090D01*
X19600592Y49658486D01*
X19564339Y49655836D01*
X19513435Y49653905D01*
X19444974Y49652461D01*
X19382383Y49651582D01*
X19134666Y49648533D01*
X19131281Y49583622D01*
X19127895Y49518711D01*
X19296042Y49518711D01*
X19369041Y49518081D01*
X19422483Y49515447D01*
X19459372Y49509691D01*
X19482712Y49499696D01*
X19495506Y49484344D01*
X19500758Y49462518D01*
X19501555Y49442262D01*
X19499077Y49417408D01*
X19489723Y49399094D01*
X19470617Y49386363D01*
X19438882Y49378259D01*
X19391641Y49373824D01*
X19326017Y49372101D01*
X19290199Y49371955D01*
X19129022Y49371955D01*
X19129022Y49213911D01*
X19377378Y49213911D01*
X19458787Y49213798D01*
X19520658Y49213288D01*
X19566032Y49212130D01*
X19597946Y49210070D01*
X19619441Y49206854D01*
X19633557Y49202228D01*
X19643332Y49195941D01*
X19648311Y49191333D01*
X19665390Y49164440D01*
X19670889Y49140533D01*
X19663037Y49111333D01*
X19648311Y49089733D01*
X19640454Y49082934D01*
X19630312Y49077654D01*
X19615156Y49073702D01*
X19592259Y49070887D01*
X19558891Y49069018D01*
X19512325Y49067902D01*
X19449833Y49067349D01*
X19368686Y49067167D01*
X19326578Y49067155D01*
X19236402Y49067235D01*
X19166076Y49067602D01*
X19112871Y49068448D01*
X19074060Y49069964D01*
X19046913Y49072341D01*
X19028702Y49075771D01*
X19016700Y49080446D01*
X19008178Y49086556D01*
X19004844Y49089733D01*
X18998245Y49097330D01*
X18993073Y49107130D01*
X18989154Y49121761D01*
X18986316Y49143848D01*
X18984385Y49176018D01*
X18983188Y49220897D01*
X18982552Y49281111D01*
X18982303Y49359287D01*
X18982266Y49432077D01*
X18982300Y49525293D01*
X18982535Y49598569D01*
X18983170Y49654542D01*
X18984406Y49695849D01*
X18986444Y49725128D01*
X18989483Y49745016D01*
X18993723Y49758150D01*
X18999365Y49767168D01*
X19006609Y49774707D01*
X19008394Y49776388D01*
X19017055Y49783828D01*
X19027118Y49789591D01*
X19041375Y49793888D01*
X19062617Y49796936D01*
X19093636Y49798949D01*
X19137223Y49800140D01*
X19196169Y49800725D01*
X19273266Y49800917D01*
X19327999Y49800933D01*
X19417206Y49800854D01*
G36*
X20438297Y49799649D02*
X20513112Y49794419D01*
X20582694Y49786250D01*
X20642998Y49775450D01*
X20689980Y49762327D01*
X20719594Y49747187D01*
X20724140Y49742731D01*
X20739946Y49708150D01*
X20735153Y49672649D01*
X20710636Y49642275D01*
X20709466Y49641404D01*
X20695046Y49632046D01*
X20679992Y49627124D01*
X20658995Y49626527D01*
X20626743Y49630139D01*
X20577927Y49637846D01*
X20574000Y49638495D01*
X20501261Y49647431D01*
X20422783Y49651839D01*
X20344073Y49651881D01*
X20270639Y49647721D01*
X20207989Y49639521D01*
X20161630Y49627443D01*
X20158584Y49626229D01*
X20124952Y49607385D01*
X20113136Y49588315D01*
X20122386Y49569561D01*
X20151953Y49551663D01*
X20201089Y49535163D01*
X20269043Y49520604D01*
X20314355Y49513594D01*
X20408544Y49500111D01*
X20483456Y49487786D01*
X20542283Y49475551D01*
X20588215Y49462339D01*
X20624445Y49447083D01*
X20654162Y49428715D01*
X20680558Y49406169D01*
X20701770Y49384029D01*
X20726935Y49353181D01*
X20739319Y49326655D01*
X20743192Y49293974D01*
X20743333Y49282005D01*
X20740424Y49242288D01*
X20728798Y49212741D01*
X20708677Y49186514D01*
X20667784Y49146424D01*
X20622183Y49115851D01*
X20568487Y49093797D01*
X20503308Y49079265D01*
X20423256Y49071259D01*
X20324943Y49068782D01*
X20308711Y49068823D01*
X20243151Y49070182D01*
X20178134Y49073270D01*
X20120748Y49077644D01*
X20078078Y49082860D01*
X20074628Y49083459D01*
X20032204Y49093509D01*
X19996220Y49106204D01*
X19975850Y49117810D01*
X19956893Y49148428D01*
X19955573Y49184082D01*
X19971915Y49215856D01*
X19975571Y49219449D01*
X19990685Y49230124D01*
X20009585Y49234724D01*
X20038838Y49233941D01*
X20074349Y49229873D01*
X20114030Y49226238D01*
X20169655Y49223172D01*
X20234594Y49220947D01*
X20302215Y49219836D01*
X20320000Y49219763D01*
X20387872Y49220036D01*
X20437546Y49221354D01*
X20473390Y49224173D01*
X20499776Y49228950D01*
X20521074Y49236143D01*
X20533874Y49242133D01*
X20562000Y49258767D01*
X20579932Y49273832D01*
X20582553Y49278103D01*
X20577024Y49295737D01*
X20550740Y49312808D01*
X20505522Y49328542D01*
X20443192Y49342162D01*
X20424829Y49345196D01*
X20328910Y49360262D01*
X20252359Y49372854D01*
X20192220Y49383889D01*
X20145540Y49394280D01*
X20109363Y49404944D01*
X20080735Y49416795D01*
X20056702Y49430749D01*
X20034308Y49447719D01*
X20010598Y49468622D01*
X20002620Y49475951D01*
X19974647Y49503301D01*
X19959840Y49524971D01*
X19954048Y49549768D01*
X19953111Y49581017D01*
X19963425Y49642295D01*
X19994248Y49694360D01*
X20045405Y49737042D01*
X20116717Y49770175D01*
X20167600Y49785036D01*
X20222900Y49794634D01*
X20289147Y49800064D01*
X20362294Y49801633D01*
X20438297Y49799649D01*
X20438297Y49799649D01*
G37*
X20438297Y49799649D02*
X20513112Y49794419D01*
X20582694Y49786250D01*
X20642998Y49775450D01*
X20689980Y49762327D01*
X20719594Y49747187D01*
X20724140Y49742731D01*
X20739946Y49708150D01*
X20735153Y49672649D01*
X20710636Y49642275D01*
X20709466Y49641404D01*
X20695046Y49632046D01*
X20679992Y49627124D01*
X20658995Y49626527D01*
X20626743Y49630139D01*
X20577927Y49637846D01*
X20574000Y49638495D01*
X20501261Y49647431D01*
X20422783Y49651839D01*
X20344073Y49651881D01*
X20270639Y49647721D01*
X20207989Y49639521D01*
X20161630Y49627443D01*
X20158584Y49626229D01*
X20124952Y49607385D01*
X20113136Y49588315D01*
X20122386Y49569561D01*
X20151953Y49551663D01*
X20201089Y49535163D01*
X20269043Y49520604D01*
X20314355Y49513594D01*
X20408544Y49500111D01*
X20483456Y49487786D01*
X20542283Y49475551D01*
X20588215Y49462339D01*
X20624445Y49447083D01*
X20654162Y49428715D01*
X20680558Y49406169D01*
X20701770Y49384029D01*
X20726935Y49353181D01*
X20739319Y49326655D01*
X20743192Y49293974D01*
X20743333Y49282005D01*
X20740424Y49242288D01*
X20728798Y49212741D01*
X20708677Y49186514D01*
X20667784Y49146424D01*
X20622183Y49115851D01*
X20568487Y49093797D01*
X20503308Y49079265D01*
X20423256Y49071259D01*
X20324943Y49068782D01*
X20308711Y49068823D01*
X20243151Y49070182D01*
X20178134Y49073270D01*
X20120748Y49077644D01*
X20078078Y49082860D01*
X20074628Y49083459D01*
X20032204Y49093509D01*
X19996220Y49106204D01*
X19975850Y49117810D01*
X19956893Y49148428D01*
X19955573Y49184082D01*
X19971915Y49215856D01*
X19975571Y49219449D01*
X19990685Y49230124D01*
X20009585Y49234724D01*
X20038838Y49233941D01*
X20074349Y49229873D01*
X20114030Y49226238D01*
X20169655Y49223172D01*
X20234594Y49220947D01*
X20302215Y49219836D01*
X20320000Y49219763D01*
X20387872Y49220036D01*
X20437546Y49221354D01*
X20473390Y49224173D01*
X20499776Y49228950D01*
X20521074Y49236143D01*
X20533874Y49242133D01*
X20562000Y49258767D01*
X20579932Y49273832D01*
X20582553Y49278103D01*
X20577024Y49295737D01*
X20550740Y49312808D01*
X20505522Y49328542D01*
X20443192Y49342162D01*
X20424829Y49345196D01*
X20328910Y49360262D01*
X20252359Y49372854D01*
X20192220Y49383889D01*
X20145540Y49394280D01*
X20109363Y49404944D01*
X20080735Y49416795D01*
X20056702Y49430749D01*
X20034308Y49447719D01*
X20010598Y49468622D01*
X20002620Y49475951D01*
X19974647Y49503301D01*
X19959840Y49524971D01*
X19954048Y49549768D01*
X19953111Y49581017D01*
X19963425Y49642295D01*
X19994248Y49694360D01*
X20045405Y49737042D01*
X20116717Y49770175D01*
X20167600Y49785036D01*
X20222900Y49794634D01*
X20289147Y49800064D01*
X20362294Y49801633D01*
X20438297Y49799649D01*
G36*
X21206178Y49778355D02*
X21212758Y49770782D01*
X21217921Y49761013D01*
X21221836Y49746429D01*
X21224676Y49724415D01*
X21226613Y49692352D01*
X21227817Y49647625D01*
X21228461Y49587615D01*
X21228716Y49509706D01*
X21228755Y49434044D01*
X21228686Y49340198D01*
X21228362Y49266311D01*
X21227614Y49209768D01*
X21226268Y49167951D01*
X21224154Y49138243D01*
X21221100Y49118027D01*
X21216934Y49104686D01*
X21211484Y49095602D01*
X21206178Y49089733D01*
X21173174Y49070053D01*
X21138009Y49071819D01*
X21106545Y49093283D01*
X21099316Y49101663D01*
X21093666Y49111386D01*
X21089401Y49125139D01*
X21086327Y49145611D01*
X21084248Y49175488D01*
X21082970Y49217459D01*
X21082299Y49274211D01*
X21082041Y49348433D01*
X21082000Y49432463D01*
X21082000Y49745515D01*
X21109709Y49773224D01*
X21143863Y49796537D01*
X21176994Y49797377D01*
X21206178Y49778355D01*
X21206178Y49778355D01*
G37*
X21206178Y49778355D02*
X21212758Y49770782D01*
X21217921Y49761013D01*
X21221836Y49746429D01*
X21224676Y49724415D01*
X21226613Y49692352D01*
X21227817Y49647625D01*
X21228461Y49587615D01*
X21228716Y49509706D01*
X21228755Y49434044D01*
X21228686Y49340198D01*
X21228362Y49266311D01*
X21227614Y49209768D01*
X21226268Y49167951D01*
X21224154Y49138243D01*
X21221100Y49118027D01*
X21216934Y49104686D01*
X21211484Y49095602D01*
X21206178Y49089733D01*
X21173174Y49070053D01*
X21138009Y49071819D01*
X21106545Y49093283D01*
X21099316Y49101663D01*
X21093666Y49111386D01*
X21089401Y49125139D01*
X21086327Y49145611D01*
X21084248Y49175488D01*
X21082970Y49217459D01*
X21082299Y49274211D01*
X21082041Y49348433D01*
X21082000Y49432463D01*
X21082000Y49745515D01*
X21109709Y49773224D01*
X21143863Y49796537D01*
X21176994Y49797377D01*
X21206178Y49778355D01*
G36*
X22179919Y49795401D02*
X22248435Y49783905D01*
X22301057Y49766033D01*
X22335292Y49742501D01*
X22344621Y49729076D01*
X22354107Y49697852D01*
X22347723Y49669605D01*
X22327570Y49642818D01*
X22296255Y49630287D01*
X22250817Y49631304D01*
X22215674Y49638094D01*
X22137581Y49651029D01*
X22057774Y49652258D01*
X21968445Y49641759D01*
X21943771Y49637310D01*
X21860709Y49613892D01*
X21795727Y49579055D01*
X21749539Y49533396D01*
X21722855Y49477506D01*
X21717337Y49448612D01*
X21720949Y49389988D01*
X21744271Y49338121D01*
X21785176Y49294022D01*
X21841541Y49258701D01*
X21911240Y49233171D01*
X21992148Y49218441D01*
X22082140Y49215522D01*
X22179090Y49225425D01*
X22184564Y49226359D01*
X22223125Y49233541D01*
X22244506Y49240479D01*
X22253773Y49250773D01*
X22255994Y49268024D01*
X22256044Y49277159D01*
X22256044Y49315511D01*
X22187569Y49315511D01*
X22127100Y49319653D01*
X22085835Y49332853D01*
X22061825Y49356270D01*
X22053123Y49391064D01*
X22053017Y49395606D01*
X22058108Y49425346D01*
X22075567Y49446581D01*
X22108061Y49460634D01*
X22158257Y49468827D01*
X22206877Y49471839D01*
X22277544Y49473567D01*
X22328802Y49470930D01*
X22363761Y49461200D01*
X22385530Y49441647D01*
X22397220Y49409544D01*
X22401940Y49362162D01*
X22402800Y49299929D01*
X22401391Y49230465D01*
X22397152Y49183214D01*
X22390064Y49157988D01*
X22388689Y49156012D01*
X22349772Y49124492D01*
X22292714Y49099530D01*
X22221131Y49081660D01*
X22138642Y49071414D01*
X22048861Y49069327D01*
X21955408Y49075932D01*
X21900444Y49084044D01*
X21814234Y49108446D01*
X21734108Y49148338D01*
X21667023Y49200113D01*
X21656827Y49210461D01*
X21623698Y49253965D01*
X21593806Y49307882D01*
X21570643Y49364408D01*
X21557702Y49415741D01*
X21556142Y49435456D01*
X21562782Y49476581D01*
X21580432Y49527748D01*
X21605703Y49581606D01*
X21635211Y49630805D01*
X21661281Y49663666D01*
X21722235Y49712548D01*
X21801031Y49751455D01*
X21894843Y49779506D01*
X22000850Y49795821D01*
X22098000Y49799808D01*
X22179919Y49795401D01*
X22179919Y49795401D01*
G37*
X22179919Y49795401D02*
X22248435Y49783905D01*
X22301057Y49766033D01*
X22335292Y49742501D01*
X22344621Y49729076D01*
X22354107Y49697852D01*
X22347723Y49669605D01*
X22327570Y49642818D01*
X22296255Y49630287D01*
X22250817Y49631304D01*
X22215674Y49638094D01*
X22137581Y49651029D01*
X22057774Y49652258D01*
X21968445Y49641759D01*
X21943771Y49637310D01*
X21860709Y49613892D01*
X21795727Y49579055D01*
X21749539Y49533396D01*
X21722855Y49477506D01*
X21717337Y49448612D01*
X21720949Y49389988D01*
X21744271Y49338121D01*
X21785176Y49294022D01*
X21841541Y49258701D01*
X21911240Y49233171D01*
X21992148Y49218441D01*
X22082140Y49215522D01*
X22179090Y49225425D01*
X22184564Y49226359D01*
X22223125Y49233541D01*
X22244506Y49240479D01*
X22253773Y49250773D01*
X22255994Y49268024D01*
X22256044Y49277159D01*
X22256044Y49315511D01*
X22187569Y49315511D01*
X22127100Y49319653D01*
X22085835Y49332853D01*
X22061825Y49356270D01*
X22053123Y49391064D01*
X22053017Y49395606D01*
X22058108Y49425346D01*
X22075567Y49446581D01*
X22108061Y49460634D01*
X22158257Y49468827D01*
X22206877Y49471839D01*
X22277544Y49473567D01*
X22328802Y49470930D01*
X22363761Y49461200D01*
X22385530Y49441647D01*
X22397220Y49409544D01*
X22401940Y49362162D01*
X22402800Y49299929D01*
X22401391Y49230465D01*
X22397152Y49183214D01*
X22390064Y49157988D01*
X22388689Y49156012D01*
X22349772Y49124492D01*
X22292714Y49099530D01*
X22221131Y49081660D01*
X22138642Y49071414D01*
X22048861Y49069327D01*
X21955408Y49075932D01*
X21900444Y49084044D01*
X21814234Y49108446D01*
X21734108Y49148338D01*
X21667023Y49200113D01*
X21656827Y49210461D01*
X21623698Y49253965D01*
X21593806Y49307882D01*
X21570643Y49364408D01*
X21557702Y49415741D01*
X21556142Y49435456D01*
X21562782Y49476581D01*
X21580432Y49527748D01*
X21605703Y49581606D01*
X21635211Y49630805D01*
X21661281Y49663666D01*
X21722235Y49712548D01*
X21801031Y49751455D01*
X21894843Y49779506D01*
X22000850Y49795821D01*
X22098000Y49799808D01*
X22179919Y49795401D01*
G36*
X22829886Y49796552D02*
X22853452Y49782727D01*
X22884265Y49760119D01*
X22923922Y49727662D01*
X22974020Y49684292D01*
X23036157Y49628942D01*
X23111928Y49560549D01*
X23198666Y49481916D01*
X23379289Y49318122D01*
X23384933Y49537971D01*
X23386971Y49613649D01*
X23388937Y49670006D01*
X23391266Y49710294D01*
X23394394Y49737765D01*
X23398755Y49755671D01*
X23404784Y49767263D01*
X23412916Y49775792D01*
X23417228Y49779377D01*
X23451759Y49798330D01*
X23484617Y49795559D01*
X23510682Y49779367D01*
X23537333Y49757801D01*
X23540648Y49442849D01*
X23541565Y49350221D01*
X23542032Y49277456D01*
X23541887Y49221839D01*
X23540968Y49180658D01*
X23539113Y49151197D01*
X23536161Y49130745D01*
X23531950Y49116587D01*
X23526318Y49106009D01*
X23520073Y49097526D01*
X23506561Y49081793D01*
X23493117Y49071364D01*
X23477876Y49067361D01*
X23458974Y49070906D01*
X23434545Y49083121D01*
X23402727Y49105129D01*
X23361652Y49138051D01*
X23309458Y49183009D01*
X23244278Y49241125D01*
X23170444Y49307901D01*
X22905155Y49548542D01*
X22899511Y49329411D01*
X22897469Y49253872D01*
X22895498Y49197646D01*
X22893161Y49157476D01*
X22890019Y49130104D01*
X22885636Y49112272D01*
X22879576Y49100721D01*
X22871400Y49092193D01*
X22867216Y49088718D01*
X22830235Y49069628D01*
X22795292Y49072507D01*
X22764864Y49096900D01*
X22757903Y49106714D01*
X22752477Y49118174D01*
X22748397Y49134032D01*
X22745471Y49157037D01*
X22743508Y49189938D01*
X22742317Y49235484D01*
X22741708Y49296427D01*
X22741489Y49375514D01*
X22741466Y49434044D01*
X22741540Y49525593D01*
X22741887Y49597313D01*
X22742699Y49651955D01*
X22744167Y49692268D01*
X22746481Y49721002D01*
X22749833Y49740907D01*
X22754412Y49754732D01*
X22760411Y49765228D01*
X22764864Y49771189D01*
X22776150Y49785309D01*
X22786699Y49795971D01*
X22798107Y49802108D01*
X22811970Y49802657D01*
X22829886Y49796552D01*
X22829886Y49796552D01*
G37*
X22829886Y49796552D02*
X22853452Y49782727D01*
X22884265Y49760119D01*
X22923922Y49727662D01*
X22974020Y49684292D01*
X23036157Y49628942D01*
X23111928Y49560549D01*
X23198666Y49481916D01*
X23379289Y49318122D01*
X23384933Y49537971D01*
X23386971Y49613649D01*
X23388937Y49670006D01*
X23391266Y49710294D01*
X23394394Y49737765D01*
X23398755Y49755671D01*
X23404784Y49767263D01*
X23412916Y49775792D01*
X23417228Y49779377D01*
X23451759Y49798330D01*
X23484617Y49795559D01*
X23510682Y49779367D01*
X23537333Y49757801D01*
X23540648Y49442849D01*
X23541565Y49350221D01*
X23542032Y49277456D01*
X23541887Y49221839D01*
X23540968Y49180658D01*
X23539113Y49151197D01*
X23536161Y49130745D01*
X23531950Y49116587D01*
X23526318Y49106009D01*
X23520073Y49097526D01*
X23506561Y49081793D01*
X23493117Y49071364D01*
X23477876Y49067361D01*
X23458974Y49070906D01*
X23434545Y49083121D01*
X23402727Y49105129D01*
X23361652Y49138051D01*
X23309458Y49183009D01*
X23244278Y49241125D01*
X23170444Y49307901D01*
X22905155Y49548542D01*
X22899511Y49329411D01*
X22897469Y49253872D01*
X22895498Y49197646D01*
X22893161Y49157476D01*
X22890019Y49130104D01*
X22885636Y49112272D01*
X22879576Y49100721D01*
X22871400Y49092193D01*
X22867216Y49088718D01*
X22830235Y49069628D01*
X22795292Y49072507D01*
X22764864Y49096900D01*
X22757903Y49106714D01*
X22752477Y49118174D01*
X22748397Y49134032D01*
X22745471Y49157037D01*
X22743508Y49189938D01*
X22742317Y49235484D01*
X22741708Y49296427D01*
X22741489Y49375514D01*
X22741466Y49434044D01*
X22741540Y49525593D01*
X22741887Y49597313D01*
X22742699Y49651955D01*
X22744167Y49692268D01*
X22746481Y49721002D01*
X22749833Y49740907D01*
X22754412Y49754732D01*
X22760411Y49765228D01*
X22764864Y49771189D01*
X22776150Y49785309D01*
X22786699Y49795971D01*
X22798107Y49802108D01*
X22811970Y49802657D01*
X22829886Y49796552D01*
G36*
X24360343Y49800740D02*
X24436701Y49799826D01*
X24495217Y49797689D01*
X24538255Y49793825D01*
X24568183Y49787733D01*
X24587368Y49778910D01*
X24598176Y49766854D01*
X24602973Y49751061D01*
X24604127Y49731030D01*
X24604133Y49728665D01*
X24603131Y49706008D01*
X24598396Y49688497D01*
X24587333Y49675426D01*
X24567348Y49666087D01*
X24535846Y49659773D01*
X24490232Y49655778D01*
X24427913Y49653394D01*
X24346293Y49651914D01*
X24321277Y49651586D01*
X24079200Y49648533D01*
X24075814Y49583622D01*
X24072429Y49518711D01*
X24240576Y49518711D01*
X24306266Y49518469D01*
X24353172Y49517444D01*
X24385083Y49515189D01*
X24405791Y49511258D01*
X24419084Y49505202D01*
X24428755Y49496576D01*
X24428817Y49496507D01*
X24446356Y49462888D01*
X24445722Y49426552D01*
X24427314Y49395577D01*
X24423671Y49392393D01*
X24410741Y49384188D01*
X24393024Y49378479D01*
X24366570Y49374838D01*
X24327432Y49372833D01*
X24271662Y49372036D01*
X24235994Y49371955D01*
X24073555Y49371955D01*
X24073555Y49213911D01*
X24320161Y49213911D01*
X24401580Y49213769D01*
X24463410Y49213186D01*
X24508637Y49211932D01*
X24540248Y49209773D01*
X24561231Y49206477D01*
X24574573Y49201811D01*
X24583261Y49195543D01*
X24585450Y49193267D01*
X24601614Y49161720D01*
X24602797Y49125832D01*
X24589536Y49094715D01*
X24579043Y49084729D01*
X24568129Y49079231D01*
X24551217Y49074978D01*
X24525633Y49071820D01*
X24488701Y49069608D01*
X24437746Y49068194D01*
X24370094Y49067428D01*
X24283069Y49067162D01*
X24263394Y49067155D01*
X24174911Y49067213D01*
X24106227Y49067533D01*
X24054564Y49068333D01*
X24017145Y49069833D01*
X23991190Y49072251D01*
X23973922Y49075806D01*
X23962562Y49080718D01*
X23954332Y49087205D01*
X23949817Y49091862D01*
X23943021Y49100111D01*
X23937712Y49110331D01*
X23933706Y49125200D01*
X23930821Y49147398D01*
X23928874Y49179607D01*
X23927681Y49224504D01*
X23927061Y49284772D01*
X23926829Y49363089D01*
X23926800Y49429006D01*
X23926871Y49521372D01*
X23927208Y49593883D01*
X23927998Y49649263D01*
X23929426Y49690235D01*
X23931679Y49719522D01*
X23934943Y49739847D01*
X23939404Y49753934D01*
X23945248Y49764505D01*
X23950197Y49771189D01*
X23973594Y49800933D01*
X24263774Y49800933D01*
X24360343Y49800740D01*
X24360343Y49800740D01*
G37*
X24360343Y49800740D02*
X24436701Y49799826D01*
X24495217Y49797689D01*
X24538255Y49793825D01*
X24568183Y49787733D01*
X24587368Y49778910D01*
X24598176Y49766854D01*
X24602973Y49751061D01*
X24604127Y49731030D01*
X24604133Y49728665D01*
X24603131Y49706008D01*
X24598396Y49688497D01*
X24587333Y49675426D01*
X24567348Y49666087D01*
X24535846Y49659773D01*
X24490232Y49655778D01*
X24427913Y49653394D01*
X24346293Y49651914D01*
X24321277Y49651586D01*
X24079200Y49648533D01*
X24075814Y49583622D01*
X24072429Y49518711D01*
X24240576Y49518711D01*
X24306266Y49518469D01*
X24353172Y49517444D01*
X24385083Y49515189D01*
X24405791Y49511258D01*
X24419084Y49505202D01*
X24428755Y49496576D01*
X24428817Y49496507D01*
X24446356Y49462888D01*
X24445722Y49426552D01*
X24427314Y49395577D01*
X24423671Y49392393D01*
X24410741Y49384188D01*
X24393024Y49378479D01*
X24366570Y49374838D01*
X24327432Y49372833D01*
X24271662Y49372036D01*
X24235994Y49371955D01*
X24073555Y49371955D01*
X24073555Y49213911D01*
X24320161Y49213911D01*
X24401580Y49213769D01*
X24463410Y49213186D01*
X24508637Y49211932D01*
X24540248Y49209773D01*
X24561231Y49206477D01*
X24574573Y49201811D01*
X24583261Y49195543D01*
X24585450Y49193267D01*
X24601614Y49161720D01*
X24602797Y49125832D01*
X24589536Y49094715D01*
X24579043Y49084729D01*
X24568129Y49079231D01*
X24551217Y49074978D01*
X24525633Y49071820D01*
X24488701Y49069608D01*
X24437746Y49068194D01*
X24370094Y49067428D01*
X24283069Y49067162D01*
X24263394Y49067155D01*
X24174911Y49067213D01*
X24106227Y49067533D01*
X24054564Y49068333D01*
X24017145Y49069833D01*
X23991190Y49072251D01*
X23973922Y49075806D01*
X23962562Y49080718D01*
X23954332Y49087205D01*
X23949817Y49091862D01*
X23943021Y49100111D01*
X23937712Y49110331D01*
X23933706Y49125200D01*
X23930821Y49147398D01*
X23928874Y49179607D01*
X23927681Y49224504D01*
X23927061Y49284772D01*
X23926829Y49363089D01*
X23926800Y49429006D01*
X23926871Y49521372D01*
X23927208Y49593883D01*
X23927998Y49649263D01*
X23929426Y49690235D01*
X23931679Y49719522D01*
X23934943Y49739847D01*
X23939404Y49753934D01*
X23945248Y49764505D01*
X23950197Y49771189D01*
X23973594Y49800933D01*
X24263774Y49800933D01*
X24360343Y49800740D01*
G36*
X25148309Y49800725D02*
X25277288Y49796364D01*
X25386991Y49783139D01*
X25479226Y49760259D01*
X25555802Y49726930D01*
X25618527Y49682362D01*
X25669212Y49625764D01*
X25709663Y49556342D01*
X25710459Y49554649D01*
X25734601Y49492517D01*
X25743203Y49437491D01*
X25736231Y49382113D01*
X25713654Y49318927D01*
X25709372Y49309311D01*
X25680172Y49253034D01*
X25647356Y49209549D01*
X25605002Y49172583D01*
X25547190Y49135865D01*
X25543831Y49133948D01*
X25493504Y49109773D01*
X25436621Y49091718D01*
X25369527Y49079161D01*
X25288565Y49071478D01*
X25190082Y49068047D01*
X25155286Y49067749D01*
X24989594Y49067155D01*
X24966197Y49096900D01*
X24959257Y49106681D01*
X24953842Y49118103D01*
X24949765Y49133905D01*
X24946837Y49156825D01*
X24944867Y49189604D01*
X24944225Y49213911D01*
X25100844Y49213911D01*
X25194726Y49213911D01*
X25249664Y49215517D01*
X25306060Y49219745D01*
X25352345Y49225708D01*
X25355139Y49226210D01*
X25437348Y49248264D01*
X25501114Y49281400D01*
X25548452Y49327153D01*
X25581382Y49387061D01*
X25587108Y49402939D01*
X25592721Y49427667D01*
X25590291Y49452098D01*
X25578467Y49484600D01*
X25571340Y49500566D01*
X25548000Y49542994D01*
X25519880Y49572760D01*
X25488940Y49593489D01*
X25426966Y49620463D01*
X25347651Y49640002D01*
X25255253Y49651254D01*
X25188333Y49653730D01*
X25100844Y49654178D01*
X25100844Y49213911D01*
X24944225Y49213911D01*
X24943668Y49234979D01*
X24943050Y49295689D01*
X24942825Y49374474D01*
X24942800Y49436080D01*
X24942800Y49745515D01*
X24970509Y49773224D01*
X24982806Y49784456D01*
X24996103Y49792147D01*
X25014672Y49796960D01*
X25042786Y49799554D01*
X25084717Y49800590D01*
X25144737Y49800730D01*
X25148309Y49800725D01*
X25148309Y49800725D01*
G37*
X25148309Y49800725D02*
X25277288Y49796364D01*
X25386991Y49783139D01*
X25479226Y49760259D01*
X25555802Y49726930D01*
X25618527Y49682362D01*
X25669212Y49625764D01*
X25709663Y49556342D01*
X25710459Y49554649D01*
X25734601Y49492517D01*
X25743203Y49437491D01*
X25736231Y49382113D01*
X25713654Y49318927D01*
X25709372Y49309311D01*
X25680172Y49253034D01*
X25647356Y49209549D01*
X25605002Y49172583D01*
X25547190Y49135865D01*
X25543831Y49133948D01*
X25493504Y49109773D01*
X25436621Y49091718D01*
X25369527Y49079161D01*
X25288565Y49071478D01*
X25190082Y49068047D01*
X25155286Y49067749D01*
X24989594Y49067155D01*
X24966197Y49096900D01*
X24959257Y49106681D01*
X24953842Y49118103D01*
X24949765Y49133905D01*
X24946837Y49156825D01*
X24944867Y49189604D01*
X24944225Y49213911D01*
X25100844Y49213911D01*
X25194726Y49213911D01*
X25249664Y49215517D01*
X25306060Y49219745D01*
X25352345Y49225708D01*
X25355139Y49226210D01*
X25437348Y49248264D01*
X25501114Y49281400D01*
X25548452Y49327153D01*
X25581382Y49387061D01*
X25587108Y49402939D01*
X25592721Y49427667D01*
X25590291Y49452098D01*
X25578467Y49484600D01*
X25571340Y49500566D01*
X25548000Y49542994D01*
X25519880Y49572760D01*
X25488940Y49593489D01*
X25426966Y49620463D01*
X25347651Y49640002D01*
X25255253Y49651254D01*
X25188333Y49653730D01*
X25100844Y49654178D01*
X25100844Y49213911D01*
X24944225Y49213911D01*
X24943668Y49234979D01*
X24943050Y49295689D01*
X24942825Y49374474D01*
X24942800Y49436080D01*
X24942800Y49745515D01*
X24970509Y49773224D01*
X24982806Y49784456D01*
X24996103Y49792147D01*
X25014672Y49796960D01*
X25042786Y49799554D01*
X25084717Y49800590D01*
X25144737Y49800730D01*
X25148309Y49800725D01*
G36*
X27874665Y49798966D02*
X27894255Y49791965D01*
X27895010Y49791623D01*
X27921613Y49771322D01*
X27936270Y49750439D01*
X27939138Y49740648D01*
X27938996Y49727639D01*
X27934961Y49709105D01*
X27926146Y49682743D01*
X27911669Y49646248D01*
X27890645Y49597313D01*
X27862188Y49533635D01*
X27825415Y49452907D01*
X27805175Y49408784D01*
X27768625Y49330015D01*
X27734315Y49257577D01*
X27703552Y49194120D01*
X27677648Y49142292D01*
X27657910Y49104741D01*
X27645650Y49084116D01*
X27643224Y49081267D01*
X27612183Y49068698D01*
X27577121Y49070381D01*
X27549000Y49085668D01*
X27547854Y49086911D01*
X27536668Y49103846D01*
X27517904Y49136830D01*
X27493875Y49181620D01*
X27466897Y49233968D01*
X27457201Y49253258D01*
X27384014Y49399850D01*
X27304240Y49240607D01*
X27275767Y49185585D01*
X27249350Y49137868D01*
X27227148Y49101107D01*
X27211319Y49078956D01*
X27205954Y49074259D01*
X27164257Y49067898D01*
X27129849Y49081267D01*
X27119728Y49095554D01*
X27102214Y49127308D01*
X27078735Y49173403D01*
X27050720Y49230715D01*
X27019599Y49296120D01*
X26986799Y49366493D01*
X26953750Y49438709D01*
X26921881Y49509645D01*
X26892619Y49576175D01*
X26867395Y49635174D01*
X26847636Y49683519D01*
X26834772Y49718085D01*
X26830231Y49735747D01*
X26830277Y49736387D01*
X26841326Y49758612D01*
X26863410Y49781247D01*
X26864710Y49782232D01*
X26891853Y49797575D01*
X26916958Y49797426D01*
X26926368Y49794534D01*
X26937834Y49788282D01*
X26950010Y49775986D01*
X26964357Y49755092D01*
X26982336Y49723051D01*
X27005407Y49677312D01*
X27035030Y49615323D01*
X27061745Y49558102D01*
X27092480Y49491774D01*
X27120021Y49432126D01*
X27142938Y49382275D01*
X27159798Y49345336D01*
X27169173Y49324427D01*
X27170540Y49321155D01*
X27176689Y49326503D01*
X27190822Y49348891D01*
X27211057Y49385054D01*
X27235515Y49431723D01*
X27245248Y49450978D01*
X27278217Y49515996D01*
X27303643Y49563346D01*
X27323612Y49595781D01*
X27340210Y49616054D01*
X27355524Y49626918D01*
X27371640Y49631125D01*
X27382143Y49631600D01*
X27400670Y49629958D01*
X27416904Y49623169D01*
X27433035Y49608434D01*
X27451251Y49582956D01*
X27473739Y49543939D01*
X27502689Y49488586D01*
X27518662Y49457097D01*
X27544570Y49406913D01*
X27567167Y49365296D01*
X27584458Y49335758D01*
X27594450Y49321811D01*
X27595809Y49321230D01*
X27602261Y49332207D01*
X27616708Y49360710D01*
X27637703Y49403756D01*
X27663797Y49458362D01*
X27693546Y49521546D01*
X27708180Y49552929D01*
X27746250Y49633922D01*
X27776905Y49696244D01*
X27801737Y49741929D01*
X27822337Y49773011D01*
X27840298Y49791522D01*
X27857210Y49799496D01*
X27874665Y49798966D01*
X27874665Y49798966D01*
G37*
X27874665Y49798966D02*
X27894255Y49791965D01*
X27895010Y49791623D01*
X27921613Y49771322D01*
X27936270Y49750439D01*
X27939138Y49740648D01*
X27938996Y49727639D01*
X27934961Y49709105D01*
X27926146Y49682743D01*
X27911669Y49646248D01*
X27890645Y49597313D01*
X27862188Y49533635D01*
X27825415Y49452907D01*
X27805175Y49408784D01*
X27768625Y49330015D01*
X27734315Y49257577D01*
X27703552Y49194120D01*
X27677648Y49142292D01*
X27657910Y49104741D01*
X27645650Y49084116D01*
X27643224Y49081267D01*
X27612183Y49068698D01*
X27577121Y49070381D01*
X27549000Y49085668D01*
X27547854Y49086911D01*
X27536668Y49103846D01*
X27517904Y49136830D01*
X27493875Y49181620D01*
X27466897Y49233968D01*
X27457201Y49253258D01*
X27384014Y49399850D01*
X27304240Y49240607D01*
X27275767Y49185585D01*
X27249350Y49137868D01*
X27227148Y49101107D01*
X27211319Y49078956D01*
X27205954Y49074259D01*
X27164257Y49067898D01*
X27129849Y49081267D01*
X27119728Y49095554D01*
X27102214Y49127308D01*
X27078735Y49173403D01*
X27050720Y49230715D01*
X27019599Y49296120D01*
X26986799Y49366493D01*
X26953750Y49438709D01*
X26921881Y49509645D01*
X26892619Y49576175D01*
X26867395Y49635174D01*
X26847636Y49683519D01*
X26834772Y49718085D01*
X26830231Y49735747D01*
X26830277Y49736387D01*
X26841326Y49758612D01*
X26863410Y49781247D01*
X26864710Y49782232D01*
X26891853Y49797575D01*
X26916958Y49797426D01*
X26926368Y49794534D01*
X26937834Y49788282D01*
X26950010Y49775986D01*
X26964357Y49755092D01*
X26982336Y49723051D01*
X27005407Y49677312D01*
X27035030Y49615323D01*
X27061745Y49558102D01*
X27092480Y49491774D01*
X27120021Y49432126D01*
X27142938Y49382275D01*
X27159798Y49345336D01*
X27169173Y49324427D01*
X27170540Y49321155D01*
X27176689Y49326503D01*
X27190822Y49348891D01*
X27211057Y49385054D01*
X27235515Y49431723D01*
X27245248Y49450978D01*
X27278217Y49515996D01*
X27303643Y49563346D01*
X27323612Y49595781D01*
X27340210Y49616054D01*
X27355524Y49626918D01*
X27371640Y49631125D01*
X27382143Y49631600D01*
X27400670Y49629958D01*
X27416904Y49623169D01*
X27433035Y49608434D01*
X27451251Y49582956D01*
X27473739Y49543939D01*
X27502689Y49488586D01*
X27518662Y49457097D01*
X27544570Y49406913D01*
X27567167Y49365296D01*
X27584458Y49335758D01*
X27594450Y49321811D01*
X27595809Y49321230D01*
X27602261Y49332207D01*
X27616708Y49360710D01*
X27637703Y49403756D01*
X27663797Y49458362D01*
X27693546Y49521546D01*
X27708180Y49552929D01*
X27746250Y49633922D01*
X27776905Y49696244D01*
X27801737Y49741929D01*
X27822337Y49773011D01*
X27840298Y49791522D01*
X27857210Y49799496D01*
X27874665Y49798966D01*
G36*
X28318614Y49794123D02*
X28342327Y49779353D01*
X28368978Y49757773D01*
X28368978Y49436227D01*
X28368893Y49342170D01*
X28368529Y49268068D01*
X28367724Y49211296D01*
X28366313Y49169232D01*
X28364133Y49139252D01*
X28361021Y49118733D01*
X28356814Y49105051D01*
X28351348Y49095584D01*
X28347472Y49090918D01*
X28316034Y49070425D01*
X28280233Y49071261D01*
X28248873Y49088736D01*
X28222222Y49110316D01*
X28222222Y49757773D01*
X28248873Y49779353D01*
X28274594Y49795051D01*
X28295600Y49800933D01*
X28318614Y49794123D01*
X28318614Y49794123D01*
G37*
X28318614Y49794123D02*
X28342327Y49779353D01*
X28368978Y49757773D01*
X28368978Y49436227D01*
X28368893Y49342170D01*
X28368529Y49268068D01*
X28367724Y49211296D01*
X28366313Y49169232D01*
X28364133Y49139252D01*
X28361021Y49118733D01*
X28356814Y49105051D01*
X28351348Y49095584D01*
X28347472Y49090918D01*
X28316034Y49070425D01*
X28280233Y49071261D01*
X28248873Y49088736D01*
X28222222Y49110316D01*
X28222222Y49757773D01*
X28248873Y49779353D01*
X28274594Y49795051D01*
X28295600Y49800933D01*
X28318614Y49794123D01*
G36*
X29093065Y49800837D02*
X29171772Y49800458D01*
X29232863Y49799667D01*
X29278817Y49798330D01*
X29312114Y49796317D01*
X29335236Y49793494D01*
X29350662Y49789731D01*
X29360871Y49784895D01*
X29365813Y49781178D01*
X29391457Y49748642D01*
X29394559Y49714862D01*
X29378711Y49684174D01*
X29368348Y49671911D01*
X29357196Y49663550D01*
X29341035Y49658343D01*
X29315642Y49655543D01*
X29276798Y49654404D01*
X29220280Y49654179D01*
X29209180Y49654178D01*
X29063244Y49654178D01*
X29063244Y49383244D01*
X29063148Y49297846D01*
X29062711Y49232136D01*
X29061712Y49183226D01*
X29059928Y49148227D01*
X29057137Y49124251D01*
X29053117Y49108407D01*
X29047645Y49097809D01*
X29040666Y49089733D01*
X29007734Y49069888D01*
X28973354Y49071452D01*
X28942176Y49094094D01*
X28939886Y49096900D01*
X28932429Y49107508D01*
X28926747Y49119919D01*
X28922601Y49137150D01*
X28919750Y49162216D01*
X28917954Y49198133D01*
X28916972Y49247917D01*
X28916564Y49314583D01*
X28916489Y49390411D01*
X28916489Y49654178D01*
X28777127Y49654178D01*
X28717322Y49654582D01*
X28675918Y49656160D01*
X28648748Y49659453D01*
X28631646Y49665008D01*
X28620443Y49673369D01*
X28619083Y49674822D01*
X28602725Y49708061D01*
X28604172Y49745638D01*
X28622978Y49778355D01*
X28630250Y49784702D01*
X28639627Y49789734D01*
X28653609Y49793604D01*
X28674696Y49796463D01*
X28705389Y49798465D01*
X28748189Y49799761D01*
X28805595Y49800502D01*
X28880110Y49800842D01*
X28974233Y49800932D01*
X28994260Y49800933D01*
X29093065Y49800837D01*
X29093065Y49800837D01*
G37*
X29093065Y49800837D02*
X29171772Y49800458D01*
X29232863Y49799667D01*
X29278817Y49798330D01*
X29312114Y49796317D01*
X29335236Y49793494D01*
X29350662Y49789731D01*
X29360871Y49784895D01*
X29365813Y49781178D01*
X29391457Y49748642D01*
X29394559Y49714862D01*
X29378711Y49684174D01*
X29368348Y49671911D01*
X29357196Y49663550D01*
X29341035Y49658343D01*
X29315642Y49655543D01*
X29276798Y49654404D01*
X29220280Y49654179D01*
X29209180Y49654178D01*
X29063244Y49654178D01*
X29063244Y49383244D01*
X29063148Y49297846D01*
X29062711Y49232136D01*
X29061712Y49183226D01*
X29059928Y49148227D01*
X29057137Y49124251D01*
X29053117Y49108407D01*
X29047645Y49097809D01*
X29040666Y49089733D01*
X29007734Y49069888D01*
X28973354Y49071452D01*
X28942176Y49094094D01*
X28939886Y49096900D01*
X28932429Y49107508D01*
X28926747Y49119919D01*
X28922601Y49137150D01*
X28919750Y49162216D01*
X28917954Y49198133D01*
X28916972Y49247917D01*
X28916564Y49314583D01*
X28916489Y49390411D01*
X28916489Y49654178D01*
X28777127Y49654178D01*
X28717322Y49654582D01*
X28675918Y49656160D01*
X28648748Y49659453D01*
X28631646Y49665008D01*
X28620443Y49673369D01*
X28619083Y49674822D01*
X28602725Y49708061D01*
X28604172Y49745638D01*
X28622978Y49778355D01*
X28630250Y49784702D01*
X28639627Y49789734D01*
X28653609Y49793604D01*
X28674696Y49796463D01*
X28705389Y49798465D01*
X28748189Y49799761D01*
X28805595Y49800502D01*
X28880110Y49800842D01*
X28974233Y49800932D01*
X28994260Y49800933D01*
X29093065Y49800837D01*
G36*
X30358823Y49795467D02*
X30390202Y49773224D01*
X30417911Y49745515D01*
X30417911Y49436080D01*
X30417838Y49344201D01*
X30417495Y49272160D01*
X30416692Y49217220D01*
X30415241Y49176640D01*
X30412952Y49147683D01*
X30409636Y49127609D01*
X30405105Y49113679D01*
X30399169Y49103155D01*
X30394514Y49096900D01*
X30363783Y49072327D01*
X30328496Y49069659D01*
X30296245Y49084729D01*
X30285588Y49093626D01*
X30278464Y49105443D01*
X30274167Y49124474D01*
X30271991Y49155008D01*
X30271228Y49201338D01*
X30271155Y49237129D01*
X30271155Y49371955D01*
X29774444Y49371955D01*
X29774444Y49249300D01*
X29773931Y49193213D01*
X29771876Y49154667D01*
X29767508Y49128639D01*
X29760056Y49110103D01*
X29751047Y49096900D01*
X29720144Y49072396D01*
X29685196Y49069494D01*
X29651738Y49086911D01*
X29642604Y49096041D01*
X29636152Y49108145D01*
X29631897Y49126999D01*
X29629352Y49156380D01*
X29628029Y49200063D01*
X29627443Y49261825D01*
X29627375Y49276000D01*
X29626891Y49392369D01*
X29626641Y49488273D01*
X29626723Y49565823D01*
X29627231Y49627131D01*
X29628262Y49674310D01*
X29629913Y49709470D01*
X29632279Y49734724D01*
X29635457Y49752183D01*
X29639544Y49763959D01*
X29644634Y49772165D01*
X29650266Y49778355D01*
X29682128Y49798156D01*
X29715357Y49795467D01*
X29746735Y49773224D01*
X29759433Y49758874D01*
X29767526Y49743022D01*
X29772042Y49720446D01*
X29774006Y49685922D01*
X29774444Y49634224D01*
X29774444Y49518711D01*
X30271155Y49518711D01*
X30271155Y49637244D01*
X30271662Y49691852D01*
X30273698Y49728725D01*
X30278035Y49752693D01*
X30285447Y49768585D01*
X30293733Y49778355D01*
X30325594Y49798156D01*
X30358823Y49795467D01*
X30358823Y49795467D01*
G37*
X30358823Y49795467D02*
X30390202Y49773224D01*
X30417911Y49745515D01*
X30417911Y49436080D01*
X30417838Y49344201D01*
X30417495Y49272160D01*
X30416692Y49217220D01*
X30415241Y49176640D01*
X30412952Y49147683D01*
X30409636Y49127609D01*
X30405105Y49113679D01*
X30399169Y49103155D01*
X30394514Y49096900D01*
X30363783Y49072327D01*
X30328496Y49069659D01*
X30296245Y49084729D01*
X30285588Y49093626D01*
X30278464Y49105443D01*
X30274167Y49124474D01*
X30271991Y49155008D01*
X30271228Y49201338D01*
X30271155Y49237129D01*
X30271155Y49371955D01*
X29774444Y49371955D01*
X29774444Y49249300D01*
X29773931Y49193213D01*
X29771876Y49154667D01*
X29767508Y49128639D01*
X29760056Y49110103D01*
X29751047Y49096900D01*
X29720144Y49072396D01*
X29685196Y49069494D01*
X29651738Y49086911D01*
X29642604Y49096041D01*
X29636152Y49108145D01*
X29631897Y49126999D01*
X29629352Y49156380D01*
X29628029Y49200063D01*
X29627443Y49261825D01*
X29627375Y49276000D01*
X29626891Y49392369D01*
X29626641Y49488273D01*
X29626723Y49565823D01*
X29627231Y49627131D01*
X29628262Y49674310D01*
X29629913Y49709470D01*
X29632279Y49734724D01*
X29635457Y49752183D01*
X29639544Y49763959D01*
X29644634Y49772165D01*
X29650266Y49778355D01*
X29682128Y49798156D01*
X29715357Y49795467D01*
X29746735Y49773224D01*
X29759433Y49758874D01*
X29767526Y49743022D01*
X29772042Y49720446D01*
X29774006Y49685922D01*
X29774444Y49634224D01*
X29774444Y49518711D01*
X30271155Y49518711D01*
X30271155Y49637244D01*
X30271662Y49691852D01*
X30273698Y49728725D01*
X30278035Y49752693D01*
X30285447Y49768585D01*
X30293733Y49778355D01*
X30325594Y49798156D01*
X30358823Y49795467D01*
G36*
X21183600Y54580946D02*
X21194465Y54467007D01*
X21226082Y54359384D01*
X21276985Y54260385D01*
X21345707Y54172316D01*
X21430781Y54097484D01*
X21527768Y54039616D01*
X21634036Y53999995D01*
X21741050Y53981427D01*
X21846700Y53982566D01*
X21948875Y54002070D01*
X22045466Y54038594D01*
X22134362Y54090795D01*
X22213454Y54157327D01*
X22280631Y54236848D01*
X22333783Y54328013D01*
X22370801Y54429477D01*
X22389573Y54539898D01*
X22391511Y54589794D01*
X22391511Y54677733D01*
X22443440Y54677733D01*
X22479747Y54674889D01*
X22506645Y54663089D01*
X22533751Y54639351D01*
X22572133Y54600969D01*
X22572133Y52409398D01*
X22572124Y52147261D01*
X22572092Y51906759D01*
X22572028Y51686952D01*
X22571924Y51486899D01*
X22571773Y51305656D01*
X22571566Y51142284D01*
X22571294Y50995840D01*
X22570950Y50865383D01*
X22570526Y50749971D01*
X22570013Y50648662D01*
X22569403Y50560516D01*
X22568688Y50484590D01*
X22567860Y50419943D01*
X22566911Y50365633D01*
X22565833Y50320720D01*
X22564617Y50284260D01*
X22563255Y50255313D01*
X22561739Y50232937D01*
X22560062Y50216191D01*
X22558214Y50204132D01*
X22556187Y50195820D01*
X22553975Y50190313D01*
X22552892Y50188463D01*
X22548729Y50181451D01*
X22545195Y50175004D01*
X22541365Y50169100D01*
X22536318Y50163714D01*
X22529129Y50158822D01*
X22518877Y50154402D01*
X22504636Y50150428D01*
X22485486Y50146879D01*
X22460501Y50143730D01*
X22428760Y50140958D01*
X22389338Y50138539D01*
X22341314Y50136449D01*
X22283763Y50134665D01*
X22215763Y50133163D01*
X22136390Y50131920D01*
X22044721Y50130911D01*
X21939834Y50130115D01*
X21820804Y50129506D01*
X21686710Y50129061D01*
X21536627Y50128757D01*
X21369633Y50128570D01*
X21184804Y50128476D01*
X20981217Y50128452D01*
X20757950Y50128475D01*
X20514078Y50128520D01*
X20248679Y50128563D01*
X20210296Y50128568D01*
X19943318Y50128611D01*
X19697998Y50128682D01*
X19473417Y50128787D01*
X19268655Y50128934D01*
X19082794Y50129131D01*
X18914912Y50129384D01*
X18764092Y50129700D01*
X18629413Y50130087D01*
X18509956Y50130553D01*
X18404801Y50131103D01*
X18313029Y50131747D01*
X18233721Y50132489D01*
X18165957Y50133339D01*
X18108818Y50134303D01*
X18061383Y50135389D01*
X18022734Y50136603D01*
X17991951Y50137953D01*
X17968115Y50139445D01*
X17950306Y50141089D01*
X17937605Y50142889D01*
X17929092Y50144855D01*
X17924734Y50146523D01*
X17916272Y50150094D01*
X17908503Y50152730D01*
X17901398Y50155366D01*
X17894927Y50158938D01*
X17889061Y50164379D01*
X17883771Y50172625D01*
X17879026Y50184610D01*
X17874798Y50201269D01*
X17871057Y50223537D01*
X17867773Y50252348D01*
X17864917Y50288637D01*
X17862460Y50333339D01*
X17860371Y50387389D01*
X17858622Y50451721D01*
X17857183Y50527270D01*
X17856024Y50614970D01*
X17855117Y50715757D01*
X17854431Y50830566D01*
X17853937Y50960330D01*
X17853605Y51105985D01*
X17853407Y51268465D01*
X17853313Y51448705D01*
X17853292Y51647640D01*
X17853315Y51866204D01*
X17853354Y52105332D01*
X17853378Y52365960D01*
X17853378Y52408111D01*
X17853364Y52671008D01*
X17853339Y52912268D01*
X17853329Y53132835D01*
X17853358Y53333648D01*
X17853452Y53515651D01*
X17853638Y53679784D01*
X17853941Y53826989D01*
X17854386Y53958208D01*
X17854966Y54068133D01*
X18157803Y54068133D01*
X18197593Y54010289D01*
X18208764Y53994521D01*
X18218834Y53980559D01*
X18227862Y53967216D01*
X18235903Y53953307D01*
X18243014Y53937644D01*
X18249253Y53919042D01*
X18254675Y53896314D01*
X18259338Y53868273D01*
X18263299Y53833733D01*
X18266615Y53791508D01*
X18269341Y53740411D01*
X18271536Y53679256D01*
X18273255Y53606856D01*
X18274556Y53522025D01*
X18275495Y53423578D01*
X18276130Y53310326D01*
X18276516Y53181084D01*
X18276712Y53034666D01*
X18276773Y52869884D01*
X18276757Y52685553D01*
X18276720Y52480487D01*
X18276711Y52357867D01*
X18276735Y52140918D01*
X18276769Y51945358D01*
X18276757Y51770001D01*
X18276642Y51613659D01*
X18276370Y51475143D01*
X18275882Y51353266D01*
X18275124Y51246840D01*
X18274038Y51154678D01*
X18272569Y51075591D01*
X18270660Y51008392D01*
X18268256Y50951893D01*
X18265299Y50904907D01*
X18261734Y50866245D01*
X18257505Y50834720D01*
X18252554Y50809145D01*
X18246827Y50788330D01*
X18240267Y50771089D01*
X18232817Y50756235D01*
X18224421Y50742578D01*
X18215024Y50728931D01*
X18204568Y50714107D01*
X18198477Y50705217D01*
X18159704Y50647600D01*
X18691268Y50647600D01*
X18814517Y50647635D01*
X18917013Y50647785D01*
X19000580Y50648122D01*
X19067044Y50648714D01*
X19118229Y50649633D01*
X19155959Y50650949D01*
X19182060Y50652731D01*
X19198356Y50655049D01*
X19206672Y50657974D01*
X19208832Y50661576D01*
X19206661Y50665925D01*
X19205465Y50667355D01*
X19180315Y50704427D01*
X19154417Y50757228D01*
X19130808Y50819230D01*
X19122539Y50845643D01*
X19117922Y50863584D01*
X19114021Y50884645D01*
X19110752Y50910911D01*
X19108034Y50944468D01*
X19105785Y50987401D01*
X19103923Y51041796D01*
X19102364Y51109738D01*
X19101028Y51193312D01*
X19099831Y51294605D01*
X19098692Y51415700D01*
X19098315Y51460400D01*
X19097298Y51585551D01*
X19096540Y51689918D01*
X19096097Y51775293D01*
X19096030Y51843467D01*
X19096395Y51896235D01*
X19097252Y51935386D01*
X19098659Y51962715D01*
X19100675Y51980014D01*
X19103357Y51989074D01*
X19106764Y51991688D01*
X19110956Y51989649D01*
X19115429Y51985333D01*
X19125784Y51972398D01*
X19147842Y51943324D01*
X19180043Y51900241D01*
X19220826Y51845282D01*
X19268630Y51780577D01*
X19321895Y51708258D01*
X19379060Y51630456D01*
X19438563Y51549302D01*
X19498845Y51466928D01*
X19558345Y51385464D01*
X19615502Y51307043D01*
X19668755Y51233796D01*
X19716543Y51167853D01*
X19757307Y51111346D01*
X19789484Y51066407D01*
X19811515Y51035166D01*
X19816083Y51028534D01*
X19839004Y50991631D01*
X19865812Y50943641D01*
X19891211Y50894103D01*
X19894432Y50887423D01*
X19916110Y50839228D01*
X19928696Y50801666D01*
X19934426Y50765840D01*
X19935544Y50723800D01*
X19934910Y50647600D01*
X21089349Y50647600D01*
X20998185Y50741331D01*
X20951388Y50791225D01*
X20901101Y50847705D01*
X20855056Y50901974D01*
X20834631Y50927327D01*
X20804193Y50966872D01*
X20764138Y51020084D01*
X20715639Y51085333D01*
X20659865Y51160989D01*
X20597989Y51245423D01*
X20531181Y51337006D01*
X20460613Y51434108D01*
X20387455Y51535099D01*
X20312879Y51638350D01*
X20238056Y51742232D01*
X20164157Y51845115D01*
X20092354Y51945369D01*
X20023816Y52041364D01*
X19959716Y52131473D01*
X19901225Y52214064D01*
X19849514Y52287508D01*
X19805753Y52350176D01*
X19771115Y52400439D01*
X19746770Y52436666D01*
X19733889Y52457229D01*
X19732131Y52461332D01*
X19740090Y52472658D01*
X19760885Y52499838D01*
X19793153Y52541171D01*
X19835530Y52594956D01*
X19886653Y52659494D01*
X19945159Y52733082D01*
X20009686Y52814022D01*
X20078869Y52900612D01*
X20151347Y52991152D01*
X20225754Y53083940D01*
X20285483Y53158298D01*
X21296489Y53158298D01*
X21302398Y53145341D01*
X21316728Y53123092D01*
X21317775Y53121609D01*
X21336562Y53091456D01*
X21356209Y53054625D01*
X21360108Y53046489D01*
X21363644Y53038060D01*
X21366770Y53027941D01*
X21369514Y53014740D01*
X21371908Y52997062D01*
X21373981Y52973516D01*
X21375765Y52942707D01*
X21377288Y52903243D01*
X21378581Y52853731D01*
X21379674Y52792777D01*
X21380597Y52718989D01*
X21381381Y52630972D01*
X21382055Y52527335D01*
X21382650Y52406684D01*
X21383195Y52267626D01*
X21383721Y52108768D01*
X21384255Y51929911D01*
X21384794Y51744793D01*
X21385228Y51580855D01*
X21385491Y51436697D01*
X21385516Y51310921D01*
X21385235Y51202129D01*
X21384581Y51108923D01*
X21383486Y51029903D01*
X21381882Y50963672D01*
X21379703Y50908830D01*
X21376881Y50863979D01*
X21373349Y50827722D01*
X21369039Y50798659D01*
X21363883Y50775391D01*
X21357815Y50756521D01*
X21350767Y50740649D01*
X21342671Y50726378D01*
X21333460Y50712309D01*
X21324960Y50699842D01*
X21307824Y50673548D01*
X21297678Y50655963D01*
X21296489Y50652743D01*
X21307396Y50651666D01*
X21338589Y50650665D01*
X21387777Y50649765D01*
X21452667Y50648990D01*
X21530970Y50648363D01*
X21620393Y50647909D01*
X21718644Y50647651D01*
X21787555Y50647600D01*
X21892548Y50647820D01*
X21989390Y50648452D01*
X22075893Y50649451D01*
X22149868Y50650773D01*
X22209126Y50652374D01*
X22251480Y50654209D01*
X22274740Y50656235D01*
X22278622Y50657507D01*
X22270924Y50672409D01*
X22262926Y50680440D01*
X22249754Y50697566D01*
X22232515Y50727817D01*
X22220593Y50752378D01*
X22193955Y50811289D01*
X22190880Y51988155D01*
X22187805Y53165022D01*
X21742147Y53165022D01*
X21644330Y53164858D01*
X21553936Y53164389D01*
X21473370Y53163653D01*
X21405038Y53162684D01*
X21351344Y53161520D01*
X21314695Y53160197D01*
X21297496Y53158751D01*
X21296489Y53158298D01*
X20285483Y53158298D01*
X20300730Y53177278D01*
X20374910Y53269463D01*
X20446931Y53358796D01*
X20515431Y53443576D01*
X20579045Y53522102D01*
X20636412Y53592674D01*
X20686167Y53653591D01*
X20726948Y53703153D01*
X20744112Y53723822D01*
X20830404Y53824484D01*
X20907003Y53907741D01*
X20975817Y53975562D01*
X21038752Y54029911D01*
X21048133Y54037278D01*
X21087644Y54067883D01*
X19955884Y54068133D01*
X19961173Y54020156D01*
X19957870Y53962812D01*
X19936339Y53894537D01*
X19896365Y53814788D01*
X19851057Y53742505D01*
X19834839Y53719860D01*
X19806786Y53682304D01*
X19768570Y53631979D01*
X19721863Y53571027D01*
X19668339Y53501589D01*
X19609669Y53425806D01*
X19547525Y53345820D01*
X19483579Y53263772D01*
X19419505Y53181804D01*
X19356973Y53102057D01*
X19297657Y53026673D01*
X19243229Y52957793D01*
X19195361Y52897558D01*
X19155725Y52848111D01*
X19125994Y52811592D01*
X19107839Y52790142D01*
X19104780Y52786844D01*
X19101921Y52794851D01*
X19099707Y52825145D01*
X19098143Y52877444D01*
X19097233Y52951469D01*
X19096980Y53046937D01*
X19097387Y53163566D01*
X19098296Y53283555D01*
X19099618Y53415667D01*
X19101143Y53527406D01*
X19103119Y53620975D01*
X19105794Y53698581D01*
X19109418Y53762426D01*
X19114239Y53814717D01*
X19120506Y53857656D01*
X19128468Y53893449D01*
X19138373Y53924300D01*
X19150469Y53952414D01*
X19165007Y53979995D01*
X19179689Y54005034D01*
X19217686Y54068133D01*
X18157803Y54068133D01*
X17854966Y54068133D01*
X17854999Y54074383D01*
X17855805Y54176456D01*
X17856830Y54265367D01*
X17858100Y54342059D01*
X17859640Y54407473D01*
X17861476Y54462551D01*
X17863633Y54508235D01*
X17866137Y54545466D01*
X17869013Y54575187D01*
X17872287Y54598338D01*
X17875985Y54615861D01*
X17880131Y54628699D01*
X17884753Y54637792D01*
X17889874Y54644082D01*
X17895522Y54648512D01*
X17901721Y54652022D01*
X17908496Y54655555D01*
X17914492Y54659124D01*
X17919725Y54661700D01*
X17927901Y54664028D01*
X17940114Y54666122D01*
X17957459Y54667993D01*
X17981031Y54669653D01*
X18011923Y54671116D01*
X18051232Y54672392D01*
X18100050Y54673496D01*
X18159473Y54674439D01*
X18230596Y54675233D01*
X18314512Y54675891D01*
X18412317Y54676425D01*
X18525106Y54676847D01*
X18653971Y54677171D01*
X18800009Y54677408D01*
X18964314Y54677570D01*
X19147980Y54677670D01*
X19352103Y54677720D01*
X19563247Y54677733D01*
X21183600Y54677733D01*
X21183600Y54580946D01*
X21183600Y54580946D01*
G37*
X21183600Y54580946D02*
X21194465Y54467007D01*
X21226082Y54359384D01*
X21276985Y54260385D01*
X21345707Y54172316D01*
X21430781Y54097484D01*
X21527768Y54039616D01*
X21634036Y53999995D01*
X21741050Y53981427D01*
X21846700Y53982566D01*
X21948875Y54002070D01*
X22045466Y54038594D01*
X22134362Y54090795D01*
X22213454Y54157327D01*
X22280631Y54236848D01*
X22333783Y54328013D01*
X22370801Y54429477D01*
X22389573Y54539898D01*
X22391511Y54589794D01*
X22391511Y54677733D01*
X22443440Y54677733D01*
X22479747Y54674889D01*
X22506645Y54663089D01*
X22533751Y54639351D01*
X22572133Y54600969D01*
X22572133Y52409398D01*
X22572124Y52147261D01*
X22572092Y51906759D01*
X22572028Y51686952D01*
X22571924Y51486899D01*
X22571773Y51305656D01*
X22571566Y51142284D01*
X22571294Y50995840D01*
X22570950Y50865383D01*
X22570526Y50749971D01*
X22570013Y50648662D01*
X22569403Y50560516D01*
X22568688Y50484590D01*
X22567860Y50419943D01*
X22566911Y50365633D01*
X22565833Y50320720D01*
X22564617Y50284260D01*
X22563255Y50255313D01*
X22561739Y50232937D01*
X22560062Y50216191D01*
X22558214Y50204132D01*
X22556187Y50195820D01*
X22553975Y50190313D01*
X22552892Y50188463D01*
X22548729Y50181451D01*
X22545195Y50175004D01*
X22541365Y50169100D01*
X22536318Y50163714D01*
X22529129Y50158822D01*
X22518877Y50154402D01*
X22504636Y50150428D01*
X22485486Y50146879D01*
X22460501Y50143730D01*
X22428760Y50140958D01*
X22389338Y50138539D01*
X22341314Y50136449D01*
X22283763Y50134665D01*
X22215763Y50133163D01*
X22136390Y50131920D01*
X22044721Y50130911D01*
X21939834Y50130115D01*
X21820804Y50129506D01*
X21686710Y50129061D01*
X21536627Y50128757D01*
X21369633Y50128570D01*
X21184804Y50128476D01*
X20981217Y50128452D01*
X20757950Y50128475D01*
X20514078Y50128520D01*
X20248679Y50128563D01*
X20210296Y50128568D01*
X19943318Y50128611D01*
X19697998Y50128682D01*
X19473417Y50128787D01*
X19268655Y50128934D01*
X19082794Y50129131D01*
X18914912Y50129384D01*
X18764092Y50129700D01*
X18629413Y50130087D01*
X18509956Y50130553D01*
X18404801Y50131103D01*
X18313029Y50131747D01*
X18233721Y50132489D01*
X18165957Y50133339D01*
X18108818Y50134303D01*
X18061383Y50135389D01*
X18022734Y50136603D01*
X17991951Y50137953D01*
X17968115Y50139445D01*
X17950306Y50141089D01*
X17937605Y50142889D01*
X17929092Y50144855D01*
X17924734Y50146523D01*
X17916272Y50150094D01*
X17908503Y50152730D01*
X17901398Y50155366D01*
X17894927Y50158938D01*
X17889061Y50164379D01*
X17883771Y50172625D01*
X17879026Y50184610D01*
X17874798Y50201269D01*
X17871057Y50223537D01*
X17867773Y50252348D01*
X17864917Y50288637D01*
X17862460Y50333339D01*
X17860371Y50387389D01*
X17858622Y50451721D01*
X17857183Y50527270D01*
X17856024Y50614970D01*
X17855117Y50715757D01*
X17854431Y50830566D01*
X17853937Y50960330D01*
X17853605Y51105985D01*
X17853407Y51268465D01*
X17853313Y51448705D01*
X17853292Y51647640D01*
X17853315Y51866204D01*
X17853354Y52105332D01*
X17853378Y52365960D01*
X17853378Y52408111D01*
X17853364Y52671008D01*
X17853339Y52912268D01*
X17853329Y53132835D01*
X17853358Y53333648D01*
X17853452Y53515651D01*
X17853638Y53679784D01*
X17853941Y53826989D01*
X17854386Y53958208D01*
X17854966Y54068133D01*
X18157803Y54068133D01*
X18197593Y54010289D01*
X18208764Y53994521D01*
X18218834Y53980559D01*
X18227862Y53967216D01*
X18235903Y53953307D01*
X18243014Y53937644D01*
X18249253Y53919042D01*
X18254675Y53896314D01*
X18259338Y53868273D01*
X18263299Y53833733D01*
X18266615Y53791508D01*
X18269341Y53740411D01*
X18271536Y53679256D01*
X18273255Y53606856D01*
X18274556Y53522025D01*
X18275495Y53423578D01*
X18276130Y53310326D01*
X18276516Y53181084D01*
X18276712Y53034666D01*
X18276773Y52869884D01*
X18276757Y52685553D01*
X18276720Y52480487D01*
X18276711Y52357867D01*
X18276735Y52140918D01*
X18276769Y51945358D01*
X18276757Y51770001D01*
X18276642Y51613659D01*
X18276370Y51475143D01*
X18275882Y51353266D01*
X18275124Y51246840D01*
X18274038Y51154678D01*
X18272569Y51075591D01*
X18270660Y51008392D01*
X18268256Y50951893D01*
X18265299Y50904907D01*
X18261734Y50866245D01*
X18257505Y50834720D01*
X18252554Y50809145D01*
X18246827Y50788330D01*
X18240267Y50771089D01*
X18232817Y50756235D01*
X18224421Y50742578D01*
X18215024Y50728931D01*
X18204568Y50714107D01*
X18198477Y50705217D01*
X18159704Y50647600D01*
X18691268Y50647600D01*
X18814517Y50647635D01*
X18917013Y50647785D01*
X19000580Y50648122D01*
X19067044Y50648714D01*
X19118229Y50649633D01*
X19155959Y50650949D01*
X19182060Y50652731D01*
X19198356Y50655049D01*
X19206672Y50657974D01*
X19208832Y50661576D01*
X19206661Y50665925D01*
X19205465Y50667355D01*
X19180315Y50704427D01*
X19154417Y50757228D01*
X19130808Y50819230D01*
X19122539Y50845643D01*
X19117922Y50863584D01*
X19114021Y50884645D01*
X19110752Y50910911D01*
X19108034Y50944468D01*
X19105785Y50987401D01*
X19103923Y51041796D01*
X19102364Y51109738D01*
X19101028Y51193312D01*
X19099831Y51294605D01*
X19098692Y51415700D01*
X19098315Y51460400D01*
X19097298Y51585551D01*
X19096540Y51689918D01*
X19096097Y51775293D01*
X19096030Y51843467D01*
X19096395Y51896235D01*
X19097252Y51935386D01*
X19098659Y51962715D01*
X19100675Y51980014D01*
X19103357Y51989074D01*
X19106764Y51991688D01*
X19110956Y51989649D01*
X19115429Y51985333D01*
X19125784Y51972398D01*
X19147842Y51943324D01*
X19180043Y51900241D01*
X19220826Y51845282D01*
X19268630Y51780577D01*
X19321895Y51708258D01*
X19379060Y51630456D01*
X19438563Y51549302D01*
X19498845Y51466928D01*
X19558345Y51385464D01*
X19615502Y51307043D01*
X19668755Y51233796D01*
X19716543Y51167853D01*
X19757307Y51111346D01*
X19789484Y51066407D01*
X19811515Y51035166D01*
X19816083Y51028534D01*
X19839004Y50991631D01*
X19865812Y50943641D01*
X19891211Y50894103D01*
X19894432Y50887423D01*
X19916110Y50839228D01*
X19928696Y50801666D01*
X19934426Y50765840D01*
X19935544Y50723800D01*
X19934910Y50647600D01*
X21089349Y50647600D01*
X20998185Y50741331D01*
X20951388Y50791225D01*
X20901101Y50847705D01*
X20855056Y50901974D01*
X20834631Y50927327D01*
X20804193Y50966872D01*
X20764138Y51020084D01*
X20715639Y51085333D01*
X20659865Y51160989D01*
X20597989Y51245423D01*
X20531181Y51337006D01*
X20460613Y51434108D01*
X20387455Y51535099D01*
X20312879Y51638350D01*
X20238056Y51742232D01*
X20164157Y51845115D01*
X20092354Y51945369D01*
X20023816Y52041364D01*
X19959716Y52131473D01*
X19901225Y52214064D01*
X19849514Y52287508D01*
X19805753Y52350176D01*
X19771115Y52400439D01*
X19746770Y52436666D01*
X19733889Y52457229D01*
X19732131Y52461332D01*
X19740090Y52472658D01*
X19760885Y52499838D01*
X19793153Y52541171D01*
X19835530Y52594956D01*
X19886653Y52659494D01*
X19945159Y52733082D01*
X20009686Y52814022D01*
X20078869Y52900612D01*
X20151347Y52991152D01*
X20225754Y53083940D01*
X20285483Y53158298D01*
X21296489Y53158298D01*
X21302398Y53145341D01*
X21316728Y53123092D01*
X21317775Y53121609D01*
X21336562Y53091456D01*
X21356209Y53054625D01*
X21360108Y53046489D01*
X21363644Y53038060D01*
X21366770Y53027941D01*
X21369514Y53014740D01*
X21371908Y52997062D01*
X21373981Y52973516D01*
X21375765Y52942707D01*
X21377288Y52903243D01*
X21378581Y52853731D01*
X21379674Y52792777D01*
X21380597Y52718989D01*
X21381381Y52630972D01*
X21382055Y52527335D01*
X21382650Y52406684D01*
X21383195Y52267626D01*
X21383721Y52108768D01*
X21384255Y51929911D01*
X21384794Y51744793D01*
X21385228Y51580855D01*
X21385491Y51436697D01*
X21385516Y51310921D01*
X21385235Y51202129D01*
X21384581Y51108923D01*
X21383486Y51029903D01*
X21381882Y50963672D01*
X21379703Y50908830D01*
X21376881Y50863979D01*
X21373349Y50827722D01*
X21369039Y50798659D01*
X21363883Y50775391D01*
X21357815Y50756521D01*
X21350767Y50740649D01*
X21342671Y50726378D01*
X21333460Y50712309D01*
X21324960Y50699842D01*
X21307824Y50673548D01*
X21297678Y50655963D01*
X21296489Y50652743D01*
X21307396Y50651666D01*
X21338589Y50650665D01*
X21387777Y50649765D01*
X21452667Y50648990D01*
X21530970Y50648363D01*
X21620393Y50647909D01*
X21718644Y50647651D01*
X21787555Y50647600D01*
X21892548Y50647820D01*
X21989390Y50648452D01*
X22075893Y50649451D01*
X22149868Y50650773D01*
X22209126Y50652374D01*
X22251480Y50654209D01*
X22274740Y50656235D01*
X22278622Y50657507D01*
X22270924Y50672409D01*
X22262926Y50680440D01*
X22249754Y50697566D01*
X22232515Y50727817D01*
X22220593Y50752378D01*
X22193955Y50811289D01*
X22190880Y51988155D01*
X22187805Y53165022D01*
X21742147Y53165022D01*
X21644330Y53164858D01*
X21553936Y53164389D01*
X21473370Y53163653D01*
X21405038Y53162684D01*
X21351344Y53161520D01*
X21314695Y53160197D01*
X21297496Y53158751D01*
X21296489Y53158298D01*
X20285483Y53158298D01*
X20300730Y53177278D01*
X20374910Y53269463D01*
X20446931Y53358796D01*
X20515431Y53443576D01*
X20579045Y53522102D01*
X20636412Y53592674D01*
X20686167Y53653591D01*
X20726948Y53703153D01*
X20744112Y53723822D01*
X20830404Y53824484D01*
X20907003Y53907741D01*
X20975817Y53975562D01*
X21038752Y54029911D01*
X21048133Y54037278D01*
X21087644Y54067883D01*
X19955884Y54068133D01*
X19961173Y54020156D01*
X19957870Y53962812D01*
X19936339Y53894537D01*
X19896365Y53814788D01*
X19851057Y53742505D01*
X19834839Y53719860D01*
X19806786Y53682304D01*
X19768570Y53631979D01*
X19721863Y53571027D01*
X19668339Y53501589D01*
X19609669Y53425806D01*
X19547525Y53345820D01*
X19483579Y53263772D01*
X19419505Y53181804D01*
X19356973Y53102057D01*
X19297657Y53026673D01*
X19243229Y52957793D01*
X19195361Y52897558D01*
X19155725Y52848111D01*
X19125994Y52811592D01*
X19107839Y52790142D01*
X19104780Y52786844D01*
X19101921Y52794851D01*
X19099707Y52825145D01*
X19098143Y52877444D01*
X19097233Y52951469D01*
X19096980Y53046937D01*
X19097387Y53163566D01*
X19098296Y53283555D01*
X19099618Y53415667D01*
X19101143Y53527406D01*
X19103119Y53620975D01*
X19105794Y53698581D01*
X19109418Y53762426D01*
X19114239Y53814717D01*
X19120506Y53857656D01*
X19128468Y53893449D01*
X19138373Y53924300D01*
X19150469Y53952414D01*
X19165007Y53979995D01*
X19179689Y54005034D01*
X19217686Y54068133D01*
X18157803Y54068133D01*
X17854966Y54068133D01*
X17854999Y54074383D01*
X17855805Y54176456D01*
X17856830Y54265367D01*
X17858100Y54342059D01*
X17859640Y54407473D01*
X17861476Y54462551D01*
X17863633Y54508235D01*
X17866137Y54545466D01*
X17869013Y54575187D01*
X17872287Y54598338D01*
X17875985Y54615861D01*
X17880131Y54628699D01*
X17884753Y54637792D01*
X17889874Y54644082D01*
X17895522Y54648512D01*
X17901721Y54652022D01*
X17908496Y54655555D01*
X17914492Y54659124D01*
X17919725Y54661700D01*
X17927901Y54664028D01*
X17940114Y54666122D01*
X17957459Y54667993D01*
X17981031Y54669653D01*
X18011923Y54671116D01*
X18051232Y54672392D01*
X18100050Y54673496D01*
X18159473Y54674439D01*
X18230596Y54675233D01*
X18314512Y54675891D01*
X18412317Y54676425D01*
X18525106Y54676847D01*
X18653971Y54677171D01*
X18800009Y54677408D01*
X18964314Y54677570D01*
X19147980Y54677670D01*
X19352103Y54677720D01*
X19563247Y54677733D01*
X21183600Y54677733D01*
X21183600Y54580946D01*
G36*
X24458429Y54120929D02*
X24618570Y54099755D01*
X24782510Y54059615D01*
X24952313Y54000111D01*
X25130043Y53920846D01*
X25141310Y53915301D01*
X25199005Y53887275D01*
X25250552Y53863198D01*
X25292191Y53844751D01*
X25320162Y53833614D01*
X25329733Y53831067D01*
X25348950Y53826059D01*
X25353561Y53821853D01*
X25348458Y53811420D01*
X25332418Y53785132D01*
X25307288Y53745743D01*
X25274914Y53696009D01*
X25237143Y53638685D01*
X25195822Y53576524D01*
X25152798Y53512282D01*
X25109917Y53448715D01*
X25069026Y53388575D01*
X25031971Y53334620D01*
X25000600Y53289603D01*
X24976759Y53256279D01*
X24962294Y53237403D01*
X24960309Y53235213D01*
X24950191Y53239862D01*
X24927850Y53257038D01*
X24897280Y53283560D01*
X24881536Y53298036D01*
X24785047Y53373318D01*
X24678336Y53428759D01*
X24562832Y53463859D01*
X24439962Y53478120D01*
X24370561Y53476949D01*
X24249423Y53459788D01*
X24140205Y53423906D01*
X24042582Y53369041D01*
X23956228Y53294930D01*
X23880815Y53201312D01*
X23816018Y53087924D01*
X23778601Y53001333D01*
X23734748Y52865634D01*
X23702428Y52718150D01*
X23681557Y52562686D01*
X23672051Y52403044D01*
X23673827Y52243027D01*
X23686803Y52086439D01*
X23710894Y51937082D01*
X23746018Y51798760D01*
X23792092Y51675276D01*
X23808373Y51641022D01*
X23876620Y51526936D01*
X23957079Y51430443D01*
X24048570Y51352330D01*
X24149911Y51293383D01*
X24259920Y51254388D01*
X24377415Y51236132D01*
X24418883Y51234789D01*
X24540441Y51245710D01*
X24660878Y51278526D01*
X24778666Y51332561D01*
X24892277Y51407135D01*
X24983685Y51485461D01*
X25030215Y51529992D01*
X25211483Y51232729D01*
X25256580Y51158567D01*
X25297819Y51090354D01*
X25333735Y51030541D01*
X25362866Y50981580D01*
X25383750Y50945921D01*
X25394924Y50926016D01*
X25396375Y50922921D01*
X25388146Y50913282D01*
X25362567Y50896001D01*
X25322873Y50872717D01*
X25272297Y50845066D01*
X25214074Y50814685D01*
X25151437Y50783210D01*
X25087621Y50752278D01*
X25025860Y50723527D01*
X24969388Y50698592D01*
X24921438Y50679111D01*
X24897986Y50670682D01*
X24764221Y50632867D01*
X24626327Y50607864D01*
X24478622Y50594860D01*
X24351833Y50592532D01*
X24283878Y50593627D01*
X24218277Y50595725D01*
X24160847Y50598566D01*
X24117403Y50601894D01*
X24103298Y50603578D01*
X23964284Y50632413D01*
X23822757Y50677532D01*
X23685275Y50736250D01*
X23558394Y50805880D01*
X23480889Y50858559D01*
X23353481Y50966761D01*
X23235178Y51093329D01*
X23128172Y51235134D01*
X23034652Y51389049D01*
X22956810Y51551947D01*
X22912956Y51669244D01*
X22862708Y51852872D01*
X22829209Y52047419D01*
X22812449Y52248675D01*
X22812416Y52452432D01*
X22829101Y52654479D01*
X22862493Y52850608D01*
X22912580Y53036609D01*
X22916397Y53048197D01*
X22979281Y53210250D01*
X23056028Y53358168D01*
X23149242Y53496135D01*
X23261527Y53628339D01*
X23305392Y53673601D01*
X23441534Y53797543D01*
X23581491Y53900085D01*
X23727411Y53982344D01*
X23881442Y54045436D01*
X24045732Y54090477D01*
X24141289Y54107967D01*
X24300023Y54123534D01*
X24458429Y54120929D01*
X24458429Y54120929D01*
G37*
X24458429Y54120929D02*
X24618570Y54099755D01*
X24782510Y54059615D01*
X24952313Y54000111D01*
X25130043Y53920846D01*
X25141310Y53915301D01*
X25199005Y53887275D01*
X25250552Y53863198D01*
X25292191Y53844751D01*
X25320162Y53833614D01*
X25329733Y53831067D01*
X25348950Y53826059D01*
X25353561Y53821853D01*
X25348458Y53811420D01*
X25332418Y53785132D01*
X25307288Y53745743D01*
X25274914Y53696009D01*
X25237143Y53638685D01*
X25195822Y53576524D01*
X25152798Y53512282D01*
X25109917Y53448715D01*
X25069026Y53388575D01*
X25031971Y53334620D01*
X25000600Y53289603D01*
X24976759Y53256279D01*
X24962294Y53237403D01*
X24960309Y53235213D01*
X24950191Y53239862D01*
X24927850Y53257038D01*
X24897280Y53283560D01*
X24881536Y53298036D01*
X24785047Y53373318D01*
X24678336Y53428759D01*
X24562832Y53463859D01*
X24439962Y53478120D01*
X24370561Y53476949D01*
X24249423Y53459788D01*
X24140205Y53423906D01*
X24042582Y53369041D01*
X23956228Y53294930D01*
X23880815Y53201312D01*
X23816018Y53087924D01*
X23778601Y53001333D01*
X23734748Y52865634D01*
X23702428Y52718150D01*
X23681557Y52562686D01*
X23672051Y52403044D01*
X23673827Y52243027D01*
X23686803Y52086439D01*
X23710894Y51937082D01*
X23746018Y51798760D01*
X23792092Y51675276D01*
X23808373Y51641022D01*
X23876620Y51526936D01*
X23957079Y51430443D01*
X24048570Y51352330D01*
X24149911Y51293383D01*
X24259920Y51254388D01*
X24377415Y51236132D01*
X24418883Y51234789D01*
X24540441Y51245710D01*
X24660878Y51278526D01*
X24778666Y51332561D01*
X24892277Y51407135D01*
X24983685Y51485461D01*
X25030215Y51529992D01*
X25211483Y51232729D01*
X25256580Y51158567D01*
X25297819Y51090354D01*
X25333735Y51030541D01*
X25362866Y50981580D01*
X25383750Y50945921D01*
X25394924Y50926016D01*
X25396375Y50922921D01*
X25388146Y50913282D01*
X25362567Y50896001D01*
X25322873Y50872717D01*
X25272297Y50845066D01*
X25214074Y50814685D01*
X25151437Y50783210D01*
X25087621Y50752278D01*
X25025860Y50723527D01*
X24969388Y50698592D01*
X24921438Y50679111D01*
X24897986Y50670682D01*
X24764221Y50632867D01*
X24626327Y50607864D01*
X24478622Y50594860D01*
X24351833Y50592532D01*
X24283878Y50593627D01*
X24218277Y50595725D01*
X24160847Y50598566D01*
X24117403Y50601894D01*
X24103298Y50603578D01*
X23964284Y50632413D01*
X23822757Y50677532D01*
X23685275Y50736250D01*
X23558394Y50805880D01*
X23480889Y50858559D01*
X23353481Y50966761D01*
X23235178Y51093329D01*
X23128172Y51235134D01*
X23034652Y51389049D01*
X22956810Y51551947D01*
X22912956Y51669244D01*
X22862708Y51852872D01*
X22829209Y52047419D01*
X22812449Y52248675D01*
X22812416Y52452432D01*
X22829101Y52654479D01*
X22862493Y52850608D01*
X22912580Y53036609D01*
X22916397Y53048197D01*
X22979281Y53210250D01*
X23056028Y53358168D01*
X23149242Y53496135D01*
X23261527Y53628339D01*
X23305392Y53673601D01*
X23441534Y53797543D01*
X23581491Y53900085D01*
X23727411Y53982344D01*
X23881442Y54045436D01*
X24045732Y54090477D01*
X24141289Y54107967D01*
X24300023Y54123534D01*
X24458429Y54120929D01*
G36*
X26803574Y53203448D02*
X26955492Y53183433D01*
X27090756Y53149798D01*
X27210239Y53102275D01*
X27314815Y53040595D01*
X27392424Y52977035D01*
X27461265Y52902901D01*
X27515006Y52823129D01*
X27557910Y52730909D01*
X27573384Y52687839D01*
X27586244Y52648858D01*
X27597446Y52612711D01*
X27607120Y52577566D01*
X27615396Y52541590D01*
X27622403Y52502950D01*
X27628272Y52459815D01*
X27633131Y52410351D01*
X27637110Y52352727D01*
X27640340Y52285109D01*
X27642949Y52205666D01*
X27645067Y52112564D01*
X27646824Y52003973D01*
X27648349Y51878058D01*
X27649772Y51732988D01*
X27651025Y51590222D01*
X27652351Y51434032D01*
X27653556Y51298761D01*
X27654766Y51182754D01*
X27656106Y51084355D01*
X27657700Y51001907D01*
X27659675Y50933754D01*
X27662156Y50878240D01*
X27665269Y50833708D01*
X27669138Y50798502D01*
X27673889Y50770966D01*
X27679648Y50749444D01*
X27686539Y50732278D01*
X27694689Y50717814D01*
X27704223Y50704394D01*
X27715266Y50690362D01*
X27719566Y50684929D01*
X27735386Y50662090D01*
X27742422Y50646537D01*
X27742444Y50646078D01*
X27731567Y50643879D01*
X27700582Y50641853D01*
X27651957Y50640058D01*
X27588163Y50638549D01*
X27511669Y50637384D01*
X27424944Y50636620D01*
X27330457Y50636314D01*
X27319550Y50636311D01*
X26896657Y50636311D01*
X26893395Y50732378D01*
X26890133Y50828444D01*
X26828044Y50777457D01*
X26730714Y50709943D01*
X26620813Y50655251D01*
X26534349Y50625022D01*
X26465278Y50610334D01*
X26381925Y50600341D01*
X26292159Y50595354D01*
X26203845Y50595687D01*
X26124851Y50601649D01*
X26088622Y50607362D01*
X25948603Y50645224D01*
X25822178Y50700068D01*
X25710260Y50771076D01*
X25613762Y50857432D01*
X25533600Y50958321D01*
X25470687Y51072924D01*
X25426312Y51199016D01*
X25413978Y51255599D01*
X25406368Y51317798D01*
X25402739Y51392637D01*
X25402245Y51426533D01*
X25402310Y51429718D01*
X26162248Y51429718D01*
X26171541Y51354667D01*
X26199728Y51290840D01*
X26248197Y51235202D01*
X26253254Y51230789D01*
X26301548Y51195963D01*
X26353257Y51173380D01*
X26413989Y51161460D01*
X26489352Y51158617D01*
X26507459Y51159022D01*
X26561278Y51161675D01*
X26601308Y51167091D01*
X26636324Y51177255D01*
X26675103Y51194150D01*
X26685745Y51199328D01*
X26746396Y51235156D01*
X26793215Y51277788D01*
X26805952Y51293027D01*
X26850622Y51349538D01*
X26850622Y51545414D01*
X26850086Y51624061D01*
X26848396Y51682012D01*
X26845428Y51721125D01*
X26841057Y51743259D01*
X26836972Y51749726D01*
X26821047Y51752889D01*
X26787264Y51755512D01*
X26740340Y51757345D01*
X26684993Y51758143D01*
X26676106Y51758158D01*
X26555330Y51752904D01*
X26452660Y51736737D01*
X26366106Y51709039D01*
X26293681Y51669192D01*
X26238751Y51622242D01*
X26194204Y51564355D01*
X26169480Y51501307D01*
X26162248Y51429718D01*
X25402310Y51429718D01*
X25404178Y51520288D01*
X25412522Y51599188D01*
X25428768Y51670410D01*
X25454405Y51741136D01*
X25478401Y51793507D01*
X25537020Y51888804D01*
X25615117Y51976830D01*
X25710315Y52055983D01*
X25820238Y52124660D01*
X25942510Y52181259D01*
X26074755Y52224179D01*
X26139422Y52239118D01*
X26275604Y52261223D01*
X26424049Y52275806D01*
X26575505Y52282187D01*
X26702064Y52280555D01*
X26863950Y52273776D01*
X26856530Y52332755D01*
X26837238Y52431908D01*
X26806104Y52512628D01*
X26762269Y52575534D01*
X26704871Y52621244D01*
X26633048Y52650378D01*
X26545941Y52663553D01*
X26442686Y52661389D01*
X26404711Y52657388D01*
X26263520Y52632220D01*
X26126707Y52591186D01*
X26032178Y52553185D01*
X25987018Y52533810D01*
X25948585Y52518240D01*
X25922234Y52508595D01*
X25914546Y52506548D01*
X25904802Y52515626D01*
X25888083Y52544595D01*
X25864232Y52593783D01*
X25833093Y52663516D01*
X25794507Y52754121D01*
X25787910Y52769911D01*
X25757853Y52842228D01*
X25730874Y52907575D01*
X25708136Y52963094D01*
X25690806Y53005928D01*
X25680048Y53033219D01*
X25676941Y53042058D01*
X25686940Y53046813D01*
X25713217Y53052090D01*
X25741489Y53055769D01*
X25771646Y53060526D01*
X25819433Y53069972D01*
X25880612Y53083180D01*
X25950946Y53099224D01*
X26026194Y53117180D01*
X26054755Y53124203D01*
X26159816Y53149791D01*
X26247480Y53169853D01*
X26322068Y53185031D01*
X26387903Y53195965D01*
X26449307Y53203296D01*
X26510602Y53207665D01*
X26576110Y53209713D01*
X26634128Y53210111D01*
X26803574Y53203448D01*
X26803574Y53203448D01*
G37*
X26803574Y53203448D02*
X26955492Y53183433D01*
X27090756Y53149798D01*
X27210239Y53102275D01*
X27314815Y53040595D01*
X27392424Y52977035D01*
X27461265Y52902901D01*
X27515006Y52823129D01*
X27557910Y52730909D01*
X27573384Y52687839D01*
X27586244Y52648858D01*
X27597446Y52612711D01*
X27607120Y52577566D01*
X27615396Y52541590D01*
X27622403Y52502950D01*
X27628272Y52459815D01*
X27633131Y52410351D01*
X27637110Y52352727D01*
X27640340Y52285109D01*
X27642949Y52205666D01*
X27645067Y52112564D01*
X27646824Y52003973D01*
X27648349Y51878058D01*
X27649772Y51732988D01*
X27651025Y51590222D01*
X27652351Y51434032D01*
X27653556Y51298761D01*
X27654766Y51182754D01*
X27656106Y51084355D01*
X27657700Y51001907D01*
X27659675Y50933754D01*
X27662156Y50878240D01*
X27665269Y50833708D01*
X27669138Y50798502D01*
X27673889Y50770966D01*
X27679648Y50749444D01*
X27686539Y50732278D01*
X27694689Y50717814D01*
X27704223Y50704394D01*
X27715266Y50690362D01*
X27719566Y50684929D01*
X27735386Y50662090D01*
X27742422Y50646537D01*
X27742444Y50646078D01*
X27731567Y50643879D01*
X27700582Y50641853D01*
X27651957Y50640058D01*
X27588163Y50638549D01*
X27511669Y50637384D01*
X27424944Y50636620D01*
X27330457Y50636314D01*
X27319550Y50636311D01*
X26896657Y50636311D01*
X26893395Y50732378D01*
X26890133Y50828444D01*
X26828044Y50777457D01*
X26730714Y50709943D01*
X26620813Y50655251D01*
X26534349Y50625022D01*
X26465278Y50610334D01*
X26381925Y50600341D01*
X26292159Y50595354D01*
X26203845Y50595687D01*
X26124851Y50601649D01*
X26088622Y50607362D01*
X25948603Y50645224D01*
X25822178Y50700068D01*
X25710260Y50771076D01*
X25613762Y50857432D01*
X25533600Y50958321D01*
X25470687Y51072924D01*
X25426312Y51199016D01*
X25413978Y51255599D01*
X25406368Y51317798D01*
X25402739Y51392637D01*
X25402245Y51426533D01*
X25402310Y51429718D01*
X26162248Y51429718D01*
X26171541Y51354667D01*
X26199728Y51290840D01*
X26248197Y51235202D01*
X26253254Y51230789D01*
X26301548Y51195963D01*
X26353257Y51173380D01*
X26413989Y51161460D01*
X26489352Y51158617D01*
X26507459Y51159022D01*
X26561278Y51161675D01*
X26601308Y51167091D01*
X26636324Y51177255D01*
X26675103Y51194150D01*
X26685745Y51199328D01*
X26746396Y51235156D01*
X26793215Y51277788D01*
X26805952Y51293027D01*
X26850622Y51349538D01*
X26850622Y51545414D01*
X26850086Y51624061D01*
X26848396Y51682012D01*
X26845428Y51721125D01*
X26841057Y51743259D01*
X26836972Y51749726D01*
X26821047Y51752889D01*
X26787264Y51755512D01*
X26740340Y51757345D01*
X26684993Y51758143D01*
X26676106Y51758158D01*
X26555330Y51752904D01*
X26452660Y51736737D01*
X26366106Y51709039D01*
X26293681Y51669192D01*
X26238751Y51622242D01*
X26194204Y51564355D01*
X26169480Y51501307D01*
X26162248Y51429718D01*
X25402310Y51429718D01*
X25404178Y51520288D01*
X25412522Y51599188D01*
X25428768Y51670410D01*
X25454405Y51741136D01*
X25478401Y51793507D01*
X25537020Y51888804D01*
X25615117Y51976830D01*
X25710315Y52055983D01*
X25820238Y52124660D01*
X25942510Y52181259D01*
X26074755Y52224179D01*
X26139422Y52239118D01*
X26275604Y52261223D01*
X26424049Y52275806D01*
X26575505Y52282187D01*
X26702064Y52280555D01*
X26863950Y52273776D01*
X26856530Y52332755D01*
X26837238Y52431908D01*
X26806104Y52512628D01*
X26762269Y52575534D01*
X26704871Y52621244D01*
X26633048Y52650378D01*
X26545941Y52663553D01*
X26442686Y52661389D01*
X26404711Y52657388D01*
X26263520Y52632220D01*
X26126707Y52591186D01*
X26032178Y52553185D01*
X25987018Y52533810D01*
X25948585Y52518240D01*
X25922234Y52508595D01*
X25914546Y52506548D01*
X25904802Y52515626D01*
X25888083Y52544595D01*
X25864232Y52593783D01*
X25833093Y52663516D01*
X25794507Y52754121D01*
X25787910Y52769911D01*
X25757853Y52842228D01*
X25730874Y52907575D01*
X25708136Y52963094D01*
X25690806Y53005928D01*
X25680048Y53033219D01*
X25676941Y53042058D01*
X25686940Y53046813D01*
X25713217Y53052090D01*
X25741489Y53055769D01*
X25771646Y53060526D01*
X25819433Y53069972D01*
X25880612Y53083180D01*
X25950946Y53099224D01*
X26026194Y53117180D01*
X26054755Y53124203D01*
X26159816Y53149791D01*
X26247480Y53169853D01*
X26322068Y53185031D01*
X26387903Y53195965D01*
X26449307Y53203296D01*
X26510602Y53207665D01*
X26576110Y53209713D01*
X26634128Y53210111D01*
X26803574Y53203448D01*
G36*
X30316507Y52597755D02*
X30316526Y52363338D01*
X30316552Y52150397D01*
X30316625Y51957832D01*
X30316782Y51784541D01*
X30317064Y51629424D01*
X30317509Y51491380D01*
X30318156Y51369308D01*
X30319045Y51262106D01*
X30320213Y51168674D01*
X30321701Y51087910D01*
X30323546Y51018714D01*
X30325789Y50959985D01*
X30328469Y50910621D01*
X30331623Y50869522D01*
X30335292Y50835587D01*
X30339513Y50807714D01*
X30344327Y50784802D01*
X30349773Y50765751D01*
X30355888Y50749460D01*
X30362712Y50734827D01*
X30370285Y50720751D01*
X30378645Y50706132D01*
X30383839Y50697026D01*
X30418104Y50636311D01*
X29559955Y50636311D01*
X29559955Y50732267D01*
X29559224Y50775630D01*
X29557272Y50808795D01*
X29554463Y50826576D01*
X29553221Y50828222D01*
X29541799Y50821338D01*
X29519084Y50803495D01*
X29496385Y50784121D01*
X29441800Y50743386D01*
X29372321Y50702383D01*
X29295270Y50664877D01*
X29217965Y50634636D01*
X29187113Y50624988D01*
X29118616Y50610422D01*
X29035764Y50600461D01*
X28946371Y50595417D01*
X28858248Y50595604D01*
X28779207Y50601334D01*
X28741511Y50607142D01*
X28603414Y50645203D01*
X28476113Y50702927D01*
X28360292Y50779789D01*
X28256637Y50875261D01*
X28165833Y50988821D01*
X28099031Y51099619D01*
X28044164Y51216375D01*
X28002163Y51335724D01*
X27972167Y51461717D01*
X27953311Y51598406D01*
X27944732Y51749842D01*
X27944006Y51827289D01*
X27946100Y51884066D01*
X28775217Y51884066D01*
X28775424Y51790998D01*
X28778337Y51703308D01*
X28784000Y51626228D01*
X28792455Y51564991D01*
X28795038Y51552650D01*
X28826840Y51445367D01*
X28868498Y51358342D01*
X28920363Y51291358D01*
X28982781Y51244195D01*
X29056100Y51216635D01*
X29140669Y51208459D01*
X29236835Y51219449D01*
X29300311Y51235171D01*
X29349454Y51253361D01*
X29403583Y51279209D01*
X29444244Y51302911D01*
X29514800Y51349279D01*
X29514800Y52499470D01*
X29447392Y52543038D01*
X29368867Y52583960D01*
X29284681Y52610611D01*
X29199557Y52622535D01*
X29118216Y52619278D01*
X29045380Y52600385D01*
X29013426Y52584816D01*
X28955501Y52541819D01*
X28906544Y52485047D01*
X28865390Y52412425D01*
X28830874Y52321879D01*
X28801833Y52211334D01*
X28800552Y52205467D01*
X28790381Y52143212D01*
X28782739Y52065406D01*
X28777670Y51977280D01*
X28775217Y51884066D01*
X27946100Y51884066D01*
X27951857Y52040105D01*
X27973802Y52235941D01*
X28009786Y52414668D01*
X28059759Y52576155D01*
X28123668Y52720274D01*
X28201462Y52846894D01*
X28293089Y52955885D01*
X28398497Y53047117D01*
X28443662Y53078068D01*
X28544611Y53134215D01*
X28647901Y53173826D01*
X28757989Y53197986D01*
X28879330Y53207781D01*
X28971836Y53206735D01*
X29101490Y53195769D01*
X29214084Y53173954D01*
X29312875Y53140286D01*
X29401121Y53093764D01*
X29449986Y53059552D01*
X29479353Y53037638D01*
X29501043Y53022667D01*
X29509253Y53018267D01*
X29510868Y53029096D01*
X29512159Y53059749D01*
X29513138Y53107474D01*
X29513817Y53169521D01*
X29514210Y53243138D01*
X29514330Y53325573D01*
X29514188Y53414075D01*
X29513797Y53505893D01*
X29513171Y53598276D01*
X29512320Y53688472D01*
X29511260Y53773729D01*
X29510001Y53851297D01*
X29508556Y53918424D01*
X29506938Y53972359D01*
X29505161Y54010350D01*
X29504669Y54017333D01*
X29497092Y54087749D01*
X29485531Y54142898D01*
X29467792Y54190019D01*
X29441682Y54236353D01*
X29435415Y54245933D01*
X29410983Y54282622D01*
X30316311Y54282622D01*
X30316507Y52597755D01*
X30316507Y52597755D01*
G37*
X30316507Y52597755D02*
X30316526Y52363338D01*
X30316552Y52150397D01*
X30316625Y51957832D01*
X30316782Y51784541D01*
X30317064Y51629424D01*
X30317509Y51491380D01*
X30318156Y51369308D01*
X30319045Y51262106D01*
X30320213Y51168674D01*
X30321701Y51087910D01*
X30323546Y51018714D01*
X30325789Y50959985D01*
X30328469Y50910621D01*
X30331623Y50869522D01*
X30335292Y50835587D01*
X30339513Y50807714D01*
X30344327Y50784802D01*
X30349773Y50765751D01*
X30355888Y50749460D01*
X30362712Y50734827D01*
X30370285Y50720751D01*
X30378645Y50706132D01*
X30383839Y50697026D01*
X30418104Y50636311D01*
X29559955Y50636311D01*
X29559955Y50732267D01*
X29559224Y50775630D01*
X29557272Y50808795D01*
X29554463Y50826576D01*
X29553221Y50828222D01*
X29541799Y50821338D01*
X29519084Y50803495D01*
X29496385Y50784121D01*
X29441800Y50743386D01*
X29372321Y50702383D01*
X29295270Y50664877D01*
X29217965Y50634636D01*
X29187113Y50624988D01*
X29118616Y50610422D01*
X29035764Y50600461D01*
X28946371Y50595417D01*
X28858248Y50595604D01*
X28779207Y50601334D01*
X28741511Y50607142D01*
X28603414Y50645203D01*
X28476113Y50702927D01*
X28360292Y50779789D01*
X28256637Y50875261D01*
X28165833Y50988821D01*
X28099031Y51099619D01*
X28044164Y51216375D01*
X28002163Y51335724D01*
X27972167Y51461717D01*
X27953311Y51598406D01*
X27944732Y51749842D01*
X27944006Y51827289D01*
X27946100Y51884066D01*
X28775217Y51884066D01*
X28775424Y51790998D01*
X28778337Y51703308D01*
X28784000Y51626228D01*
X28792455Y51564991D01*
X28795038Y51552650D01*
X28826840Y51445367D01*
X28868498Y51358342D01*
X28920363Y51291358D01*
X28982781Y51244195D01*
X29056100Y51216635D01*
X29140669Y51208459D01*
X29236835Y51219449D01*
X29300311Y51235171D01*
X29349454Y51253361D01*
X29403583Y51279209D01*
X29444244Y51302911D01*
X29514800Y51349279D01*
X29514800Y52499470D01*
X29447392Y52543038D01*
X29368867Y52583960D01*
X29284681Y52610611D01*
X29199557Y52622535D01*
X29118216Y52619278D01*
X29045380Y52600385D01*
X29013426Y52584816D01*
X28955501Y52541819D01*
X28906544Y52485047D01*
X28865390Y52412425D01*
X28830874Y52321879D01*
X28801833Y52211334D01*
X28800552Y52205467D01*
X28790381Y52143212D01*
X28782739Y52065406D01*
X28777670Y51977280D01*
X28775217Y51884066D01*
X27946100Y51884066D01*
X27951857Y52040105D01*
X27973802Y52235941D01*
X28009786Y52414668D01*
X28059759Y52576155D01*
X28123668Y52720274D01*
X28201462Y52846894D01*
X28293089Y52955885D01*
X28398497Y53047117D01*
X28443662Y53078068D01*
X28544611Y53134215D01*
X28647901Y53173826D01*
X28757989Y53197986D01*
X28879330Y53207781D01*
X28971836Y53206735D01*
X29101490Y53195769D01*
X29214084Y53173954D01*
X29312875Y53140286D01*
X29401121Y53093764D01*
X29449986Y53059552D01*
X29479353Y53037638D01*
X29501043Y53022667D01*
X29509253Y53018267D01*
X29510868Y53029096D01*
X29512159Y53059749D01*
X29513138Y53107474D01*
X29513817Y53169521D01*
X29514210Y53243138D01*
X29514330Y53325573D01*
X29514188Y53414075D01*
X29513797Y53505893D01*
X29513171Y53598276D01*
X29512320Y53688472D01*
X29511260Y53773729D01*
X29510001Y53851297D01*
X29508556Y53918424D01*
X29506938Y53972359D01*
X29505161Y54010350D01*
X29504669Y54017333D01*
X29497092Y54087749D01*
X29485531Y54142898D01*
X29467792Y54190019D01*
X29441682Y54236353D01*
X29435415Y54245933D01*
X29410983Y54282622D01*
X30316311Y54282622D01*
X30316507Y52597755D01*
G36*
X21856957Y55043429D02*
X21953232Y55019191D01*
X22039816Y54976359D01*
X22114627Y54916581D01*
X22175582Y54841506D01*
X22220601Y54752780D01*
X22246864Y54656470D01*
X22252714Y54559205D01*
X22237860Y54465346D01*
X22204160Y54377489D01*
X22153472Y54298230D01*
X22087655Y54230164D01*
X22008566Y54175888D01*
X21918066Y54137998D01*
X21866800Y54125574D01*
X21822302Y54118053D01*
X21788001Y54115081D01*
X21755040Y54116906D01*
X21714566Y54123775D01*
X21681469Y54130750D01*
X21588053Y54162259D01*
X21504381Y54213383D01*
X21432335Y54282571D01*
X21373800Y54368272D01*
X21359852Y54395511D01*
X21343414Y54431878D01*
X21333106Y54462418D01*
X21327540Y54494550D01*
X21325331Y54535693D01*
X21325052Y54581778D01*
X21329139Y54666135D01*
X21342554Y54735414D01*
X21367744Y54796039D01*
X21407154Y54854433D01*
X21445702Y54898698D01*
X21517594Y54964516D01*
X21592687Y55009947D01*
X21675438Y55037150D01*
X21753072Y55047424D01*
X21856957Y55043429D01*
X21856957Y55043429D01*
G37*
X21856957Y55043429D02*
X21953232Y55019191D01*
X22039816Y54976359D01*
X22114627Y54916581D01*
X22175582Y54841506D01*
X22220601Y54752780D01*
X22246864Y54656470D01*
X22252714Y54559205D01*
X22237860Y54465346D01*
X22204160Y54377489D01*
X22153472Y54298230D01*
X22087655Y54230164D01*
X22008566Y54175888D01*
X21918066Y54137998D01*
X21866800Y54125574D01*
X21822302Y54118053D01*
X21788001Y54115081D01*
X21755040Y54116906D01*
X21714566Y54123775D01*
X21681469Y54130750D01*
X21588053Y54162259D01*
X21504381Y54213383D01*
X21432335Y54282571D01*
X21373800Y54368272D01*
X21359852Y54395511D01*
X21343414Y54431878D01*
X21333106Y54462418D01*
X21327540Y54494550D01*
X21325331Y54535693D01*
X21325052Y54581778D01*
X21329139Y54666135D01*
X21342554Y54735414D01*
X21367744Y54796039D01*
X21407154Y54854433D01*
X21445702Y54898698D01*
X21517594Y54964516D01*
X21592687Y55009947D01*
X21675438Y55037150D01*
X21753072Y55047424D01*
X21856957Y55043429D01*
G36*
X20898886Y35515495D02*
X20973539Y35478273D01*
X21039431Y35409739D01*
X21057577Y35384352D01*
X21077345Y35351134D01*
X21090172Y35315055D01*
X21097510Y35266902D01*
X21100813Y35197464D01*
X21101538Y35105794D01*
X21098263Y34980170D01*
X21086877Y34885846D01*
X21065041Y34815477D01*
X21030419Y34761714D01*
X20980670Y34717212D01*
X20977014Y34714577D01*
X20927985Y34687623D01*
X20868945Y34674288D01*
X20793859Y34671000D01*
X20671795Y34671000D01*
X20671744Y34552503D01*
X20670608Y34486508D01*
X20663686Y34447798D01*
X20645598Y34424581D01*
X20610962Y34405067D01*
X20602645Y34401080D01*
X20563720Y34382397D01*
X20533583Y34370597D01*
X20511174Y34369578D01*
X20495433Y34383239D01*
X20485302Y34415478D01*
X20479723Y34470196D01*
X20477635Y34551289D01*
X20477981Y34662656D01*
X20479700Y34808198D01*
X20480237Y34851731D01*
X20482172Y35001795D01*
X20483904Y35099958D01*
X20671692Y35099958D01*
X20672748Y35016636D01*
X20677438Y34962120D01*
X20688051Y34926163D01*
X20706872Y34898518D01*
X20719650Y34885035D01*
X20771890Y34845583D01*
X20818142Y34842372D01*
X20865867Y34874951D01*
X20867077Y34876154D01*
X20886494Y34901332D01*
X20898307Y34935553D01*
X20904265Y34988252D01*
X20906120Y35068869D01*
X20906154Y35086729D01*
X20901670Y35197825D01*
X20887074Y35274839D01*
X20860650Y35321853D01*
X20820683Y35342950D01*
X20797584Y35345077D01*
X20742762Y35335100D01*
X20705158Y35302248D01*
X20682523Y35242143D01*
X20672606Y35150402D01*
X20671692Y35099958D01*
X20483904Y35099958D01*
X20484222Y35117940D01*
X20486873Y35205321D01*
X20490606Y35269095D01*
X20495907Y35314418D01*
X20503258Y35346445D01*
X20513143Y35370332D01*
X20526046Y35391236D01*
X20531579Y35399102D01*
X20604969Y35473405D01*
X20697760Y35515533D01*
X20805096Y35527278D01*
X20898886Y35515495D01*
X20898886Y35515495D01*
G37*
X20898886Y35515495D02*
X20973539Y35478273D01*
X21039431Y35409739D01*
X21057577Y35384352D01*
X21077345Y35351134D01*
X21090172Y35315055D01*
X21097510Y35266902D01*
X21100813Y35197464D01*
X21101538Y35105794D01*
X21098263Y34980170D01*
X21086877Y34885846D01*
X21065041Y34815477D01*
X21030419Y34761714D01*
X20980670Y34717212D01*
X20977014Y34714577D01*
X20927985Y34687623D01*
X20868945Y34674288D01*
X20793859Y34671000D01*
X20671795Y34671000D01*
X20671744Y34552503D01*
X20670608Y34486508D01*
X20663686Y34447798D01*
X20645598Y34424581D01*
X20610962Y34405067D01*
X20602645Y34401080D01*
X20563720Y34382397D01*
X20533583Y34370597D01*
X20511174Y34369578D01*
X20495433Y34383239D01*
X20485302Y34415478D01*
X20479723Y34470196D01*
X20477635Y34551289D01*
X20477981Y34662656D01*
X20479700Y34808198D01*
X20480237Y34851731D01*
X20482172Y35001795D01*
X20483904Y35099958D01*
X20671692Y35099958D01*
X20672748Y35016636D01*
X20677438Y34962120D01*
X20688051Y34926163D01*
X20706872Y34898518D01*
X20719650Y34885035D01*
X20771890Y34845583D01*
X20818142Y34842372D01*
X20865867Y34874951D01*
X20867077Y34876154D01*
X20886494Y34901332D01*
X20898307Y34935553D01*
X20904265Y34988252D01*
X20906120Y35068869D01*
X20906154Y35086729D01*
X20901670Y35197825D01*
X20887074Y35274839D01*
X20860650Y35321853D01*
X20820683Y35342950D01*
X20797584Y35345077D01*
X20742762Y35335100D01*
X20705158Y35302248D01*
X20682523Y35242143D01*
X20672606Y35150402D01*
X20671692Y35099958D01*
X20483904Y35099958D01*
X20484222Y35117940D01*
X20486873Y35205321D01*
X20490606Y35269095D01*
X20495907Y35314418D01*
X20503258Y35346445D01*
X20513143Y35370332D01*
X20526046Y35391236D01*
X20531579Y35399102D01*
X20604969Y35473405D01*
X20697760Y35515533D01*
X20805096Y35527278D01*
X20898886Y35515495D01*
G36*
X22401664Y35504911D02*
X22464367Y35468642D01*
X22507961Y35432642D01*
X22539845Y35394925D01*
X22561810Y35348801D01*
X22575649Y35287579D01*
X22583153Y35204569D01*
X22586117Y35093081D01*
X22586461Y35012938D01*
X22586461Y34717935D01*
X22420385Y34643485D01*
X22410615Y34966598D01*
X22406579Y35087271D01*
X22402344Y35174859D01*
X22397097Y35235350D01*
X22390025Y35274732D01*
X22380311Y35298993D01*
X22367144Y35314120D01*
X22362919Y35317394D01*
X22298909Y35342966D01*
X22234208Y35332847D01*
X22195692Y35306000D01*
X22180025Y35286976D01*
X22169180Y35262012D01*
X22162288Y35224166D01*
X22158479Y35166498D01*
X22156883Y35082065D01*
X22156615Y34994072D01*
X22156563Y34883677D01*
X22154672Y34805537D01*
X22148345Y34752835D01*
X22134983Y34718758D01*
X22111985Y34696489D01*
X22076754Y34679213D01*
X22029697Y34661262D01*
X21978303Y34641722D01*
X21984421Y34988515D01*
X21986884Y35113532D01*
X21989767Y35205918D01*
X21993898Y35272119D01*
X22000107Y35318580D01*
X22009226Y35351744D01*
X22022083Y35378056D01*
X22037584Y35401271D01*
X22112371Y35475431D01*
X22203628Y35518316D01*
X22302883Y35528588D01*
X22401664Y35504911D01*
X22401664Y35504911D01*
G37*
X22401664Y35504911D02*
X22464367Y35468642D01*
X22507961Y35432642D01*
X22539845Y35394925D01*
X22561810Y35348801D01*
X22575649Y35287579D01*
X22583153Y35204569D01*
X22586117Y35093081D01*
X22586461Y35012938D01*
X22586461Y34717935D01*
X22420385Y34643485D01*
X22410615Y34966598D01*
X22406579Y35087271D01*
X22402344Y35174859D01*
X22397097Y35235350D01*
X22390025Y35274732D01*
X22380311Y35298993D01*
X22367144Y35314120D01*
X22362919Y35317394D01*
X22298909Y35342966D01*
X22234208Y35332847D01*
X22195692Y35306000D01*
X22180025Y35286976D01*
X22169180Y35262012D01*
X22162288Y35224166D01*
X22158479Y35166498D01*
X22156883Y35082065D01*
X22156615Y34994072D01*
X22156563Y34883677D01*
X22154672Y34805537D01*
X22148345Y34752835D01*
X22134983Y34718758D01*
X22111985Y34696489D01*
X22076754Y34679213D01*
X22029697Y34661262D01*
X21978303Y34641722D01*
X21984421Y34988515D01*
X21986884Y35113532D01*
X21989767Y35205918D01*
X21993898Y35272119D01*
X22000107Y35318580D01*
X22009226Y35351744D01*
X22022083Y35378056D01*
X22037584Y35401271D01*
X22112371Y35475431D01*
X22203628Y35518316D01*
X22302883Y35528588D01*
X22401664Y35504911D01*
G36*
X20146886Y35512744D02*
X20238464Y35464591D01*
X20306049Y35387095D01*
X20330057Y35337273D01*
X20348738Y35262467D01*
X20358301Y35167948D01*
X20359208Y35064790D01*
X20351921Y34964065D01*
X20336903Y34876847D01*
X20314615Y34814209D01*
X20307765Y34803421D01*
X20226632Y34722895D01*
X20130266Y34674664D01*
X20025701Y34660550D01*
X19919968Y34682371D01*
X19890543Y34695453D01*
X19833241Y34735769D01*
X19782950Y34789225D01*
X19778197Y34796005D01*
X19758878Y34828679D01*
X19746108Y34863606D01*
X19738564Y34909586D01*
X19734924Y34975416D01*
X19733865Y35069895D01*
X19733846Y35091077D01*
X19733894Y35097818D01*
X19929231Y35097818D01*
X19930368Y35008651D01*
X19934841Y34949480D01*
X19944246Y34911259D01*
X19960176Y34884947D01*
X19968308Y34876154D01*
X20015058Y34842739D01*
X20060447Y34844263D01*
X20106340Y34873248D01*
X20133712Y34904191D01*
X20149923Y34949357D01*
X20159026Y35020580D01*
X20159651Y35028886D01*
X20161204Y35157963D01*
X20144965Y35253828D01*
X20111152Y35315893D01*
X20059984Y35343568D01*
X20041720Y35345077D01*
X19993760Y35337487D01*
X19960953Y35311192D01*
X19940895Y35260905D01*
X19931178Y35181336D01*
X19929231Y35097818D01*
X19733894Y35097818D01*
X19734574Y35191751D01*
X19737629Y35262094D01*
X19744322Y35310837D01*
X19755960Y35346712D01*
X19773853Y35378452D01*
X19777808Y35384352D01*
X19844267Y35463896D01*
X19916685Y35510071D01*
X20004849Y35528401D01*
X20034787Y35529297D01*
X20146886Y35512744D01*
X20146886Y35512744D01*
G37*
X20146886Y35512744D02*
X20238464Y35464591D01*
X20306049Y35387095D01*
X20330057Y35337273D01*
X20348738Y35262467D01*
X20358301Y35167948D01*
X20359208Y35064790D01*
X20351921Y34964065D01*
X20336903Y34876847D01*
X20314615Y34814209D01*
X20307765Y34803421D01*
X20226632Y34722895D01*
X20130266Y34674664D01*
X20025701Y34660550D01*
X19919968Y34682371D01*
X19890543Y34695453D01*
X19833241Y34735769D01*
X19782950Y34789225D01*
X19778197Y34796005D01*
X19758878Y34828679D01*
X19746108Y34863606D01*
X19738564Y34909586D01*
X19734924Y34975416D01*
X19733865Y35069895D01*
X19733846Y35091077D01*
X19733894Y35097818D01*
X19929231Y35097818D01*
X19930368Y35008651D01*
X19934841Y34949480D01*
X19944246Y34911259D01*
X19960176Y34884947D01*
X19968308Y34876154D01*
X20015058Y34842739D01*
X20060447Y34844263D01*
X20106340Y34873248D01*
X20133712Y34904191D01*
X20149923Y34949357D01*
X20159026Y35020580D01*
X20159651Y35028886D01*
X20161204Y35157963D01*
X20144965Y35253828D01*
X20111152Y35315893D01*
X20059984Y35343568D01*
X20041720Y35345077D01*
X19993760Y35337487D01*
X19960953Y35311192D01*
X19940895Y35260905D01*
X19931178Y35181336D01*
X19929231Y35097818D01*
X19733894Y35097818D01*
X19734574Y35191751D01*
X19737629Y35262094D01*
X19744322Y35310837D01*
X19755960Y35346712D01*
X19773853Y35378452D01*
X19777808Y35384352D01*
X19844267Y35463896D01*
X19916685Y35510071D01*
X20004849Y35528401D01*
X20034787Y35529297D01*
X20146886Y35512744D01*
G36*
X21664254Y35500255D02*
X21741286Y35448433D01*
X21800816Y35373588D01*
X21836378Y35278346D01*
X21843571Y35208244D01*
X21842754Y35178991D01*
X21835914Y35156593D01*
X21817112Y35136526D01*
X21780408Y35114267D01*
X21719862Y35085291D01*
X21629534Y35045073D01*
X21629077Y35044871D01*
X21545933Y35006790D01*
X21477753Y34972975D01*
X21431505Y34947067D01*
X21414158Y34932705D01*
X21414154Y34932589D01*
X21429443Y34901315D01*
X21465196Y34866843D01*
X21506242Y34842010D01*
X21527037Y34837077D01*
X21583770Y34854138D01*
X21632627Y34896867D01*
X21656465Y34943845D01*
X21679397Y34978478D01*
X21724318Y35017919D01*
X21777123Y35051991D01*
X21823710Y35070520D01*
X21833452Y35071538D01*
X21844418Y35054785D01*
X21845079Y35011961D01*
X21837020Y34954219D01*
X21821827Y34892711D01*
X21801086Y34838591D01*
X21800038Y34836490D01*
X21737621Y34749340D01*
X21656726Y34690061D01*
X21564856Y34660966D01*
X21469513Y34664366D01*
X21378198Y34702572D01*
X21374138Y34705259D01*
X21302306Y34770358D01*
X21255073Y34855295D01*
X21228934Y34966979D01*
X21225426Y34998357D01*
X21219213Y35146464D01*
X21226661Y35215532D01*
X21414154Y35215532D01*
X21416590Y35172448D01*
X21429914Y35159874D01*
X21463132Y35169281D01*
X21515494Y35191517D01*
X21574024Y35219390D01*
X21575479Y35220128D01*
X21625089Y35246223D01*
X21645000Y35263637D01*
X21640090Y35281893D01*
X21619416Y35305880D01*
X21566819Y35340594D01*
X21510177Y35343144D01*
X21459369Y35317881D01*
X21424276Y35269153D01*
X21414154Y35215532D01*
X21226661Y35215532D01*
X21231992Y35264964D01*
X21264778Y35358945D01*
X21310421Y35424785D01*
X21392802Y35491319D01*
X21483546Y35524324D01*
X21576185Y35526427D01*
X21664254Y35500255D01*
X21664254Y35500255D01*
G37*
X21664254Y35500255D02*
X21741286Y35448433D01*
X21800816Y35373588D01*
X21836378Y35278346D01*
X21843571Y35208244D01*
X21842754Y35178991D01*
X21835914Y35156593D01*
X21817112Y35136526D01*
X21780408Y35114267D01*
X21719862Y35085291D01*
X21629534Y35045073D01*
X21629077Y35044871D01*
X21545933Y35006790D01*
X21477753Y34972975D01*
X21431505Y34947067D01*
X21414158Y34932705D01*
X21414154Y34932589D01*
X21429443Y34901315D01*
X21465196Y34866843D01*
X21506242Y34842010D01*
X21527037Y34837077D01*
X21583770Y34854138D01*
X21632627Y34896867D01*
X21656465Y34943845D01*
X21679397Y34978478D01*
X21724318Y35017919D01*
X21777123Y35051991D01*
X21823710Y35070520D01*
X21833452Y35071538D01*
X21844418Y35054785D01*
X21845079Y35011961D01*
X21837020Y34954219D01*
X21821827Y34892711D01*
X21801086Y34838591D01*
X21800038Y34836490D01*
X21737621Y34749340D01*
X21656726Y34690061D01*
X21564856Y34660966D01*
X21469513Y34664366D01*
X21378198Y34702572D01*
X21374138Y34705259D01*
X21302306Y34770358D01*
X21255073Y34855295D01*
X21228934Y34966979D01*
X21225426Y34998357D01*
X21219213Y35146464D01*
X21226661Y35215532D01*
X21414154Y35215532D01*
X21416590Y35172448D01*
X21429914Y35159874D01*
X21463132Y35169281D01*
X21515494Y35191517D01*
X21574024Y35219390D01*
X21575479Y35220128D01*
X21625089Y35246223D01*
X21645000Y35263637D01*
X21640090Y35281893D01*
X21619416Y35305880D01*
X21566819Y35340594D01*
X21510177Y35343144D01*
X21459369Y35317881D01*
X21424276Y35269153D01*
X21414154Y35215532D01*
X21226661Y35215532D01*
X21231992Y35264964D01*
X21264778Y35358945D01*
X21310421Y35424785D01*
X21392802Y35491319D01*
X21483546Y35524324D01*
X21576185Y35526427D01*
X21664254Y35500255D01*
G36*
X23289846Y35607880D02*
X23295572Y35528020D01*
X23302149Y35480961D01*
X23311262Y35460434D01*
X23324598Y35460171D01*
X23328923Y35462622D01*
X23386444Y35480364D01*
X23461268Y35479328D01*
X23537339Y35461090D01*
X23584918Y35437495D01*
X23633702Y35399802D01*
X23669364Y35357145D01*
X23693845Y35302943D01*
X23709087Y35230616D01*
X23717030Y35133581D01*
X23719616Y35005258D01*
X23719662Y34980642D01*
X23719692Y34704130D01*
X23658161Y34682680D01*
X23614459Y34668088D01*
X23590482Y34661294D01*
X23589777Y34661231D01*
X23587415Y34679655D01*
X23585406Y34730474D01*
X23583901Y34807007D01*
X23583053Y34902570D01*
X23582923Y34960671D01*
X23582651Y35075229D01*
X23581252Y35157333D01*
X23577849Y35213607D01*
X23571567Y35250674D01*
X23561529Y35275156D01*
X23546861Y35293675D01*
X23537702Y35302594D01*
X23474789Y35338534D01*
X23406136Y35341225D01*
X23343848Y35310830D01*
X23332329Y35299856D01*
X23315433Y35279221D01*
X23303714Y35254744D01*
X23296233Y35219353D01*
X23292054Y35165974D01*
X23290237Y35087534D01*
X23289846Y34979383D01*
X23289846Y34704130D01*
X23228315Y34682680D01*
X23184613Y34668088D01*
X23160636Y34661294D01*
X23159930Y34661231D01*
X23158126Y34679931D01*
X23156500Y34732678D01*
X23155117Y34814443D01*
X23154042Y34920195D01*
X23153340Y35044906D01*
X23153077Y35183545D01*
X23153077Y35718194D01*
X23280077Y35771764D01*
X23289846Y35607880D01*
X23289846Y35607880D01*
G37*
X23289846Y35607880D02*
X23295572Y35528020D01*
X23302149Y35480961D01*
X23311262Y35460434D01*
X23324598Y35460171D01*
X23328923Y35462622D01*
X23386444Y35480364D01*
X23461268Y35479328D01*
X23537339Y35461090D01*
X23584918Y35437495D01*
X23633702Y35399802D01*
X23669364Y35357145D01*
X23693845Y35302943D01*
X23709087Y35230616D01*
X23717030Y35133581D01*
X23719616Y35005258D01*
X23719662Y34980642D01*
X23719692Y34704130D01*
X23658161Y34682680D01*
X23614459Y34668088D01*
X23590482Y34661294D01*
X23589777Y34661231D01*
X23587415Y34679655D01*
X23585406Y34730474D01*
X23583901Y34807007D01*
X23583053Y34902570D01*
X23582923Y34960671D01*
X23582651Y35075229D01*
X23581252Y35157333D01*
X23577849Y35213607D01*
X23571567Y35250674D01*
X23561529Y35275156D01*
X23546861Y35293675D01*
X23537702Y35302594D01*
X23474789Y35338534D01*
X23406136Y35341225D01*
X23343848Y35310830D01*
X23332329Y35299856D01*
X23315433Y35279221D01*
X23303714Y35254744D01*
X23296233Y35219353D01*
X23292054Y35165974D01*
X23290237Y35087534D01*
X23289846Y34979383D01*
X23289846Y34704130D01*
X23228315Y34682680D01*
X23184613Y34668088D01*
X23160636Y34661294D01*
X23159930Y34661231D01*
X23158126Y34679931D01*
X23156500Y34732678D01*
X23155117Y34814443D01*
X23154042Y34920195D01*
X23153340Y35044906D01*
X23153077Y35183545D01*
X23153077Y35718194D01*
X23280077Y35771764D01*
X23289846Y35607880D01*
G36*
X24183501Y35473697D02*
X24260060Y35445267D01*
X24260936Y35444721D01*
X24308285Y35409873D01*
X24343241Y35369148D01*
X24367825Y35316075D01*
X24384062Y35244186D01*
X24393975Y35147008D01*
X24399586Y35018072D01*
X24400077Y34999702D01*
X24407141Y34722713D01*
X24347695Y34691972D01*
X24304681Y34671198D01*
X24278710Y34661354D01*
X24277509Y34661231D01*
X24273014Y34679394D01*
X24269444Y34728388D01*
X24267248Y34799969D01*
X24266769Y34857932D01*
X24266758Y34951830D01*
X24262466Y35010797D01*
X24247503Y35038921D01*
X24215482Y35040294D01*
X24160014Y35019002D01*
X24076269Y34979864D01*
X24014689Y34947357D01*
X23983017Y34919155D01*
X23973706Y34888418D01*
X23973692Y34886896D01*
X23989057Y34833946D01*
X24034547Y34805340D01*
X24104166Y34801197D01*
X24154313Y34801916D01*
X24180754Y34787473D01*
X24197243Y34752782D01*
X24206733Y34708584D01*
X24193057Y34683507D01*
X24187907Y34679918D01*
X24139425Y34665504D01*
X24071531Y34663463D01*
X24001612Y34673017D01*
X23952068Y34690478D01*
X23883570Y34748636D01*
X23844634Y34829592D01*
X23836923Y34892840D01*
X23842807Y34949889D01*
X23864101Y34996458D01*
X23906265Y35037819D01*
X23974759Y35079245D01*
X24075044Y35126007D01*
X24081154Y35128650D01*
X24171490Y35170383D01*
X24227235Y35204609D01*
X24251129Y35235365D01*
X24245913Y35266689D01*
X24214328Y35302617D01*
X24204883Y35310884D01*
X24141617Y35342942D01*
X24076064Y35341593D01*
X24018972Y35310162D01*
X23981093Y35251976D01*
X23977574Y35240554D01*
X23943300Y35185163D01*
X23899809Y35158482D01*
X23836923Y35132040D01*
X23836923Y35200452D01*
X23856052Y35299890D01*
X23912831Y35391098D01*
X23942378Y35421611D01*
X24009542Y35460772D01*
X24094956Y35478500D01*
X24183501Y35473697D01*
X24183501Y35473697D01*
G37*
X24183501Y35473697D02*
X24260060Y35445267D01*
X24260936Y35444721D01*
X24308285Y35409873D01*
X24343241Y35369148D01*
X24367825Y35316075D01*
X24384062Y35244186D01*
X24393975Y35147008D01*
X24399586Y35018072D01*
X24400077Y34999702D01*
X24407141Y34722713D01*
X24347695Y34691972D01*
X24304681Y34671198D01*
X24278710Y34661354D01*
X24277509Y34661231D01*
X24273014Y34679394D01*
X24269444Y34728388D01*
X24267248Y34799969D01*
X24266769Y34857932D01*
X24266758Y34951830D01*
X24262466Y35010797D01*
X24247503Y35038921D01*
X24215482Y35040294D01*
X24160014Y35019002D01*
X24076269Y34979864D01*
X24014689Y34947357D01*
X23983017Y34919155D01*
X23973706Y34888418D01*
X23973692Y34886896D01*
X23989057Y34833946D01*
X24034547Y34805340D01*
X24104166Y34801197D01*
X24154313Y34801916D01*
X24180754Y34787473D01*
X24197243Y34752782D01*
X24206733Y34708584D01*
X24193057Y34683507D01*
X24187907Y34679918D01*
X24139425Y34665504D01*
X24071531Y34663463D01*
X24001612Y34673017D01*
X23952068Y34690478D01*
X23883570Y34748636D01*
X23844634Y34829592D01*
X23836923Y34892840D01*
X23842807Y34949889D01*
X23864101Y34996458D01*
X23906265Y35037819D01*
X23974759Y35079245D01*
X24075044Y35126007D01*
X24081154Y35128650D01*
X24171490Y35170383D01*
X24227235Y35204609D01*
X24251129Y35235365D01*
X24245913Y35266689D01*
X24214328Y35302617D01*
X24204883Y35310884D01*
X24141617Y35342942D01*
X24076064Y35341593D01*
X24018972Y35310162D01*
X23981093Y35251976D01*
X23977574Y35240554D01*
X23943300Y35185163D01*
X23899809Y35158482D01*
X23836923Y35132040D01*
X23836923Y35200452D01*
X23856052Y35299890D01*
X23912831Y35391098D01*
X23942378Y35421611D01*
X24009542Y35460772D01*
X24094956Y35478500D01*
X24183501Y35473697D01*
G36*
X24843362Y35475330D02*
X24932117Y35442579D01*
X25004022Y35384650D01*
X25032144Y35343872D01*
X25062802Y35269046D01*
X25062165Y35214942D01*
X25029987Y35178554D01*
X25018081Y35172367D01*
X24966675Y35153075D01*
X24940422Y35158018D01*
X24931530Y35190413D01*
X24931077Y35208308D01*
X24914797Y35274141D01*
X24872365Y35320193D01*
X24813388Y35342436D01*
X24747475Y35336839D01*
X24693895Y35307771D01*
X24675798Y35291190D01*
X24662971Y35271075D01*
X24654306Y35240668D01*
X24648696Y35193212D01*
X24645035Y35121950D01*
X24642215Y35020125D01*
X24641484Y34987885D01*
X24638820Y34877590D01*
X24635792Y34799964D01*
X24631250Y34748604D01*
X24624046Y34717110D01*
X24613033Y34699080D01*
X24597060Y34688112D01*
X24586834Y34683267D01*
X24543406Y34666699D01*
X24517842Y34661231D01*
X24509395Y34679493D01*
X24504239Y34734704D01*
X24502346Y34827501D01*
X24503689Y34958522D01*
X24504107Y34978731D01*
X24507058Y35098267D01*
X24510548Y35185551D01*
X24515514Y35247409D01*
X24522893Y35290664D01*
X24533624Y35322140D01*
X24548645Y35348661D01*
X24556502Y35360025D01*
X24601553Y35410308D01*
X24651940Y35449419D01*
X24658108Y35452833D01*
X24748458Y35479788D01*
X24843362Y35475330D01*
X24843362Y35475330D01*
G37*
X24843362Y35475330D02*
X24932117Y35442579D01*
X25004022Y35384650D01*
X25032144Y35343872D01*
X25062802Y35269046D01*
X25062165Y35214942D01*
X25029987Y35178554D01*
X25018081Y35172367D01*
X24966675Y35153075D01*
X24940422Y35158018D01*
X24931530Y35190413D01*
X24931077Y35208308D01*
X24914797Y35274141D01*
X24872365Y35320193D01*
X24813388Y35342436D01*
X24747475Y35336839D01*
X24693895Y35307771D01*
X24675798Y35291190D01*
X24662971Y35271075D01*
X24654306Y35240668D01*
X24648696Y35193212D01*
X24645035Y35121950D01*
X24642215Y35020125D01*
X24641484Y34987885D01*
X24638820Y34877590D01*
X24635792Y34799964D01*
X24631250Y34748604D01*
X24624046Y34717110D01*
X24613033Y34699080D01*
X24597060Y34688112D01*
X24586834Y34683267D01*
X24543406Y34666699D01*
X24517842Y34661231D01*
X24509395Y34679493D01*
X24504239Y34734704D01*
X24502346Y34827501D01*
X24503689Y34958522D01*
X24504107Y34978731D01*
X24507058Y35098267D01*
X24510548Y35185551D01*
X24515514Y35247409D01*
X24522893Y35290664D01*
X24533624Y35322140D01*
X24548645Y35348661D01*
X24556502Y35360025D01*
X24601553Y35410308D01*
X24651940Y35449419D01*
X24658108Y35452833D01*
X24748458Y35479788D01*
X24843362Y35475330D01*
G36*
X25732081Y35319711D02*
X25731833Y35173680D01*
X25730872Y35061345D01*
X25728794Y34977322D01*
X25725193Y34916231D01*
X25719665Y34872691D01*
X25711804Y34841321D01*
X25701207Y34816738D01*
X25693182Y34802706D01*
X25626728Y34726612D01*
X25542470Y34678916D01*
X25449249Y34661801D01*
X25355900Y34677454D01*
X25300312Y34705582D01*
X25241957Y34754240D01*
X25202186Y34813667D01*
X25178190Y34891493D01*
X25167161Y34995348D01*
X25165599Y35071538D01*
X25165809Y35077014D01*
X25302308Y35077014D01*
X25303141Y34989645D01*
X25306961Y34931808D01*
X25315746Y34893971D01*
X25331474Y34866602D01*
X25350266Y34845958D01*
X25413375Y34806110D01*
X25481137Y34802705D01*
X25545179Y34835975D01*
X25550164Y34840483D01*
X25571439Y34863933D01*
X25584779Y34891834D01*
X25592001Y34933359D01*
X25594923Y34997684D01*
X25595385Y35068800D01*
X25594383Y35158142D01*
X25590238Y35217742D01*
X25581236Y35256911D01*
X25565667Y35284960D01*
X25552902Y35299856D01*
X25493600Y35337425D01*
X25425301Y35341943D01*
X25360110Y35313247D01*
X25347528Y35302594D01*
X25326111Y35278937D01*
X25312744Y35250749D01*
X25305566Y35208755D01*
X25302719Y35143681D01*
X25302308Y35077014D01*
X25165809Y35077014D01*
X25170322Y35194235D01*
X25186362Y35286423D01*
X25216528Y35355731D01*
X25263629Y35409789D01*
X25300312Y35437495D01*
X25366990Y35467428D01*
X25444272Y35481322D01*
X25516110Y35477603D01*
X25556308Y35462600D01*
X25572082Y35458330D01*
X25582550Y35474250D01*
X25589856Y35516911D01*
X25595385Y35581894D01*
X25601437Y35654268D01*
X25609844Y35697813D01*
X25625141Y35722713D01*
X25651864Y35739155D01*
X25668654Y35746436D01*
X25732154Y35773037D01*
X25732081Y35319711D01*
X25732081Y35319711D01*
G37*
X25732081Y35319711D02*
X25731833Y35173680D01*
X25730872Y35061345D01*
X25728794Y34977322D01*
X25725193Y34916231D01*
X25719665Y34872691D01*
X25711804Y34841321D01*
X25701207Y34816738D01*
X25693182Y34802706D01*
X25626728Y34726612D01*
X25542470Y34678916D01*
X25449249Y34661801D01*
X25355900Y34677454D01*
X25300312Y34705582D01*
X25241957Y34754240D01*
X25202186Y34813667D01*
X25178190Y34891493D01*
X25167161Y34995348D01*
X25165599Y35071538D01*
X25165809Y35077014D01*
X25302308Y35077014D01*
X25303141Y34989645D01*
X25306961Y34931808D01*
X25315746Y34893971D01*
X25331474Y34866602D01*
X25350266Y34845958D01*
X25413375Y34806110D01*
X25481137Y34802705D01*
X25545179Y34835975D01*
X25550164Y34840483D01*
X25571439Y34863933D01*
X25584779Y34891834D01*
X25592001Y34933359D01*
X25594923Y34997684D01*
X25595385Y35068800D01*
X25594383Y35158142D01*
X25590238Y35217742D01*
X25581236Y35256911D01*
X25565667Y35284960D01*
X25552902Y35299856D01*
X25493600Y35337425D01*
X25425301Y35341943D01*
X25360110Y35313247D01*
X25347528Y35302594D01*
X25326111Y35278937D01*
X25312744Y35250749D01*
X25305566Y35208755D01*
X25302719Y35143681D01*
X25302308Y35077014D01*
X25165809Y35077014D01*
X25170322Y35194235D01*
X25186362Y35286423D01*
X25216528Y35355731D01*
X25263629Y35409789D01*
X25300312Y35437495D01*
X25366990Y35467428D01*
X25444272Y35481322D01*
X25516110Y35477603D01*
X25556308Y35462600D01*
X25572082Y35458330D01*
X25582550Y35474250D01*
X25589856Y35516911D01*
X25595385Y35581894D01*
X25601437Y35654268D01*
X25609844Y35697813D01*
X25625141Y35722713D01*
X25651864Y35739155D01*
X25668654Y35746436D01*
X25732154Y35773037D01*
X25732081Y35319711D01*
G36*
X26525929Y35463338D02*
X26528911Y35411932D01*
X26531247Y35333808D01*
X26532749Y35235143D01*
X26533231Y35131657D01*
X26533231Y34781467D01*
X26471401Y34719637D01*
X26428793Y34681538D01*
X26391390Y34666105D01*
X26340270Y34667082D01*
X26319978Y34669567D01*
X26256554Y34676800D01*
X26204095Y34680945D01*
X26191308Y34681328D01*
X26148199Y34678824D01*
X26086544Y34672538D01*
X26062638Y34669567D01*
X26003922Y34664972D01*
X25964464Y34674954D01*
X25925338Y34705772D01*
X25911215Y34719637D01*
X25849385Y34781467D01*
X25849385Y35436497D01*
X25899150Y35459171D01*
X25942002Y35475966D01*
X25967073Y35481846D01*
X25973501Y35463264D01*
X25979509Y35411345D01*
X25984697Y35331828D01*
X25988664Y35230454D01*
X25990577Y35144808D01*
X25995923Y34807769D01*
X26042560Y34801175D01*
X26084976Y34805786D01*
X26105760Y34820713D01*
X26111570Y34848623D01*
X26116530Y34908075D01*
X26120246Y34991534D01*
X26122324Y35091468D01*
X26122624Y35142896D01*
X26122923Y35438946D01*
X26184454Y35460396D01*
X26228004Y35474980D01*
X26251694Y35481781D01*
X26252377Y35481846D01*
X26254754Y35463358D01*
X26257366Y35412094D01*
X26259995Y35334351D01*
X26262421Y35236426D01*
X26264115Y35144808D01*
X26269461Y34807769D01*
X26386692Y34807769D01*
X26392072Y35115254D01*
X26397451Y35422739D01*
X26454601Y35452293D01*
X26496797Y35472587D01*
X26521770Y35481796D01*
X26522491Y35481846D01*
X26525929Y35463338D01*
X26525929Y35463338D01*
G37*
X26525929Y35463338D02*
X26528911Y35411932D01*
X26531247Y35333808D01*
X26532749Y35235143D01*
X26533231Y35131657D01*
X26533231Y34781467D01*
X26471401Y34719637D01*
X26428793Y34681538D01*
X26391390Y34666105D01*
X26340270Y34667082D01*
X26319978Y34669567D01*
X26256554Y34676800D01*
X26204095Y34680945D01*
X26191308Y34681328D01*
X26148199Y34678824D01*
X26086544Y34672538D01*
X26062638Y34669567D01*
X26003922Y34664972D01*
X25964464Y34674954D01*
X25925338Y34705772D01*
X25911215Y34719637D01*
X25849385Y34781467D01*
X25849385Y35436497D01*
X25899150Y35459171D01*
X25942002Y35475966D01*
X25967073Y35481846D01*
X25973501Y35463264D01*
X25979509Y35411345D01*
X25984697Y35331828D01*
X25988664Y35230454D01*
X25990577Y35144808D01*
X25995923Y34807769D01*
X26042560Y34801175D01*
X26084976Y34805786D01*
X26105760Y34820713D01*
X26111570Y34848623D01*
X26116530Y34908075D01*
X26120246Y34991534D01*
X26122324Y35091468D01*
X26122624Y35142896D01*
X26122923Y35438946D01*
X26184454Y35460396D01*
X26228004Y35474980D01*
X26251694Y35481781D01*
X26252377Y35481846D01*
X26254754Y35463358D01*
X26257366Y35412094D01*
X26259995Y35334351D01*
X26262421Y35236426D01*
X26264115Y35144808D01*
X26269461Y34807769D01*
X26386692Y34807769D01*
X26392072Y35115254D01*
X26397451Y35422739D01*
X26454601Y35452293D01*
X26496797Y35472587D01*
X26521770Y35481796D01*
X26522491Y35481846D01*
X26525929Y35463338D01*
G36*
X27017333Y35466472D02*
X27073590Y35440883D01*
X27117747Y35409876D01*
X27150101Y35375205D01*
X27172438Y35330480D01*
X27186546Y35269308D01*
X27194211Y35185299D01*
X27197220Y35072060D01*
X27197538Y34997491D01*
X27197538Y34706580D01*
X27147773Y34683905D01*
X27108576Y34667333D01*
X27089157Y34661231D01*
X27085442Y34679390D01*
X27082495Y34728352D01*
X27080691Y34799847D01*
X27080308Y34856615D01*
X27078661Y34938629D01*
X27074222Y35003691D01*
X27067740Y35043533D01*
X27062590Y35052000D01*
X27027977Y35043354D01*
X26973640Y35021177D01*
X26910722Y34991114D01*
X26850368Y34958808D01*
X26803721Y34929902D01*
X26781926Y34910039D01*
X26781839Y34909825D01*
X26783714Y34873065D01*
X26800525Y34837974D01*
X26830039Y34809472D01*
X26873116Y34799939D01*
X26909932Y34801050D01*
X26962074Y34801867D01*
X26989444Y34789651D01*
X27005882Y34757376D01*
X27007955Y34751290D01*
X27015081Y34705261D01*
X26996024Y34677313D01*
X26946353Y34663993D01*
X26892697Y34661530D01*
X26796142Y34679790D01*
X26746159Y34705869D01*
X26684429Y34767132D01*
X26651690Y34842330D01*
X26648753Y34921789D01*
X26676424Y34995833D01*
X26718047Y35042231D01*
X26759604Y35068207D01*
X26824922Y35101093D01*
X26901038Y35134443D01*
X26913726Y35139539D01*
X26997333Y35176435D01*
X27045530Y35208954D01*
X27061030Y35241282D01*
X27046550Y35277606D01*
X27021692Y35306000D01*
X26962939Y35340961D01*
X26898293Y35343583D01*
X26839008Y35316642D01*
X26796339Y35262912D01*
X26790739Y35249050D01*
X26758133Y35198064D01*
X26710530Y35160213D01*
X26650461Y35129150D01*
X26650461Y35217232D01*
X26653997Y35271049D01*
X26669156Y35313466D01*
X26702768Y35358721D01*
X26735035Y35393580D01*
X26785209Y35442938D01*
X26824193Y35469453D01*
X26866064Y35480089D01*
X26913460Y35481846D01*
X27017333Y35466472D01*
X27017333Y35466472D01*
G37*
X27017333Y35466472D02*
X27073590Y35440883D01*
X27117747Y35409876D01*
X27150101Y35375205D01*
X27172438Y35330480D01*
X27186546Y35269308D01*
X27194211Y35185299D01*
X27197220Y35072060D01*
X27197538Y34997491D01*
X27197538Y34706580D01*
X27147773Y34683905D01*
X27108576Y34667333D01*
X27089157Y34661231D01*
X27085442Y34679390D01*
X27082495Y34728352D01*
X27080691Y34799847D01*
X27080308Y34856615D01*
X27078661Y34938629D01*
X27074222Y35003691D01*
X27067740Y35043533D01*
X27062590Y35052000D01*
X27027977Y35043354D01*
X26973640Y35021177D01*
X26910722Y34991114D01*
X26850368Y34958808D01*
X26803721Y34929902D01*
X26781926Y34910039D01*
X26781839Y34909825D01*
X26783714Y34873065D01*
X26800525Y34837974D01*
X26830039Y34809472D01*
X26873116Y34799939D01*
X26909932Y34801050D01*
X26962074Y34801867D01*
X26989444Y34789651D01*
X27005882Y34757376D01*
X27007955Y34751290D01*
X27015081Y34705261D01*
X26996024Y34677313D01*
X26946353Y34663993D01*
X26892697Y34661530D01*
X26796142Y34679790D01*
X26746159Y34705869D01*
X26684429Y34767132D01*
X26651690Y34842330D01*
X26648753Y34921789D01*
X26676424Y34995833D01*
X26718047Y35042231D01*
X26759604Y35068207D01*
X26824922Y35101093D01*
X26901038Y35134443D01*
X26913726Y35139539D01*
X26997333Y35176435D01*
X27045530Y35208954D01*
X27061030Y35241282D01*
X27046550Y35277606D01*
X27021692Y35306000D01*
X26962939Y35340961D01*
X26898293Y35343583D01*
X26839008Y35316642D01*
X26796339Y35262912D01*
X26790739Y35249050D01*
X26758133Y35198064D01*
X26710530Y35160213D01*
X26650461Y35129150D01*
X26650461Y35217232D01*
X26653997Y35271049D01*
X26669156Y35313466D01*
X26702768Y35358721D01*
X26735035Y35393580D01*
X26785209Y35442938D01*
X26824193Y35469453D01*
X26866064Y35480089D01*
X26913460Y35481846D01*
X27017333Y35466472D01*
G36*
X27700807Y35463218D02*
X27724161Y35453012D01*
X27779902Y35408866D01*
X27827569Y35345033D01*
X27857048Y35276913D01*
X27861846Y35243330D01*
X27845760Y35196444D01*
X27810475Y35171635D01*
X27772644Y35156613D01*
X27755321Y35153845D01*
X27746886Y35173934D01*
X27730230Y35217649D01*
X27722923Y35237402D01*
X27681948Y35305729D01*
X27622622Y35339809D01*
X27546552Y35338761D01*
X27540918Y35337419D01*
X27500305Y35318164D01*
X27470448Y35280625D01*
X27450055Y35220191D01*
X27437836Y35132249D01*
X27432500Y35012187D01*
X27432000Y34948302D01*
X27431752Y34847597D01*
X27430126Y34778946D01*
X27425801Y34735327D01*
X27417454Y34709718D01*
X27403765Y34695097D01*
X27383411Y34684442D01*
X27382234Y34683905D01*
X27343038Y34667333D01*
X27323619Y34661231D01*
X27320635Y34679681D01*
X27318081Y34730677D01*
X27316140Y34807692D01*
X27314997Y34904195D01*
X27314769Y34974816D01*
X27315932Y35111475D01*
X27320479Y35215149D01*
X27329999Y35291892D01*
X27346081Y35347754D01*
X27370313Y35388788D01*
X27404286Y35421046D01*
X27437833Y35443560D01*
X27518499Y35473524D01*
X27612381Y35480282D01*
X27700807Y35463218D01*
X27700807Y35463218D01*
G37*
X27700807Y35463218D02*
X27724161Y35453012D01*
X27779902Y35408866D01*
X27827569Y35345033D01*
X27857048Y35276913D01*
X27861846Y35243330D01*
X27845760Y35196444D01*
X27810475Y35171635D01*
X27772644Y35156613D01*
X27755321Y35153845D01*
X27746886Y35173934D01*
X27730230Y35217649D01*
X27722923Y35237402D01*
X27681948Y35305729D01*
X27622622Y35339809D01*
X27546552Y35338761D01*
X27540918Y35337419D01*
X27500305Y35318164D01*
X27470448Y35280625D01*
X27450055Y35220191D01*
X27437836Y35132249D01*
X27432500Y35012187D01*
X27432000Y34948302D01*
X27431752Y34847597D01*
X27430126Y34778946D01*
X27425801Y34735327D01*
X27417454Y34709718D01*
X27403765Y34695097D01*
X27383411Y34684442D01*
X27382234Y34683905D01*
X27343038Y34667333D01*
X27323619Y34661231D01*
X27320635Y34679681D01*
X27318081Y34730677D01*
X27316140Y34807692D01*
X27314997Y34904195D01*
X27314769Y34974816D01*
X27315932Y35111475D01*
X27320479Y35215149D01*
X27329999Y35291892D01*
X27346081Y35347754D01*
X27370313Y35388788D01*
X27404286Y35421046D01*
X27437833Y35443560D01*
X27518499Y35473524D01*
X27612381Y35480282D01*
X27700807Y35463218D01*
G36*
X28375224Y35452162D02*
X28452528Y35401639D01*
X28489814Y35356410D01*
X28519353Y35274337D01*
X28521699Y35209393D01*
X28516385Y35122555D01*
X28316115Y35034897D01*
X28218739Y34990113D01*
X28155113Y34954087D01*
X28122029Y34922883D01*
X28116280Y34892564D01*
X28134658Y34859195D01*
X28154923Y34837077D01*
X28213889Y34801607D01*
X28278024Y34799121D01*
X28336926Y34826765D01*
X28380197Y34881680D01*
X28387936Y34901072D01*
X28425006Y34961636D01*
X28467654Y34987448D01*
X28526154Y35009529D01*
X28526154Y34925816D01*
X28520982Y34868850D01*
X28500723Y34820811D01*
X28458262Y34765654D01*
X28451951Y34758486D01*
X28404720Y34709415D01*
X28364121Y34683080D01*
X28313328Y34670965D01*
X28271220Y34666997D01*
X28195902Y34666009D01*
X28142286Y34678534D01*
X28108838Y34697131D01*
X28056268Y34738025D01*
X28019879Y34782252D01*
X27996850Y34837874D01*
X27984359Y34912953D01*
X27979587Y35015551D01*
X27979206Y35067624D01*
X27980501Y35130052D01*
X28098471Y35130052D01*
X28099839Y35096562D01*
X28103249Y35091077D01*
X28125753Y35098528D01*
X28174182Y35118247D01*
X28238908Y35146282D01*
X28252443Y35152308D01*
X28334244Y35193904D01*
X28379312Y35230462D01*
X28389217Y35264704D01*
X28365526Y35299352D01*
X28345960Y35314661D01*
X28275360Y35345279D01*
X28209280Y35340220D01*
X28153959Y35302849D01*
X28115636Y35236527D01*
X28103349Y35183884D01*
X28098471Y35130052D01*
X27980501Y35130052D01*
X27981730Y35189280D01*
X27991032Y35279290D01*
X28009460Y35344833D01*
X28039360Y35393088D01*
X28083080Y35431233D01*
X28102141Y35443560D01*
X28188726Y35475664D01*
X28283522Y35477684D01*
X28375224Y35452162D01*
X28375224Y35452162D01*
G37*
X28375224Y35452162D02*
X28452528Y35401639D01*
X28489814Y35356410D01*
X28519353Y35274337D01*
X28521699Y35209393D01*
X28516385Y35122555D01*
X28316115Y35034897D01*
X28218739Y34990113D01*
X28155113Y34954087D01*
X28122029Y34922883D01*
X28116280Y34892564D01*
X28134658Y34859195D01*
X28154923Y34837077D01*
X28213889Y34801607D01*
X28278024Y34799121D01*
X28336926Y34826765D01*
X28380197Y34881680D01*
X28387936Y34901072D01*
X28425006Y34961636D01*
X28467654Y34987448D01*
X28526154Y35009529D01*
X28526154Y34925816D01*
X28520982Y34868850D01*
X28500723Y34820811D01*
X28458262Y34765654D01*
X28451951Y34758486D01*
X28404720Y34709415D01*
X28364121Y34683080D01*
X28313328Y34670965D01*
X28271220Y34666997D01*
X28195902Y34666009D01*
X28142286Y34678534D01*
X28108838Y34697131D01*
X28056268Y34738025D01*
X28019879Y34782252D01*
X27996850Y34837874D01*
X27984359Y34912953D01*
X27979587Y35015551D01*
X27979206Y35067624D01*
X27980501Y35130052D01*
X28098471Y35130052D01*
X28099839Y35096562D01*
X28103249Y35091077D01*
X28125753Y35098528D01*
X28174182Y35118247D01*
X28238908Y35146282D01*
X28252443Y35152308D01*
X28334244Y35193904D01*
X28379312Y35230462D01*
X28389217Y35264704D01*
X28365526Y35299352D01*
X28345960Y35314661D01*
X28275360Y35345279D01*
X28209280Y35340220D01*
X28153959Y35302849D01*
X28115636Y35236527D01*
X28103349Y35183884D01*
X28098471Y35130052D01*
X27980501Y35130052D01*
X27981730Y35189280D01*
X27991032Y35279290D01*
X28009460Y35344833D01*
X28039360Y35393088D01*
X28083080Y35431233D01*
X28102141Y35443560D01*
X28188726Y35475664D01*
X28283522Y35477684D01*
X28375224Y35452162D01*
G36*
X24269878Y41812224D02*
X24375612Y41811645D01*
X24452132Y41810078D01*
X24504372Y41807028D01*
X24537263Y41802004D01*
X24555737Y41794511D01*
X24564727Y41784056D01*
X24569163Y41770147D01*
X24569594Y41768346D01*
X24576333Y41735855D01*
X24588808Y41671748D01*
X24605719Y41582849D01*
X24625771Y41475981D01*
X24647664Y41357967D01*
X24648429Y41353822D01*
X24670359Y41238169D01*
X24690877Y41135986D01*
X24708659Y41053402D01*
X24722381Y40996544D01*
X24730718Y40971542D01*
X24731116Y40971099D01*
X24755677Y40958890D01*
X24806315Y40938544D01*
X24872095Y40914455D01*
X24872461Y40914326D01*
X24955317Y40883182D01*
X25053000Y40843509D01*
X25145077Y40803619D01*
X25149434Y40801647D01*
X25299407Y40733580D01*
X25631498Y40960361D01*
X25733374Y41029496D01*
X25825657Y41091303D01*
X25903003Y41142267D01*
X25960064Y41178873D01*
X25991495Y41197606D01*
X25994479Y41198996D01*
X26017321Y41192810D01*
X26059982Y41162965D01*
X26124128Y41108053D01*
X26211421Y41026666D01*
X26300535Y40940078D01*
X26386441Y40854753D01*
X26463327Y40776892D01*
X26526564Y40711303D01*
X26571523Y40662795D01*
X26593576Y40636175D01*
X26594396Y40634805D01*
X26596834Y40616537D01*
X26587650Y40586705D01*
X26564574Y40541279D01*
X26525337Y40476230D01*
X26467670Y40387530D01*
X26390795Y40273343D01*
X26322570Y40172838D01*
X26261582Y40082697D01*
X26211356Y40008151D01*
X26175416Y39954435D01*
X26157287Y39926782D01*
X26156146Y39924905D01*
X26158359Y39898410D01*
X26175138Y39846914D01*
X26203142Y39780149D01*
X26213122Y39758828D01*
X26256672Y39663841D01*
X26303134Y39556063D01*
X26340877Y39462808D01*
X26368073Y39393594D01*
X26389675Y39340994D01*
X26402158Y39313503D01*
X26403709Y39311384D01*
X26426668Y39307876D01*
X26480786Y39298262D01*
X26558868Y39283911D01*
X26653719Y39266193D01*
X26758143Y39246475D01*
X26864944Y39226126D01*
X26966926Y39206514D01*
X27056894Y39189009D01*
X27127653Y39174978D01*
X27172006Y39165791D01*
X27182885Y39163193D01*
X27194122Y39156782D01*
X27202605Y39142303D01*
X27208714Y39114867D01*
X27212832Y39069589D01*
X27215341Y39001580D01*
X27216621Y38905953D01*
X27217054Y38777820D01*
X27217077Y38725299D01*
X27217077Y38298155D01*
X27114500Y38277909D01*
X27057431Y38266930D01*
X26972269Y38250905D01*
X26869372Y38231767D01*
X26759096Y38211449D01*
X26728615Y38205868D01*
X26626855Y38186083D01*
X26538205Y38166627D01*
X26470108Y38149303D01*
X26430004Y38135912D01*
X26423323Y38131921D01*
X26406919Y38103658D01*
X26383399Y38048891D01*
X26357316Y37978412D01*
X26352142Y37963231D01*
X26317956Y37869104D01*
X26275523Y37762899D01*
X26233997Y37667527D01*
X26233792Y37667084D01*
X26164640Y37517475D01*
X26619512Y36848383D01*
X26327500Y36555884D01*
X26239180Y36468830D01*
X26158625Y36392091D01*
X26090360Y36329763D01*
X26038908Y36285944D01*
X26008794Y36264730D01*
X26004474Y36263384D01*
X25979111Y36273984D01*
X25927358Y36303453D01*
X25854868Y36348295D01*
X25767294Y36405016D01*
X25672612Y36468538D01*
X25576516Y36533332D01*
X25490837Y36589713D01*
X25421016Y36634212D01*
X25372494Y36663361D01*
X25350782Y36673692D01*
X25324293Y36664950D01*
X25274062Y36641913D01*
X25210451Y36609369D01*
X25203708Y36605751D01*
X25118046Y36562790D01*
X25059306Y36541721D01*
X25022772Y36541497D01*
X25003731Y36561072D01*
X25003620Y36561346D01*
X24994102Y36584528D01*
X24971403Y36639559D01*
X24937282Y36722178D01*
X24893500Y36828128D01*
X24841816Y36953148D01*
X24783992Y37092980D01*
X24727991Y37228363D01*
X24666447Y37377766D01*
X24609939Y37516168D01*
X24560161Y37639327D01*
X24518806Y37742998D01*
X24487568Y37822941D01*
X24468141Y37874912D01*
X24462154Y37894308D01*
X24477168Y37916557D01*
X24516439Y37952018D01*
X24568807Y37991113D01*
X24717941Y38114755D01*
X24834511Y38256478D01*
X24917118Y38413296D01*
X24964366Y38582225D01*
X24974857Y38760278D01*
X24967231Y38842461D01*
X24925682Y39012969D01*
X24854123Y39163541D01*
X24756995Y39292691D01*
X24638734Y39398936D01*
X24503780Y39480790D01*
X24356571Y39536768D01*
X24201544Y39565385D01*
X24043139Y39565156D01*
X23885794Y39534595D01*
X23733946Y39472218D01*
X23592035Y39376540D01*
X23532803Y39322428D01*
X23419203Y39183480D01*
X23340106Y39031639D01*
X23294986Y38871333D01*
X23283316Y38706988D01*
X23304569Y38543029D01*
X23358220Y38383882D01*
X23443740Y38233975D01*
X23560605Y38097733D01*
X23691193Y37991113D01*
X23745588Y37950358D01*
X23784014Y37915282D01*
X23797846Y37894274D01*
X23790603Y37871365D01*
X23770005Y37816635D01*
X23737746Y37734328D01*
X23695521Y37628685D01*
X23645023Y37503950D01*
X23587948Y37364364D01*
X23531854Y37228330D01*
X23469967Y37078799D01*
X23412644Y36940233D01*
X23361644Y36816893D01*
X23318727Y36713036D01*
X23285653Y36632920D01*
X23264181Y36580805D01*
X23256225Y36561346D01*
X23237429Y36541577D01*
X23201074Y36541635D01*
X23142479Y36562559D01*
X23056968Y36605387D01*
X23056292Y36605751D01*
X22991907Y36638988D01*
X22939861Y36663198D01*
X22910512Y36673596D01*
X22909217Y36673692D01*
X22887124Y36663145D01*
X22838348Y36633816D01*
X22768331Y36589173D01*
X22682514Y36532686D01*
X22587388Y36468538D01*
X22490540Y36403589D01*
X22403253Y36347104D01*
X22331181Y36302579D01*
X22279977Y36273510D01*
X22255526Y36263384D01*
X22233010Y36276693D01*
X22187742Y36313888D01*
X22124244Y36370872D01*
X22047039Y36443551D01*
X21960651Y36527829D01*
X21932399Y36555984D01*
X21640287Y36848584D01*
X21862631Y37174896D01*
X21930202Y37275103D01*
X21989507Y37365037D01*
X22037217Y37439490D01*
X22070007Y37493249D01*
X22084548Y37521106D01*
X22084974Y37523088D01*
X22077308Y37549345D01*
X22056689Y37602163D01*
X22026685Y37672690D01*
X22005625Y37719907D01*
X21966248Y37810306D01*
X21929165Y37901634D01*
X21900415Y37978800D01*
X21892605Y38002308D01*
X21870417Y38065084D01*
X21848727Y38113589D01*
X21836813Y38131921D01*
X21810523Y38143141D01*
X21753142Y38159046D01*
X21672118Y38177833D01*
X21574895Y38197701D01*
X21531385Y38205868D01*
X21420896Y38226171D01*
X21314916Y38245830D01*
X21223801Y38262912D01*
X21157908Y38275482D01*
X21145500Y38277909D01*
X21042923Y38298155D01*
X21042923Y38725299D01*
X21043153Y38865754D01*
X21044099Y38972021D01*
X21046141Y39048987D01*
X21049662Y39101540D01*
X21055043Y39134567D01*
X21062666Y39152955D01*
X21072912Y39161592D01*
X21077115Y39163193D01*
X21102470Y39168873D01*
X21158484Y39180205D01*
X21237964Y39195821D01*
X21333712Y39214353D01*
X21438533Y39234431D01*
X21545232Y39254688D01*
X21646613Y39273754D01*
X21735479Y39290261D01*
X21804637Y39302841D01*
X21846889Y39310125D01*
X21856290Y39311384D01*
X21864807Y39328237D01*
X21883660Y39373130D01*
X21909324Y39437570D01*
X21919123Y39462808D01*
X21958648Y39560314D01*
X22005192Y39668041D01*
X22046877Y39758828D01*
X22077550Y39828247D01*
X22097956Y39885290D01*
X22104768Y39920223D01*
X22103682Y39924905D01*
X22089285Y39947009D01*
X22056412Y39996169D01*
X22008590Y40067152D01*
X21949348Y40154722D01*
X21882215Y40253643D01*
X21868941Y40273170D01*
X21791046Y40388860D01*
X21733787Y40476956D01*
X21694881Y40541514D01*
X21672044Y40586589D01*
X21662994Y40616237D01*
X21665448Y40634515D01*
X21665511Y40634631D01*
X21684827Y40658639D01*
X21727551Y40705053D01*
X21789051Y40769063D01*
X21864698Y40845855D01*
X21949861Y40930618D01*
X21959465Y40940078D01*
X22066790Y41044011D01*
X22149615Y41120325D01*
X22209605Y41170429D01*
X22248423Y41195730D01*
X22265520Y41198996D01*
X22290473Y41184750D01*
X22342255Y41151844D01*
X22415520Y41103792D01*
X22504920Y41044110D01*
X22605111Y40976312D01*
X22628501Y40960361D01*
X22960593Y40733580D01*
X23110565Y40801647D01*
X23201770Y40841315D01*
X23299669Y40881209D01*
X23383831Y40913017D01*
X23387538Y40914326D01*
X23453369Y40938424D01*
X23504116Y40958800D01*
X23528842Y40971064D01*
X23528884Y40971099D01*
X23536729Y40993266D01*
X23550066Y41047783D01*
X23567570Y41128520D01*
X23587917Y41229350D01*
X23609782Y41344144D01*
X23611571Y41353822D01*
X23633504Y41472096D01*
X23653640Y41579458D01*
X23670680Y41669083D01*
X23683328Y41734149D01*
X23690284Y41767832D01*
X23690406Y41768346D01*
X23694639Y41782675D01*
X23702871Y41793493D01*
X23720033Y41801294D01*
X23751058Y41806571D01*
X23800878Y41809818D01*
X23874424Y41811528D01*
X23976629Y41812193D01*
X24112425Y41812307D01*
X24130000Y41812308D01*
X24269878Y41812224D01*
X24269878Y41812224D01*
G37*
X24269878Y41812224D02*
X24375612Y41811645D01*
X24452132Y41810078D01*
X24504372Y41807028D01*
X24537263Y41802004D01*
X24555737Y41794511D01*
X24564727Y41784056D01*
X24569163Y41770147D01*
X24569594Y41768346D01*
X24576333Y41735855D01*
X24588808Y41671748D01*
X24605719Y41582849D01*
X24625771Y41475981D01*
X24647664Y41357967D01*
X24648429Y41353822D01*
X24670359Y41238169D01*
X24690877Y41135986D01*
X24708659Y41053402D01*
X24722381Y40996544D01*
X24730718Y40971542D01*
X24731116Y40971099D01*
X24755677Y40958890D01*
X24806315Y40938544D01*
X24872095Y40914455D01*
X24872461Y40914326D01*
X24955317Y40883182D01*
X25053000Y40843509D01*
X25145077Y40803619D01*
X25149434Y40801647D01*
X25299407Y40733580D01*
X25631498Y40960361D01*
X25733374Y41029496D01*
X25825657Y41091303D01*
X25903003Y41142267D01*
X25960064Y41178873D01*
X25991495Y41197606D01*
X25994479Y41198996D01*
X26017321Y41192810D01*
X26059982Y41162965D01*
X26124128Y41108053D01*
X26211421Y41026666D01*
X26300535Y40940078D01*
X26386441Y40854753D01*
X26463327Y40776892D01*
X26526564Y40711303D01*
X26571523Y40662795D01*
X26593576Y40636175D01*
X26594396Y40634805D01*
X26596834Y40616537D01*
X26587650Y40586705D01*
X26564574Y40541279D01*
X26525337Y40476230D01*
X26467670Y40387530D01*
X26390795Y40273343D01*
X26322570Y40172838D01*
X26261582Y40082697D01*
X26211356Y40008151D01*
X26175416Y39954435D01*
X26157287Y39926782D01*
X26156146Y39924905D01*
X26158359Y39898410D01*
X26175138Y39846914D01*
X26203142Y39780149D01*
X26213122Y39758828D01*
X26256672Y39663841D01*
X26303134Y39556063D01*
X26340877Y39462808D01*
X26368073Y39393594D01*
X26389675Y39340994D01*
X26402158Y39313503D01*
X26403709Y39311384D01*
X26426668Y39307876D01*
X26480786Y39298262D01*
X26558868Y39283911D01*
X26653719Y39266193D01*
X26758143Y39246475D01*
X26864944Y39226126D01*
X26966926Y39206514D01*
X27056894Y39189009D01*
X27127653Y39174978D01*
X27172006Y39165791D01*
X27182885Y39163193D01*
X27194122Y39156782D01*
X27202605Y39142303D01*
X27208714Y39114867D01*
X27212832Y39069589D01*
X27215341Y39001580D01*
X27216621Y38905953D01*
X27217054Y38777820D01*
X27217077Y38725299D01*
X27217077Y38298155D01*
X27114500Y38277909D01*
X27057431Y38266930D01*
X26972269Y38250905D01*
X26869372Y38231767D01*
X26759096Y38211449D01*
X26728615Y38205868D01*
X26626855Y38186083D01*
X26538205Y38166627D01*
X26470108Y38149303D01*
X26430004Y38135912D01*
X26423323Y38131921D01*
X26406919Y38103658D01*
X26383399Y38048891D01*
X26357316Y37978412D01*
X26352142Y37963231D01*
X26317956Y37869104D01*
X26275523Y37762899D01*
X26233997Y37667527D01*
X26233792Y37667084D01*
X26164640Y37517475D01*
X26619512Y36848383D01*
X26327500Y36555884D01*
X26239180Y36468830D01*
X26158625Y36392091D01*
X26090360Y36329763D01*
X26038908Y36285944D01*
X26008794Y36264730D01*
X26004474Y36263384D01*
X25979111Y36273984D01*
X25927358Y36303453D01*
X25854868Y36348295D01*
X25767294Y36405016D01*
X25672612Y36468538D01*
X25576516Y36533332D01*
X25490837Y36589713D01*
X25421016Y36634212D01*
X25372494Y36663361D01*
X25350782Y36673692D01*
X25324293Y36664950D01*
X25274062Y36641913D01*
X25210451Y36609369D01*
X25203708Y36605751D01*
X25118046Y36562790D01*
X25059306Y36541721D01*
X25022772Y36541497D01*
X25003731Y36561072D01*
X25003620Y36561346D01*
X24994102Y36584528D01*
X24971403Y36639559D01*
X24937282Y36722178D01*
X24893500Y36828128D01*
X24841816Y36953148D01*
X24783992Y37092980D01*
X24727991Y37228363D01*
X24666447Y37377766D01*
X24609939Y37516168D01*
X24560161Y37639327D01*
X24518806Y37742998D01*
X24487568Y37822941D01*
X24468141Y37874912D01*
X24462154Y37894308D01*
X24477168Y37916557D01*
X24516439Y37952018D01*
X24568807Y37991113D01*
X24717941Y38114755D01*
X24834511Y38256478D01*
X24917118Y38413296D01*
X24964366Y38582225D01*
X24974857Y38760278D01*
X24967231Y38842461D01*
X24925682Y39012969D01*
X24854123Y39163541D01*
X24756995Y39292691D01*
X24638734Y39398936D01*
X24503780Y39480790D01*
X24356571Y39536768D01*
X24201544Y39565385D01*
X24043139Y39565156D01*
X23885794Y39534595D01*
X23733946Y39472218D01*
X23592035Y39376540D01*
X23532803Y39322428D01*
X23419203Y39183480D01*
X23340106Y39031639D01*
X23294986Y38871333D01*
X23283316Y38706988D01*
X23304569Y38543029D01*
X23358220Y38383882D01*
X23443740Y38233975D01*
X23560605Y38097733D01*
X23691193Y37991113D01*
X23745588Y37950358D01*
X23784014Y37915282D01*
X23797846Y37894274D01*
X23790603Y37871365D01*
X23770005Y37816635D01*
X23737746Y37734328D01*
X23695521Y37628685D01*
X23645023Y37503950D01*
X23587948Y37364364D01*
X23531854Y37228330D01*
X23469967Y37078799D01*
X23412644Y36940233D01*
X23361644Y36816893D01*
X23318727Y36713036D01*
X23285653Y36632920D01*
X23264181Y36580805D01*
X23256225Y36561346D01*
X23237429Y36541577D01*
X23201074Y36541635D01*
X23142479Y36562559D01*
X23056968Y36605387D01*
X23056292Y36605751D01*
X22991907Y36638988D01*
X22939861Y36663198D01*
X22910512Y36673596D01*
X22909217Y36673692D01*
X22887124Y36663145D01*
X22838348Y36633816D01*
X22768331Y36589173D01*
X22682514Y36532686D01*
X22587388Y36468538D01*
X22490540Y36403589D01*
X22403253Y36347104D01*
X22331181Y36302579D01*
X22279977Y36273510D01*
X22255526Y36263384D01*
X22233010Y36276693D01*
X22187742Y36313888D01*
X22124244Y36370872D01*
X22047039Y36443551D01*
X21960651Y36527829D01*
X21932399Y36555984D01*
X21640287Y36848584D01*
X21862631Y37174896D01*
X21930202Y37275103D01*
X21989507Y37365037D01*
X22037217Y37439490D01*
X22070007Y37493249D01*
X22084548Y37521106D01*
X22084974Y37523088D01*
X22077308Y37549345D01*
X22056689Y37602163D01*
X22026685Y37672690D01*
X22005625Y37719907D01*
X21966248Y37810306D01*
X21929165Y37901634D01*
X21900415Y37978800D01*
X21892605Y38002308D01*
X21870417Y38065084D01*
X21848727Y38113589D01*
X21836813Y38131921D01*
X21810523Y38143141D01*
X21753142Y38159046D01*
X21672118Y38177833D01*
X21574895Y38197701D01*
X21531385Y38205868D01*
X21420896Y38226171D01*
X21314916Y38245830D01*
X21223801Y38262912D01*
X21157908Y38275482D01*
X21145500Y38277909D01*
X21042923Y38298155D01*
X21042923Y38725299D01*
X21043153Y38865754D01*
X21044099Y38972021D01*
X21046141Y39048987D01*
X21049662Y39101540D01*
X21055043Y39134567D01*
X21062666Y39152955D01*
X21072912Y39161592D01*
X21077115Y39163193D01*
X21102470Y39168873D01*
X21158484Y39180205D01*
X21237964Y39195821D01*
X21333712Y39214353D01*
X21438533Y39234431D01*
X21545232Y39254688D01*
X21646613Y39273754D01*
X21735479Y39290261D01*
X21804637Y39302841D01*
X21846889Y39310125D01*
X21856290Y39311384D01*
X21864807Y39328237D01*
X21883660Y39373130D01*
X21909324Y39437570D01*
X21919123Y39462808D01*
X21958648Y39560314D01*
X22005192Y39668041D01*
X22046877Y39758828D01*
X22077550Y39828247D01*
X22097956Y39885290D01*
X22104768Y39920223D01*
X22103682Y39924905D01*
X22089285Y39947009D01*
X22056412Y39996169D01*
X22008590Y40067152D01*
X21949348Y40154722D01*
X21882215Y40253643D01*
X21868941Y40273170D01*
X21791046Y40388860D01*
X21733787Y40476956D01*
X21694881Y40541514D01*
X21672044Y40586589D01*
X21662994Y40616237D01*
X21665448Y40634515D01*
X21665511Y40634631D01*
X21684827Y40658639D01*
X21727551Y40705053D01*
X21789051Y40769063D01*
X21864698Y40845855D01*
X21949861Y40930618D01*
X21959465Y40940078D01*
X22066790Y41044011D01*
X22149615Y41120325D01*
X22209605Y41170429D01*
X22248423Y41195730D01*
X22265520Y41198996D01*
X22290473Y41184750D01*
X22342255Y41151844D01*
X22415520Y41103792D01*
X22504920Y41044110D01*
X22605111Y40976312D01*
X22628501Y40960361D01*
X22960593Y40733580D01*
X23110565Y40801647D01*
X23201770Y40841315D01*
X23299669Y40881209D01*
X23383831Y40913017D01*
X23387538Y40914326D01*
X23453369Y40938424D01*
X23504116Y40958800D01*
X23528842Y40971064D01*
X23528884Y40971099D01*
X23536729Y40993266D01*
X23550066Y41047783D01*
X23567570Y41128520D01*
X23587917Y41229350D01*
X23609782Y41344144D01*
X23611571Y41353822D01*
X23633504Y41472096D01*
X23653640Y41579458D01*
X23670680Y41669083D01*
X23683328Y41734149D01*
X23690284Y41767832D01*
X23690406Y41768346D01*
X23694639Y41782675D01*
X23702871Y41793493D01*
X23720033Y41801294D01*
X23751058Y41806571D01*
X23800878Y41809818D01*
X23874424Y41811528D01*
X23976629Y41812193D01*
X24112425Y41812307D01*
X24130000Y41812308D01*
X24269878Y41812224D01*
D14*
X20398571Y4294286D02*
X20446190Y4437143D01*
X20493810Y4484762D01*
X20589048Y4532381D01*
X20731905Y4532381D01*
X20827143Y4484762D01*
X20874762Y4437143D01*
X20922381Y4341905D01*
X20922381Y3960952D01*
X19922381Y3960952D01*
X19922381Y4294286D01*
X19970000Y4389524D01*
X20017619Y4437143D01*
X20112857Y4484762D01*
X20208095Y4484762D01*
X20303333Y4437143D01*
X20350952Y4389524D01*
X20398571Y4294286D01*
X20398571Y3960952D01*
X19922381Y4818095D02*
X19922381Y5389524D01*
X20922381Y5103809D02*
X19922381Y5103809D01*
X20922381Y6246667D02*
X20922381Y5675238D01*
X20922381Y5960952D02*
X19922381Y5960952D01*
X20065238Y5865714D01*
X20160476Y5770476D01*
X20208095Y5675238D01*
M02*
