G04 #@! TF.FileFunction,Soldermask,Top*
%FSLAX46Y46*%
G04 Gerber Fmt 4.6, Leading zero omitted, Abs format (unit mm)*
G04 Created by KiCad (PCBNEW 4.0.5-e0-6337~49~ubuntu16.04.1) date Sat May 13 14:24:54 2017*
%MOMM*%
%LPD*%
G01*
G04 APERTURE LIST*
%ADD10C,0.100000*%
%ADD11C,2.200000*%
%ADD12R,2.200000X2.200000*%
%ADD13O,2.400000X3.400000*%
%ADD14R,3.400000X2.400000*%
%ADD15O,3.400000X2.400000*%
%ADD16C,2.398980*%
%ADD17R,2.000000X2.000000*%
%ADD18C,2.000000*%
%ADD19R,2.100000X2.100000*%
%ADD20O,2.100000X2.100000*%
G04 APERTURE END LIST*
D10*
G36*
X11144365Y57150000D02*
X12700000Y58705635D01*
X14255635Y57150000D01*
X12700000Y55594365D01*
X11144365Y57150000D01*
X11144365Y57150000D01*
G37*
D11*
X14496051Y55353949D03*
D10*
G36*
X35560000Y58705635D02*
X37115635Y57150000D01*
X35560000Y55594365D01*
X34004365Y57150000D01*
X35560000Y58705635D01*
X35560000Y58705635D01*
G37*
D11*
X33763949Y55353949D03*
D12*
X7620000Y46990000D03*
D11*
X10160000Y46990000D03*
D12*
X24130000Y62230000D03*
D11*
X24130000Y59690000D03*
D12*
X40640000Y46990000D03*
D11*
X38100000Y46990000D03*
D13*
X6350000Y6350000D03*
D14*
X8890000Y3810000D03*
D15*
X3810000Y3810000D03*
D13*
X41910000Y6350000D03*
D14*
X44450000Y3810000D03*
D15*
X39370000Y3810000D03*
D16*
X5080000Y40640000D03*
X5080000Y30480000D03*
X43180000Y40640000D03*
X43180000Y30480000D03*
X10160000Y40640000D03*
X10160000Y30480000D03*
X38100000Y40640000D03*
X38100000Y30480000D03*
D17*
X5080000Y24130000D03*
D18*
X7580000Y24130000D03*
D17*
X43180000Y24130000D03*
D18*
X40680000Y24130000D03*
D19*
X22860000Y5080000D03*
D20*
X25400000Y5080000D03*
M02*
