M48
;DRILL file {KiCad 4.0.5-e0-6337~49~ubuntu16.04.1} date Sat May 13 14:26:08 2017
;FORMAT={-:-/ absolute / metric / decimal}
FMAT,2
METRIC,TZ
T1C0.800
T2C0.900
T3C1.000
T4C1.001
%
G90
G05
M71
T1
X5.08Y24.13
X7.58Y24.13
X40.68Y24.13
X43.18Y24.13
T2
X7.62Y46.99
X10.16Y46.99
X12.7Y57.15
X14.496Y55.354
X24.13Y62.23
X24.13Y59.69
X33.764Y55.354
X35.56Y57.15
X38.1Y46.99
X40.64Y46.99
T3
X3.81Y3.81
X6.35Y6.35
X7.62Y52.07
X8.89Y3.81
X11.43Y26.67
X15.24Y24.13
X19.05Y63.5
X22.86Y5.08
X25.4Y5.08
X29.21Y63.5
X34.29Y26.67
X36.83Y24.13
X36.83Y6.35
X39.37Y60.96
X39.37Y3.81
X41.91Y6.35
X44.45Y10.16
X44.45Y3.81
T4
X5.08Y40.64
X5.08Y30.48
X10.16Y40.64
X10.16Y30.48
X38.1Y40.64
X38.1Y30.48
X43.18Y40.64
X43.18Y30.48
T0
M30
