G04 #@! TF.FileFunction,Copper,L1,Top,Signal*
%FSLAX46Y46*%
G04 Gerber Fmt 4.6, Leading zero omitted, Abs format (unit mm)*
G04 Created by KiCad (PCBNEW 4.0.5-e0-6337~49~ubuntu16.04.1) date Sat May 13 14:24:54 2017*
%MOMM*%
%LPD*%
G01*
G04 APERTURE LIST*
%ADD10C,0.100000*%
%ADD11C,1.800000*%
%ADD12R,1.800000X1.800000*%
%ADD13O,2.000000X3.000000*%
%ADD14R,3.000000X2.000000*%
%ADD15O,3.000000X2.000000*%
%ADD16C,1.998980*%
%ADD17R,1.600000X1.600000*%
%ADD18C,1.600000*%
%ADD19R,1.700000X1.700000*%
%ADD20O,1.700000X1.700000*%
%ADD21C,2.000000*%
%ADD22C,1.000000*%
%ADD23C,1.500000*%
%ADD24C,0.254000*%
G04 APERTURE END LIST*
D10*
G36*
X11427208Y57150000D02*
X12700000Y58422792D01*
X13972792Y57150000D01*
X12700000Y55877208D01*
X11427208Y57150000D01*
X11427208Y57150000D01*
G37*
D11*
X14496051Y55353949D03*
D10*
G36*
X35560000Y58422792D02*
X36832792Y57150000D01*
X35560000Y55877208D01*
X34287208Y57150000D01*
X35560000Y58422792D01*
X35560000Y58422792D01*
G37*
D11*
X33763949Y55353949D03*
D12*
X7620000Y46990000D03*
D11*
X10160000Y46990000D03*
D12*
X24130000Y62230000D03*
D11*
X24130000Y59690000D03*
D12*
X40640000Y46990000D03*
D11*
X38100000Y46990000D03*
D13*
X6350000Y6350000D03*
D14*
X8890000Y3810000D03*
D15*
X3810000Y3810000D03*
D13*
X41910000Y6350000D03*
D14*
X44450000Y3810000D03*
D15*
X39370000Y3810000D03*
D16*
X5080000Y40640000D03*
X5080000Y30480000D03*
X43180000Y40640000D03*
X43180000Y30480000D03*
X10160000Y40640000D03*
X10160000Y30480000D03*
X38100000Y40640000D03*
X38100000Y30480000D03*
D17*
X5080000Y24130000D03*
D18*
X7580000Y24130000D03*
D17*
X43180000Y24130000D03*
D18*
X40680000Y24130000D03*
D19*
X22860000Y5080000D03*
D20*
X25400000Y5080000D03*
D21*
X39370000Y60960000D03*
X29210000Y63500000D03*
X19050000Y63500000D03*
X7620000Y52070000D03*
X15240000Y24130000D03*
X36830000Y24130000D03*
X34290000Y26670000D03*
X11430000Y26670000D03*
X44450000Y10160000D03*
X36830000Y6350000D03*
D22*
X24130000Y62230000D02*
X27940000Y62230000D01*
X40640000Y59690000D02*
X40640000Y46990000D01*
X39370000Y60960000D02*
X40640000Y59690000D01*
X27940000Y62230000D02*
X29210000Y63500000D01*
X7620000Y46990000D02*
X7620000Y52070000D01*
X20320000Y62230000D02*
X24130000Y62230000D01*
X19050000Y63500000D02*
X20320000Y62230000D01*
X40640000Y46990000D02*
X43180000Y44450000D01*
X43180000Y44450000D02*
X43180000Y40640000D01*
X24130000Y59690000D02*
X18832102Y59690000D01*
X18832102Y59690000D02*
X14496051Y55353949D01*
X33763949Y55353949D02*
X33546051Y55353949D01*
X33546051Y55353949D02*
X29210000Y59690000D01*
X29210000Y59690000D02*
X24130000Y59690000D01*
X38100000Y40640000D02*
X38100000Y46990000D01*
X38100000Y46990000D02*
X38100000Y50800000D01*
X38100000Y50800000D02*
X33763949Y55136051D01*
X33763949Y55136051D02*
X33763949Y55353949D01*
X10160000Y40640000D02*
X10160000Y46990000D01*
X10160000Y46990000D02*
X14496051Y51326051D01*
X14496051Y51326051D02*
X14496051Y55353949D01*
D23*
X10160000Y40640000D02*
X16510000Y40640000D01*
X17780000Y10160000D02*
X22860000Y5080000D01*
X17780000Y39370000D02*
X17780000Y10160000D01*
X16510000Y40640000D02*
X17780000Y39370000D01*
D22*
X5080000Y40640000D02*
X3810000Y41910000D01*
X5080000Y57150000D02*
X12700000Y57150000D01*
X3810000Y55880000D02*
X5080000Y57150000D01*
X3810000Y41910000D02*
X3810000Y55880000D01*
X12700000Y57150000D02*
X12700000Y64770000D01*
X12700000Y64770000D02*
X19050000Y71120000D01*
X19050000Y71120000D02*
X30480000Y71120000D01*
X30480000Y71120000D02*
X35560000Y66040000D01*
X35560000Y66040000D02*
X35560000Y57150000D01*
X6350000Y6350000D02*
X6350000Y10160000D01*
X15240000Y19050000D02*
X15240000Y24130000D01*
X6350000Y10160000D02*
X15240000Y19050000D01*
D23*
X40680000Y24130000D02*
X36830000Y24130000D01*
X10160000Y30480000D02*
X13970000Y30480000D01*
X15240000Y29210000D02*
X15240000Y24130000D01*
X13970000Y30480000D02*
X15240000Y29210000D01*
D22*
X5080000Y24130000D02*
X5080000Y12700000D01*
X3810000Y11430000D02*
X3810000Y3810000D01*
X5080000Y12700000D02*
X3810000Y11430000D01*
D23*
X5080000Y24130000D02*
X5080000Y30480000D01*
D22*
X41910000Y6350000D02*
X41910000Y12700000D01*
X34290000Y20320000D02*
X34290000Y26670000D01*
X41910000Y12700000D02*
X34290000Y20320000D01*
D23*
X7580000Y24130000D02*
X8890000Y24130000D01*
X8890000Y24130000D02*
X11430000Y26670000D01*
X38100000Y30480000D02*
X35560000Y30480000D01*
X34290000Y29210000D02*
X34290000Y26670000D01*
X35560000Y30480000D02*
X34290000Y29210000D01*
D22*
X39370000Y3810000D02*
X36830000Y6350000D01*
X43180000Y21590000D02*
X43180000Y24130000D01*
X44450000Y20320000D02*
X43180000Y21590000D01*
X44450000Y10160000D02*
X44450000Y20320000D01*
D23*
X43180000Y24130000D02*
X43180000Y30480000D01*
D24*
G36*
X47550000Y710000D02*
X710000Y710000D01*
X710000Y3810000D01*
X1633173Y3810000D01*
X1757630Y3184313D01*
X2112053Y2653880D01*
X2642486Y2299457D01*
X3268173Y2175000D01*
X4351827Y2175000D01*
X4977514Y2299457D01*
X5507947Y2653880D01*
X5862370Y3184313D01*
X5929987Y3524250D01*
X6755000Y3524250D01*
X6755000Y2683691D01*
X6851673Y2450302D01*
X7030301Y2271673D01*
X7263690Y2175000D01*
X8604250Y2175000D01*
X8763000Y2333750D01*
X8763000Y3683000D01*
X9017000Y3683000D01*
X9017000Y2333750D01*
X9175750Y2175000D01*
X10516310Y2175000D01*
X10749699Y2271673D01*
X10928327Y2450302D01*
X11025000Y2683691D01*
X11025000Y3524250D01*
X10866250Y3683000D01*
X9017000Y3683000D01*
X8763000Y3683000D01*
X6913750Y3683000D01*
X6755000Y3524250D01*
X5929987Y3524250D01*
X5986827Y3810000D01*
X5896650Y4263350D01*
X6350000Y4173173D01*
X6755000Y4253733D01*
X6755000Y4095750D01*
X6913750Y3937000D01*
X8763000Y3937000D01*
X8763000Y5286250D01*
X9017000Y5286250D01*
X9017000Y3937000D01*
X10866250Y3937000D01*
X11025000Y4095750D01*
X11025000Y4936309D01*
X10928327Y5169698D01*
X10749699Y5348327D01*
X10516310Y5445000D01*
X9175750Y5445000D01*
X9017000Y5286250D01*
X8763000Y5286250D01*
X8604250Y5445000D01*
X7912760Y5445000D01*
X7985000Y5808173D01*
X7985000Y6891827D01*
X7860543Y7517514D01*
X7506120Y8047947D01*
X7485000Y8062059D01*
X7485000Y9689868D01*
X16042567Y18247434D01*
X16288604Y18615655D01*
X16375000Y19050000D01*
X16375000Y22952796D01*
X16395000Y22972761D01*
X16395000Y10160000D01*
X16500427Y9629983D01*
X16764308Y9235057D01*
X16800657Y9180657D01*
X21362560Y4618754D01*
X21362560Y4230000D01*
X21406838Y3994683D01*
X21545910Y3778559D01*
X21758110Y3633569D01*
X22010000Y3582560D01*
X23710000Y3582560D01*
X23945317Y3626838D01*
X24161441Y3765910D01*
X24306431Y3978110D01*
X24328301Y4086107D01*
X24633076Y3808355D01*
X25043110Y3638524D01*
X25273000Y3759845D01*
X25273000Y4953000D01*
X25527000Y4953000D01*
X25527000Y3759845D01*
X25756890Y3638524D01*
X26166924Y3808355D01*
X26595183Y4198642D01*
X26841486Y4723108D01*
X26720819Y4953000D01*
X25527000Y4953000D01*
X25273000Y4953000D01*
X25253000Y4953000D01*
X25253000Y5207000D01*
X25273000Y5207000D01*
X25273000Y6400155D01*
X25527000Y6400155D01*
X25527000Y5207000D01*
X26720819Y5207000D01*
X26841486Y5436892D01*
X26595183Y5961358D01*
X26166924Y6351645D01*
X25756890Y6521476D01*
X25527000Y6400155D01*
X25273000Y6400155D01*
X25043110Y6521476D01*
X24633076Y6351645D01*
X24330063Y6075499D01*
X24313162Y6165317D01*
X24174090Y6381441D01*
X23961890Y6526431D01*
X23710000Y6577440D01*
X23321246Y6577440D01*
X19165000Y10733686D01*
X19165000Y26346205D01*
X32654716Y26346205D01*
X32903106Y25745057D01*
X33155000Y25492722D01*
X33155000Y20320000D01*
X33241397Y19885654D01*
X33487434Y19517434D01*
X40775000Y12229868D01*
X40775000Y8062059D01*
X40753880Y8047947D01*
X40399457Y7517514D01*
X40275000Y6891827D01*
X40275000Y5808173D01*
X40365177Y5354823D01*
X39911827Y5445000D01*
X39340133Y5445000D01*
X38464975Y6320157D01*
X38465284Y6673795D01*
X38216894Y7274943D01*
X37757363Y7735278D01*
X37156648Y7984716D01*
X36506205Y7985284D01*
X35905057Y7736894D01*
X35444722Y7277363D01*
X35195284Y6676648D01*
X35194716Y6026205D01*
X35443106Y5425057D01*
X35902637Y4964722D01*
X36503352Y4715284D01*
X36859895Y4714973D01*
X37288023Y4286844D01*
X37193173Y3810000D01*
X37317630Y3184313D01*
X37672053Y2653880D01*
X38202486Y2299457D01*
X38828173Y2175000D01*
X39911827Y2175000D01*
X40537514Y2299457D01*
X41067947Y2653880D01*
X41422370Y3184313D01*
X41489987Y3524250D01*
X42315000Y3524250D01*
X42315000Y2683691D01*
X42411673Y2450302D01*
X42590301Y2271673D01*
X42823690Y2175000D01*
X44164250Y2175000D01*
X44323000Y2333750D01*
X44323000Y3683000D01*
X44577000Y3683000D01*
X44577000Y2333750D01*
X44735750Y2175000D01*
X46076310Y2175000D01*
X46309699Y2271673D01*
X46488327Y2450302D01*
X46585000Y2683691D01*
X46585000Y3524250D01*
X46426250Y3683000D01*
X44577000Y3683000D01*
X44323000Y3683000D01*
X42473750Y3683000D01*
X42315000Y3524250D01*
X41489987Y3524250D01*
X41546827Y3810000D01*
X41456650Y4263350D01*
X41910000Y4173173D01*
X42315000Y4253733D01*
X42315000Y4095750D01*
X42473750Y3937000D01*
X44323000Y3937000D01*
X44323000Y5286250D01*
X44577000Y5286250D01*
X44577000Y3937000D01*
X46426250Y3937000D01*
X46585000Y4095750D01*
X46585000Y4936309D01*
X46488327Y5169698D01*
X46309699Y5348327D01*
X46076310Y5445000D01*
X44735750Y5445000D01*
X44577000Y5286250D01*
X44323000Y5286250D01*
X44164250Y5445000D01*
X43472760Y5445000D01*
X43545000Y5808173D01*
X43545000Y6891827D01*
X43420543Y7517514D01*
X43066120Y8047947D01*
X43045000Y8062059D01*
X43045000Y9278877D01*
X43063106Y9235057D01*
X43522637Y8774722D01*
X44123352Y8525284D01*
X44773795Y8524716D01*
X45374943Y8773106D01*
X45835278Y9232637D01*
X46084716Y9833352D01*
X46085284Y10483795D01*
X45836894Y11084943D01*
X45585000Y11337278D01*
X45585000Y20320000D01*
X45498603Y20754346D01*
X45252566Y21122566D01*
X44315000Y22060132D01*
X44315000Y22790982D01*
X44431441Y22865910D01*
X44576431Y23078110D01*
X44627440Y23330000D01*
X44627440Y24930000D01*
X44583162Y25165317D01*
X44565000Y25193542D01*
X44565000Y29553298D01*
X44814206Y30153453D01*
X44814774Y30803694D01*
X44566462Y31404655D01*
X44107073Y31864846D01*
X43506547Y32114206D01*
X42856306Y32114774D01*
X42255345Y31866462D01*
X41795154Y31407073D01*
X41545794Y30806547D01*
X41545226Y30156306D01*
X41793538Y29555345D01*
X41795000Y29553880D01*
X41795000Y25198620D01*
X41783569Y25181890D01*
X41762320Y25076959D01*
X41493923Y25345824D01*
X40966691Y25564750D01*
X40395813Y25565248D01*
X40274203Y25515000D01*
X37757641Y25515000D01*
X37757363Y25515278D01*
X37156648Y25764716D01*
X36506205Y25765284D01*
X35905057Y25516894D01*
X35444722Y25057363D01*
X35425000Y25009867D01*
X35425000Y25492796D01*
X35675278Y25742637D01*
X35924716Y26343352D01*
X35925284Y26993795D01*
X35676894Y27594943D01*
X35675000Y27596840D01*
X35675000Y28636314D01*
X36133686Y29095000D01*
X37173298Y29095000D01*
X37773453Y28845794D01*
X38423694Y28845226D01*
X39024655Y29093538D01*
X39484846Y29552927D01*
X39734206Y30153453D01*
X39734774Y30803694D01*
X39486462Y31404655D01*
X39027073Y31864846D01*
X38426547Y32114206D01*
X37776306Y32114774D01*
X37175345Y31866462D01*
X37173880Y31865000D01*
X35560000Y31865000D01*
X35029983Y31759573D01*
X34580657Y31459343D01*
X33310657Y30189343D01*
X33010427Y29740017D01*
X32905000Y29210000D01*
X32905000Y27597641D01*
X32904722Y27597363D01*
X32655284Y26996648D01*
X32654716Y26346205D01*
X19165000Y26346205D01*
X19165000Y39370000D01*
X19059573Y39900017D01*
X18759343Y40349343D01*
X17489343Y41619343D01*
X17040017Y41919573D01*
X16510000Y42025000D01*
X11295000Y42025000D01*
X11295000Y45954095D01*
X11460551Y46119357D01*
X11694733Y46683330D01*
X11694939Y46919807D01*
X15298617Y50523485D01*
X15406352Y50684722D01*
X15544654Y50891705D01*
X15631051Y51326051D01*
X15631051Y54318044D01*
X15796602Y54483306D01*
X16030784Y55047279D01*
X16030990Y55283756D01*
X19302234Y58555000D01*
X23094095Y58555000D01*
X23259357Y58389449D01*
X23823330Y58155267D01*
X24433991Y58154735D01*
X24998371Y58387932D01*
X25165731Y58555000D01*
X28739868Y58555000D01*
X32228698Y55066170D01*
X32228684Y55049958D01*
X32461881Y54485578D01*
X32893306Y54053398D01*
X33457279Y53819216D01*
X33475668Y53819200D01*
X36965000Y50329868D01*
X36965000Y48025905D01*
X36799449Y47860643D01*
X36565267Y47296670D01*
X36564735Y46686009D01*
X36797932Y46121629D01*
X36965000Y45954269D01*
X36965000Y41816484D01*
X36715154Y41567073D01*
X36465794Y40966547D01*
X36465226Y40316306D01*
X36713538Y39715345D01*
X37172927Y39255154D01*
X37773453Y39005794D01*
X38423694Y39005226D01*
X39024655Y39253538D01*
X39484846Y39712927D01*
X39734206Y40313453D01*
X39734774Y40963694D01*
X39486462Y41564655D01*
X39235000Y41816556D01*
X39235000Y45702135D01*
X39275910Y45638559D01*
X39488110Y45493569D01*
X39740000Y45442560D01*
X40582308Y45442560D01*
X42045000Y43979867D01*
X42045000Y41816484D01*
X41795154Y41567073D01*
X41545794Y40966547D01*
X41545226Y40316306D01*
X41793538Y39715345D01*
X42252927Y39255154D01*
X42853453Y39005794D01*
X43503694Y39005226D01*
X44104655Y39253538D01*
X44564846Y39712927D01*
X44814206Y40313453D01*
X44814774Y40963694D01*
X44566462Y41564655D01*
X44315000Y41816556D01*
X44315000Y44450000D01*
X44228603Y44884346D01*
X43982566Y45252567D01*
X42187440Y47047692D01*
X42187440Y47890000D01*
X42143162Y48125317D01*
X42004090Y48341441D01*
X41791890Y48486431D01*
X41775000Y48489851D01*
X41775000Y59690000D01*
X41688603Y60124346D01*
X41442566Y60492566D01*
X41004975Y60930157D01*
X41005284Y61283795D01*
X40756894Y61884943D01*
X40297363Y62345278D01*
X39696648Y62594716D01*
X39046205Y62595284D01*
X38445057Y62346894D01*
X37984722Y61887363D01*
X37735284Y61286648D01*
X37734716Y60636205D01*
X37983106Y60035057D01*
X38442637Y59574722D01*
X39043352Y59325284D01*
X39399895Y59324973D01*
X39505000Y59219868D01*
X39505000Y48493222D01*
X39504683Y48493162D01*
X39288559Y48354090D01*
X39235000Y48275704D01*
X39235000Y50800000D01*
X39148603Y51234346D01*
X38902566Y51602566D01*
X35298821Y55206311D01*
X35298889Y55285001D01*
X35299894Y55284314D01*
X35551056Y55229830D01*
X35803627Y55277354D01*
X36017809Y55419399D01*
X37290601Y56692191D01*
X37425686Y56889894D01*
X37480170Y57141056D01*
X37432646Y57393627D01*
X37290601Y57607809D01*
X36695000Y58203410D01*
X36695000Y66040000D01*
X36608603Y66474346D01*
X36362566Y66842566D01*
X31282566Y71922566D01*
X30914346Y72168603D01*
X30480000Y72255000D01*
X19050000Y72255000D01*
X18615654Y72168603D01*
X18247434Y71922566D01*
X11897434Y65572566D01*
X11651397Y65204346D01*
X11565000Y64770000D01*
X11565000Y58285000D01*
X5080000Y58285000D01*
X4645654Y58198603D01*
X4277434Y57952566D01*
X3007434Y56682566D01*
X2761397Y56314346D01*
X2675000Y55880000D01*
X2675000Y41910000D01*
X2761397Y41475654D01*
X2783506Y41442566D01*
X3007434Y41107434D01*
X3445534Y40669334D01*
X3445226Y40316306D01*
X3693538Y39715345D01*
X4152927Y39255154D01*
X4753453Y39005794D01*
X5403694Y39005226D01*
X6004655Y39253538D01*
X6464846Y39712927D01*
X6714206Y40313453D01*
X6714774Y40963694D01*
X6466462Y41564655D01*
X6007073Y42024846D01*
X5406547Y42274206D01*
X5050615Y42274517D01*
X4945000Y42380132D01*
X4945000Y55409868D01*
X5550132Y56015000D01*
X11646590Y56015000D01*
X12242191Y55419399D01*
X12439894Y55284314D01*
X12691056Y55229830D01*
X12943627Y55277354D01*
X12960994Y55288872D01*
X12960786Y55049958D01*
X13193983Y54485578D01*
X13361051Y54318218D01*
X13361051Y51796183D01*
X10089929Y48525061D01*
X9856009Y48525265D01*
X9291629Y48292068D01*
X9123387Y48124120D01*
X9123162Y48125317D01*
X8984090Y48341441D01*
X8771890Y48486431D01*
X8755000Y48489851D01*
X8755000Y50892796D01*
X9005278Y51142637D01*
X9254716Y51743352D01*
X9255284Y52393795D01*
X9006894Y52994943D01*
X8547363Y53455278D01*
X7946648Y53704716D01*
X7296205Y53705284D01*
X6695057Y53456894D01*
X6234722Y52997363D01*
X5985284Y52396648D01*
X5984716Y51746205D01*
X6233106Y51145057D01*
X6485000Y50892722D01*
X6485000Y48493222D01*
X6484683Y48493162D01*
X6268559Y48354090D01*
X6123569Y48141890D01*
X6072560Y47890000D01*
X6072560Y46090000D01*
X6116838Y45854683D01*
X6255910Y45638559D01*
X6468110Y45493569D01*
X6720000Y45442560D01*
X8520000Y45442560D01*
X8755317Y45486838D01*
X8971441Y45625910D01*
X9025000Y45704296D01*
X9025000Y41816484D01*
X8775154Y41567073D01*
X8525794Y40966547D01*
X8525226Y40316306D01*
X8773538Y39715345D01*
X9232927Y39255154D01*
X9833453Y39005794D01*
X10483694Y39005226D01*
X11084655Y39253538D01*
X11086120Y39255000D01*
X15936314Y39255000D01*
X16395000Y38796314D01*
X16395000Y29926454D01*
X16219343Y30189343D01*
X14949343Y31459343D01*
X14500017Y31759573D01*
X13970000Y31865000D01*
X11086702Y31865000D01*
X10486547Y32114206D01*
X9836306Y32114774D01*
X9235345Y31866462D01*
X8775154Y31407073D01*
X8525794Y30806547D01*
X8525226Y30156306D01*
X8773538Y29555345D01*
X9232927Y29095154D01*
X9833453Y28845794D01*
X10483694Y28845226D01*
X11084655Y29093538D01*
X11086120Y29095000D01*
X13396314Y29095000D01*
X13855000Y28636314D01*
X13855000Y25057641D01*
X13854722Y25057363D01*
X13605284Y24456648D01*
X13604716Y23806205D01*
X13853106Y23205057D01*
X14105000Y22952722D01*
X14105000Y19520133D01*
X5547434Y10962566D01*
X5301397Y10594346D01*
X5215000Y10160000D01*
X5215000Y8062059D01*
X5193880Y8047947D01*
X4945000Y7675471D01*
X4945000Y10959868D01*
X5882566Y11897434D01*
X6106494Y12232566D01*
X6128603Y12265654D01*
X6215000Y12700000D01*
X6215000Y22790982D01*
X6331441Y22865910D01*
X6476431Y23078110D01*
X6497680Y23183041D01*
X6766077Y22914176D01*
X7293309Y22695250D01*
X7864187Y22694752D01*
X7985797Y22745000D01*
X8890000Y22745000D01*
X9420017Y22850427D01*
X9869343Y23150657D01*
X11753402Y25034716D01*
X11753795Y25034716D01*
X12354943Y25283106D01*
X12815278Y25742637D01*
X13064716Y26343352D01*
X13065284Y26993795D01*
X12816894Y27594943D01*
X12357363Y28055278D01*
X11756648Y28304716D01*
X11106205Y28305284D01*
X10505057Y28056894D01*
X10044722Y27597363D01*
X9795284Y26996648D01*
X9795282Y26993968D01*
X8316314Y25515000D01*
X7986502Y25515000D01*
X7866691Y25564750D01*
X7295813Y25565248D01*
X6768200Y25347243D01*
X6499417Y25078928D01*
X6483162Y25165317D01*
X6465000Y25193542D01*
X6465000Y29553298D01*
X6714206Y30153453D01*
X6714774Y30803694D01*
X6466462Y31404655D01*
X6007073Y31864846D01*
X5406547Y32114206D01*
X4756306Y32114774D01*
X4155345Y31866462D01*
X3695154Y31407073D01*
X3445794Y30806547D01*
X3445226Y30156306D01*
X3693538Y29555345D01*
X3695000Y29553880D01*
X3695000Y25198620D01*
X3683569Y25181890D01*
X3632560Y24930000D01*
X3632560Y23330000D01*
X3676838Y23094683D01*
X3815910Y22878559D01*
X3945000Y22790356D01*
X3945000Y13170132D01*
X3007434Y12232566D01*
X2761397Y11864346D01*
X2675000Y11430000D01*
X2675000Y5327010D01*
X2642486Y5320543D01*
X2112053Y4966120D01*
X1757630Y4435687D01*
X1633173Y3810000D01*
X710000Y3810000D01*
X710000Y78030000D01*
X47550000Y78030000D01*
X47550000Y710000D01*
X47550000Y710000D01*
G37*
X47550000Y710000D02*
X710000Y710000D01*
X710000Y3810000D01*
X1633173Y3810000D01*
X1757630Y3184313D01*
X2112053Y2653880D01*
X2642486Y2299457D01*
X3268173Y2175000D01*
X4351827Y2175000D01*
X4977514Y2299457D01*
X5507947Y2653880D01*
X5862370Y3184313D01*
X5929987Y3524250D01*
X6755000Y3524250D01*
X6755000Y2683691D01*
X6851673Y2450302D01*
X7030301Y2271673D01*
X7263690Y2175000D01*
X8604250Y2175000D01*
X8763000Y2333750D01*
X8763000Y3683000D01*
X9017000Y3683000D01*
X9017000Y2333750D01*
X9175750Y2175000D01*
X10516310Y2175000D01*
X10749699Y2271673D01*
X10928327Y2450302D01*
X11025000Y2683691D01*
X11025000Y3524250D01*
X10866250Y3683000D01*
X9017000Y3683000D01*
X8763000Y3683000D01*
X6913750Y3683000D01*
X6755000Y3524250D01*
X5929987Y3524250D01*
X5986827Y3810000D01*
X5896650Y4263350D01*
X6350000Y4173173D01*
X6755000Y4253733D01*
X6755000Y4095750D01*
X6913750Y3937000D01*
X8763000Y3937000D01*
X8763000Y5286250D01*
X9017000Y5286250D01*
X9017000Y3937000D01*
X10866250Y3937000D01*
X11025000Y4095750D01*
X11025000Y4936309D01*
X10928327Y5169698D01*
X10749699Y5348327D01*
X10516310Y5445000D01*
X9175750Y5445000D01*
X9017000Y5286250D01*
X8763000Y5286250D01*
X8604250Y5445000D01*
X7912760Y5445000D01*
X7985000Y5808173D01*
X7985000Y6891827D01*
X7860543Y7517514D01*
X7506120Y8047947D01*
X7485000Y8062059D01*
X7485000Y9689868D01*
X16042567Y18247434D01*
X16288604Y18615655D01*
X16375000Y19050000D01*
X16375000Y22952796D01*
X16395000Y22972761D01*
X16395000Y10160000D01*
X16500427Y9629983D01*
X16764308Y9235057D01*
X16800657Y9180657D01*
X21362560Y4618754D01*
X21362560Y4230000D01*
X21406838Y3994683D01*
X21545910Y3778559D01*
X21758110Y3633569D01*
X22010000Y3582560D01*
X23710000Y3582560D01*
X23945317Y3626838D01*
X24161441Y3765910D01*
X24306431Y3978110D01*
X24328301Y4086107D01*
X24633076Y3808355D01*
X25043110Y3638524D01*
X25273000Y3759845D01*
X25273000Y4953000D01*
X25527000Y4953000D01*
X25527000Y3759845D01*
X25756890Y3638524D01*
X26166924Y3808355D01*
X26595183Y4198642D01*
X26841486Y4723108D01*
X26720819Y4953000D01*
X25527000Y4953000D01*
X25273000Y4953000D01*
X25253000Y4953000D01*
X25253000Y5207000D01*
X25273000Y5207000D01*
X25273000Y6400155D01*
X25527000Y6400155D01*
X25527000Y5207000D01*
X26720819Y5207000D01*
X26841486Y5436892D01*
X26595183Y5961358D01*
X26166924Y6351645D01*
X25756890Y6521476D01*
X25527000Y6400155D01*
X25273000Y6400155D01*
X25043110Y6521476D01*
X24633076Y6351645D01*
X24330063Y6075499D01*
X24313162Y6165317D01*
X24174090Y6381441D01*
X23961890Y6526431D01*
X23710000Y6577440D01*
X23321246Y6577440D01*
X19165000Y10733686D01*
X19165000Y26346205D01*
X32654716Y26346205D01*
X32903106Y25745057D01*
X33155000Y25492722D01*
X33155000Y20320000D01*
X33241397Y19885654D01*
X33487434Y19517434D01*
X40775000Y12229868D01*
X40775000Y8062059D01*
X40753880Y8047947D01*
X40399457Y7517514D01*
X40275000Y6891827D01*
X40275000Y5808173D01*
X40365177Y5354823D01*
X39911827Y5445000D01*
X39340133Y5445000D01*
X38464975Y6320157D01*
X38465284Y6673795D01*
X38216894Y7274943D01*
X37757363Y7735278D01*
X37156648Y7984716D01*
X36506205Y7985284D01*
X35905057Y7736894D01*
X35444722Y7277363D01*
X35195284Y6676648D01*
X35194716Y6026205D01*
X35443106Y5425057D01*
X35902637Y4964722D01*
X36503352Y4715284D01*
X36859895Y4714973D01*
X37288023Y4286844D01*
X37193173Y3810000D01*
X37317630Y3184313D01*
X37672053Y2653880D01*
X38202486Y2299457D01*
X38828173Y2175000D01*
X39911827Y2175000D01*
X40537514Y2299457D01*
X41067947Y2653880D01*
X41422370Y3184313D01*
X41489987Y3524250D01*
X42315000Y3524250D01*
X42315000Y2683691D01*
X42411673Y2450302D01*
X42590301Y2271673D01*
X42823690Y2175000D01*
X44164250Y2175000D01*
X44323000Y2333750D01*
X44323000Y3683000D01*
X44577000Y3683000D01*
X44577000Y2333750D01*
X44735750Y2175000D01*
X46076310Y2175000D01*
X46309699Y2271673D01*
X46488327Y2450302D01*
X46585000Y2683691D01*
X46585000Y3524250D01*
X46426250Y3683000D01*
X44577000Y3683000D01*
X44323000Y3683000D01*
X42473750Y3683000D01*
X42315000Y3524250D01*
X41489987Y3524250D01*
X41546827Y3810000D01*
X41456650Y4263350D01*
X41910000Y4173173D01*
X42315000Y4253733D01*
X42315000Y4095750D01*
X42473750Y3937000D01*
X44323000Y3937000D01*
X44323000Y5286250D01*
X44577000Y5286250D01*
X44577000Y3937000D01*
X46426250Y3937000D01*
X46585000Y4095750D01*
X46585000Y4936309D01*
X46488327Y5169698D01*
X46309699Y5348327D01*
X46076310Y5445000D01*
X44735750Y5445000D01*
X44577000Y5286250D01*
X44323000Y5286250D01*
X44164250Y5445000D01*
X43472760Y5445000D01*
X43545000Y5808173D01*
X43545000Y6891827D01*
X43420543Y7517514D01*
X43066120Y8047947D01*
X43045000Y8062059D01*
X43045000Y9278877D01*
X43063106Y9235057D01*
X43522637Y8774722D01*
X44123352Y8525284D01*
X44773795Y8524716D01*
X45374943Y8773106D01*
X45835278Y9232637D01*
X46084716Y9833352D01*
X46085284Y10483795D01*
X45836894Y11084943D01*
X45585000Y11337278D01*
X45585000Y20320000D01*
X45498603Y20754346D01*
X45252566Y21122566D01*
X44315000Y22060132D01*
X44315000Y22790982D01*
X44431441Y22865910D01*
X44576431Y23078110D01*
X44627440Y23330000D01*
X44627440Y24930000D01*
X44583162Y25165317D01*
X44565000Y25193542D01*
X44565000Y29553298D01*
X44814206Y30153453D01*
X44814774Y30803694D01*
X44566462Y31404655D01*
X44107073Y31864846D01*
X43506547Y32114206D01*
X42856306Y32114774D01*
X42255345Y31866462D01*
X41795154Y31407073D01*
X41545794Y30806547D01*
X41545226Y30156306D01*
X41793538Y29555345D01*
X41795000Y29553880D01*
X41795000Y25198620D01*
X41783569Y25181890D01*
X41762320Y25076959D01*
X41493923Y25345824D01*
X40966691Y25564750D01*
X40395813Y25565248D01*
X40274203Y25515000D01*
X37757641Y25515000D01*
X37757363Y25515278D01*
X37156648Y25764716D01*
X36506205Y25765284D01*
X35905057Y25516894D01*
X35444722Y25057363D01*
X35425000Y25009867D01*
X35425000Y25492796D01*
X35675278Y25742637D01*
X35924716Y26343352D01*
X35925284Y26993795D01*
X35676894Y27594943D01*
X35675000Y27596840D01*
X35675000Y28636314D01*
X36133686Y29095000D01*
X37173298Y29095000D01*
X37773453Y28845794D01*
X38423694Y28845226D01*
X39024655Y29093538D01*
X39484846Y29552927D01*
X39734206Y30153453D01*
X39734774Y30803694D01*
X39486462Y31404655D01*
X39027073Y31864846D01*
X38426547Y32114206D01*
X37776306Y32114774D01*
X37175345Y31866462D01*
X37173880Y31865000D01*
X35560000Y31865000D01*
X35029983Y31759573D01*
X34580657Y31459343D01*
X33310657Y30189343D01*
X33010427Y29740017D01*
X32905000Y29210000D01*
X32905000Y27597641D01*
X32904722Y27597363D01*
X32655284Y26996648D01*
X32654716Y26346205D01*
X19165000Y26346205D01*
X19165000Y39370000D01*
X19059573Y39900017D01*
X18759343Y40349343D01*
X17489343Y41619343D01*
X17040017Y41919573D01*
X16510000Y42025000D01*
X11295000Y42025000D01*
X11295000Y45954095D01*
X11460551Y46119357D01*
X11694733Y46683330D01*
X11694939Y46919807D01*
X15298617Y50523485D01*
X15406352Y50684722D01*
X15544654Y50891705D01*
X15631051Y51326051D01*
X15631051Y54318044D01*
X15796602Y54483306D01*
X16030784Y55047279D01*
X16030990Y55283756D01*
X19302234Y58555000D01*
X23094095Y58555000D01*
X23259357Y58389449D01*
X23823330Y58155267D01*
X24433991Y58154735D01*
X24998371Y58387932D01*
X25165731Y58555000D01*
X28739868Y58555000D01*
X32228698Y55066170D01*
X32228684Y55049958D01*
X32461881Y54485578D01*
X32893306Y54053398D01*
X33457279Y53819216D01*
X33475668Y53819200D01*
X36965000Y50329868D01*
X36965000Y48025905D01*
X36799449Y47860643D01*
X36565267Y47296670D01*
X36564735Y46686009D01*
X36797932Y46121629D01*
X36965000Y45954269D01*
X36965000Y41816484D01*
X36715154Y41567073D01*
X36465794Y40966547D01*
X36465226Y40316306D01*
X36713538Y39715345D01*
X37172927Y39255154D01*
X37773453Y39005794D01*
X38423694Y39005226D01*
X39024655Y39253538D01*
X39484846Y39712927D01*
X39734206Y40313453D01*
X39734774Y40963694D01*
X39486462Y41564655D01*
X39235000Y41816556D01*
X39235000Y45702135D01*
X39275910Y45638559D01*
X39488110Y45493569D01*
X39740000Y45442560D01*
X40582308Y45442560D01*
X42045000Y43979867D01*
X42045000Y41816484D01*
X41795154Y41567073D01*
X41545794Y40966547D01*
X41545226Y40316306D01*
X41793538Y39715345D01*
X42252927Y39255154D01*
X42853453Y39005794D01*
X43503694Y39005226D01*
X44104655Y39253538D01*
X44564846Y39712927D01*
X44814206Y40313453D01*
X44814774Y40963694D01*
X44566462Y41564655D01*
X44315000Y41816556D01*
X44315000Y44450000D01*
X44228603Y44884346D01*
X43982566Y45252567D01*
X42187440Y47047692D01*
X42187440Y47890000D01*
X42143162Y48125317D01*
X42004090Y48341441D01*
X41791890Y48486431D01*
X41775000Y48489851D01*
X41775000Y59690000D01*
X41688603Y60124346D01*
X41442566Y60492566D01*
X41004975Y60930157D01*
X41005284Y61283795D01*
X40756894Y61884943D01*
X40297363Y62345278D01*
X39696648Y62594716D01*
X39046205Y62595284D01*
X38445057Y62346894D01*
X37984722Y61887363D01*
X37735284Y61286648D01*
X37734716Y60636205D01*
X37983106Y60035057D01*
X38442637Y59574722D01*
X39043352Y59325284D01*
X39399895Y59324973D01*
X39505000Y59219868D01*
X39505000Y48493222D01*
X39504683Y48493162D01*
X39288559Y48354090D01*
X39235000Y48275704D01*
X39235000Y50800000D01*
X39148603Y51234346D01*
X38902566Y51602566D01*
X35298821Y55206311D01*
X35298889Y55285001D01*
X35299894Y55284314D01*
X35551056Y55229830D01*
X35803627Y55277354D01*
X36017809Y55419399D01*
X37290601Y56692191D01*
X37425686Y56889894D01*
X37480170Y57141056D01*
X37432646Y57393627D01*
X37290601Y57607809D01*
X36695000Y58203410D01*
X36695000Y66040000D01*
X36608603Y66474346D01*
X36362566Y66842566D01*
X31282566Y71922566D01*
X30914346Y72168603D01*
X30480000Y72255000D01*
X19050000Y72255000D01*
X18615654Y72168603D01*
X18247434Y71922566D01*
X11897434Y65572566D01*
X11651397Y65204346D01*
X11565000Y64770000D01*
X11565000Y58285000D01*
X5080000Y58285000D01*
X4645654Y58198603D01*
X4277434Y57952566D01*
X3007434Y56682566D01*
X2761397Y56314346D01*
X2675000Y55880000D01*
X2675000Y41910000D01*
X2761397Y41475654D01*
X2783506Y41442566D01*
X3007434Y41107434D01*
X3445534Y40669334D01*
X3445226Y40316306D01*
X3693538Y39715345D01*
X4152927Y39255154D01*
X4753453Y39005794D01*
X5403694Y39005226D01*
X6004655Y39253538D01*
X6464846Y39712927D01*
X6714206Y40313453D01*
X6714774Y40963694D01*
X6466462Y41564655D01*
X6007073Y42024846D01*
X5406547Y42274206D01*
X5050615Y42274517D01*
X4945000Y42380132D01*
X4945000Y55409868D01*
X5550132Y56015000D01*
X11646590Y56015000D01*
X12242191Y55419399D01*
X12439894Y55284314D01*
X12691056Y55229830D01*
X12943627Y55277354D01*
X12960994Y55288872D01*
X12960786Y55049958D01*
X13193983Y54485578D01*
X13361051Y54318218D01*
X13361051Y51796183D01*
X10089929Y48525061D01*
X9856009Y48525265D01*
X9291629Y48292068D01*
X9123387Y48124120D01*
X9123162Y48125317D01*
X8984090Y48341441D01*
X8771890Y48486431D01*
X8755000Y48489851D01*
X8755000Y50892796D01*
X9005278Y51142637D01*
X9254716Y51743352D01*
X9255284Y52393795D01*
X9006894Y52994943D01*
X8547363Y53455278D01*
X7946648Y53704716D01*
X7296205Y53705284D01*
X6695057Y53456894D01*
X6234722Y52997363D01*
X5985284Y52396648D01*
X5984716Y51746205D01*
X6233106Y51145057D01*
X6485000Y50892722D01*
X6485000Y48493222D01*
X6484683Y48493162D01*
X6268559Y48354090D01*
X6123569Y48141890D01*
X6072560Y47890000D01*
X6072560Y46090000D01*
X6116838Y45854683D01*
X6255910Y45638559D01*
X6468110Y45493569D01*
X6720000Y45442560D01*
X8520000Y45442560D01*
X8755317Y45486838D01*
X8971441Y45625910D01*
X9025000Y45704296D01*
X9025000Y41816484D01*
X8775154Y41567073D01*
X8525794Y40966547D01*
X8525226Y40316306D01*
X8773538Y39715345D01*
X9232927Y39255154D01*
X9833453Y39005794D01*
X10483694Y39005226D01*
X11084655Y39253538D01*
X11086120Y39255000D01*
X15936314Y39255000D01*
X16395000Y38796314D01*
X16395000Y29926454D01*
X16219343Y30189343D01*
X14949343Y31459343D01*
X14500017Y31759573D01*
X13970000Y31865000D01*
X11086702Y31865000D01*
X10486547Y32114206D01*
X9836306Y32114774D01*
X9235345Y31866462D01*
X8775154Y31407073D01*
X8525794Y30806547D01*
X8525226Y30156306D01*
X8773538Y29555345D01*
X9232927Y29095154D01*
X9833453Y28845794D01*
X10483694Y28845226D01*
X11084655Y29093538D01*
X11086120Y29095000D01*
X13396314Y29095000D01*
X13855000Y28636314D01*
X13855000Y25057641D01*
X13854722Y25057363D01*
X13605284Y24456648D01*
X13604716Y23806205D01*
X13853106Y23205057D01*
X14105000Y22952722D01*
X14105000Y19520133D01*
X5547434Y10962566D01*
X5301397Y10594346D01*
X5215000Y10160000D01*
X5215000Y8062059D01*
X5193880Y8047947D01*
X4945000Y7675471D01*
X4945000Y10959868D01*
X5882566Y11897434D01*
X6106494Y12232566D01*
X6128603Y12265654D01*
X6215000Y12700000D01*
X6215000Y22790982D01*
X6331441Y22865910D01*
X6476431Y23078110D01*
X6497680Y23183041D01*
X6766077Y22914176D01*
X7293309Y22695250D01*
X7864187Y22694752D01*
X7985797Y22745000D01*
X8890000Y22745000D01*
X9420017Y22850427D01*
X9869343Y23150657D01*
X11753402Y25034716D01*
X11753795Y25034716D01*
X12354943Y25283106D01*
X12815278Y25742637D01*
X13064716Y26343352D01*
X13065284Y26993795D01*
X12816894Y27594943D01*
X12357363Y28055278D01*
X11756648Y28304716D01*
X11106205Y28305284D01*
X10505057Y28056894D01*
X10044722Y27597363D01*
X9795284Y26996648D01*
X9795282Y26993968D01*
X8316314Y25515000D01*
X7986502Y25515000D01*
X7866691Y25564750D01*
X7295813Y25565248D01*
X6768200Y25347243D01*
X6499417Y25078928D01*
X6483162Y25165317D01*
X6465000Y25193542D01*
X6465000Y29553298D01*
X6714206Y30153453D01*
X6714774Y30803694D01*
X6466462Y31404655D01*
X6007073Y31864846D01*
X5406547Y32114206D01*
X4756306Y32114774D01*
X4155345Y31866462D01*
X3695154Y31407073D01*
X3445794Y30806547D01*
X3445226Y30156306D01*
X3693538Y29555345D01*
X3695000Y29553880D01*
X3695000Y25198620D01*
X3683569Y25181890D01*
X3632560Y24930000D01*
X3632560Y23330000D01*
X3676838Y23094683D01*
X3815910Y22878559D01*
X3945000Y22790356D01*
X3945000Y13170132D01*
X3007434Y12232566D01*
X2761397Y11864346D01*
X2675000Y11430000D01*
X2675000Y5327010D01*
X2642486Y5320543D01*
X2112053Y4966120D01*
X1757630Y4435687D01*
X1633173Y3810000D01*
X710000Y3810000D01*
X710000Y78030000D01*
X47550000Y78030000D01*
X47550000Y710000D01*
M02*
