G04 #@! TF.FileFunction,Copper,L2,Bot,Signal*
%FSLAX46Y46*%
G04 Gerber Fmt 4.6, Leading zero omitted, Abs format (unit mm)*
G04 Created by KiCad (PCBNEW 4.0.5-e0-6337~49~ubuntu16.04.1) date Sat May 13 14:24:54 2017*
%MOMM*%
%LPD*%
G01*
G04 APERTURE LIST*
%ADD10C,0.100000*%
%ADD11C,1.800000*%
%ADD12R,1.800000X1.800000*%
%ADD13O,2.000000X3.000000*%
%ADD14R,3.000000X2.000000*%
%ADD15O,3.000000X2.000000*%
%ADD16C,1.998980*%
%ADD17R,1.600000X1.600000*%
%ADD18C,1.600000*%
%ADD19R,1.700000X1.700000*%
%ADD20O,1.700000X1.700000*%
%ADD21C,2.000000*%
%ADD22C,1.000000*%
%ADD23C,1.500000*%
%ADD24C,0.254000*%
G04 APERTURE END LIST*
D10*
G36*
X11427208Y57150000D02*
X12700000Y58422792D01*
X13972792Y57150000D01*
X12700000Y55877208D01*
X11427208Y57150000D01*
X11427208Y57150000D01*
G37*
D11*
X14496051Y55353949D03*
D10*
G36*
X35560000Y58422792D02*
X36832792Y57150000D01*
X35560000Y55877208D01*
X34287208Y57150000D01*
X35560000Y58422792D01*
X35560000Y58422792D01*
G37*
D11*
X33763949Y55353949D03*
D12*
X7620000Y46990000D03*
D11*
X10160000Y46990000D03*
D12*
X24130000Y62230000D03*
D11*
X24130000Y59690000D03*
D12*
X40640000Y46990000D03*
D11*
X38100000Y46990000D03*
D13*
X6350000Y6350000D03*
D14*
X8890000Y3810000D03*
D15*
X3810000Y3810000D03*
D13*
X41910000Y6350000D03*
D14*
X44450000Y3810000D03*
D15*
X39370000Y3810000D03*
D16*
X5080000Y40640000D03*
X5080000Y30480000D03*
X43180000Y40640000D03*
X43180000Y30480000D03*
X10160000Y40640000D03*
X10160000Y30480000D03*
X38100000Y40640000D03*
X38100000Y30480000D03*
D17*
X5080000Y24130000D03*
D18*
X7580000Y24130000D03*
D17*
X43180000Y24130000D03*
D18*
X40680000Y24130000D03*
D19*
X22860000Y5080000D03*
D20*
X25400000Y5080000D03*
D21*
X39370000Y60960000D03*
X29210000Y63500000D03*
X19050000Y63500000D03*
X7620000Y52070000D03*
X15240000Y24130000D03*
X36830000Y24130000D03*
X34290000Y26670000D03*
X11430000Y26670000D03*
X44450000Y10160000D03*
X36830000Y6350000D03*
D22*
X31750000Y60960000D02*
X39370000Y60960000D01*
X29210000Y63500000D02*
X31750000Y60960000D01*
X7620000Y63500000D02*
X19050000Y63500000D01*
X7620000Y52070000D02*
X7620000Y63500000D01*
D23*
X36830000Y24130000D02*
X15240000Y24130000D01*
X11430000Y26670000D02*
X34290000Y26670000D01*
D22*
X40640000Y10160000D02*
X44450000Y10160000D01*
X36830000Y6350000D02*
X40640000Y10160000D01*
D24*
G36*
X47550000Y710000D02*
X710000Y710000D01*
X710000Y3810000D01*
X1633173Y3810000D01*
X1757630Y3184313D01*
X2112053Y2653880D01*
X2642486Y2299457D01*
X3268173Y2175000D01*
X4351827Y2175000D01*
X4977514Y2299457D01*
X5507947Y2653880D01*
X5862370Y3184313D01*
X5929987Y3524250D01*
X6755000Y3524250D01*
X6755000Y2683691D01*
X6851673Y2450302D01*
X7030301Y2271673D01*
X7263690Y2175000D01*
X8604250Y2175000D01*
X8763000Y2333750D01*
X8763000Y3683000D01*
X9017000Y3683000D01*
X9017000Y2333750D01*
X9175750Y2175000D01*
X10516310Y2175000D01*
X10749699Y2271673D01*
X10928327Y2450302D01*
X11025000Y2683691D01*
X11025000Y3524250D01*
X10866250Y3683000D01*
X9017000Y3683000D01*
X8763000Y3683000D01*
X6913750Y3683000D01*
X6755000Y3524250D01*
X5929987Y3524250D01*
X5986827Y3810000D01*
X5896650Y4263350D01*
X6350000Y4173173D01*
X6755000Y4253733D01*
X6755000Y4095750D01*
X6913750Y3937000D01*
X8763000Y3937000D01*
X8763000Y5286250D01*
X9017000Y5286250D01*
X9017000Y3937000D01*
X10866250Y3937000D01*
X11025000Y4095750D01*
X11025000Y4936309D01*
X10928327Y5169698D01*
X10749699Y5348327D01*
X10516310Y5445000D01*
X9175750Y5445000D01*
X9017000Y5286250D01*
X8763000Y5286250D01*
X8604250Y5445000D01*
X7912760Y5445000D01*
X7985000Y5808173D01*
X7985000Y5930000D01*
X21362560Y5930000D01*
X21362560Y4230000D01*
X21406838Y3994683D01*
X21545910Y3778559D01*
X21758110Y3633569D01*
X22010000Y3582560D01*
X23710000Y3582560D01*
X23945317Y3626838D01*
X24161441Y3765910D01*
X24306431Y3978110D01*
X24328301Y4086107D01*
X24633076Y3808355D01*
X25043110Y3638524D01*
X25273000Y3759845D01*
X25273000Y4953000D01*
X25527000Y4953000D01*
X25527000Y3759845D01*
X25756890Y3638524D01*
X26166924Y3808355D01*
X26595183Y4198642D01*
X26841486Y4723108D01*
X26720819Y4953000D01*
X25527000Y4953000D01*
X25273000Y4953000D01*
X25253000Y4953000D01*
X25253000Y5207000D01*
X25273000Y5207000D01*
X25273000Y6400155D01*
X25527000Y6400155D01*
X25527000Y5207000D01*
X26720819Y5207000D01*
X26841486Y5436892D01*
X26595183Y5961358D01*
X26524027Y6026205D01*
X35194716Y6026205D01*
X35443106Y5425057D01*
X35902637Y4964722D01*
X36503352Y4715284D01*
X37153795Y4714716D01*
X37637659Y4914645D01*
X37317630Y4435687D01*
X37193173Y3810000D01*
X37317630Y3184313D01*
X37672053Y2653880D01*
X38202486Y2299457D01*
X38828173Y2175000D01*
X39911827Y2175000D01*
X40537514Y2299457D01*
X41067947Y2653880D01*
X41422370Y3184313D01*
X41489987Y3524250D01*
X42315000Y3524250D01*
X42315000Y2683691D01*
X42411673Y2450302D01*
X42590301Y2271673D01*
X42823690Y2175000D01*
X44164250Y2175000D01*
X44323000Y2333750D01*
X44323000Y3683000D01*
X44577000Y3683000D01*
X44577000Y2333750D01*
X44735750Y2175000D01*
X46076310Y2175000D01*
X46309699Y2271673D01*
X46488327Y2450302D01*
X46585000Y2683691D01*
X46585000Y3524250D01*
X46426250Y3683000D01*
X44577000Y3683000D01*
X44323000Y3683000D01*
X42473750Y3683000D01*
X42315000Y3524250D01*
X41489987Y3524250D01*
X41546827Y3810000D01*
X41456650Y4263350D01*
X41910000Y4173173D01*
X42315000Y4253733D01*
X42315000Y4095750D01*
X42473750Y3937000D01*
X44323000Y3937000D01*
X44323000Y5286250D01*
X44577000Y5286250D01*
X44577000Y3937000D01*
X46426250Y3937000D01*
X46585000Y4095750D01*
X46585000Y4936309D01*
X46488327Y5169698D01*
X46309699Y5348327D01*
X46076310Y5445000D01*
X44735750Y5445000D01*
X44577000Y5286250D01*
X44323000Y5286250D01*
X44164250Y5445000D01*
X43472760Y5445000D01*
X43545000Y5808173D01*
X43545000Y6891827D01*
X43420543Y7517514D01*
X43066120Y8047947D01*
X42535687Y8402370D01*
X41910000Y8526827D01*
X41284313Y8402370D01*
X40753880Y8047947D01*
X40399457Y7517514D01*
X40275000Y6891827D01*
X40275000Y5808173D01*
X40365177Y5354823D01*
X39911827Y5445000D01*
X38828173Y5445000D01*
X38202486Y5320543D01*
X37931869Y5139723D01*
X38215278Y5422637D01*
X38464716Y6023352D01*
X38465027Y6379895D01*
X41110132Y9025000D01*
X43272796Y9025000D01*
X43522637Y8774722D01*
X44123352Y8525284D01*
X44773795Y8524716D01*
X45374943Y8773106D01*
X45835278Y9232637D01*
X46084716Y9833352D01*
X46085284Y10483795D01*
X45836894Y11084943D01*
X45377363Y11545278D01*
X44776648Y11794716D01*
X44126205Y11795284D01*
X43525057Y11546894D01*
X43272722Y11295000D01*
X40640000Y11295000D01*
X40205655Y11208604D01*
X39837434Y10962566D01*
X36859843Y7984975D01*
X36506205Y7985284D01*
X35905057Y7736894D01*
X35444722Y7277363D01*
X35195284Y6676648D01*
X35194716Y6026205D01*
X26524027Y6026205D01*
X26166924Y6351645D01*
X25756890Y6521476D01*
X25527000Y6400155D01*
X25273000Y6400155D01*
X25043110Y6521476D01*
X24633076Y6351645D01*
X24330063Y6075499D01*
X24313162Y6165317D01*
X24174090Y6381441D01*
X23961890Y6526431D01*
X23710000Y6577440D01*
X22010000Y6577440D01*
X21774683Y6533162D01*
X21558559Y6394090D01*
X21413569Y6181890D01*
X21362560Y5930000D01*
X7985000Y5930000D01*
X7985000Y6891827D01*
X7860543Y7517514D01*
X7506120Y8047947D01*
X6975687Y8402370D01*
X6350000Y8526827D01*
X5724313Y8402370D01*
X5193880Y8047947D01*
X4839457Y7517514D01*
X4715000Y6891827D01*
X4715000Y5808173D01*
X4805177Y5354823D01*
X4351827Y5445000D01*
X3268173Y5445000D01*
X2642486Y5320543D01*
X2112053Y4966120D01*
X1757630Y4435687D01*
X1633173Y3810000D01*
X710000Y3810000D01*
X710000Y24930000D01*
X3632560Y24930000D01*
X3632560Y23330000D01*
X3676838Y23094683D01*
X3815910Y22878559D01*
X4028110Y22733569D01*
X4280000Y22682560D01*
X5880000Y22682560D01*
X6115317Y22726838D01*
X6331441Y22865910D01*
X6476431Y23078110D01*
X6497680Y23183041D01*
X6766077Y22914176D01*
X7293309Y22695250D01*
X7864187Y22694752D01*
X8391800Y22912757D01*
X8795824Y23316077D01*
X9014750Y23843309D01*
X9015248Y24414187D01*
X8797243Y24941800D01*
X8393923Y25345824D01*
X7866691Y25564750D01*
X7295813Y25565248D01*
X6768200Y25347243D01*
X6499417Y25078928D01*
X6483162Y25165317D01*
X6344090Y25381441D01*
X6131890Y25526431D01*
X5880000Y25577440D01*
X4280000Y25577440D01*
X4044683Y25533162D01*
X3828559Y25394090D01*
X3683569Y25181890D01*
X3632560Y24930000D01*
X710000Y24930000D01*
X710000Y26346205D01*
X9794716Y26346205D01*
X10043106Y25745057D01*
X10502637Y25284722D01*
X11103352Y25035284D01*
X11753795Y25034716D01*
X12354943Y25283106D01*
X12356840Y25285000D01*
X14082757Y25285000D01*
X13854722Y25057363D01*
X13605284Y24456648D01*
X13604716Y23806205D01*
X13853106Y23205057D01*
X14312637Y22744722D01*
X14913352Y22495284D01*
X15563795Y22494716D01*
X16164943Y22743106D01*
X16166840Y22745000D01*
X35902359Y22745000D01*
X35902637Y22744722D01*
X36503352Y22495284D01*
X37153795Y22494716D01*
X37754943Y22743106D01*
X38215278Y23202637D01*
X38464716Y23803352D01*
X38464753Y23845813D01*
X39244752Y23845813D01*
X39462757Y23318200D01*
X39866077Y22914176D01*
X40393309Y22695250D01*
X40964187Y22694752D01*
X41491800Y22912757D01*
X41760583Y23181072D01*
X41776838Y23094683D01*
X41915910Y22878559D01*
X42128110Y22733569D01*
X42380000Y22682560D01*
X43980000Y22682560D01*
X44215317Y22726838D01*
X44431441Y22865910D01*
X44576431Y23078110D01*
X44627440Y23330000D01*
X44627440Y24930000D01*
X44583162Y25165317D01*
X44444090Y25381441D01*
X44231890Y25526431D01*
X43980000Y25577440D01*
X42380000Y25577440D01*
X42144683Y25533162D01*
X41928559Y25394090D01*
X41783569Y25181890D01*
X41762320Y25076959D01*
X41493923Y25345824D01*
X40966691Y25564750D01*
X40395813Y25565248D01*
X39868200Y25347243D01*
X39464176Y24943923D01*
X39245250Y24416691D01*
X39244752Y23845813D01*
X38464753Y23845813D01*
X38465284Y24453795D01*
X38216894Y25054943D01*
X37757363Y25515278D01*
X37156648Y25764716D01*
X36506205Y25765284D01*
X35905057Y25516894D01*
X35903160Y25515000D01*
X35447243Y25515000D01*
X35675278Y25742637D01*
X35924716Y26343352D01*
X35925284Y26993795D01*
X35676894Y27594943D01*
X35217363Y28055278D01*
X34616648Y28304716D01*
X33966205Y28305284D01*
X33365057Y28056894D01*
X33363160Y28055000D01*
X12357641Y28055000D01*
X12357363Y28055278D01*
X11756648Y28304716D01*
X11106205Y28305284D01*
X10505057Y28056894D01*
X10044722Y27597363D01*
X9795284Y26996648D01*
X9794716Y26346205D01*
X710000Y26346205D01*
X710000Y30156306D01*
X3445226Y30156306D01*
X3693538Y29555345D01*
X4152927Y29095154D01*
X4753453Y28845794D01*
X5403694Y28845226D01*
X6004655Y29093538D01*
X6464846Y29552927D01*
X6714206Y30153453D01*
X6714208Y30156306D01*
X8525226Y30156306D01*
X8773538Y29555345D01*
X9232927Y29095154D01*
X9833453Y28845794D01*
X10483694Y28845226D01*
X11084655Y29093538D01*
X11544846Y29552927D01*
X11794206Y30153453D01*
X11794208Y30156306D01*
X36465226Y30156306D01*
X36713538Y29555345D01*
X37172927Y29095154D01*
X37773453Y28845794D01*
X38423694Y28845226D01*
X39024655Y29093538D01*
X39484846Y29552927D01*
X39734206Y30153453D01*
X39734208Y30156306D01*
X41545226Y30156306D01*
X41793538Y29555345D01*
X42252927Y29095154D01*
X42853453Y28845794D01*
X43503694Y28845226D01*
X44104655Y29093538D01*
X44564846Y29552927D01*
X44814206Y30153453D01*
X44814774Y30803694D01*
X44566462Y31404655D01*
X44107073Y31864846D01*
X43506547Y32114206D01*
X42856306Y32114774D01*
X42255345Y31866462D01*
X41795154Y31407073D01*
X41545794Y30806547D01*
X41545226Y30156306D01*
X39734208Y30156306D01*
X39734774Y30803694D01*
X39486462Y31404655D01*
X39027073Y31864846D01*
X38426547Y32114206D01*
X37776306Y32114774D01*
X37175345Y31866462D01*
X36715154Y31407073D01*
X36465794Y30806547D01*
X36465226Y30156306D01*
X11794208Y30156306D01*
X11794774Y30803694D01*
X11546462Y31404655D01*
X11087073Y31864846D01*
X10486547Y32114206D01*
X9836306Y32114774D01*
X9235345Y31866462D01*
X8775154Y31407073D01*
X8525794Y30806547D01*
X8525226Y30156306D01*
X6714208Y30156306D01*
X6714774Y30803694D01*
X6466462Y31404655D01*
X6007073Y31864846D01*
X5406547Y32114206D01*
X4756306Y32114774D01*
X4155345Y31866462D01*
X3695154Y31407073D01*
X3445794Y30806547D01*
X3445226Y30156306D01*
X710000Y30156306D01*
X710000Y40316306D01*
X3445226Y40316306D01*
X3693538Y39715345D01*
X4152927Y39255154D01*
X4753453Y39005794D01*
X5403694Y39005226D01*
X6004655Y39253538D01*
X6464846Y39712927D01*
X6714206Y40313453D01*
X6714208Y40316306D01*
X8525226Y40316306D01*
X8773538Y39715345D01*
X9232927Y39255154D01*
X9833453Y39005794D01*
X10483694Y39005226D01*
X11084655Y39253538D01*
X11544846Y39712927D01*
X11794206Y40313453D01*
X11794208Y40316306D01*
X36465226Y40316306D01*
X36713538Y39715345D01*
X37172927Y39255154D01*
X37773453Y39005794D01*
X38423694Y39005226D01*
X39024655Y39253538D01*
X39484846Y39712927D01*
X39734206Y40313453D01*
X39734208Y40316306D01*
X41545226Y40316306D01*
X41793538Y39715345D01*
X42252927Y39255154D01*
X42853453Y39005794D01*
X43503694Y39005226D01*
X44104655Y39253538D01*
X44564846Y39712927D01*
X44814206Y40313453D01*
X44814774Y40963694D01*
X44566462Y41564655D01*
X44107073Y42024846D01*
X43506547Y42274206D01*
X42856306Y42274774D01*
X42255345Y42026462D01*
X41795154Y41567073D01*
X41545794Y40966547D01*
X41545226Y40316306D01*
X39734208Y40316306D01*
X39734774Y40963694D01*
X39486462Y41564655D01*
X39027073Y42024846D01*
X38426547Y42274206D01*
X37776306Y42274774D01*
X37175345Y42026462D01*
X36715154Y41567073D01*
X36465794Y40966547D01*
X36465226Y40316306D01*
X11794208Y40316306D01*
X11794774Y40963694D01*
X11546462Y41564655D01*
X11087073Y42024846D01*
X10486547Y42274206D01*
X9836306Y42274774D01*
X9235345Y42026462D01*
X8775154Y41567073D01*
X8525794Y40966547D01*
X8525226Y40316306D01*
X6714208Y40316306D01*
X6714774Y40963694D01*
X6466462Y41564655D01*
X6007073Y42024846D01*
X5406547Y42274206D01*
X4756306Y42274774D01*
X4155345Y42026462D01*
X3695154Y41567073D01*
X3445794Y40966547D01*
X3445226Y40316306D01*
X710000Y40316306D01*
X710000Y47890000D01*
X6072560Y47890000D01*
X6072560Y46090000D01*
X6116838Y45854683D01*
X6255910Y45638559D01*
X6468110Y45493569D01*
X6720000Y45442560D01*
X8520000Y45442560D01*
X8755317Y45486838D01*
X8971441Y45625910D01*
X9116431Y45838110D01*
X9120567Y45858534D01*
X9289357Y45689449D01*
X9853330Y45455267D01*
X10463991Y45454735D01*
X11028371Y45687932D01*
X11460551Y46119357D01*
X11694733Y46683330D01*
X11694735Y46686009D01*
X36564735Y46686009D01*
X36797932Y46121629D01*
X37229357Y45689449D01*
X37793330Y45455267D01*
X38403991Y45454735D01*
X38968371Y45687932D01*
X39136613Y45855880D01*
X39136838Y45854683D01*
X39275910Y45638559D01*
X39488110Y45493569D01*
X39740000Y45442560D01*
X41540000Y45442560D01*
X41775317Y45486838D01*
X41991441Y45625910D01*
X42136431Y45838110D01*
X42187440Y46090000D01*
X42187440Y47890000D01*
X42143162Y48125317D01*
X42004090Y48341441D01*
X41791890Y48486431D01*
X41540000Y48537440D01*
X39740000Y48537440D01*
X39504683Y48493162D01*
X39288559Y48354090D01*
X39143569Y48141890D01*
X39139433Y48121466D01*
X38970643Y48290551D01*
X38406670Y48524733D01*
X37796009Y48525265D01*
X37231629Y48292068D01*
X36799449Y47860643D01*
X36565267Y47296670D01*
X36564735Y46686009D01*
X11694735Y46686009D01*
X11695265Y47293991D01*
X11462068Y47858371D01*
X11030643Y48290551D01*
X10466670Y48524733D01*
X9856009Y48525265D01*
X9291629Y48292068D01*
X9123387Y48124120D01*
X9123162Y48125317D01*
X8984090Y48341441D01*
X8771890Y48486431D01*
X8520000Y48537440D01*
X6720000Y48537440D01*
X6484683Y48493162D01*
X6268559Y48354090D01*
X6123569Y48141890D01*
X6072560Y47890000D01*
X710000Y47890000D01*
X710000Y51746205D01*
X5984716Y51746205D01*
X6233106Y51145057D01*
X6692637Y50684722D01*
X7293352Y50435284D01*
X7943795Y50434716D01*
X8544943Y50683106D01*
X9005278Y51142637D01*
X9254716Y51743352D01*
X9255284Y52393795D01*
X9006894Y52994943D01*
X8755000Y53247278D01*
X8755000Y57158944D01*
X10779830Y57158944D01*
X10827354Y56906373D01*
X10969399Y56692191D01*
X12242191Y55419399D01*
X12439894Y55284314D01*
X12691056Y55229830D01*
X12943627Y55277354D01*
X12960994Y55288872D01*
X12960786Y55049958D01*
X13193983Y54485578D01*
X13625408Y54053398D01*
X14189381Y53819216D01*
X14800042Y53818684D01*
X15364422Y54051881D01*
X15796602Y54483306D01*
X16030784Y55047279D01*
X16030786Y55049958D01*
X32228684Y55049958D01*
X32461881Y54485578D01*
X32893306Y54053398D01*
X33457279Y53819216D01*
X34067940Y53818684D01*
X34632320Y54051881D01*
X35064500Y54483306D01*
X35298682Y55047279D01*
X35298889Y55285001D01*
X35299894Y55284314D01*
X35551056Y55229830D01*
X35803627Y55277354D01*
X36017809Y55419399D01*
X37290601Y56692191D01*
X37425686Y56889894D01*
X37480170Y57141056D01*
X37432646Y57393627D01*
X37290601Y57607809D01*
X36017809Y58880601D01*
X35820106Y59015686D01*
X35568944Y59070170D01*
X35316373Y59022646D01*
X35102191Y58880601D01*
X33829399Y57607809D01*
X33694314Y57410106D01*
X33639830Y57158944D01*
X33687354Y56906373D01*
X33698872Y56889006D01*
X33459958Y56889214D01*
X32895578Y56656017D01*
X32463398Y56224592D01*
X32229216Y55660619D01*
X32228684Y55049958D01*
X16030786Y55049958D01*
X16031316Y55657940D01*
X15798119Y56222320D01*
X15366694Y56654500D01*
X14802721Y56888682D01*
X14564999Y56888889D01*
X14565686Y56889894D01*
X14620170Y57141056D01*
X14572646Y57393627D01*
X14430601Y57607809D01*
X13157809Y58880601D01*
X12960106Y59015686D01*
X12708944Y59070170D01*
X12456373Y59022646D01*
X12242191Y58880601D01*
X10969399Y57607809D01*
X10834314Y57410106D01*
X10779830Y57158944D01*
X8755000Y57158944D01*
X8755000Y62365000D01*
X17872796Y62365000D01*
X18122637Y62114722D01*
X18723352Y61865284D01*
X19373795Y61864716D01*
X19974943Y62113106D01*
X20435278Y62572637D01*
X20666714Y63130000D01*
X22582560Y63130000D01*
X22582560Y61330000D01*
X22626838Y61094683D01*
X22765910Y60878559D01*
X22978110Y60733569D01*
X22998534Y60729433D01*
X22829449Y60560643D01*
X22595267Y59996670D01*
X22594735Y59386009D01*
X22827932Y58821629D01*
X23259357Y58389449D01*
X23823330Y58155267D01*
X24433991Y58154735D01*
X24998371Y58387932D01*
X25430551Y58819357D01*
X25664733Y59383330D01*
X25665265Y59993991D01*
X25432068Y60558371D01*
X25264120Y60726613D01*
X25265317Y60726838D01*
X25481441Y60865910D01*
X25626431Y61078110D01*
X25677440Y61330000D01*
X25677440Y63130000D01*
X25668746Y63176205D01*
X27574716Y63176205D01*
X27823106Y62575057D01*
X28282637Y62114722D01*
X28883352Y61865284D01*
X29239895Y61864973D01*
X30947433Y60157434D01*
X31188034Y59996670D01*
X31315654Y59911397D01*
X31750000Y59825000D01*
X38192796Y59825000D01*
X38442637Y59574722D01*
X39043352Y59325284D01*
X39693795Y59324716D01*
X40294943Y59573106D01*
X40755278Y60032637D01*
X41004716Y60633352D01*
X41005284Y61283795D01*
X40756894Y61884943D01*
X40297363Y62345278D01*
X39696648Y62594716D01*
X39046205Y62595284D01*
X38445057Y62346894D01*
X38192722Y62095000D01*
X32220133Y62095000D01*
X30844975Y63470157D01*
X30845284Y63823795D01*
X30596894Y64424943D01*
X30137363Y64885278D01*
X29536648Y65134716D01*
X28886205Y65135284D01*
X28285057Y64886894D01*
X27824722Y64427363D01*
X27575284Y63826648D01*
X27574716Y63176205D01*
X25668746Y63176205D01*
X25633162Y63365317D01*
X25494090Y63581441D01*
X25281890Y63726431D01*
X25030000Y63777440D01*
X23230000Y63777440D01*
X22994683Y63733162D01*
X22778559Y63594090D01*
X22633569Y63381890D01*
X22582560Y63130000D01*
X20666714Y63130000D01*
X20684716Y63173352D01*
X20685284Y63823795D01*
X20436894Y64424943D01*
X19977363Y64885278D01*
X19376648Y65134716D01*
X18726205Y65135284D01*
X18125057Y64886894D01*
X17872722Y64635000D01*
X7620000Y64635000D01*
X7185654Y64548603D01*
X6817434Y64302566D01*
X6571397Y63934346D01*
X6485000Y63500000D01*
X6485000Y53247204D01*
X6234722Y52997363D01*
X5985284Y52396648D01*
X5984716Y51746205D01*
X710000Y51746205D01*
X710000Y78030000D01*
X47550000Y78030000D01*
X47550000Y710000D01*
X47550000Y710000D01*
G37*
X47550000Y710000D02*
X710000Y710000D01*
X710000Y3810000D01*
X1633173Y3810000D01*
X1757630Y3184313D01*
X2112053Y2653880D01*
X2642486Y2299457D01*
X3268173Y2175000D01*
X4351827Y2175000D01*
X4977514Y2299457D01*
X5507947Y2653880D01*
X5862370Y3184313D01*
X5929987Y3524250D01*
X6755000Y3524250D01*
X6755000Y2683691D01*
X6851673Y2450302D01*
X7030301Y2271673D01*
X7263690Y2175000D01*
X8604250Y2175000D01*
X8763000Y2333750D01*
X8763000Y3683000D01*
X9017000Y3683000D01*
X9017000Y2333750D01*
X9175750Y2175000D01*
X10516310Y2175000D01*
X10749699Y2271673D01*
X10928327Y2450302D01*
X11025000Y2683691D01*
X11025000Y3524250D01*
X10866250Y3683000D01*
X9017000Y3683000D01*
X8763000Y3683000D01*
X6913750Y3683000D01*
X6755000Y3524250D01*
X5929987Y3524250D01*
X5986827Y3810000D01*
X5896650Y4263350D01*
X6350000Y4173173D01*
X6755000Y4253733D01*
X6755000Y4095750D01*
X6913750Y3937000D01*
X8763000Y3937000D01*
X8763000Y5286250D01*
X9017000Y5286250D01*
X9017000Y3937000D01*
X10866250Y3937000D01*
X11025000Y4095750D01*
X11025000Y4936309D01*
X10928327Y5169698D01*
X10749699Y5348327D01*
X10516310Y5445000D01*
X9175750Y5445000D01*
X9017000Y5286250D01*
X8763000Y5286250D01*
X8604250Y5445000D01*
X7912760Y5445000D01*
X7985000Y5808173D01*
X7985000Y5930000D01*
X21362560Y5930000D01*
X21362560Y4230000D01*
X21406838Y3994683D01*
X21545910Y3778559D01*
X21758110Y3633569D01*
X22010000Y3582560D01*
X23710000Y3582560D01*
X23945317Y3626838D01*
X24161441Y3765910D01*
X24306431Y3978110D01*
X24328301Y4086107D01*
X24633076Y3808355D01*
X25043110Y3638524D01*
X25273000Y3759845D01*
X25273000Y4953000D01*
X25527000Y4953000D01*
X25527000Y3759845D01*
X25756890Y3638524D01*
X26166924Y3808355D01*
X26595183Y4198642D01*
X26841486Y4723108D01*
X26720819Y4953000D01*
X25527000Y4953000D01*
X25273000Y4953000D01*
X25253000Y4953000D01*
X25253000Y5207000D01*
X25273000Y5207000D01*
X25273000Y6400155D01*
X25527000Y6400155D01*
X25527000Y5207000D01*
X26720819Y5207000D01*
X26841486Y5436892D01*
X26595183Y5961358D01*
X26524027Y6026205D01*
X35194716Y6026205D01*
X35443106Y5425057D01*
X35902637Y4964722D01*
X36503352Y4715284D01*
X37153795Y4714716D01*
X37637659Y4914645D01*
X37317630Y4435687D01*
X37193173Y3810000D01*
X37317630Y3184313D01*
X37672053Y2653880D01*
X38202486Y2299457D01*
X38828173Y2175000D01*
X39911827Y2175000D01*
X40537514Y2299457D01*
X41067947Y2653880D01*
X41422370Y3184313D01*
X41489987Y3524250D01*
X42315000Y3524250D01*
X42315000Y2683691D01*
X42411673Y2450302D01*
X42590301Y2271673D01*
X42823690Y2175000D01*
X44164250Y2175000D01*
X44323000Y2333750D01*
X44323000Y3683000D01*
X44577000Y3683000D01*
X44577000Y2333750D01*
X44735750Y2175000D01*
X46076310Y2175000D01*
X46309699Y2271673D01*
X46488327Y2450302D01*
X46585000Y2683691D01*
X46585000Y3524250D01*
X46426250Y3683000D01*
X44577000Y3683000D01*
X44323000Y3683000D01*
X42473750Y3683000D01*
X42315000Y3524250D01*
X41489987Y3524250D01*
X41546827Y3810000D01*
X41456650Y4263350D01*
X41910000Y4173173D01*
X42315000Y4253733D01*
X42315000Y4095750D01*
X42473750Y3937000D01*
X44323000Y3937000D01*
X44323000Y5286250D01*
X44577000Y5286250D01*
X44577000Y3937000D01*
X46426250Y3937000D01*
X46585000Y4095750D01*
X46585000Y4936309D01*
X46488327Y5169698D01*
X46309699Y5348327D01*
X46076310Y5445000D01*
X44735750Y5445000D01*
X44577000Y5286250D01*
X44323000Y5286250D01*
X44164250Y5445000D01*
X43472760Y5445000D01*
X43545000Y5808173D01*
X43545000Y6891827D01*
X43420543Y7517514D01*
X43066120Y8047947D01*
X42535687Y8402370D01*
X41910000Y8526827D01*
X41284313Y8402370D01*
X40753880Y8047947D01*
X40399457Y7517514D01*
X40275000Y6891827D01*
X40275000Y5808173D01*
X40365177Y5354823D01*
X39911827Y5445000D01*
X38828173Y5445000D01*
X38202486Y5320543D01*
X37931869Y5139723D01*
X38215278Y5422637D01*
X38464716Y6023352D01*
X38465027Y6379895D01*
X41110132Y9025000D01*
X43272796Y9025000D01*
X43522637Y8774722D01*
X44123352Y8525284D01*
X44773795Y8524716D01*
X45374943Y8773106D01*
X45835278Y9232637D01*
X46084716Y9833352D01*
X46085284Y10483795D01*
X45836894Y11084943D01*
X45377363Y11545278D01*
X44776648Y11794716D01*
X44126205Y11795284D01*
X43525057Y11546894D01*
X43272722Y11295000D01*
X40640000Y11295000D01*
X40205655Y11208604D01*
X39837434Y10962566D01*
X36859843Y7984975D01*
X36506205Y7985284D01*
X35905057Y7736894D01*
X35444722Y7277363D01*
X35195284Y6676648D01*
X35194716Y6026205D01*
X26524027Y6026205D01*
X26166924Y6351645D01*
X25756890Y6521476D01*
X25527000Y6400155D01*
X25273000Y6400155D01*
X25043110Y6521476D01*
X24633076Y6351645D01*
X24330063Y6075499D01*
X24313162Y6165317D01*
X24174090Y6381441D01*
X23961890Y6526431D01*
X23710000Y6577440D01*
X22010000Y6577440D01*
X21774683Y6533162D01*
X21558559Y6394090D01*
X21413569Y6181890D01*
X21362560Y5930000D01*
X7985000Y5930000D01*
X7985000Y6891827D01*
X7860543Y7517514D01*
X7506120Y8047947D01*
X6975687Y8402370D01*
X6350000Y8526827D01*
X5724313Y8402370D01*
X5193880Y8047947D01*
X4839457Y7517514D01*
X4715000Y6891827D01*
X4715000Y5808173D01*
X4805177Y5354823D01*
X4351827Y5445000D01*
X3268173Y5445000D01*
X2642486Y5320543D01*
X2112053Y4966120D01*
X1757630Y4435687D01*
X1633173Y3810000D01*
X710000Y3810000D01*
X710000Y24930000D01*
X3632560Y24930000D01*
X3632560Y23330000D01*
X3676838Y23094683D01*
X3815910Y22878559D01*
X4028110Y22733569D01*
X4280000Y22682560D01*
X5880000Y22682560D01*
X6115317Y22726838D01*
X6331441Y22865910D01*
X6476431Y23078110D01*
X6497680Y23183041D01*
X6766077Y22914176D01*
X7293309Y22695250D01*
X7864187Y22694752D01*
X8391800Y22912757D01*
X8795824Y23316077D01*
X9014750Y23843309D01*
X9015248Y24414187D01*
X8797243Y24941800D01*
X8393923Y25345824D01*
X7866691Y25564750D01*
X7295813Y25565248D01*
X6768200Y25347243D01*
X6499417Y25078928D01*
X6483162Y25165317D01*
X6344090Y25381441D01*
X6131890Y25526431D01*
X5880000Y25577440D01*
X4280000Y25577440D01*
X4044683Y25533162D01*
X3828559Y25394090D01*
X3683569Y25181890D01*
X3632560Y24930000D01*
X710000Y24930000D01*
X710000Y26346205D01*
X9794716Y26346205D01*
X10043106Y25745057D01*
X10502637Y25284722D01*
X11103352Y25035284D01*
X11753795Y25034716D01*
X12354943Y25283106D01*
X12356840Y25285000D01*
X14082757Y25285000D01*
X13854722Y25057363D01*
X13605284Y24456648D01*
X13604716Y23806205D01*
X13853106Y23205057D01*
X14312637Y22744722D01*
X14913352Y22495284D01*
X15563795Y22494716D01*
X16164943Y22743106D01*
X16166840Y22745000D01*
X35902359Y22745000D01*
X35902637Y22744722D01*
X36503352Y22495284D01*
X37153795Y22494716D01*
X37754943Y22743106D01*
X38215278Y23202637D01*
X38464716Y23803352D01*
X38464753Y23845813D01*
X39244752Y23845813D01*
X39462757Y23318200D01*
X39866077Y22914176D01*
X40393309Y22695250D01*
X40964187Y22694752D01*
X41491800Y22912757D01*
X41760583Y23181072D01*
X41776838Y23094683D01*
X41915910Y22878559D01*
X42128110Y22733569D01*
X42380000Y22682560D01*
X43980000Y22682560D01*
X44215317Y22726838D01*
X44431441Y22865910D01*
X44576431Y23078110D01*
X44627440Y23330000D01*
X44627440Y24930000D01*
X44583162Y25165317D01*
X44444090Y25381441D01*
X44231890Y25526431D01*
X43980000Y25577440D01*
X42380000Y25577440D01*
X42144683Y25533162D01*
X41928559Y25394090D01*
X41783569Y25181890D01*
X41762320Y25076959D01*
X41493923Y25345824D01*
X40966691Y25564750D01*
X40395813Y25565248D01*
X39868200Y25347243D01*
X39464176Y24943923D01*
X39245250Y24416691D01*
X39244752Y23845813D01*
X38464753Y23845813D01*
X38465284Y24453795D01*
X38216894Y25054943D01*
X37757363Y25515278D01*
X37156648Y25764716D01*
X36506205Y25765284D01*
X35905057Y25516894D01*
X35903160Y25515000D01*
X35447243Y25515000D01*
X35675278Y25742637D01*
X35924716Y26343352D01*
X35925284Y26993795D01*
X35676894Y27594943D01*
X35217363Y28055278D01*
X34616648Y28304716D01*
X33966205Y28305284D01*
X33365057Y28056894D01*
X33363160Y28055000D01*
X12357641Y28055000D01*
X12357363Y28055278D01*
X11756648Y28304716D01*
X11106205Y28305284D01*
X10505057Y28056894D01*
X10044722Y27597363D01*
X9795284Y26996648D01*
X9794716Y26346205D01*
X710000Y26346205D01*
X710000Y30156306D01*
X3445226Y30156306D01*
X3693538Y29555345D01*
X4152927Y29095154D01*
X4753453Y28845794D01*
X5403694Y28845226D01*
X6004655Y29093538D01*
X6464846Y29552927D01*
X6714206Y30153453D01*
X6714208Y30156306D01*
X8525226Y30156306D01*
X8773538Y29555345D01*
X9232927Y29095154D01*
X9833453Y28845794D01*
X10483694Y28845226D01*
X11084655Y29093538D01*
X11544846Y29552927D01*
X11794206Y30153453D01*
X11794208Y30156306D01*
X36465226Y30156306D01*
X36713538Y29555345D01*
X37172927Y29095154D01*
X37773453Y28845794D01*
X38423694Y28845226D01*
X39024655Y29093538D01*
X39484846Y29552927D01*
X39734206Y30153453D01*
X39734208Y30156306D01*
X41545226Y30156306D01*
X41793538Y29555345D01*
X42252927Y29095154D01*
X42853453Y28845794D01*
X43503694Y28845226D01*
X44104655Y29093538D01*
X44564846Y29552927D01*
X44814206Y30153453D01*
X44814774Y30803694D01*
X44566462Y31404655D01*
X44107073Y31864846D01*
X43506547Y32114206D01*
X42856306Y32114774D01*
X42255345Y31866462D01*
X41795154Y31407073D01*
X41545794Y30806547D01*
X41545226Y30156306D01*
X39734208Y30156306D01*
X39734774Y30803694D01*
X39486462Y31404655D01*
X39027073Y31864846D01*
X38426547Y32114206D01*
X37776306Y32114774D01*
X37175345Y31866462D01*
X36715154Y31407073D01*
X36465794Y30806547D01*
X36465226Y30156306D01*
X11794208Y30156306D01*
X11794774Y30803694D01*
X11546462Y31404655D01*
X11087073Y31864846D01*
X10486547Y32114206D01*
X9836306Y32114774D01*
X9235345Y31866462D01*
X8775154Y31407073D01*
X8525794Y30806547D01*
X8525226Y30156306D01*
X6714208Y30156306D01*
X6714774Y30803694D01*
X6466462Y31404655D01*
X6007073Y31864846D01*
X5406547Y32114206D01*
X4756306Y32114774D01*
X4155345Y31866462D01*
X3695154Y31407073D01*
X3445794Y30806547D01*
X3445226Y30156306D01*
X710000Y30156306D01*
X710000Y40316306D01*
X3445226Y40316306D01*
X3693538Y39715345D01*
X4152927Y39255154D01*
X4753453Y39005794D01*
X5403694Y39005226D01*
X6004655Y39253538D01*
X6464846Y39712927D01*
X6714206Y40313453D01*
X6714208Y40316306D01*
X8525226Y40316306D01*
X8773538Y39715345D01*
X9232927Y39255154D01*
X9833453Y39005794D01*
X10483694Y39005226D01*
X11084655Y39253538D01*
X11544846Y39712927D01*
X11794206Y40313453D01*
X11794208Y40316306D01*
X36465226Y40316306D01*
X36713538Y39715345D01*
X37172927Y39255154D01*
X37773453Y39005794D01*
X38423694Y39005226D01*
X39024655Y39253538D01*
X39484846Y39712927D01*
X39734206Y40313453D01*
X39734208Y40316306D01*
X41545226Y40316306D01*
X41793538Y39715345D01*
X42252927Y39255154D01*
X42853453Y39005794D01*
X43503694Y39005226D01*
X44104655Y39253538D01*
X44564846Y39712927D01*
X44814206Y40313453D01*
X44814774Y40963694D01*
X44566462Y41564655D01*
X44107073Y42024846D01*
X43506547Y42274206D01*
X42856306Y42274774D01*
X42255345Y42026462D01*
X41795154Y41567073D01*
X41545794Y40966547D01*
X41545226Y40316306D01*
X39734208Y40316306D01*
X39734774Y40963694D01*
X39486462Y41564655D01*
X39027073Y42024846D01*
X38426547Y42274206D01*
X37776306Y42274774D01*
X37175345Y42026462D01*
X36715154Y41567073D01*
X36465794Y40966547D01*
X36465226Y40316306D01*
X11794208Y40316306D01*
X11794774Y40963694D01*
X11546462Y41564655D01*
X11087073Y42024846D01*
X10486547Y42274206D01*
X9836306Y42274774D01*
X9235345Y42026462D01*
X8775154Y41567073D01*
X8525794Y40966547D01*
X8525226Y40316306D01*
X6714208Y40316306D01*
X6714774Y40963694D01*
X6466462Y41564655D01*
X6007073Y42024846D01*
X5406547Y42274206D01*
X4756306Y42274774D01*
X4155345Y42026462D01*
X3695154Y41567073D01*
X3445794Y40966547D01*
X3445226Y40316306D01*
X710000Y40316306D01*
X710000Y47890000D01*
X6072560Y47890000D01*
X6072560Y46090000D01*
X6116838Y45854683D01*
X6255910Y45638559D01*
X6468110Y45493569D01*
X6720000Y45442560D01*
X8520000Y45442560D01*
X8755317Y45486838D01*
X8971441Y45625910D01*
X9116431Y45838110D01*
X9120567Y45858534D01*
X9289357Y45689449D01*
X9853330Y45455267D01*
X10463991Y45454735D01*
X11028371Y45687932D01*
X11460551Y46119357D01*
X11694733Y46683330D01*
X11694735Y46686009D01*
X36564735Y46686009D01*
X36797932Y46121629D01*
X37229357Y45689449D01*
X37793330Y45455267D01*
X38403991Y45454735D01*
X38968371Y45687932D01*
X39136613Y45855880D01*
X39136838Y45854683D01*
X39275910Y45638559D01*
X39488110Y45493569D01*
X39740000Y45442560D01*
X41540000Y45442560D01*
X41775317Y45486838D01*
X41991441Y45625910D01*
X42136431Y45838110D01*
X42187440Y46090000D01*
X42187440Y47890000D01*
X42143162Y48125317D01*
X42004090Y48341441D01*
X41791890Y48486431D01*
X41540000Y48537440D01*
X39740000Y48537440D01*
X39504683Y48493162D01*
X39288559Y48354090D01*
X39143569Y48141890D01*
X39139433Y48121466D01*
X38970643Y48290551D01*
X38406670Y48524733D01*
X37796009Y48525265D01*
X37231629Y48292068D01*
X36799449Y47860643D01*
X36565267Y47296670D01*
X36564735Y46686009D01*
X11694735Y46686009D01*
X11695265Y47293991D01*
X11462068Y47858371D01*
X11030643Y48290551D01*
X10466670Y48524733D01*
X9856009Y48525265D01*
X9291629Y48292068D01*
X9123387Y48124120D01*
X9123162Y48125317D01*
X8984090Y48341441D01*
X8771890Y48486431D01*
X8520000Y48537440D01*
X6720000Y48537440D01*
X6484683Y48493162D01*
X6268559Y48354090D01*
X6123569Y48141890D01*
X6072560Y47890000D01*
X710000Y47890000D01*
X710000Y51746205D01*
X5984716Y51746205D01*
X6233106Y51145057D01*
X6692637Y50684722D01*
X7293352Y50435284D01*
X7943795Y50434716D01*
X8544943Y50683106D01*
X9005278Y51142637D01*
X9254716Y51743352D01*
X9255284Y52393795D01*
X9006894Y52994943D01*
X8755000Y53247278D01*
X8755000Y57158944D01*
X10779830Y57158944D01*
X10827354Y56906373D01*
X10969399Y56692191D01*
X12242191Y55419399D01*
X12439894Y55284314D01*
X12691056Y55229830D01*
X12943627Y55277354D01*
X12960994Y55288872D01*
X12960786Y55049958D01*
X13193983Y54485578D01*
X13625408Y54053398D01*
X14189381Y53819216D01*
X14800042Y53818684D01*
X15364422Y54051881D01*
X15796602Y54483306D01*
X16030784Y55047279D01*
X16030786Y55049958D01*
X32228684Y55049958D01*
X32461881Y54485578D01*
X32893306Y54053398D01*
X33457279Y53819216D01*
X34067940Y53818684D01*
X34632320Y54051881D01*
X35064500Y54483306D01*
X35298682Y55047279D01*
X35298889Y55285001D01*
X35299894Y55284314D01*
X35551056Y55229830D01*
X35803627Y55277354D01*
X36017809Y55419399D01*
X37290601Y56692191D01*
X37425686Y56889894D01*
X37480170Y57141056D01*
X37432646Y57393627D01*
X37290601Y57607809D01*
X36017809Y58880601D01*
X35820106Y59015686D01*
X35568944Y59070170D01*
X35316373Y59022646D01*
X35102191Y58880601D01*
X33829399Y57607809D01*
X33694314Y57410106D01*
X33639830Y57158944D01*
X33687354Y56906373D01*
X33698872Y56889006D01*
X33459958Y56889214D01*
X32895578Y56656017D01*
X32463398Y56224592D01*
X32229216Y55660619D01*
X32228684Y55049958D01*
X16030786Y55049958D01*
X16031316Y55657940D01*
X15798119Y56222320D01*
X15366694Y56654500D01*
X14802721Y56888682D01*
X14564999Y56888889D01*
X14565686Y56889894D01*
X14620170Y57141056D01*
X14572646Y57393627D01*
X14430601Y57607809D01*
X13157809Y58880601D01*
X12960106Y59015686D01*
X12708944Y59070170D01*
X12456373Y59022646D01*
X12242191Y58880601D01*
X10969399Y57607809D01*
X10834314Y57410106D01*
X10779830Y57158944D01*
X8755000Y57158944D01*
X8755000Y62365000D01*
X17872796Y62365000D01*
X18122637Y62114722D01*
X18723352Y61865284D01*
X19373795Y61864716D01*
X19974943Y62113106D01*
X20435278Y62572637D01*
X20666714Y63130000D01*
X22582560Y63130000D01*
X22582560Y61330000D01*
X22626838Y61094683D01*
X22765910Y60878559D01*
X22978110Y60733569D01*
X22998534Y60729433D01*
X22829449Y60560643D01*
X22595267Y59996670D01*
X22594735Y59386009D01*
X22827932Y58821629D01*
X23259357Y58389449D01*
X23823330Y58155267D01*
X24433991Y58154735D01*
X24998371Y58387932D01*
X25430551Y58819357D01*
X25664733Y59383330D01*
X25665265Y59993991D01*
X25432068Y60558371D01*
X25264120Y60726613D01*
X25265317Y60726838D01*
X25481441Y60865910D01*
X25626431Y61078110D01*
X25677440Y61330000D01*
X25677440Y63130000D01*
X25668746Y63176205D01*
X27574716Y63176205D01*
X27823106Y62575057D01*
X28282637Y62114722D01*
X28883352Y61865284D01*
X29239895Y61864973D01*
X30947433Y60157434D01*
X31188034Y59996670D01*
X31315654Y59911397D01*
X31750000Y59825000D01*
X38192796Y59825000D01*
X38442637Y59574722D01*
X39043352Y59325284D01*
X39693795Y59324716D01*
X40294943Y59573106D01*
X40755278Y60032637D01*
X41004716Y60633352D01*
X41005284Y61283795D01*
X40756894Y61884943D01*
X40297363Y62345278D01*
X39696648Y62594716D01*
X39046205Y62595284D01*
X38445057Y62346894D01*
X38192722Y62095000D01*
X32220133Y62095000D01*
X30844975Y63470157D01*
X30845284Y63823795D01*
X30596894Y64424943D01*
X30137363Y64885278D01*
X29536648Y65134716D01*
X28886205Y65135284D01*
X28285057Y64886894D01*
X27824722Y64427363D01*
X27575284Y63826648D01*
X27574716Y63176205D01*
X25668746Y63176205D01*
X25633162Y63365317D01*
X25494090Y63581441D01*
X25281890Y63726431D01*
X25030000Y63777440D01*
X23230000Y63777440D01*
X22994683Y63733162D01*
X22778559Y63594090D01*
X22633569Y63381890D01*
X22582560Y63130000D01*
X20666714Y63130000D01*
X20684716Y63173352D01*
X20685284Y63823795D01*
X20436894Y64424943D01*
X19977363Y64885278D01*
X19376648Y65134716D01*
X18726205Y65135284D01*
X18125057Y64886894D01*
X17872722Y64635000D01*
X7620000Y64635000D01*
X7185654Y64548603D01*
X6817434Y64302566D01*
X6571397Y63934346D01*
X6485000Y63500000D01*
X6485000Y53247204D01*
X6234722Y52997363D01*
X5985284Y52396648D01*
X5984716Y51746205D01*
X710000Y51746205D01*
X710000Y78030000D01*
X47550000Y78030000D01*
X47550000Y710000D01*
M02*
